<svg width="68" height="21" viewBox="0 0 68 21" fill="none" xmlns="http://www.w3.org/2000/svg">
<path d="M46.048 1.42892C46.048 0.639751 45.383 0 44.5626 0C43.7422 0 43.0772 0.639751 43.0772 1.42892V10.9551C43.0772 11.7442 43.7422 12.384 44.5626 12.384C45.383 12.384 46.048 11.7442 46.048 10.9551V1.42892Z" fill="#002664"/>
<path d="M33.1744 1.42892C33.1744 0.639751 32.5093 0 31.6889 0C30.8686 0 30.2035 0.639751 30.2035 1.42892V10.9551C30.2035 11.7442 30.8686 12.384 31.6889 12.384C32.5093 12.384 33.1744 11.7442 33.1744 10.9551V1.42892Z" fill="#002664"/>
<path d="M20.3007 6.66831H24.2618C25.0838 6.66831 25.7473 6.03006 25.7473 5.23938C25.7473 4.44871 25.0838 3.81046 24.2618 3.81046H19.8056C18.1667 3.81046 16.8348 5.09173 16.8348 6.66831V9.52615C16.8348 11.1027 18.1667 12.384 19.8056 12.384H28.223C29.0449 12.384 29.7084 11.7457 29.7084 10.9551C29.7084 10.1644 29.0449 9.52615 28.223 9.52615H20.3007C20.0284 9.52615 19.8056 9.31182 19.8056 9.04985V7.14462C19.8056 6.88265 20.0284 6.66831 20.3007 6.66831Z" fill="#002664"/>
<path d="M29.7084 5.23938C29.7084 4.45021 29.0433 3.81046 28.223 3.81046C27.4026 3.81046 26.7375 4.45021 26.7375 5.23938C26.7375 6.02856 27.4026 6.66831 28.223 6.66831C29.0433 6.66831 29.7084 6.02856 29.7084 5.23938Z" fill="#002664"/>
<path d="M36.6502 3.81046C35.0113 3.81046 33.6794 5.09173 33.6794 6.66831V10.9551C33.6794 11.7457 34.3429 12.384 35.1648 12.384C35.9868 12.384 36.6502 11.7457 36.6502 10.9551V7.14462C36.6502 6.88265 36.8731 6.66831 37.1454 6.66831H41.1065C41.9284 6.66831 42.5919 6.03006 42.5919 5.23938C42.5919 4.44871 41.9284 3.81046 41.1065 3.81046H36.6502Z" fill="#002664"/>
<path d="M41.1065 7.62092H39.1259C38.3056 7.62092 37.6405 8.26067 37.6405 9.04985C37.6405 9.83902 38.3056 10.4788 39.1259 10.4788H41.1065C41.9269 10.4788 42.5919 9.83902 42.5919 9.04985C42.5919 8.26067 41.9269 7.62092 41.1065 7.62092Z" fill="#002664"/>
<path d="M7.437 5.23938C7.437 6.03006 8.10049 6.66831 8.92242 6.66831H12.8835C13.1559 6.66831 13.3787 6.88265 13.3787 7.14462V9.04985C13.3787 9.31182 13.1559 9.52615 12.8835 9.52615H6.94186C6.66953 9.52615 6.44672 9.31182 6.44672 9.04985V1.42892C6.44672 0.638252 5.78323 0 4.9613 0C4.13937 0 3.47588 0.638252 3.47588 1.42892V9.52615C3.47588 11.1027 4.80781 12.384 6.44672 12.384H13.3787C15.0176 12.384 16.3495 11.1027 16.3495 9.52615V6.66831C16.3495 5.09173 15.0176 3.81046 13.3787 3.81046H8.92242C8.10049 3.81046 7.437 4.44871 7.437 5.23938Z" fill="#002664"/>
<path d="M14.8641 0H8.92242C8.10204 0 7.437 0.639751 7.437 1.42892C7.437 2.2181 8.10204 2.85785 8.92242 2.85785H14.8641C15.6845 2.85785 16.3495 2.2181 16.3495 1.42892C16.3495 0.639751 15.6845 0 14.8641 0Z" fill="#002664"/>
<path d="M0 10.9551C0 11.7442 0.665045 12.384 1.48542 12.384C2.30579 12.384 2.97084 11.7442 2.97084 10.9551V5.23938C2.97084 4.45021 2.30579 3.81046 1.48542 3.81046C0.665045 3.81046 0 4.45021 0 5.23938V10.9551Z" fill="#002664"/>
<path d="M48.4492 2.38095C48.4492 1.06599 49.5148 0 50.8292 0H61.3012C62.6157 0 63.6812 1.06599 63.6812 2.38095C63.6812 3.69592 62.6157 4.7619 61.3012 4.7619H50.8292C49.5148 4.7619 48.4492 3.69592 48.4492 2.38095Z" fill="#BB133E"/>
<path d="M48.4492 10C48.4492 8.68504 49.5148 7.61905 50.8292 7.61905H57.4932C58.8077 7.61905 59.8732 8.68504 59.8732 10C59.8732 11.315 58.8077 12.381 57.4932 12.381H50.8292C49.5148 12.381 48.4492 11.315 48.4492 10Z" fill="#BB133E"/>
<path d="M48.4492 17.619C48.4492 16.3041 49.5148 15.2381 50.8292 15.2381H65.1092C66.4237 15.2381 67.4892 16.3041 67.4892 17.619C67.4892 18.934 66.4237 20 65.1092 20H50.8292C49.5148 20 48.4492 18.934 48.4492 17.619Z" fill="#BB133E"/>
<mask id="path-3-outside-1_9184_85917" maskUnits="userSpaceOnUse" x="-0.722656" y="14.4141" width="47" height="6" fill="black">
<rect fill="white" x="-0.722656" y="14.4141" width="47" height="6"/>
<path d="M0.670464 15.4141C0.778624 15.4141 0.872224 15.4536 0.951264 15.5326C1.0303 15.6117 1.06982 15.7053 1.06982 15.8134V19.4701C1.06982 19.5824 1.0303 19.6781 0.951264 19.7571C0.872224 19.832 0.778624 19.8694 0.670464 19.8694C0.562304 19.8694 0.468704 19.832 0.389664 19.7571C0.314784 19.6781 0.277344 19.5824 0.277344 19.4701V15.8134C0.277344 15.7053 0.314784 15.6117 0.389664 15.5326C0.468704 15.4536 0.562304 15.4141 0.670464 15.4141Z"/>
<path d="M7.3323 19.0769C7.44046 19.0769 7.53406 19.1165 7.6131 19.1955C7.69214 19.2704 7.73166 19.3619 7.73166 19.4701C7.73166 19.5824 7.69214 19.6781 7.6131 19.7571C7.53406 19.832 7.44046 19.8694 7.3323 19.8694H6.69582C6.57518 19.8694 6.47742 19.8278 6.40254 19.7446L5.19198 18.4342H3.48222V19.4701C3.48222 19.5824 3.4427 19.6781 3.36366 19.7571C3.28462 19.832 3.19102 19.8694 3.08286 19.8694C2.9747 19.8694 2.8811 19.832 2.80206 19.7571C2.72718 19.6781 2.68974 19.5824 2.68974 19.4701V18.0349C2.68974 17.9267 2.72718 17.8331 2.80206 17.7541C2.8811 17.675 2.9747 17.6355 3.08286 17.6355H5.8659C5.96574 17.6355 6.05726 17.6168 6.14046 17.5793C6.22782 17.5419 6.30478 17.492 6.37134 17.4296C6.4379 17.363 6.4899 17.2881 6.52734 17.2049C6.56478 17.1176 6.5835 17.024 6.5835 16.9241C6.5835 16.8243 6.56478 16.7328 6.52734 16.6496C6.4899 16.5622 6.4379 16.4853 6.37134 16.4187C6.30478 16.3521 6.22782 16.3001 6.14046 16.2627C6.05726 16.2253 5.96574 16.2065 5.8659 16.2065H3.08286C2.9747 16.2065 2.8811 16.1691 2.80206 16.0942C2.72718 16.0152 2.68974 15.9216 2.68974 15.8134C2.68974 15.7053 2.72718 15.6117 2.80206 15.5326C2.8811 15.4536 2.9747 15.4141 3.08286 15.4141H5.8659C6.06974 15.4141 6.2611 15.4536 6.43998 15.5326C6.62302 15.6075 6.78734 15.7157 6.93294 15.8571C7.2283 16.1525 7.37598 16.5081 7.37598 16.9241C7.37598 17.3401 7.2283 17.6958 6.93294 17.9912C6.73326 18.1909 6.5003 18.3219 6.23406 18.3843L6.87054 19.0769H7.3323Z"/>
<path d="M14.4316 19.3078C14.4774 19.4077 14.4795 19.5096 14.4379 19.6136C14.4004 19.7134 14.3318 19.7862 14.2319 19.832C14.182 19.8569 14.1279 19.8694 14.0697 19.8694C13.9948 19.8694 13.9241 19.8486 13.8575 19.807C13.791 19.7654 13.7411 19.7093 13.7078 19.6385L12.3225 16.5872C12.2684 16.4707 12.1873 16.3792 12.0791 16.3126C11.971 16.2461 11.8545 16.2128 11.7297 16.2128C11.6007 16.2128 11.4822 16.2461 11.374 16.3126C11.27 16.3792 11.191 16.4707 11.1369 16.5872L9.74537 19.6385C9.69961 19.7384 9.62473 19.807 9.52073 19.8445C9.42089 19.8819 9.32105 19.8777 9.22121 19.832C9.12137 19.7862 9.05273 19.7134 9.01529 19.6136C8.97785 19.5096 8.98201 19.4077 9.02777 19.3078L10.4131 16.2627C10.5337 16.0048 10.7105 15.7989 10.9435 15.6449C11.1806 15.491 11.4427 15.4141 11.7297 15.4141C12.0126 15.4141 12.2726 15.491 12.5097 15.6449C12.7468 15.7989 12.9236 16.0048 13.0401 16.2627L14.4316 19.3078ZM11.7297 17.7229C11.8295 17.7229 11.9211 17.7416 12.0043 17.779C12.0916 17.8165 12.1665 17.8685 12.2289 17.935C12.2955 17.9974 12.3475 18.0723 12.3849 18.1597C12.4223 18.2429 12.4411 18.3344 12.4411 18.4342C12.4411 18.5341 12.4223 18.6277 12.3849 18.715C12.3475 18.7982 12.2955 18.8731 12.2289 18.9397C12.1665 19.0021 12.0916 19.052 12.0043 19.0894C11.9211 19.1269 11.8295 19.1456 11.7297 19.1456C11.6299 19.1456 11.5363 19.1269 11.4489 19.0894C11.3657 19.052 11.2908 19.0021 11.2243 18.9397C11.1619 18.8731 11.1119 18.7982 11.0745 18.715C11.0371 18.6277 11.0183 18.5341 11.0183 18.4342C11.0183 18.3344 11.0371 18.2429 11.0745 18.1597C11.1119 18.0723 11.1619 17.9974 11.2243 17.935C11.2908 17.8685 11.3657 17.8165 11.4489 17.779C11.5363 17.7416 11.6299 17.7229 11.7297 17.7229Z"/>
<path d="M20.1378 15.4141C20.246 15.4141 20.3375 15.4536 20.4124 15.5326C20.4914 15.6117 20.5309 15.7053 20.5309 15.8134V19.4701C20.5309 19.5533 20.508 19.6281 20.4623 19.6947C20.4207 19.7571 20.3645 19.8049 20.2938 19.8382C20.2397 19.859 20.1877 19.8694 20.1378 19.8694C20.0338 19.8694 19.9423 19.8341 19.8632 19.7633L16.6372 16.7307V19.4701C16.6372 19.5824 16.5976 19.6781 16.5186 19.7571C16.4437 19.832 16.3522 19.8694 16.244 19.8694C16.1359 19.8694 16.0423 19.832 15.9632 19.7571C15.8842 19.6781 15.8447 19.5824 15.8447 19.4701V15.8134C15.8447 15.7344 15.8655 15.6637 15.9071 15.6013C15.9528 15.5347 16.0132 15.4848 16.088 15.4515C16.1588 15.4182 16.2316 15.4078 16.3064 15.4203C16.3855 15.4328 16.4541 15.4681 16.5124 15.5264L19.7384 18.5528V15.8134C19.7384 15.7053 19.7759 15.6117 19.8508 15.5326C19.9298 15.4536 20.0255 15.4141 20.1378 15.4141Z"/>
<path d="M26.4379 15.4141C26.546 15.4141 26.6396 15.4536 26.7187 15.5326C26.7977 15.6117 26.8372 15.7053 26.8372 15.8134C26.8372 15.9216 26.7977 16.0152 26.7187 16.0942C26.6396 16.1691 26.546 16.2065 26.4379 16.2065H22.5441C22.4359 16.2065 22.3423 16.1691 22.2633 16.0942C22.1884 16.0152 22.151 15.9216 22.151 15.8134C22.151 15.7053 22.1884 15.6117 22.2633 15.5326C22.3423 15.4536 22.4359 15.4141 22.5441 15.4141H26.4379ZM26.4379 19.0769C26.546 19.0769 26.6396 19.1165 26.7187 19.1955C26.7977 19.2704 26.8372 19.3619 26.8372 19.4701C26.8372 19.5824 26.7977 19.6781 26.7187 19.7571C26.6396 19.832 26.546 19.8694 26.4379 19.8694H22.5441C22.4359 19.8694 22.3423 19.832 22.2633 19.7571C22.1884 19.6781 22.151 19.5824 22.151 19.4701C22.151 19.3619 22.1884 19.2704 22.2633 19.1955C22.3423 19.1165 22.4359 19.0769 22.5441 19.0769H26.4379ZM26.4379 17.2486C26.546 17.2486 26.6396 17.2881 26.7187 17.3672C26.7977 17.4421 26.8372 17.5336 26.8372 17.6417C26.8372 17.7499 26.7977 17.8435 26.7187 17.9225C26.6396 18.0016 26.546 18.0411 26.4379 18.0411H22.5441C22.4359 18.0411 22.3423 18.0016 22.2633 17.9225C22.1884 17.8435 22.151 17.7499 22.151 17.6417C22.151 17.5336 22.1884 17.4421 22.2633 17.3672C22.3423 17.2881 22.4359 17.2486 22.5441 17.2486H26.4379Z"/>
<path d="M30.6348 16.2065C30.3852 16.2065 30.1585 16.2398 29.9546 16.3064C29.755 16.3729 29.5844 16.4686 29.443 16.5934C29.3015 16.7182 29.1913 16.8701 29.1122 17.0489C29.0374 17.2237 28.9999 17.4213 28.9999 17.6417C28.9999 17.8622 29.0374 18.0619 29.1122 18.2408C29.1913 18.4155 29.3015 18.5653 29.443 18.6901C29.5844 18.8149 29.755 18.9105 29.9546 18.9771C30.1585 19.0437 30.3852 19.0769 30.6348 19.0769H30.9468C31.4751 19.0769 31.8849 18.9376 32.1761 18.6589C32.2593 18.584 32.355 18.5465 32.4631 18.5465C32.5713 18.5465 32.6628 18.5881 32.7377 18.6713C32.8126 18.7504 32.85 18.844 32.85 18.9521C32.85 19.0603 32.8084 19.1539 32.7252 19.2329C32.2801 19.6573 31.6873 19.8694 30.9468 19.8694H30.6348C30.2646 19.8694 29.9276 19.8153 29.6239 19.7072C29.3244 19.5949 29.0644 19.4326 28.8439 19.2205C28.6359 19.0166 28.4778 18.7774 28.3697 18.5029C28.2615 18.2283 28.2074 17.9413 28.2074 17.6417C28.2074 17.3381 28.2615 17.0531 28.3697 16.7869C28.4737 16.5165 28.6318 16.2752 28.8439 16.063C29.0644 15.8509 29.3244 15.6907 29.6239 15.5825C29.9276 15.4702 30.2646 15.4141 30.6348 15.4141H30.9468C31.317 15.4141 31.6519 15.4702 31.9514 15.5825C32.2551 15.6907 32.5172 15.8509 32.7377 16.063C32.8167 16.1421 32.8562 16.2357 32.8562 16.3438C32.8562 16.452 32.8188 16.5456 32.7439 16.6246C32.669 16.7037 32.5754 16.7453 32.4631 16.7494C32.355 16.7494 32.2614 16.7099 32.1823 16.6309C31.887 16.348 31.4751 16.2065 30.9468 16.2065H30.6348Z"/>
<path d="M39.4253 19.3078C39.471 19.4077 39.4731 19.5096 39.4315 19.6136C39.3941 19.7134 39.3254 19.7862 39.2256 19.832C39.1757 19.8569 39.1216 19.8694 39.0633 19.8694C38.9885 19.8694 38.9177 19.8486 38.8512 19.807C38.7846 19.7654 38.7347 19.7093 38.7014 19.6385L37.3161 16.5872C37.2621 16.4707 37.1809 16.3792 37.0728 16.3126C36.9646 16.2461 36.8481 16.2128 36.7233 16.2128C36.5944 16.2128 36.4758 16.2461 36.3677 16.3126C36.2637 16.3792 36.1846 16.4707 36.1305 16.5872L34.739 19.6385C34.6933 19.7384 34.6184 19.807 34.5144 19.8445C34.4145 19.8819 34.3147 19.8777 34.2149 19.832C34.115 19.7862 34.0464 19.7134 34.0089 19.6136C33.9715 19.5096 33.9757 19.4077 34.0214 19.3078L35.4067 16.2627C35.5273 16.0048 35.7041 15.7989 35.9371 15.6449C36.1742 15.491 36.4363 15.4141 36.7233 15.4141C37.0062 15.4141 37.2662 15.491 37.5033 15.6449C37.7405 15.7989 37.9173 16.0048 38.0337 16.2627L39.4253 19.3078ZM36.7233 17.7229C36.8232 17.7229 36.9147 17.7416 36.9979 17.779C37.0853 17.8165 37.1601 17.8685 37.2225 17.935C37.2891 17.9974 37.3411 18.0723 37.3785 18.1597C37.416 18.2429 37.4347 18.3344 37.4347 18.4342C37.4347 18.5341 37.416 18.6277 37.3785 18.715C37.3411 18.7982 37.2891 18.8731 37.2225 18.9397C37.1601 19.0021 37.0853 19.052 36.9979 19.0894C36.9147 19.1269 36.8232 19.1456 36.7233 19.1456C36.6235 19.1456 36.5299 19.1269 36.4425 19.0894C36.3593 19.052 36.2845 19.0021 36.2179 18.9397C36.1555 18.8731 36.1056 18.7982 36.0681 18.715C36.0307 18.6277 36.012 18.5341 36.012 18.4342C36.012 18.3344 36.0307 18.2429 36.0681 18.1597C36.1056 18.0723 36.1555 17.9974 36.2179 17.935C36.2845 17.8685 36.3593 17.8165 36.4425 17.779C36.5299 17.7416 36.6235 17.7229 36.7233 17.7229Z"/>
<path d="M45.4809 19.0769C45.589 19.0769 45.6826 19.1165 45.7617 19.1955C45.8407 19.2704 45.8802 19.3619 45.8802 19.4701C45.8802 19.5824 45.8407 19.6781 45.7617 19.7571C45.6826 19.832 45.589 19.8694 45.4809 19.8694H44.8444C44.7238 19.8694 44.626 19.8278 44.5511 19.7446L43.3406 18.4342H41.6308V19.4701C41.6308 19.5824 41.5913 19.6781 41.5122 19.7571C41.4332 19.832 41.3396 19.8694 41.2314 19.8694C41.1233 19.8694 41.0297 19.832 40.9506 19.7571C40.8758 19.6781 40.8383 19.5824 40.8383 19.4701V18.0349C40.8383 17.9267 40.8758 17.8331 40.9506 17.7541C41.0297 17.675 41.1233 17.6355 41.2314 17.6355H44.0145C44.1143 17.6355 44.2058 17.6168 44.289 17.5793C44.3764 17.5419 44.4534 17.492 44.5199 17.4296C44.5865 17.363 44.6385 17.2881 44.6759 17.2049C44.7134 17.1176 44.7321 17.024 44.7321 16.9241C44.7321 16.8243 44.7134 16.7328 44.6759 16.6496C44.6385 16.5622 44.5865 16.4853 44.5199 16.4187C44.4534 16.3521 44.3764 16.3001 44.289 16.2627C44.2058 16.2253 44.1143 16.2065 44.0145 16.2065H41.2314C41.1233 16.2065 41.0297 16.1691 40.9506 16.0942C40.8758 16.0152 40.8383 15.9216 40.8383 15.8134C40.8383 15.7053 40.8758 15.6117 40.9506 15.5326C41.0297 15.4536 41.1233 15.4141 41.2314 15.4141H44.0145C44.2183 15.4141 44.4097 15.4536 44.5886 15.5326C44.7716 15.6075 44.9359 15.7157 45.0815 15.8571C45.3769 16.1525 45.5246 16.5081 45.5246 16.9241C45.5246 17.3401 45.3769 17.6958 45.0815 17.9912C44.8818 18.1909 44.6489 18.3219 44.3826 18.3843L45.0191 19.0769H45.4809Z"/>
</mask>
<path d="M0.670464 15.4141C0.778624 15.4141 0.872224 15.4536 0.951264 15.5326C1.0303 15.6117 1.06982 15.7053 1.06982 15.8134V19.4701C1.06982 19.5824 1.0303 19.6781 0.951264 19.7571C0.872224 19.832 0.778624 19.8694 0.670464 19.8694C0.562304 19.8694 0.468704 19.832 0.389664 19.7571C0.314784 19.6781 0.277344 19.5824 0.277344 19.4701V15.8134C0.277344 15.7053 0.314784 15.6117 0.389664 15.5326C0.468704 15.4536 0.562304 15.4141 0.670464 15.4141Z" fill="#002664"/>
<path d="M7.3323 19.0769C7.44046 19.0769 7.53406 19.1165 7.6131 19.1955C7.69214 19.2704 7.73166 19.3619 7.73166 19.4701C7.73166 19.5824 7.69214 19.6781 7.6131 19.7571C7.53406 19.832 7.44046 19.8694 7.3323 19.8694H6.69582C6.57518 19.8694 6.47742 19.8278 6.40254 19.7446L5.19198 18.4342H3.48222V19.4701C3.48222 19.5824 3.4427 19.6781 3.36366 19.7571C3.28462 19.832 3.19102 19.8694 3.08286 19.8694C2.9747 19.8694 2.8811 19.832 2.80206 19.7571C2.72718 19.6781 2.68974 19.5824 2.68974 19.4701V18.0349C2.68974 17.9267 2.72718 17.8331 2.80206 17.7541C2.8811 17.675 2.9747 17.6355 3.08286 17.6355H5.8659C5.96574 17.6355 6.05726 17.6168 6.14046 17.5793C6.22782 17.5419 6.30478 17.492 6.37134 17.4296C6.4379 17.363 6.4899 17.2881 6.52734 17.2049C6.56478 17.1176 6.5835 17.024 6.5835 16.9241C6.5835 16.8243 6.56478 16.7328 6.52734 16.6496C6.4899 16.5622 6.4379 16.4853 6.37134 16.4187C6.30478 16.3521 6.22782 16.3001 6.14046 16.2627C6.05726 16.2253 5.96574 16.2065 5.8659 16.2065H3.08286C2.9747 16.2065 2.8811 16.1691 2.80206 16.0942C2.72718 16.0152 2.68974 15.9216 2.68974 15.8134C2.68974 15.7053 2.72718 15.6117 2.80206 15.5326C2.8811 15.4536 2.9747 15.4141 3.08286 15.4141H5.8659C6.06974 15.4141 6.2611 15.4536 6.43998 15.5326C6.62302 15.6075 6.78734 15.7157 6.93294 15.8571C7.2283 16.1525 7.37598 16.5081 7.37598 16.9241C7.37598 17.3401 7.2283 17.6958 6.93294 17.9912C6.73326 18.1909 6.5003 18.3219 6.23406 18.3843L6.87054 19.0769H7.3323Z" fill="#002664"/>
<path d="M14.4316 19.3078C14.4774 19.4077 14.4795 19.5096 14.4379 19.6136C14.4004 19.7134 14.3318 19.7862 14.2319 19.832C14.182 19.8569 14.1279 19.8694 14.0697 19.8694C13.9948 19.8694 13.9241 19.8486 13.8575 19.807C13.791 19.7654 13.7411 19.7093 13.7078 19.6385L12.3225 16.5872C12.2684 16.4707 12.1873 16.3792 12.0791 16.3126C11.971 16.2461 11.8545 16.2128 11.7297 16.2128C11.6007 16.2128 11.4822 16.2461 11.374 16.3126C11.27 16.3792 11.191 16.4707 11.1369 16.5872L9.74537 19.6385C9.69961 19.7384 9.62473 19.807 9.52073 19.8445C9.42089 19.8819 9.32105 19.8777 9.22121 19.832C9.12137 19.7862 9.05273 19.7134 9.01529 19.6136C8.97785 19.5096 8.98201 19.4077 9.02777 19.3078L10.4131 16.2627C10.5337 16.0048 10.7105 15.7989 10.9435 15.6449C11.1806 15.491 11.4427 15.4141 11.7297 15.4141C12.0126 15.4141 12.2726 15.491 12.5097 15.6449C12.7468 15.7989 12.9236 16.0048 13.0401 16.2627L14.4316 19.3078ZM11.7297 17.7229C11.8295 17.7229 11.9211 17.7416 12.0043 17.779C12.0916 17.8165 12.1665 17.8685 12.2289 17.935C12.2955 17.9974 12.3475 18.0723 12.3849 18.1597C12.4223 18.2429 12.4411 18.3344 12.4411 18.4342C12.4411 18.5341 12.4223 18.6277 12.3849 18.715C12.3475 18.7982 12.2955 18.8731 12.2289 18.9397C12.1665 19.0021 12.0916 19.052 12.0043 19.0894C11.9211 19.1269 11.8295 19.1456 11.7297 19.1456C11.6299 19.1456 11.5363 19.1269 11.4489 19.0894C11.3657 19.052 11.2908 19.0021 11.2243 18.9397C11.1619 18.8731 11.1119 18.7982 11.0745 18.715C11.0371 18.6277 11.0183 18.5341 11.0183 18.4342C11.0183 18.3344 11.0371 18.2429 11.0745 18.1597C11.1119 18.0723 11.1619 17.9974 11.2243 17.935C11.2908 17.8685 11.3657 17.8165 11.4489 17.779C11.5363 17.7416 11.6299 17.7229 11.7297 17.7229Z" fill="#002664"/>
<path d="M20.1378 15.4141C20.246 15.4141 20.3375 15.4536 20.4124 15.5326C20.4914 15.6117 20.5309 15.7053 20.5309 15.8134V19.4701C20.5309 19.5533 20.508 19.6281 20.4623 19.6947C20.4207 19.7571 20.3645 19.8049 20.2938 19.8382C20.2397 19.859 20.1877 19.8694 20.1378 19.8694C20.0338 19.8694 19.9423 19.8341 19.8632 19.7633L16.6372 16.7307V19.4701C16.6372 19.5824 16.5976 19.6781 16.5186 19.7571C16.4437 19.832 16.3522 19.8694 16.244 19.8694C16.1359 19.8694 16.0423 19.832 15.9632 19.7571C15.8842 19.6781 15.8447 19.5824 15.8447 19.4701V15.8134C15.8447 15.7344 15.8655 15.6637 15.9071 15.6013C15.9528 15.5347 16.0132 15.4848 16.088 15.4515C16.1588 15.4182 16.2316 15.4078 16.3064 15.4203C16.3855 15.4328 16.4541 15.4681 16.5124 15.5264L19.7384 18.5528V15.8134C19.7384 15.7053 19.7759 15.6117 19.8508 15.5326C19.9298 15.4536 20.0255 15.4141 20.1378 15.4141Z" fill="#002664"/>
<path d="M26.4379 15.4141C26.546 15.4141 26.6396 15.4536 26.7187 15.5326C26.7977 15.6117 26.8372 15.7053 26.8372 15.8134C26.8372 15.9216 26.7977 16.0152 26.7187 16.0942C26.6396 16.1691 26.546 16.2065 26.4379 16.2065H22.5441C22.4359 16.2065 22.3423 16.1691 22.2633 16.0942C22.1884 16.0152 22.151 15.9216 22.151 15.8134C22.151 15.7053 22.1884 15.6117 22.2633 15.5326C22.3423 15.4536 22.4359 15.4141 22.5441 15.4141H26.4379ZM26.4379 19.0769C26.546 19.0769 26.6396 19.1165 26.7187 19.1955C26.7977 19.2704 26.8372 19.3619 26.8372 19.4701C26.8372 19.5824 26.7977 19.6781 26.7187 19.7571C26.6396 19.832 26.546 19.8694 26.4379 19.8694H22.5441C22.4359 19.8694 22.3423 19.832 22.2633 19.7571C22.1884 19.6781 22.151 19.5824 22.151 19.4701C22.151 19.3619 22.1884 19.2704 22.2633 19.1955C22.3423 19.1165 22.4359 19.0769 22.5441 19.0769H26.4379ZM26.4379 17.2486C26.546 17.2486 26.6396 17.2881 26.7187 17.3672C26.7977 17.4421 26.8372 17.5336 26.8372 17.6417C26.8372 17.7499 26.7977 17.8435 26.7187 17.9225C26.6396 18.0016 26.546 18.0411 26.4379 18.0411H22.5441C22.4359 18.0411 22.3423 18.0016 22.2633 17.9225C22.1884 17.8435 22.151 17.7499 22.151 17.6417C22.151 17.5336 22.1884 17.4421 22.2633 17.3672C22.3423 17.2881 22.4359 17.2486 22.5441 17.2486H26.4379Z" fill="#002664"/>
<path d="M30.6348 16.2065C30.3852 16.2065 30.1585 16.2398 29.9546 16.3064C29.755 16.3729 29.5844 16.4686 29.443 16.5934C29.3015 16.7182 29.1913 16.8701 29.1122 17.0489C29.0374 17.2237 28.9999 17.4213 28.9999 17.6417C28.9999 17.8622 29.0374 18.0619 29.1122 18.2408C29.1913 18.4155 29.3015 18.5653 29.443 18.6901C29.5844 18.8149 29.755 18.9105 29.9546 18.9771C30.1585 19.0437 30.3852 19.0769 30.6348 19.0769H30.9468C31.4751 19.0769 31.8849 18.9376 32.1761 18.6589C32.2593 18.584 32.355 18.5465 32.4631 18.5465C32.5713 18.5465 32.6628 18.5881 32.7377 18.6713C32.8126 18.7504 32.85 18.844 32.85 18.9521C32.85 19.0603 32.8084 19.1539 32.7252 19.2329C32.2801 19.6573 31.6873 19.8694 30.9468 19.8694H30.6348C30.2646 19.8694 29.9276 19.8153 29.6239 19.7072C29.3244 19.5949 29.0644 19.4326 28.8439 19.2205C28.6359 19.0166 28.4778 18.7774 28.3697 18.5029C28.2615 18.2283 28.2074 17.9413 28.2074 17.6417C28.2074 17.3381 28.2615 17.0531 28.3697 16.7869C28.4737 16.5165 28.6318 16.2752 28.8439 16.063C29.0644 15.8509 29.3244 15.6907 29.6239 15.5825C29.9276 15.4702 30.2646 15.4141 30.6348 15.4141H30.9468C31.317 15.4141 31.6519 15.4702 31.9514 15.5825C32.2551 15.6907 32.5172 15.8509 32.7377 16.063C32.8167 16.1421 32.8562 16.2357 32.8562 16.3438C32.8562 16.452 32.8188 16.5456 32.7439 16.6246C32.669 16.7037 32.5754 16.7453 32.4631 16.7494C32.355 16.7494 32.2614 16.7099 32.1823 16.6309C31.887 16.348 31.4751 16.2065 30.9468 16.2065H30.6348Z" fill="#002664"/>
<path d="M39.4253 19.3078C39.471 19.4077 39.4731 19.5096 39.4315 19.6136C39.3941 19.7134 39.3254 19.7862 39.2256 19.832C39.1757 19.8569 39.1216 19.8694 39.0633 19.8694C38.9885 19.8694 38.9177 19.8486 38.8512 19.807C38.7846 19.7654 38.7347 19.7093 38.7014 19.6385L37.3161 16.5872C37.2621 16.4707 37.1809 16.3792 37.0728 16.3126C36.9646 16.2461 36.8481 16.2128 36.7233 16.2128C36.5944 16.2128 36.4758 16.2461 36.3677 16.3126C36.2637 16.3792 36.1846 16.4707 36.1305 16.5872L34.739 19.6385C34.6933 19.7384 34.6184 19.807 34.5144 19.8445C34.4145 19.8819 34.3147 19.8777 34.2149 19.832C34.115 19.7862 34.0464 19.7134 34.0089 19.6136C33.9715 19.5096 33.9757 19.4077 34.0214 19.3078L35.4067 16.2627C35.5273 16.0048 35.7041 15.7989 35.9371 15.6449C36.1742 15.491 36.4363 15.4141 36.7233 15.4141C37.0062 15.4141 37.2662 15.491 37.5033 15.6449C37.7405 15.7989 37.9173 16.0048 38.0337 16.2627L39.4253 19.3078ZM36.7233 17.7229C36.8232 17.7229 36.9147 17.7416 36.9979 17.779C37.0853 17.8165 37.1601 17.8685 37.2225 17.935C37.2891 17.9974 37.3411 18.0723 37.3785 18.1597C37.416 18.2429 37.4347 18.3344 37.4347 18.4342C37.4347 18.5341 37.416 18.6277 37.3785 18.715C37.3411 18.7982 37.2891 18.8731 37.2225 18.9397C37.1601 19.0021 37.0853 19.052 36.9979 19.0894C36.9147 19.1269 36.8232 19.1456 36.7233 19.1456C36.6235 19.1456 36.5299 19.1269 36.4425 19.0894C36.3593 19.052 36.2845 19.0021 36.2179 18.9397C36.1555 18.8731 36.1056 18.7982 36.0681 18.715C36.0307 18.6277 36.012 18.5341 36.012 18.4342C36.012 18.3344 36.0307 18.2429 36.0681 18.1597C36.1056 18.0723 36.1555 17.9974 36.2179 17.935C36.2845 17.8685 36.3593 17.8165 36.4425 17.779C36.5299 17.7416 36.6235 17.7229 36.7233 17.7229Z" fill="#002664"/>
<path d="M45.4809 19.0769C45.589 19.0769 45.6826 19.1165 45.7617 19.1955C45.8407 19.2704 45.8802 19.3619 45.8802 19.4701C45.8802 19.5824 45.8407 19.6781 45.7617 19.7571C45.6826 19.832 45.589 19.8694 45.4809 19.8694H44.8444C44.7238 19.8694 44.626 19.8278 44.5511 19.7446L43.3406 18.4342H41.6308V19.4701C41.6308 19.5824 41.5913 19.6781 41.5122 19.7571C41.4332 19.832 41.3396 19.8694 41.2314 19.8694C41.1233 19.8694 41.0297 19.832 40.9506 19.7571C40.8758 19.6781 40.8383 19.5824 40.8383 19.4701V18.0349C40.8383 17.9267 40.8758 17.8331 40.9506 17.7541C41.0297 17.675 41.1233 17.6355 41.2314 17.6355H44.0145C44.1143 17.6355 44.2058 17.6168 44.289 17.5793C44.3764 17.5419 44.4534 17.492 44.5199 17.4296C44.5865 17.363 44.6385 17.2881 44.6759 17.2049C44.7134 17.1176 44.7321 17.024 44.7321 16.9241C44.7321 16.8243 44.7134 16.7328 44.6759 16.6496C44.6385 16.5622 44.5865 16.4853 44.5199 16.4187C44.4534 16.3521 44.3764 16.3001 44.289 16.2627C44.2058 16.2253 44.1143 16.2065 44.0145 16.2065H41.2314C41.1233 16.2065 41.0297 16.1691 40.9506 16.0942C40.8758 16.0152 40.8383 15.9216 40.8383 15.8134C40.8383 15.7053 40.8758 15.6117 40.9506 15.5326C41.0297 15.4536 41.1233 15.4141 41.2314 15.4141H44.0145C44.2183 15.4141 44.4097 15.4536 44.5886 15.5326C44.7716 15.6075 44.9359 15.7157 45.0815 15.8571C45.3769 16.1525 45.5246 16.5081 45.5246 16.9241C45.5246 17.3401 45.3769 17.6958 45.0815 17.9912C44.8818 18.1909 44.6489 18.3219 44.3826 18.3843L45.0191 19.0769H45.4809Z" fill="#002664"/>
<path d="M0.670464 15.4141C0.778624 15.4141 0.872224 15.4536 0.951264 15.5326C1.0303 15.6117 1.06982 15.7053 1.06982 15.8134V19.4701C1.06982 19.5824 1.0303 19.6781 0.951264 19.7571C0.872224 19.832 0.778624 19.8694 0.670464 19.8694C0.562304 19.8694 0.468704 19.832 0.389664 19.7571C0.314784 19.6781 0.277344 19.5824 0.277344 19.4701V15.8134C0.277344 15.7053 0.314784 15.6117 0.389664 15.5326C0.468704 15.4536 0.562304 15.4141 0.670464 15.4141Z" stroke="#002664" stroke-width="0.4" mask="url(#path-3-outside-1_9184_85917)"/>
<path d="M7.3323 19.0769C7.44046 19.0769 7.53406 19.1165 7.6131 19.1955C7.69214 19.2704 7.73166 19.3619 7.73166 19.4701C7.73166 19.5824 7.69214 19.6781 7.6131 19.7571C7.53406 19.832 7.44046 19.8694 7.3323 19.8694H6.69582C6.57518 19.8694 6.47742 19.8278 6.40254 19.7446L5.19198 18.4342H3.48222V19.4701C3.48222 19.5824 3.4427 19.6781 3.36366 19.7571C3.28462 19.832 3.19102 19.8694 3.08286 19.8694C2.9747 19.8694 2.8811 19.832 2.80206 19.7571C2.72718 19.6781 2.68974 19.5824 2.68974 19.4701V18.0349C2.68974 17.9267 2.72718 17.8331 2.80206 17.7541C2.8811 17.675 2.9747 17.6355 3.08286 17.6355H5.8659C5.96574 17.6355 6.05726 17.6168 6.14046 17.5793C6.22782 17.5419 6.30478 17.492 6.37134 17.4296C6.4379 17.363 6.4899 17.2881 6.52734 17.2049C6.56478 17.1176 6.5835 17.024 6.5835 16.9241C6.5835 16.8243 6.56478 16.7328 6.52734 16.6496C6.4899 16.5622 6.4379 16.4853 6.37134 16.4187C6.30478 16.3521 6.22782 16.3001 6.14046 16.2627C6.05726 16.2253 5.96574 16.2065 5.8659 16.2065H3.08286C2.9747 16.2065 2.8811 16.1691 2.80206 16.0942C2.72718 16.0152 2.68974 15.9216 2.68974 15.8134C2.68974 15.7053 2.72718 15.6117 2.80206 15.5326C2.8811 15.4536 2.9747 15.4141 3.08286 15.4141H5.8659C6.06974 15.4141 6.2611 15.4536 6.43998 15.5326C6.62302 15.6075 6.78734 15.7157 6.93294 15.8571C7.2283 16.1525 7.37598 16.5081 7.37598 16.9241C7.37598 17.3401 7.2283 17.6958 6.93294 17.9912C6.73326 18.1909 6.5003 18.3219 6.23406 18.3843L6.87054 19.0769H7.3323Z" stroke="#002664" stroke-width="0.4" mask="url(#path-3-outside-1_9184_85917)"/>
<path d="M14.4316 19.3078C14.4774 19.4077 14.4795 19.5096 14.4379 19.6136C14.4004 19.7134 14.3318 19.7862 14.2319 19.832C14.182 19.8569 14.1279 19.8694 14.0697 19.8694C13.9948 19.8694 13.9241 19.8486 13.8575 19.807C13.791 19.7654 13.7411 19.7093 13.7078 19.6385L12.3225 16.5872C12.2684 16.4707 12.1873 16.3792 12.0791 16.3126C11.971 16.2461 11.8545 16.2128 11.7297 16.2128C11.6007 16.2128 11.4822 16.2461 11.374 16.3126C11.27 16.3792 11.191 16.4707 11.1369 16.5872L9.74537 19.6385C9.69961 19.7384 9.62473 19.807 9.52073 19.8445C9.42089 19.8819 9.32105 19.8777 9.22121 19.832C9.12137 19.7862 9.05273 19.7134 9.01529 19.6136C8.97785 19.5096 8.98201 19.4077 9.02777 19.3078L10.4131 16.2627C10.5337 16.0048 10.7105 15.7989 10.9435 15.6449C11.1806 15.491 11.4427 15.4141 11.7297 15.4141C12.0126 15.4141 12.2726 15.491 12.5097 15.6449C12.7468 15.7989 12.9236 16.0048 13.0401 16.2627L14.4316 19.3078ZM11.7297 17.7229C11.8295 17.7229 11.9211 17.7416 12.0043 17.779C12.0916 17.8165 12.1665 17.8685 12.2289 17.935C12.2955 17.9974 12.3475 18.0723 12.3849 18.1597C12.4223 18.2429 12.4411 18.3344 12.4411 18.4342C12.4411 18.5341 12.4223 18.6277 12.3849 18.715C12.3475 18.7982 12.2955 18.8731 12.2289 18.9397C12.1665 19.0021 12.0916 19.052 12.0043 19.0894C11.9211 19.1269 11.8295 19.1456 11.7297 19.1456C11.6299 19.1456 11.5363 19.1269 11.4489 19.0894C11.3657 19.052 11.2908 19.0021 11.2243 18.9397C11.1619 18.8731 11.1119 18.7982 11.0745 18.715C11.0371 18.6277 11.0183 18.5341 11.0183 18.4342C11.0183 18.3344 11.0371 18.2429 11.0745 18.1597C11.1119 18.0723 11.1619 17.9974 11.2243 17.935C11.2908 17.8685 11.3657 17.8165 11.4489 17.779C11.5363 17.7416 11.6299 17.7229 11.7297 17.7229Z" stroke="#002664" stroke-width="0.4" mask="url(#path-3-outside-1_9184_85917)"/>
<path d="M20.1378 15.4141C20.246 15.4141 20.3375 15.4536 20.4124 15.5326C20.4914 15.6117 20.5309 15.7053 20.5309 15.8134V19.4701C20.5309 19.5533 20.508 19.6281 20.4623 19.6947C20.4207 19.7571 20.3645 19.8049 20.2938 19.8382C20.2397 19.859 20.1877 19.8694 20.1378 19.8694C20.0338 19.8694 19.9423 19.8341 19.8632 19.7633L16.6372 16.7307V19.4701C16.6372 19.5824 16.5976 19.6781 16.5186 19.7571C16.4437 19.832 16.3522 19.8694 16.244 19.8694C16.1359 19.8694 16.0423 19.832 15.9632 19.7571C15.8842 19.6781 15.8447 19.5824 15.8447 19.4701V15.8134C15.8447 15.7344 15.8655 15.6637 15.9071 15.6013C15.9528 15.5347 16.0132 15.4848 16.088 15.4515C16.1588 15.4182 16.2316 15.4078 16.3064 15.4203C16.3855 15.4328 16.4541 15.4681 16.5124 15.5264L19.7384 18.5528V15.8134C19.7384 15.7053 19.7759 15.6117 19.8508 15.5326C19.9298 15.4536 20.0255 15.4141 20.1378 15.4141Z" stroke="#002664" stroke-width="0.4" mask="url(#path-3-outside-1_9184_85917)"/>
<path d="M26.4379 15.4141C26.546 15.4141 26.6396 15.4536 26.7187 15.5326C26.7977 15.6117 26.8372 15.7053 26.8372 15.8134C26.8372 15.9216 26.7977 16.0152 26.7187 16.0942C26.6396 16.1691 26.546 16.2065 26.4379 16.2065H22.5441C22.4359 16.2065 22.3423 16.1691 22.2633 16.0942C22.1884 16.0152 22.151 15.9216 22.151 15.8134C22.151 15.7053 22.1884 15.6117 22.2633 15.5326C22.3423 15.4536 22.4359 15.4141 22.5441 15.4141H26.4379ZM26.4379 19.0769C26.546 19.0769 26.6396 19.1165 26.7187 19.1955C26.7977 19.2704 26.8372 19.3619 26.8372 19.4701C26.8372 19.5824 26.7977 19.6781 26.7187 19.7571C26.6396 19.832 26.546 19.8694 26.4379 19.8694H22.5441C22.4359 19.8694 22.3423 19.832 22.2633 19.7571C22.1884 19.6781 22.151 19.5824 22.151 19.4701C22.151 19.3619 22.1884 19.2704 22.2633 19.1955C22.3423 19.1165 22.4359 19.0769 22.5441 19.0769H26.4379ZM26.4379 17.2486C26.546 17.2486 26.6396 17.2881 26.7187 17.3672C26.7977 17.4421 26.8372 17.5336 26.8372 17.6417C26.8372 17.7499 26.7977 17.8435 26.7187 17.9225C26.6396 18.0016 26.546 18.0411 26.4379 18.0411H22.5441C22.4359 18.0411 22.3423 18.0016 22.2633 17.9225C22.1884 17.8435 22.151 17.7499 22.151 17.6417C22.151 17.5336 22.1884 17.4421 22.2633 17.3672C22.3423 17.2881 22.4359 17.2486 22.5441 17.2486H26.4379Z" stroke="#002664" stroke-width="0.4" mask="url(#path-3-outside-1_9184_85917)"/>
<path d="M30.6348 16.2065C30.3852 16.2065 30.1585 16.2398 29.9546 16.3064C29.755 16.3729 29.5844 16.4686 29.443 16.5934C29.3015 16.7182 29.1913 16.8701 29.1122 17.0489C29.0374 17.2237 28.9999 17.4213 28.9999 17.6417C28.9999 17.8622 29.0374 18.0619 29.1122 18.2408C29.1913 18.4155 29.3015 18.5653 29.443 18.6901C29.5844 18.8149 29.755 18.9105 29.9546 18.9771C30.1585 19.0437 30.3852 19.0769 30.6348 19.0769H30.9468C31.4751 19.0769 31.8849 18.9376 32.1761 18.6589C32.2593 18.584 32.355 18.5465 32.4631 18.5465C32.5713 18.5465 32.6628 18.5881 32.7377 18.6713C32.8126 18.7504 32.85 18.844 32.85 18.9521C32.85 19.0603 32.8084 19.1539 32.7252 19.2329C32.2801 19.6573 31.6873 19.8694 30.9468 19.8694H30.6348C30.2646 19.8694 29.9276 19.8153 29.6239 19.7072C29.3244 19.5949 29.0644 19.4326 28.8439 19.2205C28.6359 19.0166 28.4778 18.7774 28.3697 18.5029C28.2615 18.2283 28.2074 17.9413 28.2074 17.6417C28.2074 17.3381 28.2615 17.0531 28.3697 16.7869C28.4737 16.5165 28.6318 16.2752 28.8439 16.063C29.0644 15.8509 29.3244 15.6907 29.6239 15.5825C29.9276 15.4702 30.2646 15.4141 30.6348 15.4141H30.9468C31.317 15.4141 31.6519 15.4702 31.9514 15.5825C32.2551 15.6907 32.5172 15.8509 32.7377 16.063C32.8167 16.1421 32.8562 16.2357 32.8562 16.3438C32.8562 16.452 32.8188 16.5456 32.7439 16.6246C32.669 16.7037 32.5754 16.7453 32.4631 16.7494C32.355 16.7494 32.2614 16.7099 32.1823 16.6309C31.887 16.348 31.4751 16.2065 30.9468 16.2065H30.6348Z" stroke="#002664" stroke-width="0.4" mask="url(#path-3-outside-1_9184_85917)"/>
<path d="M39.4253 19.3078C39.471 19.4077 39.4731 19.5096 39.4315 19.6136C39.3941 19.7134 39.3254 19.7862 39.2256 19.832C39.1757 19.8569 39.1216 19.8694 39.0633 19.8694C38.9885 19.8694 38.9177 19.8486 38.8512 19.807C38.7846 19.7654 38.7347 19.7093 38.7014 19.6385L37.3161 16.5872C37.2621 16.4707 37.1809 16.3792 37.0728 16.3126C36.9646 16.2461 36.8481 16.2128 36.7233 16.2128C36.5944 16.2128 36.4758 16.2461 36.3677 16.3126C36.2637 16.3792 36.1846 16.4707 36.1305 16.5872L34.739 19.6385C34.6933 19.7384 34.6184 19.807 34.5144 19.8445C34.4145 19.8819 34.3147 19.8777 34.2149 19.832C34.115 19.7862 34.0464 19.7134 34.0089 19.6136C33.9715 19.5096 33.9757 19.4077 34.0214 19.3078L35.4067 16.2627C35.5273 16.0048 35.7041 15.7989 35.9371 15.6449C36.1742 15.491 36.4363 15.4141 36.7233 15.4141C37.0062 15.4141 37.2662 15.491 37.5033 15.6449C37.7405 15.7989 37.9173 16.0048 38.0337 16.2627L39.4253 19.3078ZM36.7233 17.7229C36.8232 17.7229 36.9147 17.7416 36.9979 17.779C37.0853 17.8165 37.1601 17.8685 37.2225 17.935C37.2891 17.9974 37.3411 18.0723 37.3785 18.1597C37.416 18.2429 37.4347 18.3344 37.4347 18.4342C37.4347 18.5341 37.416 18.6277 37.3785 18.715C37.3411 18.7982 37.2891 18.8731 37.2225 18.9397C37.1601 19.0021 37.0853 19.052 36.9979 19.0894C36.9147 19.1269 36.8232 19.1456 36.7233 19.1456C36.6235 19.1456 36.5299 19.1269 36.4425 19.0894C36.3593 19.052 36.2845 19.0021 36.2179 18.9397C36.1555 18.8731 36.1056 18.7982 36.0681 18.715C36.0307 18.6277 36.012 18.5341 36.012 18.4342C36.012 18.3344 36.0307 18.2429 36.0681 18.1597C36.1056 18.0723 36.1555 17.9974 36.2179 17.935C36.2845 17.8685 36.3593 17.8165 36.4425 17.779C36.5299 17.7416 36.6235 17.7229 36.7233 17.7229Z" stroke="#002664" stroke-width="0.4" mask="url(#path-3-outside-1_9184_85917)"/>
<path d="M45.4809 19.0769C45.589 19.0769 45.6826 19.1165 45.7617 19.1955C45.8407 19.2704 45.8802 19.3619 45.8802 19.4701C45.8802 19.5824 45.8407 19.6781 45.7617 19.7571C45.6826 19.832 45.589 19.8694 45.4809 19.8694H44.8444C44.7238 19.8694 44.626 19.8278 44.5511 19.7446L43.3406 18.4342H41.6308V19.4701C41.6308 19.5824 41.5913 19.6781 41.5122 19.7571C41.4332 19.832 41.3396 19.8694 41.2314 19.8694C41.1233 19.8694 41.0297 19.832 40.9506 19.7571C40.8758 19.6781 40.8383 19.5824 40.8383 19.4701V18.0349C40.8383 17.9267 40.8758 17.8331 40.9506 17.7541C41.0297 17.675 41.1233 17.6355 41.2314 17.6355H44.0145C44.1143 17.6355 44.2058 17.6168 44.289 17.5793C44.3764 17.5419 44.4534 17.492 44.5199 17.4296C44.5865 17.363 44.6385 17.2881 44.6759 17.2049C44.7134 17.1176 44.7321 17.024 44.7321 16.9241C44.7321 16.8243 44.7134 16.7328 44.6759 16.6496C44.6385 16.5622 44.5865 16.4853 44.5199 16.4187C44.4534 16.3521 44.3764 16.3001 44.289 16.2627C44.2058 16.2253 44.1143 16.2065 44.0145 16.2065H41.2314C41.1233 16.2065 41.0297 16.1691 40.9506 16.0942C40.8758 16.0152 40.8383 15.9216 40.8383 15.8134C40.8383 15.7053 40.8758 15.6117 40.9506 15.5326C41.0297 15.4536 41.1233 15.4141 41.2314 15.4141H44.0145C44.2183 15.4141 44.4097 15.4536 44.5886 15.5326C44.7716 15.6075 44.9359 15.7157 45.0815 15.8571C45.3769 16.1525 45.5246 16.5081 45.5246 16.9241C45.5246 17.3401 45.3769 17.6958 45.0815 17.9912C44.8818 18.1909 44.6489 18.3219 44.3826 18.3843L45.0191 19.0769H45.4809Z" stroke="#002664" stroke-width="0.4" mask="url(#path-3-outside-1_9184_85917)"/>
</svg>
