<svg width="48" height="46" viewBox="0 0 48 46" fill="none" xmlns="http://www.w3.org/2000/svg">
<path d="M35.5625 0.71875C29.0938 0.71875 23.8438 5.96875 23.8438 12.4375C23.8438 18.9062 29.0938 24.1562 35.5625 24.1562C42.0312 24.1562 47.2812 18.9062 47.2812 12.4375C47.2812 5.96875 42.0312 0.71875 35.5625 0.71875ZM36.7344 14.7812H34.3906V5.40625H36.7344V14.7812ZM36.7344 17.125V19.4688H34.3906V17.125H36.7344ZM35.3516 28.8438C35.4922 29.2188 35.5625 29.6172 35.5625 30.0156C35.5625 31.9609 33.9922 33.5312 32.0469 33.5312C30.1016 33.5312 28.5312 31.9609 28.5312 30.0156C28.5312 29.1016 28.8828 28.2812 29.4453 27.6484C25.625 26.1016 22.5078 23.1719 20.75 19.4688H6.99219L9.42969 12.4375H19.1562C19.1562 10.8203 19.3906 9.22656 19.8359 7.75H8.60938C7.0625 7.75 5.77344 8.73438 5.28125 10.1172L0.40625 24.1562V42.9062C0.40625 44.1953 1.46094 45.25 2.75 45.25H5.09375C6.38281 45.25 7.4375 44.1953 7.4375 42.9062V40.5625H35.5625V42.9062C35.5625 44.1953 36.6172 45.25 37.9062 45.25H40.25C41.5391 45.25 42.5938 44.1953 42.5938 42.9062V27.25C40.1328 28.4453 37.5312 28.8672 35.3516 28.8438ZM10.9531 33.5312C9.00781 33.5312 7.4375 31.9609 7.4375 30.0156C7.4375 28.0703 9.00781 26.5 10.9531 26.5C12.8984 26.5 14.4688 28.0703 14.4688 30.0156C14.4688 31.9609 12.8984 33.5312 10.9531 33.5312Z" fill="#8F8F8F"/>
</svg>
