<svg width="209" height="199" viewBox="0 0 209 199" fill="none" xmlns="http://www.w3.org/2000/svg">
<path d="M156.5 0.414062C127.75 0.414062 104.417 23.7474 104.417 52.4974C104.417 81.2474 127.75 104.581 156.5 104.581C185.25 104.581 208.583 81.2474 208.583 52.4974C208.583 23.7474 185.25 0.414062 156.5 0.414062ZM161.708 62.9141H151.292V21.2474H161.708V62.9141ZM161.708 73.3307V83.7474H151.292V73.3307H161.708ZM155.562 125.414C156.187 127.081 156.5 128.852 156.5 130.622C156.5 139.268 149.521 146.247 140.875 146.247C132.229 146.247 125.25 139.268 125.25 130.622C125.25 126.56 126.812 122.914 129.312 120.102C112.333 113.227 98.4792 100.206 90.6667 83.7474H29.5208L40.3542 52.4974H83.5833C83.5833 45.3099 84.625 38.2266 86.6042 31.6641H36.7083C29.8333 31.6641 24.1042 36.0391 21.9167 42.1849L0.25 104.581V187.914C0.25 193.643 4.9375 198.331 10.6667 198.331H21.0833C26.8125 198.331 31.5 193.643 31.5 187.914V177.497H156.5V187.914C156.5 193.643 161.187 198.331 166.917 198.331H177.333C183.062 198.331 187.75 193.643 187.75 187.914V118.331C176.812 123.643 165.25 125.518 155.562 125.414ZM47.125 146.247C38.4792 146.247 31.5 139.268 31.5 130.622C31.5 121.977 38.4792 114.997 47.125 114.997C55.7708 114.997 62.75 121.977 62.75 130.622C62.75 139.268 55.7708 146.247 47.125 146.247Z" fill="#002664" fill-opacity="0.08"/>
<circle cx="156.5" cy="52.5" r="52.5" fill="#EBEEF3"/>
<path d="M136 84.2031C134.25 84.2031 132.762 83.5906 131.537 82.3656C130.312 81.1406 129.7 79.6531 129.7 77.9031V31.0031C129.7 29.2531 130.312 27.7656 131.537 26.5406C132.762 25.3156 134.25 24.7031 136 24.7031H169.6L189.2 44.3031V77.9031C189.2 79.6531 188.587 81.1406 187.362 82.3656C186.137 83.5906 184.65 84.2031 182.9 84.2031H136ZM142.825 70.2031H176.075V64.9531H142.825V70.2031ZM142.825 57.0781H176.075V51.8281H142.825V57.0781ZM142.825 43.9531H165.137V38.7031H142.825V43.9531Z" fill="#002664" fill-opacity="0.08"/>
</svg>
