<svg width="30" height="34" viewBox="0 0 30 34" fill="none" xmlns="http://www.w3.org/2000/svg">
<path d="M0.625 33.2927V4.35184C0.625 3.3291 0.976134 2.4666 1.6784 1.76434C2.3822 1.06207 3.2447 0.710938 4.2659 0.710938H14.3767C15.3994 0.710938 16.2619 1.06207 16.9642 1.76434C17.6665 2.4666 18.0176 3.3291 18.0176 4.35184V16.7143H20.6074C21.3741 16.7143 22.0204 16.9696 22.5463 17.4802C23.0738 17.9924 23.3375 18.6157 23.3375 19.3501V28.7893C23.3375 29.3965 23.5368 29.8995 23.9355 30.2981C24.3357 30.6983 24.8233 30.8984 25.3983 30.8984C25.9733 30.8984 26.4601 30.6983 26.8588 30.2981C27.259 29.8995 27.4591 29.3965 27.4591 28.7893V15.4677C27.1386 15.5965 26.8266 15.6924 26.523 15.7552C26.2194 15.8196 25.892 15.8518 25.5409 15.8518C24.3587 15.8518 23.3444 15.4363 22.498 14.6052C21.6516 13.7757 21.2284 12.7698 21.2284 11.5876C21.2284 10.6293 21.5159 9.7829 22.0909 9.04844C22.6659 8.31244 23.4011 7.81717 24.2966 7.56264L20.0784 3.34444L21.7574 1.61944L28.5125 8.28024C28.9602 8.72797 29.3037 9.23167 29.5429 9.79134C29.7821 10.3495 29.9017 10.9482 29.9017 11.5876V28.7893C29.9017 30.0666 29.4624 31.1369 28.5838 32.0001C27.7052 32.8619 26.6434 33.2927 25.3983 33.2927C24.1517 33.2927 23.0891 32.8619 22.2105 32.0001C21.3319 31.1369 20.8926 30.0666 20.8926 28.7893V19.6859C20.8926 19.5249 20.8374 19.3892 20.727 19.2788C20.6151 19.1669 20.4786 19.1109 20.3176 19.1109H18.0176V33.2927H0.625ZM3.6909 13.5518H14.9517V4.35184C14.9517 4.22457 14.8881 4.09654 14.7608 3.96774C14.632 3.84047 14.504 3.77684 14.3767 3.77684H4.2659C4.13863 3.77684 4.01137 3.84047 3.8841 3.96774C3.7553 4.09654 3.6909 4.22457 3.6909 4.35184V13.5518ZM25.5892 13.4552C26.132 13.4552 26.5874 13.272 26.9554 12.9055C27.3234 12.5375 27.5074 12.0821 27.5074 11.5393C27.5074 10.9965 27.3234 10.5411 26.9554 10.1731C26.5874 9.80667 26.132 9.62344 25.5892 9.62344C25.0464 9.62344 24.591 9.80667 24.223 10.1731C23.8565 10.5411 23.6733 10.9965 23.6733 11.5393C23.6733 12.0821 23.8565 12.5375 24.223 12.9055C24.591 13.272 25.0464 13.4552 25.5892 13.4552Z" fill="#002664"/>
</svg>
