<svg width="90" height="80" viewBox="0 0 90 80" fill="none" xmlns="http://www.w3.org/2000/svg">
<path d="M10 69.5V75.125C10 76.5417 9.52083 77.7084 8.5625 78.625C7.60417 79.5417 6.41667 80 5 80C3.58333 80 2.39583 79.5209 1.4375 78.5625C0.479166 77.6042 0 76.4167 0 75V35.75L10.625 3.75C11.0417 2.58333 11.7292 1.66667 12.6875 0.999999C13.6458 0.333332 14.75 0 16 0H74C75.25 0 76.3542 0.333332 77.3125 0.999999C78.2708 1.66667 78.9583 2.58333 79.375 3.75L90 35.75V75C90 76.4167 89.5208 77.6042 88.5625 78.5625C87.6042 79.5209 86.4167 80 85 80C83.5833 80 82.375 79.5 81.375 78.5C80.375 77.5 79.875 76.2917 79.875 74.875V69.5H10ZM10.375 28.25H79.625L72.75 7.5H17.25L10.375 28.25ZM20.75 55.75C22.6667 55.75 24.2708 55.0834 25.5625 53.75C26.8542 52.4167 27.5 50.8334 27.5 49C27.5 47.0834 26.8542 45.4375 25.5625 44.0625C24.2708 42.6875 22.6667 42 20.75 42C18.8333 42 17.1875 42.6875 15.8125 44.0625C14.4375 45.4375 13.75 47.0834 13.75 49C13.75 50.9167 14.4375 52.5209 15.8125 53.8125C17.1875 55.1042 18.8333 55.75 20.75 55.75ZM69.375 55.75C71.2917 55.75 72.9375 55.0834 74.3125 53.75C75.6875 52.4167 76.375 50.8334 76.375 49C76.375 47.0834 75.6875 45.4375 74.3125 44.0625C72.9375 42.6875 71.2917 42 69.375 42C67.4583 42 65.8542 42.6875 64.5625 44.0625C63.2708 45.4375 62.625 47.0834 62.625 49C62.625 50.9167 63.2917 52.5209 64.625 53.8125C65.9583 55.1042 67.5417 55.75 69.375 55.75Z" fill="#002664" fill-opacity="0.08"/>
</svg>
