<svg width="40" height="30" viewBox="0 0 40 30" fill="none" xmlns="http://www.w3.org/2000/svg">
<path d="M34.5455 7.27273H29.0909V0H0V23.6364H3.63636C3.63636 25.083 4.21104 26.4704 5.23396 27.4933C6.25689 28.5162 7.64427 29.0909 9.09091 29.0909C10.5375 29.0909 11.9249 28.5162 12.9479 27.4933C13.9708 26.4704 14.5455 25.083 14.5455 23.6364H25.4545C25.4545 25.083 26.0292 26.4704 27.0521 27.4933C28.0751 28.5162 29.4625 29.0909 30.9091 29.0909C32.3557 29.0909 33.7431 28.5162 34.766 27.4933C35.789 26.4704 36.3636 25.083 36.3636 23.6364H40V14.5455L34.5455 7.27273ZM9.09091 26.3636C8.55151 26.3636 8.02422 26.2037 7.57572 25.904C7.12722 25.6043 6.77766 25.1784 6.57124 24.68C6.36482 24.1817 6.31081 23.6333 6.41604 23.1043C6.52127 22.5753 6.78102 22.0893 7.16244 21.7079C7.54385 21.3265 8.02981 21.0667 8.55884 20.9615C9.08788 20.8563 9.63625 20.9103 10.1346 21.1167C10.6329 21.3231 11.0589 21.6727 11.3586 22.1212C11.6582 22.5697 11.8182 23.097 11.8182 23.6364C11.8182 24.3597 11.5308 25.0534 11.0194 25.5648C10.5079 26.0763 9.81423 26.3636 9.09091 26.3636ZM25.4545 5.45455H21.8182V18.1818H18.1818V5.45455H14.5455V18.1818H10.9091V5.45455H7.27273V18.1818H3.63636V3.63636H25.4545V5.45455ZM30.9091 26.3636C30.3697 26.3636 29.8424 26.2037 29.3939 25.904C28.9454 25.6043 28.5958 25.1784 28.3894 24.68C28.183 24.1817 28.129 23.6333 28.2342 23.1043C28.3395 22.5753 28.5992 22.0893 28.9806 21.7079C29.362 21.3265 29.848 21.0667 30.377 20.9615C30.9061 20.8563 31.4544 20.9103 31.9528 21.1167C32.4511 21.3231 32.8771 21.6727 33.1767 22.1212C33.4764 22.5697 33.6364 23.097 33.6364 23.6364C33.6364 24.3597 33.349 25.0534 32.8376 25.5648C32.3261 26.0763 31.6324 26.3636 30.9091 26.3636ZM29.0909 14.5455V10H33.6364L37.2 14.5455H29.0909Z" fill="#B2B2B2"/>
</svg>
