<svg width="36" height="36" viewBox="0 0 36 36" fill="none" xmlns="http://www.w3.org/2000/svg">
<path d="M32.5662 35.2527L20.3954 23.0819L23.0787 20.3985L35.2495 32.5694L32.5662 35.2527ZM6.40371 33.911C3.20927 30.7805 1.33285 27.1069 0.77446 22.8902C0.214793 18.6735 0.94121 14.7284 2.95371 11.0548C3.04954 12.1409 3.32107 13.3624 3.76829 14.7194C4.21552 16.0777 4.83077 17.5076 5.61404 19.0089C6.39604 20.5103 7.3301 22.052 8.41621 23.6339C9.50232 25.2145 10.7002 26.7715 12.01 28.3048L6.40371 33.911ZM14.6454 25.6694C13.112 24.136 11.7704 22.4666 10.6204 20.6611C9.47038 18.8569 8.56827 17.1083 7.91404 15.4152C7.25854 13.7221 6.89118 12.1805 6.81196 10.7903C6.73146 9.40134 7.02663 8.37145 7.69746 7.70062C8.36829 6.99784 9.39882 6.67839 10.789 6.74228C12.178 6.80617 13.7273 7.16587 15.437 7.82137C17.1453 8.47559 18.9023 9.38537 20.7078 10.5507C22.512 11.7173 24.1808 13.0673 25.7141 14.6006L14.6454 25.6694ZM28.3495 11.9652C26.8482 10.6555 25.3072 9.47353 23.7265 8.41937C22.1447 7.3652 20.6113 6.43881 19.1265 5.6402C17.6405 4.84159 16.219 4.21037 14.862 3.74653C13.5037 3.28398 12.2815 3.00478 11.1954 2.90895C14.869 0.992283 18.8065 0.329116 23.0078 0.91945C27.2078 1.51106 30.8412 3.3402 33.9079 6.40687L28.3495 11.9652Z" fill="#002664"/>
</svg>
