<svg width="40" height="22" viewBox="0 0 40 22" fill="none" xmlns="http://www.w3.org/2000/svg">
<path d="M3.63638 2.24319e-05C3.15838 -0.00165943 2.68476 0.0912496 2.24282 0.273398C1.80088 0.455546 1.39934 0.723335 1.06134 1.06134C0.723335 1.39934 0.455547 1.80088 0.273398 2.24282C0.0912498 2.68476 -0.00165943 3.15838 2.24318e-05 3.63638V16.3636H3.63638C3.63638 17.8103 4.21106 19.1977 5.23398 20.2206C6.2569 21.2435 7.64429 21.8182 9.09092 21.8182C10.5376 21.8182 11.9249 21.2435 12.9479 20.2206C13.9708 19.1977 14.5455 17.8103 14.5455 16.3636H25.4545C25.4545 17.8103 26.0292 19.1977 27.0521 20.2206C28.0751 21.2435 29.4624 21.8182 30.9091 21.8182C32.3557 21.8182 33.7431 21.2435 34.766 20.2206C35.7889 19.1977 36.3636 17.8103 36.3636 16.3636H40V3.63638C40.0017 3.15838 39.9087 2.68476 39.7266 2.24282C39.5445 1.80088 39.2767 1.39934 38.9387 1.06134C38.6007 0.723335 38.1991 0.455546 37.7572 0.273398C37.3152 0.0912496 36.8416 -0.00165943 36.3636 2.24319e-05H3.63638ZM2.72729 2.72729H10V7.27274H2.72729V2.72729ZM12.7273 2.72729H20V7.27274H12.7273V2.72729ZM22.7273 2.72729H30V7.27274H22.7273V2.72729ZM32.7273 2.72729H37.2727V12.7273L32.7273 9.09092V2.72729ZM9.09092 13.6364C9.63032 13.6364 10.1576 13.7963 10.6061 14.096C11.0546 14.3957 11.4042 14.8216 11.6106 15.32C11.817 15.8183 11.871 16.3667 11.7658 16.8957C11.6606 17.4247 11.4008 17.9107 11.0194 18.2921C10.638 18.6735 10.152 18.9333 9.62298 19.0385C9.09395 19.1437 8.54558 19.0897 8.04724 18.8833C7.5489 18.6769 7.12296 18.3273 6.82328 17.8788C6.5236 17.4303 6.36365 16.903 6.36365 16.3636C6.36365 15.6403 6.65099 14.9466 7.16245 14.4352C7.67391 13.9237 8.3676 13.6364 9.09092 13.6364ZM30.9091 13.6364C31.4485 13.6364 31.9758 13.7963 32.4243 14.096C32.8728 14.3957 33.2223 14.8216 33.4287 15.32C33.6352 15.8183 33.6892 16.3667 33.5839 16.8957C33.4787 17.4247 33.219 17.9107 32.8375 18.2921C32.4561 18.6735 31.9702 18.9333 31.4411 19.0385C30.9121 19.1437 30.3637 19.0897 29.8654 18.8833C29.3671 18.6769 28.9411 18.3273 28.6414 17.8788C28.3418 17.4303 28.1818 16.903 28.1818 16.3636C28.1818 15.6403 28.4691 14.9466 28.9806 14.4352C29.4921 13.9237 30.1858 13.6364 30.9091 13.6364Z" fill="#B2B2B2"/>
</svg>
