<svg width="41" height="39" viewBox="0 0 41 39" fill="none" xmlns="http://www.w3.org/2000/svg">
<path d="M29.5 34.5V3.83333C30.5542 3.83333 31.4569 4.209 32.2083 4.96033C32.9583 5.71039 33.3333 6.6125 33.3333 7.66667V30.6667C33.3333 31.7208 32.9583 32.6236 32.2083 33.3749C31.4569 34.125 30.5542 34.5 29.5 34.5ZM4.58333 38.3333C3.52917 38.3333 2.62642 37.9583 1.87508 37.2082C1.12503 36.4569 0.75 35.5542 0.75 34.5V3.83333C0.75 2.77917 1.12503 1.87642 1.87508 1.12508C2.62642 0.375028 3.52917 0 4.58333 0H21.8333C22.8875 0 23.7903 0.375028 24.5416 1.12508C25.2916 1.87642 25.6667 2.77917 25.6667 3.83333V34.5C25.6667 35.5542 25.2916 36.4569 24.5416 37.2082C23.7903 37.9583 22.8875 38.3333 21.8333 38.3333H4.58333ZM37.1667 30.6667V7.66667C37.9653 7.66667 38.6438 7.9465 39.2022 8.50617C39.7618 9.06456 40.0417 9.74306 40.0417 10.5417V27.7917C40.0417 28.5903 39.7618 29.2688 39.2022 29.8272C38.6438 30.3868 37.9653 30.6667 37.1667 30.6667Z" fill="#4C4C4C" fill-opacity="0.8"/>
</svg>
