<svg width="18" height="24" viewBox="0 0 18 24" fill="none" xmlns="http://www.w3.org/2000/svg">
<path d="M15.6663 9.62146C15.4737 9.06219 14.9345 8.66406 14.2989 8.66406H3.70631C3.07075 8.66406 2.54112 9.06219 2.3389 9.62146L0.441863 14.9961C0.374456 15.1952 0.335938 15.4038 0.335938 15.6218V22.4089C0.335938 23.1956 0.981123 23.8307 1.78038 23.8307C2.57964 23.8307 3.22483 23.1956 3.22483 22.4089V21.9349H14.7804V22.4089C14.7804 23.1861 15.4256 23.8307 16.2248 23.8307C17.0145 23.8307 17.6693 23.1956 17.6693 22.4089V15.6218C17.6693 15.4132 17.6308 15.1952 17.5633 14.9961L15.6663 9.62146ZM3.70631 19.0911C2.90705 19.0911 2.26186 18.456 2.26186 17.6693C2.26186 16.8825 2.90705 16.2474 3.70631 16.2474C4.50557 16.2474 5.15075 16.8825 5.15075 17.6693C5.15075 18.456 4.50557 19.0911 3.70631 19.0911ZM14.2989 19.0911C13.4996 19.0911 12.8545 18.456 12.8545 17.6693C12.8545 16.8825 13.4996 16.2474 14.2989 16.2474C15.0982 16.2474 15.7433 16.8825 15.7433 17.6693C15.7433 18.456 15.0982 19.0911 14.2989 19.0911ZM2.26186 14.3516L3.48483 10.7305C3.61964 10.3514 3.98557 10.0859 4.39964 10.0859H13.6056C14.0196 10.0859 14.3856 10.3514 14.5204 10.7305L15.7433 14.3516H2.26186Z" fill="#BB133E"/>
<path d="M11.3047 4.60156V1.35156C11.3047 0.904687 10.9391 0.539062 10.4922 0.539062H4.80469C4.35781 0.539062 3.99219 0.904687 3.99219 1.35156V4.60156C3.99219 5.04844 4.35781 5.41406 4.80469 5.41406H10.4922C10.9391 5.41406 11.3047 5.04844 11.3047 4.60156ZM7.64844 4.19531C6.97406 4.19531 6.42969 3.65094 6.42969 2.97656C6.42969 2.30219 6.97406 1.75781 7.64844 1.75781C8.32281 1.75781 8.86719 2.30219 8.86719 2.97656C8.86719 3.65094 8.32281 4.19531 7.64844 4.19531ZM12.9297 1.75781V6.22656C12.9297 6.67344 12.5641 7.03906 12.1172 7.03906H5.21094V6.22656H12.1172V1.75781H12.9297Z" fill="#BB133E"/>
</svg>
