<svg width="1728" height="394" viewBox="0 0 1728 394" fill="none" xmlns="http://www.w3.org/2000/svg">
<path opacity="0.1" d="M1670.76 287.096L1660.56 218.917H1633.31V145.059H1636.67V138.376H1623.45V109.609H1621.83V138.376H1612.69V114.804H1611.08V138.376H1555.96V145.059H1559.72V287.096H1496.8V227.8H1460.97V62.8386H1464.25V54.7407H1457.09V44.3878H1448.85V40.4895V28.6485V18.3686H1438.91V0H1437.71H1436.52V18.3686H1431.17L1427.92 28.6485H1406.24V44.3878H1349.47V54.7407H1342.32V62.8386H1345.6V170.165H1298.1V275.62L1245.4 252.304V149.943H1253.91V142.421H1238.95V122.016H1174.9V142.421H1153.98V122.016H1143.22V142.421H1132.46V122.016H1120.63V142.421H1095.9V149.943H1099.65V287.096H1076.52V30.1274H1078.73V26.8773H1082.52V18.0035H1011.77V8.14358H1014.08V5.29511H975.556V8.14358H977.859V18.0035H960.318V26.8773H964.111V30.1274H966.543V287.096H947.411V198.942H850.243V287.096H834.475V2.50148H822.802V9.95121L801.257 15.2098V10.3803H789.593V18.0674L768.048 23.3259V17.7752H756.384V26.1744L734.839 31.4421V26.8591H723.166V34.2905L701.63 39.5491V35.6143H689.957V287.096H673.54V168.248H612.725V261.397H550.375V181.97H542.688V155.887H547.249V153.257H527.075V145.059H524.918V153.257H518.464V111.161H516.855V153.257H508.446V155.887H513.391V181.97H472.248V242.553H432.183L420.108 287.096H369.284V67.7867H313.698V58.7577H316.861V55.5897H274.758V58.7577H278.076V67.7867V82.2936V254.842H251.86V189.648H261.184V183.75H195.232V144.365H182.654V136.267H154.573V144.365H131.73V284.987H56.7746V180.692H-6.34346V263.067H-20V346H-6.34346H12.0572H21.9203H56.7746H131.73H154.573H182.654H195.232H244.429H251.86H278.076H322.026H343.672H369.284H472.248H496.023H536.161H550.375H613.786H630.824H689.957H695.798H701.63H723.166H734.839H756.384H766.137H768.048H789.593H801.257H819.776H822.802H828.634H834.475H850.243H930.564H942.036H947.411H971.561H1014.08H1052.99H1071.28H1099.65H1170.12H1244.63H1245.4H1298.1H1327.57H1345.6H1356.99H1445.17H1460.97H1479.85H1496.8H1559.72H1606.52H1616.1H1633.31H1738V307.93V287.096H1670.76Z" fill="#333C45"/>
<path d="M1738.01 331.867H-17.332V340.616H1738.01V331.867Z" fill="#676E74"/>
<path d="M1738.01 340.617H-17.332V394H1738.01V340.617Z" fill="#6F7478"/>
<path d="M-4.73242 369.773H12.2085" stroke="white" stroke-width="6.1758" stroke-miterlimit="10"/>
<path d="M45.7148 369.773H1704.32" stroke="white" stroke-width="6.1758" stroke-miterlimit="10" stroke-dasharray="36.65 36.65"/>
<path d="M1721.07 369.773H1738.01" stroke="white" stroke-width="6.1758" stroke-miterlimit="10"/>
<path d="M1388.92 273.574H1439.05C1439.05 273.574 1444.04 275.311 1451.64 284.207L1457.72 292.234C1457.72 292.234 1462.45 298.314 1456.83 298.743H1365.48C1365.48 298.743 1360.68 296.787 1365.48 292.234L1388.92 273.574Z" fill="#455A64"/>
<g opacity="0.1">
<path d="M1401.76 273.578L1372.39 302.944C1370.04 302.779 1367.73 302.614 1365.47 302.432L1394.29 273.615C1396.66 273.596 1399.18 273.578 1401.76 273.578Z" fill="white"/>
<path d="M1450.14 273.578L1420.77 302.944C1418.42 302.779 1416.11 302.614 1413.85 302.432L1442.67 273.615C1445.05 273.596 1447.56 273.578 1450.14 273.578Z" fill="white"/>
<path d="M1407.27 274.006L1378.14 303.133C1377.47 303.106 1376.8 303.079 1376.12 303.051L1405.76 273.402C1406.25 273.576 1406.75 273.786 1407.27 274.006Z" fill="white"/>
<path d="M1423.54 274.006L1394.42 303.133C1393.74 303.106 1393.07 303.079 1392.39 303.051L1422.04 273.402C1422.52 273.576 1423.02 273.786 1423.54 274.006Z" fill="white"/>
</g>
<path d="M1338.53 319.094C1325.78 319.195 1315.57 329.581 1315.64 342.371C1315.7 354.942 1326.15 365.218 1338.81 365.145C1351.55 365.072 1361.78 354.668 1361.7 341.868C1361.62 329.288 1351.15 318.994 1338.53 319.094Z" fill="black"/>
<path d="M1338.66 355.71C1346.16 355.71 1352.25 349.628 1352.25 342.125C1352.25 334.622 1346.16 328.539 1338.66 328.539C1331.16 328.539 1325.07 334.622 1325.07 342.125C1325.07 349.628 1331.16 355.71 1338.66 355.71Z" fill="#262D33"/>
<path d="M1338.66 351.166C1343.65 351.166 1347.7 347.118 1347.7 342.124C1347.7 337.13 1343.65 333.082 1338.66 333.082C1333.67 333.082 1329.62 337.13 1329.62 342.124C1329.62 347.118 1333.67 351.166 1338.66 351.166Z" fill="white"/>
<path d="M1452.75 319.094C1439.99 319.195 1429.78 329.581 1429.85 342.371C1429.92 354.942 1440.37 365.218 1453.02 365.145C1465.77 365.072 1476 354.668 1475.91 341.868C1475.83 329.288 1465.36 318.994 1452.75 319.094Z" fill="black"/>
<path d="M1452.87 355.71C1460.38 355.71 1466.46 349.628 1466.46 342.125C1466.46 334.622 1460.38 328.539 1452.87 328.539C1445.37 328.539 1439.29 334.622 1439.29 342.125C1439.29 349.628 1445.37 355.71 1452.87 355.71Z" fill="#262D33"/>
<path d="M1452.88 351.166C1457.87 351.166 1461.92 347.118 1461.92 342.124C1461.92 337.13 1457.87 333.082 1452.88 333.082C1447.88 333.082 1443.83 337.13 1443.83 342.124C1443.83 347.118 1447.88 351.166 1452.88 351.166Z" fill="white"/>
<path d="M1498.72 311.087C1498.71 310.145 1498.61 309.24 1498.41 308.362C1497.06 302.045 1491.47 297.309 1484.76 297.181C1480.73 297.108 1476.71 297.117 1472.68 297.19C1471.44 297.218 1470.63 296.87 1469.82 295.901C1463.77 288.734 1457.57 281.703 1451.6 274.462C1447.34 269.297 1442.09 266.92 1435.39 267.002C1420.87 267.157 1406.33 267.084 1391.8 267.029C1386.89 267.002 1382.65 268.492 1378.9 271.656C1370.19 278.951 1361.32 286.046 1352.75 293.478C1349.57 296.239 1346.15 297.684 1342.05 298.361C1331.65 300.07 1321.27 302.045 1310.9 303.956C1303.79 305.263 1299.1 310.931 1299.05 318.19C1299.01 322.944 1298.96 327.699 1299.07 332.462C1299.23 339.602 1304.84 345.572 1311.93 346.239C1312.49 346.294 1313.06 346.248 1313.67 346.248C1310.99 329.536 1323.67 316.069 1338.83 316.17C1353.66 316.261 1366.32 329.472 1363.67 346.148H1427.7C1424.95 328.485 1439.13 315.521 1453.84 316.179C1468.28 316.828 1480.43 329.82 1477.83 346.075C1488.27 348.15 1498.46 340.141 1498.71 329.518C1498.74 327.991 1498.77 326.455 1498.79 324.928C1498.83 320.302 1498.8 315.695 1498.72 311.087ZM1417.91 291.659C1417.89 295.316 1416.1 297.154 1412.45 297.163C1405.18 297.199 1397.92 297.172 1390.65 297.172V297.245C1383.32 297.245 1375.99 297.236 1368.66 297.254C1367.33 297.254 1366.09 297.163 1365.6 295.664C1365.14 294.21 1365.95 293.305 1367 292.482C1373.7 287.216 1380.36 281.904 1387.11 276.711C1388.08 275.962 1389.5 275.459 1390.73 275.44C1398.06 275.322 1405.38 275.358 1412.72 275.386C1416 275.404 1417.88 277.306 1417.91 280.569C1417.94 284.263 1417.92 287.956 1417.91 291.659ZM1456.7 295.627C1456.28 296.395 1454.99 297.044 1454.05 297.09C1450.75 297.263 1447.44 297.163 1444.15 297.154C1440.73 297.154 1437.3 297.209 1433.87 297.145C1431.04 297.081 1429.1 295.206 1429.04 292.436C1428.96 288.35 1428.96 284.263 1429.03 280.176C1429.09 277.37 1431.01 275.495 1433.8 275.395C1435.44 275.331 1437.14 275.13 1438.72 275.459C1440.18 275.751 1441.88 276.346 1442.82 277.388C1447.36 282.434 1451.73 287.627 1456.07 292.866C1456.63 293.542 1457.04 294.987 1456.7 295.627Z" fill="#002664"/>
<path d="M1415.12 308.363H1400.49C1399.62 308.363 1398.91 307.65 1398.91 306.782V306.48C1398.91 305.612 1399.62 304.898 1400.49 304.898H1415.12C1415.99 304.898 1416.7 305.612 1416.7 306.48V306.782C1416.7 307.65 1415.99 308.363 1415.12 308.363Z" fill="#455A64"/>
<path d="M1498.79 324.919L1495.58 325.659L1489.17 308.371H1498.4C1498.6 309.249 1498.7 310.163 1498.71 311.096C1498.8 315.694 1498.83 320.302 1498.79 324.919Z" fill="white"/>
<path d="M1310.76 315.768C1307.94 319.452 1303.75 320.988 1301.4 319.187C1299.05 317.395 1299.45 312.952 1302.26 309.267C1305.08 305.583 1309.27 304.047 1311.61 305.848C1313.96 307.64 1313.57 312.083 1310.76 315.768Z" fill="#595959"/>
<path d="M1309.89 314.9C1307.07 318.585 1302.89 320.121 1300.54 318.32C1298.19 316.528 1298.58 312.084 1301.4 308.4C1304.21 304.716 1308.4 303.18 1310.75 304.981C1313.1 306.773 1312.7 311.216 1309.89 314.9Z" fill="white"/>
</svg>
