<svg width="18" height="24" viewBox="0 0 18 24" fill="none" xmlns="http://www.w3.org/2000/svg">
<path d="M15.3304 9.62146C15.1378 9.06219 14.5985 8.66406 13.963 8.66406H3.37037C2.73481 8.66406 2.20518 9.06219 2.00296 9.62146L0.105926 14.9961C0.0385184 15.1952 0 15.4038 0 15.6218V22.4089C0 23.1956 0.645185 23.8307 1.44444 23.8307C2.2437 23.8307 2.88889 23.1956 2.88889 22.4089V21.9349H14.4444V22.4089C14.4444 23.1861 15.0896 23.8307 15.8889 23.8307C16.6785 23.8307 17.3333 23.1956 17.3333 22.4089V15.6218C17.3333 15.4132 17.2948 15.1952 17.2274 14.9961L15.3304 9.62146ZM3.37037 19.0911C2.57111 19.0911 1.92593 18.456 1.92593 17.6693C1.92593 16.8825 2.57111 16.2474 3.37037 16.2474C4.16963 16.2474 4.81482 16.8825 4.81482 17.6693C4.81482 18.456 4.16963 19.0911 3.37037 19.0911ZM13.963 19.0911C13.1637 19.0911 12.5185 18.456 12.5185 17.6693C12.5185 16.8825 13.1637 16.2474 13.963 16.2474C14.7622 16.2474 15.4074 16.8825 15.4074 17.6693C15.4074 18.456 14.7622 19.0911 13.963 19.0911ZM1.92593 14.3516L3.14889 10.7305C3.2837 10.3514 3.64963 10.0859 4.0637 10.0859H13.2696C13.6837 10.0859 14.0496 10.3514 14.1844 10.7305L15.4074 14.3516H1.92593Z" fill="#BB133E"/>
<path d="M11.3333 1.125H9.94C9.8 0.69 9.43333 0.375 9 0.375C8.56667 0.375 8.2 0.69 8.06 1.125H6.66667C6.3 1.125 6 1.4625 6 1.875V7.125C6 7.5375 6.3 7.875 6.66667 7.875H11.3333C11.7 7.875 12 7.5375 12 7.125V1.875C12 1.4625 11.7 1.125 11.3333 1.125ZM9 1.125C9.18333 1.125 9.33333 1.29375 9.33333 1.5C9.33333 1.70625 9.18333 1.875 9 1.875C8.81667 1.875 8.66667 1.70625 8.66667 1.5C8.66667 1.29375 8.81667 1.125 9 1.125ZM9.66667 6.375H7.33333V5.625H9.66667V6.375ZM10.6667 4.875H7.33333V4.125H10.6667V4.875ZM10.6667 3.375H7.33333V2.625H10.6667V3.375Z" fill="#BB133E"/>
</svg>
