<svg width="40" height="22" viewBox="0 0 40 22" fill="none" xmlns="http://www.w3.org/2000/svg">
<path d="M27.2727 0H9.0909L0 10.9091V16.3636H3.63636C3.63636 17.8103 4.21104 19.1976 5.23396 20.2206C6.25689 21.2435 7.64427 21.8182 9.0909 21.8182C10.5375 21.8182 11.9249 21.2435 12.9478 20.2206C13.9708 19.1976 14.5454 17.8103 14.5454 16.3636H25.4545C25.4545 17.8103 26.0292 19.1976 27.0521 20.2206C28.0751 21.2435 29.4624 21.8182 30.9091 21.8182C32.3557 21.8182 33.7431 21.2435 34.766 20.2206C35.7889 19.1976 36.3636 17.8103 36.3636 16.3636H40V10.9091C40.0017 10.4311 39.9088 9.95747 39.7266 9.51552C39.5445 9.07358 39.2767 8.67204 38.9387 8.33404C38.6007 7.99604 38.1991 7.72825 37.7572 7.5461C37.3152 7.36395 36.8416 7.27104 36.3636 7.27272H32.7273L27.2727 0ZM10 2.72727H17.2727V7.27272H6.36363L10 2.72727ZM20 2.72727H26.3636L29.9273 7.27272H20V2.72727ZM9.0909 13.6364C9.63031 13.6364 10.1576 13.7963 10.6061 14.096C11.0546 14.3957 11.4042 14.8216 11.6106 15.3199C11.817 15.8183 11.871 16.3667 11.7658 16.8957C11.6605 17.4247 11.4008 17.9107 11.0194 18.2921C10.638 18.6735 10.152 18.9333 9.62297 19.0385C9.09393 19.1437 8.54557 19.0897 8.04722 18.8833C7.54888 18.6769 7.12294 18.3273 6.82326 17.8788C6.52359 17.4303 6.36363 16.903 6.36363 16.3636C6.36363 15.6403 6.65097 14.9466 7.16243 14.4352C7.67389 13.9237 8.36759 13.6364 9.0909 13.6364ZM30.9091 13.6364C31.4485 13.6364 31.9758 13.7963 32.4243 14.096C32.8728 14.3957 33.2223 14.8216 33.4287 15.3199C33.6352 15.8183 33.6892 16.3667 33.5839 16.8957C33.4787 17.4247 33.219 17.9107 32.8375 18.2921C32.4561 18.6735 31.9702 18.9333 31.4411 19.0385C30.9121 19.1437 30.3637 19.0897 29.8654 18.8833C29.3671 18.6769 28.9411 18.3273 28.6414 17.8788C28.3418 17.4303 28.1818 16.903 28.1818 16.3636C28.1818 15.6403 28.4691 14.9466 28.9806 14.4352C29.4921 13.9237 30.1858 13.6364 30.9091 13.6364Z" fill="#002664"/>
</svg>
