<svg width="20" height="20" viewBox="0 0 20 20" fill="none" xmlns="http://www.w3.org/2000/svg">
<path d="M2.3 19.5C1.8 19.5 1.375 19.325 1.025 18.975C0.675 18.625 0.5 18.2 0.5 17.7V2.3C0.5 1.8 0.675 1.375 1.025 1.025C1.375 0.675 1.8 0.5 2.3 0.5H17.7C18.2 0.5 18.625 0.675 18.975 1.025C19.325 1.375 19.5 1.8 19.5 2.3V17.7C19.5 18.2 19.325 18.625 18.975 18.975C18.625 19.325 18.2 19.5 17.7 19.5H2.3ZM6.8 11.875C6.56667 11.875 6.36267 11.7917 6.188 11.625C6.01267 11.4583 5.925 11.25 5.925 11C5.925 10.75 6.01267 10.5417 6.188 10.375C6.36267 10.2083 6.56667 10.125 6.8 10.125C7.05 10.125 7.26267 10.2083 7.438 10.375C7.61267 10.5417 7.7 10.75 7.7 11C7.7 11.25 7.61267 11.4583 7.438 11.625C7.26267 11.7917 7.05 11.875 6.8 11.875ZM13.2 11.875C12.95 11.875 12.7373 11.7917 12.562 11.625C12.3873 11.4583 12.3 11.25 12.3 11C12.3 10.75 12.3873 10.5417 12.562 10.375C12.7373 10.2083 12.95 10.125 13.2 10.125C13.4333 10.125 13.6373 10.2083 13.812 10.375C13.9873 10.5417 14.075 10.75 14.075 11C14.075 11.25 13.9873 11.4583 13.812 11.625C13.6373 11.7917 13.4333 11.875 13.2 11.875ZM3.5 9.175V15.375C3.5 15.5583 3.55833 15.7083 3.675 15.825C3.79167 15.9417 3.94167 16 4.125 16H4.375C4.55833 16 4.70833 15.9417 4.825 15.825C4.94167 15.7083 5 15.5583 5 15.375V14H15V15.375C15 15.5583 15.0583 15.7083 15.175 15.825C15.2917 15.9417 15.4417 16 15.625 16H15.875C16.0583 16 16.2083 15.9417 16.325 15.825C16.4417 15.7083 16.5 15.5583 16.5 15.375V9.175L14.925 4.625C14.8583 4.44167 14.75 4.29167 14.6 4.175C14.45 4.05833 14.2833 4 14.1 4H5.9C5.71667 4 5.55 4.05833 5.4 4.175C5.25 4.29167 5.14167 4.44167 5.075 4.625L3.5 9.175ZM5.475 8L6.35 5.5H13.65L14.525 8H5.475Z" fill="white"/>
</svg>
