<svg width="1628" height="307" viewBox="0 0 1628 307" fill="none" xmlns="http://www.w3.org/2000/svg">
<path d="M1228.67 75.0802C1229.69 72.7763 1230.27 70.2347 1230.27 67.5469C1230.27 57.2342 1221.91 48.8781 1211.6 48.8781C1208.79 48.8781 1206.14 49.518 1203.76 50.6243C1201.8 47.7078 1198.48 45.7879 1194.71 45.7879C1193.03 45.7879 1191.45 46.1811 1190.02 46.8667C1190.07 46.5102 1190.13 46.1628 1190.13 45.7879C1190.13 41.3904 1186.82 37.8158 1182.56 37.3129C1183.37 35.7861 1183.84 34.0491 1183.84 32.1932C1183.84 26.2049 1178.98 21.3411 1172.98 21.3411C1170.56 21.3411 1168.33 22.1456 1166.53 23.4896C1164.19 14.9963 1156.44 8.75201 1147.2 8.75201C1140.62 8.75201 1134.8 11.9336 1131.14 16.8248C1129.19 10.2697 1123.12 5.47903 1115.93 5.47903C1108.57 5.47903 1102.39 10.5165 1100.6 17.3276C1099.11 16.3311 1097.33 15.746 1095.4 15.746C1093.87 15.746 1092.46 16.1482 1091.19 16.7973C1091.13 12.8204 1088.22 9.5474 1084.42 8.88914C1082.75 4.18994 1078.27 0.816406 1073 0.816406C1066.3 0.816406 1060.87 6.24699 1060.87 12.9484C1060.87 12.9758 1060.87 12.9941 1060.87 13.0215C1060.63 13.0032 1060.4 12.9484 1060.17 12.9484C1054.88 12.9484 1050.6 17.2362 1050.6 22.5114C1050.6 23.4439 1050.78 24.3216 1051.02 25.1718C1050.73 25.1352 1050.44 25.0804 1050.14 25.0804C1046.01 25.0804 1042.67 28.4265 1042.67 32.5497C1042.67 34.3508 1043.33 35.9781 1044.4 37.2763C1044.2 37.2581 1044.03 37.2215 1043.84 37.2215C1040.61 37.2215 1038 39.8362 1038 43.0543C1038 43.4292 1038.05 43.7949 1038.11 44.1514C1035.18 41.5916 1031.36 40.0282 1027.15 40.0282C1020.27 40.0282 1014.35 44.1972 1011.81 50.158C1010.21 49.3626 1008.41 48.8964 1006.51 48.8964C999.936 48.8964 994.606 54.2264 994.606 60.7998C994.606 60.7998 994.606 60.7998 994.606 60.8089C988.407 60.8729 983.406 65.9104 983.406 72.1181C983.406 73.1512 983.562 74.1477 983.818 75.0985H1228.67V75.0802Z" fill="#EBEBEC"/>
<path d="M227.463 112.942C226.412 104.769 220.414 98.1591 212.552 96.2118C209.133 85.6706 199.241 78.0367 187.557 78.0367C181.55 78.0367 176.028 80.0754 171.594 83.4673C171.155 68.7846 159.142 57 144.35 57C133.187 57 123.596 63.7197 119.373 73.3192C114.884 69.1411 108.886 66.5538 102.267 66.5538C89.0288 66.5538 78.2042 76.8025 77.2351 89.7938C74.3187 88.5139 71.0914 87.7916 67.6996 87.7916C61.4736 87.7916 55.8327 90.2052 51.5906 94.1091C47.8697 89.099 41.918 85.826 35.1892 85.826C27.2444 85.826 20.3693 90.3698 16.9958 96.9889C16.2644 96.8792 15.5238 96.7969 14.7559 96.7969C6.60996 96.7969 0 103.407 0 111.553C0 112.01 0.0274289 112.467 0.073141 112.915H227.463V112.942Z" fill="#EBEBEC"/>
<path d="M1638.19 306.691C1637.22 299.14 1631.67 293.032 1624.42 291.231C1621.25 281.486 1612.11 274.437 1601.31 274.437C1595.76 274.437 1590.65 276.32 1586.57 279.456C1586.16 265.879 1575.06 255 1561.39 255C1551.07 255 1542.21 261.208 1538.3 270.085C1534.15 266.218 1528.61 263.841 1522.5 263.841C1510.26 263.841 1500.26 273.312 1499.37 285.316C1496.67 284.137 1493.69 283.469 1490.55 283.469C1484.8 283.469 1479.58 285.7 1475.67 289.311C1472.23 284.676 1466.73 281.659 1460.51 281.659C1453.17 281.659 1446.82 285.856 1443.7 291.981C1443.02 291.88 1442.34 291.807 1441.63 291.807C1434.1 291.807 1428 297.914 1428 305.448C1428 305.868 1428.03 306.289 1428.06 306.7H1638.19V306.691Z" fill="#EBEBEC"/>
</svg>
