<svg width="130" height="42" viewBox="0 0 130 42" fill="none" xmlns="http://www.w3.org/2000/svg">
<g clip-path="url(#clip0_3712_44051)">
<path d="M36.5036 32.6406H10.8682L12.0756 25.6406H23.5783C23.6584 25.6417 23.7378 25.6263 23.8118 25.5951C23.8859 25.5639 23.9529 25.5176 24.0088 25.4591C24.1252 25.3491 24.2067 25.2061 24.2428 25.0485L25.6467 16.8739C25.6653 16.8019 25.6653 16.7262 25.6467 16.6542C25.6357 16.5801 25.5992 16.5124 25.5437 16.4632C25.5038 16.3985 25.4448 16.3484 25.3753 16.32C25.3039 16.31 25.2314 16.31 25.16 16.32H5.13088C5.05222 16.319 4.97419 16.3346 4.90172 16.3658C4.82924 16.397 4.76387 16.4432 4.7097 16.5014C4.58988 16.6086 4.50771 16.7528 4.47572 16.912L3.07181 25.0867L1.6679 33.2517L0.263985 41.4264C0.245338 41.4984 0.245338 41.574 0.263985 41.646C0.283772 41.7149 0.315468 41.7796 0.357578 41.837C0.401373 41.9019 0.463354 41.9519 0.535409 41.9803C0.606057 41.9985 0.68003 41.9985 0.750679 41.9803H34.8844C35.0423 41.9644 35.1921 41.9013 35.315 41.7988C35.4309 41.6962 35.5127 41.5594 35.549 41.4073L36.9529 33.2326C36.9715 33.1607 36.9715 33.085 36.9529 33.013C36.9331 32.9442 36.9014 32.8795 36.8593 32.822C36.8133 32.7592 36.752 32.7099 36.6814 32.6788C36.6239 32.6586 36.5642 32.6458 36.5036 32.6406Z" fill="#BB133E"/>
<path d="M6.34361 9.32065H33.4204C33.5005 9.32182 33.5799 9.30634 33.654 9.27514C33.728 9.24394 33.795 9.19769 33.8509 9.1392C33.9636 9.02624 34.0445 8.88439 34.0849 8.72856L35.4888 0.553933C35.5075 0.481954 35.5075 0.406267 35.4888 0.334288C35.4779 0.260154 35.4413 0.192435 35.3859 0.143292C35.3459 0.0786287 35.2869 0.0284958 35.2174 4.49267e-05H35.0396H7.89728C7.81861 -0.000951962 7.74059 0.0146511 7.66811 0.0458751C7.59564 0.0770991 7.53026 0.12327 7.4761 0.181491C7.35628 0.28865 7.2741 0.432866 7.24212 0.592132L5.8382 8.76676C5.81956 8.83874 5.81956 8.91442 5.8382 8.9864C5.84992 9.0582 5.88253 9.12475 5.9318 9.1774C5.97365 9.24414 6.03629 9.29459 6.10963 9.32065H6.34361Z" fill="#BB133E"/>
<path d="M41.625 37.997L43.2442 37.5386C44.1665 37.3482 45.058 37.0267 45.8929 36.5837C46.1592 36.4206 46.3886 36.2018 46.566 35.9417C46.7435 35.6817 46.8649 35.3862 46.9224 35.0748C46.9627 34.8859 46.9908 34.6945 47.0067 34.5018L47.6337 27.3681L50.7972 26.8906L50.3292 32.0666L50.1514 34.0434C50.0485 34.6451 50.0485 35.0557 49.9736 35.3135C49.6915 36.7312 48.9295 38.0024 47.8209 38.9043C46.4557 39.8922 44.9083 40.5874 43.2723 40.9479L41.625 41.3872V37.997Z" fill="#002664"/>
<path d="M54.7957 34.4856C54.4851 34.2958 54.2208 34.0364 54.023 33.727C53.8252 33.4176 53.6989 33.0663 53.6538 32.6998C53.5234 31.5947 53.5709 30.4754 53.7942 29.386L55.9188 17.9262L59.0261 17.7734L56.8828 29.386C56.7808 29.8696 56.7244 30.3621 56.7144 30.8567C56.7088 30.9694 56.7396 31.081 56.8022 31.1741C56.8648 31.2673 56.9556 31.3369 57.0607 31.3723C57.4516 31.4749 57.8555 31.5168 58.2587 31.4965H58.4739L58.268 33.2537L57.669 35.0204H57.4163C56.5121 35.0775 55.6088 34.8932 54.7957 34.4856Z" fill="#002664"/>
<path d="M58.2588 31.4949H63.6031C63.8587 31.5096 64.1128 31.4465 64.3331 31.3135C64.5632 31.162 64.7274 30.9261 64.7917 30.6546C64.8436 30.4475 64.8133 30.2278 64.7075 30.0434L61.0667 22.2889L62.3583 19.6341L71.9423 16.3203L72.298 19.5959L64.9602 22.1361L67.5247 27.9233C67.9642 28.9241 68.0726 30.0437 67.8335 31.1129C67.6308 32.0397 67.1577 32.8821 66.4764 33.529C66.0028 34.0013 65.4432 34.3744 64.8292 34.6273C64.1578 34.8925 63.4432 35.0254 62.7233 35.0188H57.4727L58.2588 31.4949Z" fill="#002664"/>
<path d="M76.6088 41.1709C75.4481 41.2154 74.3038 40.8808 73.3424 40.2159C72.4865 39.5762 71.8904 38.6383 71.667 37.5801C71.3977 36.2763 71.4266 34.9267 71.7513 33.6361C72.1992 31.8022 72.9087 30.0454 73.8571 28.4219L76.5246 29.5869C75.7531 30.8685 75.1697 32.2584 74.7931 33.7125C74.6402 34.1817 74.5829 34.6779 74.6247 35.1706C74.6666 35.6632 74.8067 36.142 75.0364 36.5774C75.3091 36.9362 75.6673 37.2176 76.077 37.3949C76.4866 37.5721 76.934 37.6392 77.3763 37.5897C77.9246 37.5833 78.4707 37.516 79.0048 37.3891C80.1279 37.1313 80.9796 36.9403 81.5599 36.7397C82.0305 36.6136 82.4703 36.3892 82.8515 36.0808C83.1513 35.8408 83.3624 35.5041 83.4505 35.1258C83.477 34.9998 83.4958 34.8722 83.5067 34.7438C83.5067 34.5433 83.282 34.3236 82.7486 34.0945L80.4836 33.3018L82.1589 29.9498C84.3865 30.5992 85.8465 31.0385 86.5391 31.1913C87.182 31.3782 87.8456 31.4809 88.514 31.4969L88.3081 33.2636L87.709 35.0303C87.1662 35.0303 86.7731 35.0303 86.5391 35.0303C86.3001 36.5275 85.4889 37.8669 84.2835 38.7548C82.6552 39.8413 80.8274 40.5788 78.9112 40.9226C78.1561 41.0981 77.3832 41.1815 76.6088 41.1709Z" fill="#002664"/>
<path d="M88.2838 31.4928H90.2119C90.7646 31.5215 91.3161 31.4168 91.8217 31.1872C92.017 31.0836 92.1857 30.9345 92.3142 30.752C92.4426 30.5695 92.5272 30.3587 92.5611 30.1368C92.6178 29.8219 92.6398 29.5016 92.6266 29.1818L92.4862 25.4765L95.6684 24.5788L95.8088 28.2841C95.8351 28.9255 95.7785 29.5677 95.6403 30.1941C95.3444 31.5915 94.559 32.8309 93.4315 33.6797C92.2771 34.5604 90.8667 35.021 89.4257 34.9881H87.4883L88.2838 31.4928ZM92.664 19.3359H95.9117L95.1817 22.5829H91.934L92.664 19.3359Z" fill="#002664"/>
<path d="M101.431 17.9653L104.557 17.8125L101.338 35.0021L98.2305 35.1645L101.431 17.9653Z" fill="#002664"/>
<path d="M109.546 34.9975C109.339 36.4911 108.595 37.8528 107.459 38.8175C106.069 39.8673 104.472 40.5971 102.779 40.9566L101.16 41.415V38.0057L102.779 37.5473C103.699 37.3572 104.587 37.0357 105.419 36.5924C105.685 36.4284 105.915 36.2095 106.094 35.9497C106.273 35.6899 106.397 35.3949 106.458 35.0835C106.458 34.9689 106.458 34.7874 106.542 34.5105L107.141 27.3195L110.304 26.8516L110.183 28.1981C110.183 28.4177 110.183 29.048 110.08 30.108C110.028 30.4803 110.076 30.86 110.22 31.2063C110.308 31.3032 110.418 31.3772 110.54 31.422C110.662 31.4669 110.793 31.4813 110.922 31.4641H111.044L110.885 33.2499L110.286 35.0166H110.164C109.958 35.0353 109.751 35.0289 109.546 34.9975Z" fill="#002664"/>
<path d="M110.885 31.4913H115.565C116.112 31.5184 116.657 31.4137 117.156 31.1857C117.345 31.0857 117.509 30.9436 117.637 30.7701C117.765 30.5965 117.854 30.3959 117.895 30.183C117.954 29.8684 117.976 29.5478 117.961 29.228L117.839 25.5227L121.022 24.625L121.181 28.5309C121.202 29.1306 121.149 29.7307 121.022 30.3167C120.834 31.2381 120.415 32.0939 119.805 32.7996C119.205 33.5169 118.449 34.0797 117.596 34.4422C116.71 34.8318 115.753 35.027 114.788 35.0152H110.108L110.885 31.4913ZM110.202 37.2212H113.01L112.355 40.0861H109.547L110.202 37.2212ZM115.209 37.2212H118.017L117.353 40.0861H114.629L115.209 37.2212Z" fill="#002664"/>
<path d="M126.799 17.9653L129.925 17.8125L126.705 35.0021L123.598 35.1645L126.799 17.9653Z" fill="#002664"/>
</g>
<defs>
<clipPath id="clip0_3712_44051">
<rect width="130" height="42" fill="white" transform="matrix(-1 0 0 1 130 0)"/>
</clipPath>
</defs>
</svg>
