<svg width="130" height="42" viewBox="0 0 130 42" fill="none" xmlns="http://www.w3.org/2000/svg">
<g clip-path="url(#clip0_3712_44068)">
<path d="M129.504 32.6406H103.868L105.076 25.6406H116.578C116.658 25.6417 116.738 25.6263 116.812 25.5951C116.886 25.5639 116.953 25.5176 117.009 25.4591C117.125 25.3491 117.207 25.2061 117.243 25.0485L118.647 16.8739C118.665 16.8019 118.665 16.7262 118.647 16.6542C118.636 16.5801 118.599 16.5124 118.544 16.4632C118.504 16.3985 118.445 16.3484 118.375 16.32C118.304 16.31 118.231 16.31 118.16 16.32H98.1309C98.0522 16.319 97.9742 16.3346 97.9017 16.3658C97.8292 16.397 97.7639 16.4432 97.7097 16.5014C97.5899 16.6086 97.5077 16.7528 97.4757 16.912L96.0718 25.0867L94.6679 33.2517L93.264 41.4264C93.2453 41.4984 93.2453 41.574 93.264 41.646C93.2838 41.7149 93.3155 41.7796 93.3576 41.837C93.4014 41.9019 93.4634 41.9519 93.5354 41.9803C93.6061 41.9985 93.68 41.9985 93.7507 41.9803H127.884C128.042 41.9644 128.192 41.9013 128.315 41.7988C128.431 41.6962 128.513 41.5594 128.549 41.4073L129.953 33.2326C129.972 33.1607 129.972 33.085 129.953 33.013C129.933 32.9442 129.901 32.8795 129.859 32.822C129.813 32.7592 129.752 32.7099 129.681 32.6788C129.624 32.6586 129.564 32.6458 129.504 32.6406Z" fill="#BB133E"/>
<path d="M99.3436 9.32065H126.42C126.5 9.32182 126.58 9.30634 126.654 9.27514C126.728 9.24394 126.795 9.19769 126.851 9.1392C126.964 9.02624 127.044 8.88439 127.085 8.72856L128.489 0.553933C128.507 0.481954 128.507 0.406267 128.489 0.334288C128.478 0.260154 128.441 0.192435 128.386 0.143292C128.346 0.0786287 128.287 0.0284958 128.217 4.49267e-05H128.04H100.897C100.819 -0.000951962 100.741 0.0146511 100.668 0.0458751C100.596 0.0770991 100.53 0.12327 100.476 0.181491C100.356 0.28865 100.274 0.432866 100.242 0.592132L98.8382 8.76676C98.8196 8.83874 98.8196 8.91442 98.8382 8.9864C98.8499 9.0582 98.8825 9.12475 98.9318 9.1774C98.9737 9.24414 99.0363 9.29459 99.1096 9.32065H99.3436Z" fill="#BB133E"/>
<path d="M-0.375 37.997L1.24418 37.5386C2.16647 37.3482 3.05805 37.0267 3.89289 36.5837C4.15917 36.4206 4.38859 36.2018 4.56604 35.9417C4.74349 35.6817 4.86495 35.3862 4.92242 35.0748C4.96267 34.8859 4.99081 34.6945 5.00666 34.5018L5.63374 27.3681L8.79722 26.8906L8.32925 32.0666L8.15142 34.0434C8.04847 34.6451 8.04847 35.0557 7.97359 35.3135C7.69154 36.7312 6.92946 38.0024 5.82093 38.9043C4.45565 39.8922 2.90826 40.5874 1.27226 40.9479L-0.375 41.3872V37.997Z" fill="#002664"/>
<path d="M12.7957 34.4856C12.4851 34.2958 12.2208 34.0364 12.023 33.727C11.8252 33.4176 11.6989 33.0663 11.6538 32.6998C11.5234 31.5947 11.5709 30.4754 11.7942 29.386L13.9188 17.9262L17.0261 17.7734L14.8828 29.386C14.7808 29.8696 14.7244 30.3621 14.7144 30.8567C14.7088 30.9694 14.7396 31.081 14.8022 31.1741C14.8648 31.2673 14.9556 31.3369 15.0607 31.3723C15.4516 31.4749 15.8555 31.5168 16.2587 31.4965H16.4739L16.268 33.2537L15.669 35.0204H15.4163C14.5121 35.0775 13.6088 34.8932 12.7957 34.4856Z" fill="#002664"/>
<path d="M16.2588 31.4949H21.6031C21.8587 31.5096 22.1128 31.4465 22.3331 31.3135C22.5632 31.162 22.7274 30.9261 22.7917 30.6546C22.8436 30.4475 22.8133 30.2278 22.7075 30.0434L19.0667 22.2889L20.3583 19.6341L29.9423 16.3203L30.298 19.5959L22.9602 22.1361L25.5247 27.9233C25.9642 28.9241 26.0726 30.0437 25.8335 31.1129C25.6308 32.0397 25.1577 32.8821 24.4764 33.529C24.0028 34.0013 23.4432 34.3744 22.8292 34.6273C22.1578 34.8925 21.4432 35.0254 20.7233 35.0188H15.4727L16.2588 31.4949Z" fill="#002664"/>
<path d="M34.6088 41.1709C33.4481 41.2154 32.3038 40.8808 31.3424 40.2159C30.4865 39.5762 29.8904 38.6383 29.667 37.5801C29.3977 36.2763 29.4266 34.9267 29.7513 33.6361C30.1992 31.8022 30.9087 30.0454 31.8571 28.4219L34.5246 29.5869C33.7531 30.8685 33.1697 32.2584 32.7931 33.7125C32.6402 34.1817 32.5829 34.6779 32.6247 35.1706C32.6666 35.6632 32.8067 36.142 33.0364 36.5774C33.3091 36.9362 33.6673 37.2176 34.077 37.3949C34.4866 37.5721 34.934 37.6392 35.3763 37.5897C35.9246 37.5833 36.4707 37.516 37.0048 37.3891C38.1279 37.1313 38.9796 36.9403 39.5599 36.7397C40.0305 36.6136 40.4703 36.3892 40.8515 36.0808C41.1513 35.8408 41.3624 35.5041 41.4505 35.1258C41.477 34.9998 41.4958 34.8722 41.5067 34.7438C41.5067 34.5433 41.282 34.3236 40.7486 34.0945L38.4836 33.3018L40.1589 29.9498C42.3865 30.5992 43.8465 31.0385 44.5391 31.1913C45.182 31.3782 45.8456 31.4809 46.514 31.4969L46.3081 33.2636L45.709 35.0303C45.1662 35.0303 44.7731 35.0303 44.5391 35.0303C44.3001 36.5275 43.4889 37.8669 42.2835 38.7548C40.6552 39.8413 38.8274 40.5788 36.9112 40.9226C36.1561 41.0981 35.3832 41.1815 34.6088 41.1709Z" fill="#002664"/>
<path d="M46.2838 31.4928H48.2119C48.7646 31.5215 49.3161 31.4168 49.8217 31.1872C50.017 31.0836 50.1857 30.9345 50.3142 30.752C50.4426 30.5695 50.5272 30.3587 50.5611 30.1368C50.6178 29.8219 50.6398 29.5016 50.6266 29.1818L50.4862 25.4765L53.6684 24.5788L53.8088 28.2841C53.8351 28.9255 53.7785 29.5677 53.6403 30.1941C53.3444 31.5915 52.559 32.8309 51.4315 33.6797C50.2771 34.5604 48.8667 35.021 47.4257 34.9881H45.4883L46.2838 31.4928ZM50.664 19.3359H53.9117L53.1817 22.5829H49.934L50.664 19.3359Z" fill="#002664"/>
<path d="M59.4314 17.9653L62.5574 17.8125L59.3378 35.0021L56.2305 35.1645L59.4314 17.9653Z" fill="#002664"/>
<path d="M67.5462 34.9975C67.3395 36.4911 66.5955 37.8528 65.459 38.8175C64.069 39.8673 62.4724 40.5971 60.7793 40.9566L59.1602 41.415V38.0057L60.7793 37.5473C61.6987 37.3572 62.5873 37.0357 63.4187 36.5924C63.6852 36.4284 63.9152 36.2095 64.0941 35.9497C64.273 35.6899 64.3968 35.3949 64.4576 35.0835C64.4576 34.9689 64.4576 34.7874 64.5418 34.5105L65.1408 27.3195L68.3043 26.8516L68.1826 28.1981C68.1826 28.4177 68.1826 29.048 68.0797 30.108C68.028 30.4803 68.0765 30.86 68.2201 31.2063C68.3085 31.3032 68.4183 31.3772 68.5404 31.422C68.6625 31.4669 68.7933 31.4813 68.922 31.4641H69.0437L68.8846 33.2499L68.2856 35.0166H68.1639C67.958 35.0353 67.7506 35.0289 67.5462 34.9975Z" fill="#002664"/>
<path d="M68.8853 31.4913H73.565C74.1115 31.5184 74.6566 31.4137 75.1561 31.1857C75.345 31.0857 75.5095 30.9436 75.6375 30.7701C75.7654 30.5965 75.8536 30.3959 75.8955 30.183C75.954 29.8684 75.976 29.5478 75.961 29.228L75.8393 25.5227L79.0215 24.625L79.1806 28.5309C79.202 29.1306 79.1486 29.7307 79.0215 30.3167C78.8343 31.2381 78.4149 32.0939 77.8048 32.7996C77.2055 33.5169 76.4487 34.0797 75.596 34.4422C74.7097 34.8318 73.7531 35.027 72.7881 35.0152H68.1084L68.8853 31.4913ZM68.202 37.2212H71.0099L70.3547 40.0861H67.5469L68.202 37.2212ZM73.2093 37.2212H76.0171L75.3526 40.0861H72.629L73.2093 37.2212Z" fill="#002664"/>
<path d="M84.7986 17.9653L87.9246 17.8125L84.705 35.0021L81.5977 35.1645L84.7986 17.9653Z" fill="#002664"/>
</g>
<defs>
<clipPath id="clip0_3712_44068">
<rect width="130" height="42" fill="white" transform="matrix(-1 0 0 1 130 0)"/>
</clipPath>
</defs>
</svg>
