<svg width="34" height="34" viewBox="0 0 34 34" fill="none" xmlns="http://www.w3.org/2000/svg">
<path d="M4.15898 33.2943C3.20065 33.2943 2.38607 32.9589 1.71523 32.288C1.0444 31.6172 0.708984 30.8026 0.708984 29.8443V4.16094C0.708984 3.2026 1.0444 2.38802 1.71523 1.71719C2.38607 1.04635 3.20065 0.710938 4.15898 0.710938H22.559L33.2923 11.4443V29.8443C33.2923 30.8026 32.9569 31.6172 32.2861 32.288C31.6152 32.9589 30.8007 33.2943 29.8423 33.2943H4.15898ZM7.89648 25.6276H26.1048V22.7526H7.89648V25.6276ZM7.89648 18.4401H26.1048V15.5651H7.89648V18.4401ZM7.89648 11.2526H20.1152V8.3776H7.89648V11.2526Z" fill="#707070"/>
</svg>