<svg
            width="21"
            height="20"
            viewBox="0 0 21 20"
            fill="none"
            xmlns="http://www.w3.org/2000/svg"
          >
            <path
              d="M10.3618 20C8.98795 20 7.71108 19.7458 6.53119 19.2375C5.3513 18.7292 4.32496 18.025 3.45216 17.125C2.57937 16.225 1.89648 15.1667 1.40351 13.95C0.910547 12.7333 0.664062 11.4167 0.664062 10C0.664062 8.6 0.910547 7.29167 1.40351 6.075C1.89648 4.85833 2.57937 3.8 3.45216 2.9C4.32496 2 5.3513 1.29167 6.53119 0.775C7.71108 0.258333 8.98795 0 10.3618 0C11.7195 0 12.9883 0.258333 14.1682 0.775C15.348 1.29167 16.3744 2 17.2472 2.9C18.12 3.8 18.8069 4.85833 19.308 6.075C19.809 7.29167 20.0595 8.6 20.0595 10C20.0595 11.4167 19.809 12.7333 19.308 13.95C18.8069 15.1667 18.12 16.225 17.2472 17.125C16.3744 18.025 15.348 18.7292 14.1682 19.2375C12.9883 19.7458 11.7195 20 10.3618 20ZM10.3618 7.15C10.5881 7.15 10.778 7.075 10.9315 6.925C11.0851 6.775 11.1619 6.58333 11.1619 6.35C11.1619 6.11667 11.0851 5.91667 10.9315 5.75C10.778 5.58333 10.5881 5.5 10.3618 5.5C10.1355 5.5 9.9456 5.58333 9.79206 5.75C9.63851 5.91667 9.56173 6.11667 9.56173 6.35C9.56173 6.58333 9.63851 6.775 9.79206 6.925C9.9456 7.075 10.1355 7.15 10.3618 7.15ZM9.7072 15H11.1619V9H9.7072V15Z"
              fill="#d6655c"
            />
          </svg>