<svg width="14" height="16" viewBox="0 0 14 16" fill="none" xmlns="http://www.w3.org/2000/svg">
<path d="M9.875 11.4141C9.73633 11.2887 9.667 11.1357 9.667 10.9551C9.667 10.7751 9.73633 10.6154 9.875 10.4761L11.479 8.87206H5.292C5.11133 8.87206 4.955 8.80606 4.823 8.67406C4.691 8.54206 4.625 8.38573 4.625 8.20506C4.625 8.02506 4.691 7.86906 4.823 7.73706C4.955 7.60506 5.11133 7.53906 5.292 7.53906H11.417L9.854 5.93506C9.74333 5.80973 9.688 5.6604 9.688 5.48706C9.688 5.31306 9.75033 5.16373 9.875 5.03906C9.99967 4.91373 10.156 4.85106 10.344 4.85106C10.5313 4.85106 10.6873 4.91373 10.812 5.03906L13.438 7.66406C13.5347 7.7474 13.6003 7.83773 13.635 7.93506C13.6703 8.03173 13.688 8.12873 13.688 8.22606C13.688 8.3234 13.6703 8.42073 13.635 8.51806C13.6003 8.6154 13.5347 8.70573 13.438 8.78906L10.792 11.4351C10.6807 11.5597 10.5383 11.6254 10.365 11.6321C10.191 11.6394 10.0277 11.5667 9.875 11.4141ZM1.583 15.4971C1.139 15.4971 0.764 15.3444 0.458 15.0391C0.152667 14.7331 0 14.3581 0 13.9141V2.49706C0 2.0524 0.152667 1.6774 0.458 1.37206C0.764 1.06673 1.139 0.914062 1.583 0.914062H6.417C6.58367 0.914062 6.73633 0.980062 6.875 1.11206C7.01367 1.2434 7.083 1.3994 7.083 1.58006C7.083 1.76073 7.01367 1.91706 6.875 2.04906C6.73633 2.18106 6.58367 2.24706 6.417 2.24706H1.583C1.52767 2.24706 1.47233 2.27473 1.417 2.33006C1.361 2.38606 1.333 2.44173 1.333 2.49706V13.9141C1.333 13.9694 1.361 14.0247 1.417 14.0801C1.47233 14.1361 1.52767 14.1641 1.583 14.1641H6.417C6.58367 14.1641 6.73633 14.2301 6.875 14.3621C7.01367 14.4934 7.083 14.6494 7.083 14.8301C7.083 15.0107 7.01367 15.1671 6.875 15.2991C6.73633 15.4311 6.58367 15.4971 6.417 15.4971H1.583Z" fill="#BB133E"/>
</svg>
