<svg width="54" height="54" viewBox="0 0 54 54" fill="none" xmlns="http://www.w3.org/2000/svg">
<path d="M27.0026 13.6693C28.4693 13.6693 29.6693 14.8693 29.6693 16.3359V27.0026C29.6693 28.4693 28.4693 29.6693 27.0026 29.6693C25.5359 29.6693 24.3359 28.4693 24.3359 27.0026V16.3359C24.3359 14.8693 25.5359 13.6693 27.0026 13.6693ZM26.9759 0.335938C12.2559 0.335938 0.335938 12.2826 0.335938 27.0026C0.335938 41.7226 12.2559 53.6693 26.9759 53.6693C41.7226 53.6693 53.6693 41.7226 53.6693 27.0026C53.6693 12.2826 41.7226 0.335938 26.9759 0.335938ZM27.0026 48.3359C15.2159 48.3359 5.66927 38.7893 5.66927 27.0026C5.66927 15.2159 15.2159 5.66927 27.0026 5.66927C38.7893 5.66927 48.3359 15.2159 48.3359 27.0026C48.3359 38.7893 38.7893 48.3359 27.0026 48.3359ZM29.6693 40.3359H24.3359V35.0026H29.6693V40.3359Z" fill="#BB133E"/>
</svg>
