<svg width="18" height="18" viewBox="0 0 18 18" fill="none" xmlns="http://www.w3.org/2000/svg">
<path d="M0 2C0 0.9 0.9 0 2 0H9C8.37 0.84 8 1.87 8 3C8 5.76 10.24 8 13 8C13.34 8 13.68 7.97 14 7.9V16.48C14 17.2 13.27 17.68 12.61 17.4L7 15L1.39 17.4C0.73 17.69 0 17.2 0 16.48V2ZM17.07 0.34C17.46 0.73 17.46 1.36 17.07 1.75L13.53 5.29C13.14 5.68 12.51 5.68 12.12 5.29L10.71 3.88C10.32 3.49 10.32 2.86 10.71 2.47C11.1 2.08 11.73 2.08 12.12 2.47L12.83 3.18L15.66 0.35C16.05 -0.0500001 16.68 -0.0500001 17.07 0.34Z" fill="#4C4C4C" fill-opacity="0.8"/>
</svg>
