<svg width="57" height="57" viewBox="0 0 57 57" fill="none" xmlns="http://www.w3.org/2000/svg">
<path fill-rule="evenodd" clip-rule="evenodd" d="M18.903 43.9731H44.1632C45.0855 43.9731 45.8885 43.6286 46.5722 42.9397C47.2551 42.2516 47.5966 41.4429 47.5966 40.5136V18.9322C47.5966 18.4853 47.5113 18.0554 47.3408 17.6423C47.1695 17.2293 46.9133 16.8505 46.5722 16.5061L36.5806 6.43842C36.2387 6.09395 35.8628 5.8358 35.4529 5.66398C35.043 5.49216 34.6158 5.40625 34.1715 5.40625H18.903C17.9807 5.40625 17.1777 5.75031 16.4939 6.43842C15.811 7.12653 15.4695 7.93525 15.4695 8.86457V40.5136C15.4695 41.4429 15.811 42.2516 16.4939 42.9397C17.1777 43.6286 17.9807 43.9731 18.903 43.9731ZM9.6799 49.8068C10.3628 50.4949 11.1654 50.8389 12.0877 50.8389H34.8897C35.3676 50.8389 35.7689 50.6758 36.0936 50.3495C36.4182 50.0224 36.5806 49.6176 36.5806 49.1352C36.5806 48.6189 36.4182 48.1976 36.0936 47.8713C35.7689 47.5442 35.3676 47.3806 34.8897 47.3806H12.0877V18.1578C12.0877 17.6762 11.9254 17.2718 11.6008 16.9447C11.2761 16.6176 10.8576 16.454 10.3452 16.454C9.86723 16.454 9.46593 16.6176 9.14128 16.9447C8.81662 17.2718 8.6543 17.6762 8.6543 18.1578V47.3806C8.6543 48.3099 8.99617 49.1187 9.6799 49.8068ZM19.4004 16.2705H32.0844V19.5029H19.4004V16.2705ZM41.5974 23.8125H19.4004V27.0449H41.5974V23.8125ZM19.4004 31.3555H41.5974V34.5879H19.4004V31.3555Z" fill="#2766C5"/>
<defs>
<clipPath id="clip0_9041_85857">
<rect width="56.25" height="56.25" rx="10" fill="white"/>
</clipPath>
</defs>
</svg>
