<svg width="30" height="36" viewBox="0 0 30 36" fill="none" xmlns="http://www.w3.org/2000/svg">
<path d="M13.0524 10.0137H7.95939C7.17639 10.0137 6.50486 9.47761 6.32644 8.70958C5.7766 6.34325 5.7766 3.94384 6.32644 1.57752C6.50486 0.809484 7.176 0.273438 7.95939 0.273438H13.0524C13.9749 0.273438 14.7252 1.02375 14.7252 1.94657V3.29594H22.0711C22.2653 3.29594 22.4535 3.36605 22.6 3.49326L23.7998 4.53464C23.9766 4.68824 24.0778 4.91038 24.0778 5.14394C24.0778 5.3775 23.9762 5.59964 23.7998 5.75246L22.5997 6.79423C22.4535 6.92144 22.2653 6.99155 22.0711 6.99155H21.4118C21.2373 6.99155 21.0707 6.93641 20.9305 6.83243L19.986 6.13096L19.1569 6.72963C18.8698 6.94311 18.4838 6.94232 18.1963 6.72963L17.3896 6.13096L16.3124 6.91357C16.2447 6.96398 16.1624 6.99116 16.0777 6.99116H14.7256V8.34053C14.7252 9.26335 13.9749 10.0137 13.0524 10.0137ZM7.95939 1.06116C7.54465 1.06116 7.189 1.34671 7.09407 1.75554C6.57181 4.00371 6.57181 6.28378 7.09407 8.53155C7.189 8.94038 7.54505 9.22593 7.95939 9.22593H13.0524C13.5404 9.22593 13.9374 8.82892 13.9374 8.34053V6.59729C13.9374 6.37988 14.1139 6.20343 14.3313 6.20343H15.9469L16.8973 5.49802C17.1848 5.28455 17.5708 5.28494 17.8583 5.49763L18.665 6.0963L19.494 5.49763C19.7764 5.2877 20.1723 5.28731 20.4551 5.49763L21.3996 6.1991L22.0703 6.20264L23.2826 5.15654L22.0825 4.08721L14.3313 4.08327C14.1139 4.08327 13.9374 3.90682 13.9374 3.68941V1.94657C13.9374 1.45818 13.5404 1.06116 13.0524 1.06116H7.95939ZM9.178 6.62841C8.35916 6.62841 7.69314 5.96239 7.69314 5.14355C7.69314 4.32471 8.35916 3.65869 9.178 3.65869C9.99684 3.65869 10.6629 4.32471 10.6629 5.14355C10.6629 5.96239 9.99684 6.62841 9.178 6.62841ZM9.178 4.44641C8.79359 4.44641 8.48086 4.75914 8.48086 5.14355C8.48086 5.52796 8.79359 5.84068 9.178 5.84068C9.56241 5.84068 9.87514 5.52796 9.87514 5.14355C9.87514 4.75914 9.5628 4.44641 9.178 4.44641Z" fill="black"/>
<path d="M25.6635 19.6943C18.589 19.3182 11.414 19.3182 4.33862 19.6943L4.29688 18.9074C11.3998 18.5309 18.6024 18.5309 25.7049 18.9074L25.6635 19.6943Z" fill="black"/>
<path d="M6.1226 35.7169H1.99414C1.26076 35.7169 0.664062 35.1202 0.664062 34.3868V30.2064C0.664062 29.9886 0.840513 29.8125 1.05793 29.8125C1.27534 29.8125 1.45179 29.9886 1.45179 30.2064V34.3868C1.45179 34.6858 1.69519 34.9292 1.99414 34.9292H6.1226C6.42155 34.9292 6.66495 34.6858 6.66495 34.3868V32.2103C6.66495 31.9925 6.8414 31.8165 7.05881 31.8165C7.27623 31.8165 7.45268 31.9925 7.45268 32.2103V34.3868C7.45268 35.1202 6.85598 35.7169 6.1226 35.7169Z" fill="black"/>
<path d="M27.998 35.7204H23.8691C23.1358 35.7204 22.5391 35.1237 22.5391 34.3904V32.3013C22.5391 32.0835 22.7151 31.9075 22.9329 31.9075C23.1507 31.9075 23.3268 32.0835 23.3268 32.3013V34.3904C23.3268 34.6893 23.5702 34.9327 23.8691 34.9327H27.9976C28.2965 34.9327 28.54 34.6893 28.54 34.3904V30.2064C28.54 29.9886 28.716 29.8125 28.9338 29.8125C29.1516 29.8125 29.3277 29.9886 29.3277 30.2064V34.3904C29.3281 35.1237 28.7314 35.7204 27.998 35.7204Z" fill="black"/>
<path d="M26.1312 32.6064H3.86383C2.08199 32.6064 0.608946 31.2125 0.51048 29.4334L0.339544 26.3443C0.223748 24.2466 0.992962 22.1757 2.44986 20.6629L3.97647 19.0776L5.81463 14.4863C6.14311 13.6651 6.88593 13.0913 7.75282 12.9885C12.5599 12.4205 17.434 12.4205 22.2407 12.9885C23.1079 13.0913 23.8508 13.6651 24.1796 14.4863L26.017 19.0776L27.544 20.6629C29.0009 22.1757 29.7701 24.2466 29.6539 26.3443L29.483 29.4334C29.3857 31.2125 27.9127 32.6064 26.1312 32.6064ZM14.9975 13.35C12.608 13.35 10.2192 13.4902 7.84577 13.7707C7.26562 13.8392 6.76777 14.2256 6.54603 14.779L4.65116 19.5132L3.01781 21.2096C1.71215 22.5652 1.0229 24.4211 1.12648 26.3014L1.29742 29.3901C1.37265 30.7521 2.50027 31.819 3.86422 31.819H26.1312C27.4952 31.819 28.6224 30.7521 28.698 29.3901L28.869 26.301C28.973 24.4215 28.2837 22.566 26.9773 21.2096L25.3443 19.5132L25.3155 19.4419L23.4494 14.779C23.2281 14.2256 22.7302 13.8392 22.1497 13.7707C19.7767 13.4902 17.3863 13.35 14.9975 13.35Z" fill="black"/>
<path d="M5.54184 30.0768H4.36261C4.1452 30.0768 3.96875 29.9007 3.96875 29.6829C3.96875 29.4651 4.1452 29.2891 4.36261 29.2891H5.54184C5.75925 29.2891 5.9357 29.4651 5.9357 29.6829C5.9357 29.9007 5.75925 30.0768 5.54184 30.0768Z" fill="black"/>
<path d="M25.6325 30.0768H24.4486C24.2307 30.0768 24.0547 29.9007 24.0547 29.6829C24.0547 29.4651 24.2307 29.2891 24.4486 29.2891H25.6325C25.8503 29.2891 26.0264 29.4651 26.0264 29.6829C26.0264 29.9007 25.8503 30.0768 25.6325 30.0768Z" fill="black"/>
<path d="M19.082 30.2525H10.9204C10.4166 30.2525 9.96367 29.9724 9.73838 29.5222L9.48434 29.0142C9.27835 28.6014 9.29962 28.1205 9.54224 27.7282C9.78486 27.3359 10.2051 27.1016 10.6663 27.1016H19.336C19.7976 27.1016 20.2175 27.3359 20.4601 27.7282C20.7023 28.1205 20.724 28.6014 20.5176 29.0142L20.2636 29.5222C20.0383 29.9724 19.5857 30.2525 19.082 30.2525ZM10.6663 27.8893C10.4773 27.8893 10.3118 27.9815 10.2126 28.1425C10.1133 28.3036 10.1047 28.4927 10.189 28.6617L10.443 29.1697C10.534 29.3517 10.7167 29.4647 10.9204 29.4647H19.082C19.2856 29.4647 19.468 29.3517 19.5593 29.1697L19.8134 28.6617C19.8981 28.4923 19.8894 28.3032 19.7901 28.1425C19.6905 27.9818 19.5251 27.8893 19.336 27.8893H10.6663Z" fill="black"/>
<path d="M6.88721 27.8829H3.81429C2.9604 27.8829 2.26562 27.1877 2.26562 26.3338V25.5185C2.26562 25.0341 2.48619 24.5866 2.8702 24.2908C3.25461 23.9954 3.7434 23.897 4.2117 24.0214L7.28422 24.8367C7.96245 25.0171 8.43587 25.6327 8.43587 26.3338C8.43587 27.1881 7.7411 27.8829 6.88721 27.8829ZM3.81232 24.7572C3.64729 24.7572 3.48542 24.8115 3.35032 24.9155C3.16166 25.0605 3.05335 25.2806 3.05335 25.5185V26.3338C3.05335 26.7533 3.39483 27.0951 3.81429 27.0951H6.88721C7.30667 27.0951 7.64815 26.7537 7.64815 26.3338C7.64815 25.9892 7.41538 25.6867 7.08217 25.5985L4.00965 24.7832C3.94427 24.7658 3.8781 24.7572 3.81232 24.7572Z" fill="black"/>
<path d="M26.1837 27.8833H23.1116C22.2577 27.8833 21.5625 27.1881 21.5625 26.3342C21.5625 25.6331 22.0359 25.0175 22.7138 24.8372L25.7867 24.0219C26.2546 23.8966 26.7442 23.9955 27.1282 24.2913C27.5122 24.587 27.7327 25.0345 27.7327 25.5189V26.3342C27.7327 27.1885 27.0376 27.8833 26.1837 27.8833ZM26.1857 24.7576C26.1203 24.7576 26.0541 24.7663 25.9887 24.7836L22.9158 25.5989C22.5826 25.6875 22.3498 25.9896 22.3498 26.3342C22.3498 26.7537 22.6913 27.0956 23.1112 27.0956H26.1837C26.6032 27.0956 26.945 26.7541 26.945 26.3342V25.5189C26.945 25.281 26.8367 25.0609 26.6477 24.9159C26.5126 24.8119 26.3511 24.7576 26.1857 24.7576Z" fill="black"/>
</svg>
