<svg width="18" height="18" viewBox="0 0 18 18" fill="none" xmlns="http://www.w3.org/2000/svg">
<path d="M15.9758 17.0255L10.3008 11.3505L11.3508 10.3005L17.0008 15.9755C17.1508 16.1088 17.2258 16.2838 17.2258 16.5005C17.2258 16.7171 17.1508 16.8921 17.0008 17.0255C16.8674 17.1755 16.6968 17.2465 16.4888 17.2385C16.2801 17.2298 16.1091 17.1588 15.9758 17.0255ZM1.87578 15.1505C0.909115 13.6171 0.425781 11.9545 0.425781 10.1625C0.425781 8.37112 0.900781 6.70879 1.85078 5.17545C1.81745 5.77545 1.88811 6.43379 2.06278 7.15045C2.23811 7.86712 2.50511 8.60479 2.86378 9.36345C3.22178 10.1215 3.65078 10.8755 4.15078 11.6255C4.65078 12.3755 5.18411 13.1005 5.75078 13.8005L4.25078 15.3005C3.88411 15.6671 3.45911 15.8338 2.97578 15.8005C2.49245 15.7671 2.12578 15.5505 1.87578 15.1505ZM6.77578 12.7505C6.02578 11.9838 5.39245 11.1505 4.87578 10.2505C4.35911 9.35045 3.96745 8.47945 3.70078 7.63745C3.43411 6.79612 3.30478 6.03379 3.31278 5.35045C3.32145 4.66712 3.49245 4.15879 3.82578 3.82545C4.17578 3.47545 4.69245 3.29212 5.37578 3.27545C6.05911 3.25879 6.82178 3.38779 7.66378 3.66245C8.50511 3.93779 9.37178 4.33779 10.2638 4.86245C11.1551 5.38779 11.9924 6.02545 12.7758 6.77545L6.77578 12.7505ZM15.3008 4.25045L13.8008 5.75045C13.1341 5.18379 12.4258 4.65445 11.6758 4.16245C10.9258 3.67112 10.1758 3.24612 9.42578 2.88745C8.67578 2.52945 7.94678 2.25045 7.23878 2.05045C6.53011 1.85045 5.87578 1.77545 5.27578 1.82545C6.79245 0.925454 8.43411 0.483788 10.2008 0.500455C11.9674 0.517121 13.6091 0.975455 15.1258 1.87545C15.5424 2.14212 15.7674 2.51279 15.8008 2.98745C15.8341 3.46279 15.6674 3.88379 15.3008 4.25045Z" fill="#4C4C4C" fill-opacity="0.8"/>
</svg>
