<svg width="78" height="25" viewBox="0 0 78 25" fill="none" xmlns="http://www.w3.org/2000/svg">
<path d="M0.944 21.912C2.08 21.256 2.888 20.728 3.368 20.328C3.848 19.928 4.168 19.496 4.328 19.032C4.488 18.568 4.568 17.896 4.568 17.016V9.048H8.024V17.016C8.024 18.36 7.856 19.464 7.52 20.328C7.184 21.192 6.608 21.96 5.792 22.632C4.976 23.32 3.792 24.048 2.24 24.816L0.944 21.912ZM14.4832 18C13.6512 18 12.8912 17.8 12.2032 17.4C11.5152 16.984 10.9712 16.432 10.5712 15.744C10.1712 15.04 9.97119 14.28 9.97119 13.464V1.824H13.4272V13.248C13.4272 13.568 13.5312 13.84 13.7392 14.064C13.9472 14.272 14.2032 14.376 14.5072 14.376H15.8272C15.9872 14.376 16.0672 14.456 16.0672 14.616V17.76C16.0672 17.92 15.9872 18 15.8272 18H14.4832ZM15.5881 14.616C15.5881 14.456 15.6681 14.376 15.8281 14.376H21.2281C21.6601 14.376 22.0281 14.232 22.3321 13.944C22.6361 13.656 22.7881 13.272 22.7881 12.792C22.7881 12.216 22.5161 11.76 21.9721 11.424L16.5481 7.848V5.232L21.3241 0.144L23.7001 2.376L20.1241 6.096L24.1081 8.712C24.7801 9.144 25.3001 9.728 25.6681 10.464C26.0521 11.184 26.2441 11.984 26.2441 12.864C26.2441 13.792 26.0121 14.648 25.5481 15.432C25.1001 16.216 24.4921 16.84 23.7241 17.304C22.9561 17.768 22.1081 18 21.1801 18H15.8281C15.6681 18 15.5881 17.92 15.5881 17.76V14.616ZM28.2534 12.096H31.7094V17.736C31.7094 18.456 31.9654 19.072 32.4774 19.584C32.9894 20.112 33.6054 20.376 34.3254 20.376H39.8934C40.2294 20.376 40.5094 20.256 40.7334 20.016C40.9734 19.776 41.0934 19.496 41.0934 19.176C41.0934 18.856 40.9734 18.576 40.7334 18.336C40.5094 18.112 40.2294 18 39.8934 18H35.3094V15.024H39.8214C41.2294 15.024 42.3894 15.4 43.3014 16.152C44.2134 16.888 44.6694 17.896 44.6694 19.176C44.6694 20.056 44.4534 20.864 44.0214 21.6C43.5894 22.336 43.0054 22.92 42.2694 23.352C41.5334 23.784 40.7174 24 39.8214 24H34.3254C33.2214 24 32.2054 23.728 31.2774 23.184C30.3494 22.64 29.6134 21.904 29.0694 20.976C28.5254 20.048 28.2534 19.032 28.2534 17.928V12.096ZM34.9254 18V14.376H45.5814C45.7414 14.376 45.8214 14.456 45.8214 14.616V17.76C45.8214 17.92 45.7414 18 45.5814 18H34.9254ZM45.5713 18C45.4113 18 45.3313 17.92 45.3313 17.76V14.616C45.3313 14.456 45.4113 14.376 45.5713 14.376H46.8673C47.1713 14.376 47.4273 14.264 47.6353 14.04C47.8593 13.816 47.9713 13.552 47.9713 13.248V8.328H51.4033V13.464C51.4033 14.28 51.2033 15.04 50.8033 15.744C50.4033 16.432 49.8593 16.984 49.1713 17.4C48.4833 17.8 47.7233 18 46.8913 18H45.5713ZM48.0433 3.192H51.1153V6.288H48.0433V3.192ZM53.2846 1.824H56.7406V18H53.2846V1.824ZM55.3668 21.912C56.5028 21.256 57.3108 20.728 57.7908 20.328C58.2708 19.928 58.5908 19.496 58.7508 19.032C58.9108 18.568 58.9908 17.896 58.9908 17.016V9.048H62.4468V17.016C62.4468 18.36 62.2788 19.464 61.9428 20.328C61.6068 21.192 61.0308 21.96 60.2148 22.632C59.3988 23.32 58.2148 24.048 56.6628 24.816L55.3668 21.912ZM63.5508 18C62.3348 18 61.4388 17.584 60.8628 16.752C60.3028 15.92 60.0228 14.824 60.0228 13.464V9.048H62.4468V13.248C62.4468 13.568 62.5508 13.84 62.7588 14.064C62.9668 14.272 63.2308 14.376 63.5508 14.376H64.5588C64.7188 14.376 64.7988 14.456 64.7988 14.616V17.76C64.7988 17.92 64.7188 18 64.5588 18H63.5508ZM64.5556 18C64.3956 18 64.3156 17.92 64.3156 17.76V14.616C64.3156 14.456 64.3956 14.376 64.5556 14.376H67.1476C67.4516 14.376 67.7076 14.264 67.9156 14.04C68.1396 13.816 68.2516 13.552 68.2516 13.248V8.328H71.6836V13.464C71.6836 14.28 71.4836 15.04 71.0836 15.744C70.6836 16.432 70.1396 16.984 69.4516 17.4C68.7636 17.8 68.0036 18 67.1716 18H64.5556ZM64.5796 20.064H67.6516V23.136H64.5796V20.064ZM68.8996 20.064H71.9956V23.136H68.8996V20.064ZM73.6753 1.824H77.1313V18H73.6753V1.824Z" fill="black"/>
</svg>