<svg width="48" height="45" viewBox="0 0 48 45" fill="none" xmlns="http://www.w3.org/2000/svg">
<path d="M35.5625 0.0625C29.0938 0.0625 23.8438 5.3125 23.8438 11.7812C23.8438 18.25 29.0938 23.5 35.5625 23.5C42.0312 23.5 47.2812 18.25 47.2812 11.7812C47.2812 5.3125 42.0312 0.0625 35.5625 0.0625ZM36.7344 14.125H34.3906V4.75H36.7344V14.125ZM36.7344 16.4688V18.8125H34.3906V16.4688H36.7344ZM35.3516 28.1875C35.4922 28.5625 35.5625 28.9609 35.5625 29.3594C35.5625 31.3047 33.9922 32.875 32.0469 32.875C30.1016 32.875 28.5312 31.3047 28.5312 29.3594C28.5312 28.4453 28.8828 27.625 29.4453 26.9922C25.625 25.4453 22.5078 22.5156 20.75 18.8125H6.99219L9.42969 11.7812H19.1562C19.1562 10.1641 19.3906 8.57031 19.8359 7.09375H8.60938C7.0625 7.09375 5.77344 8.07813 5.28125 9.46094L0.40625 23.5V42.25C0.40625 43.5391 1.46094 44.5938 2.75 44.5938H5.09375C6.38281 44.5938 7.4375 43.5391 7.4375 42.25V39.9062H35.5625V42.25C35.5625 43.5391 36.6172 44.5938 37.9062 44.5938H40.25C41.5391 44.5938 42.5938 43.5391 42.5938 42.25V26.5938C40.1328 27.7891 37.5312 28.2109 35.3516 28.1875ZM10.9531 32.875C9.00781 32.875 7.4375 31.3047 7.4375 29.3594C7.4375 27.4141 9.00781 25.8438 10.9531 25.8438C12.8984 25.8438 14.4688 27.4141 14.4688 29.3594C14.4688 31.3047 12.8984 32.875 10.9531 32.875Z" fill="#2766C5"/>
</svg>
