<svg width="130" height="42" viewBox="0 0 130 42" fill="none" xmlns="http://www.w3.org/2000/svg">
<g clip-path="url(#clip0_8384_53194)">
<path d="M129.504 32.6425H103.868L105.076 25.6425H116.578C116.658 25.6437 116.738 25.6282 116.812 25.597C116.886 25.5658 116.953 25.5196 117.009 25.4611C117.125 25.3511 117.207 25.2081 117.243 25.0504L118.647 16.8758C118.665 16.8038 118.665 16.7281 118.647 16.6562C118.636 16.582 118.599 16.5143 118.544 16.4652C118.504 16.4005 118.445 16.3504 118.375 16.3219C118.304 16.312 118.231 16.312 118.16 16.3219H98.1309C98.0522 16.3209 97.9742 16.3365 97.9017 16.3677C97.8292 16.399 97.7639 16.4451 97.7097 16.5034C97.5899 16.6105 97.5077 16.7547 97.4757 16.914L96.0718 25.0886L94.6679 33.2537L93.264 41.4283C93.2453 41.5003 93.2453 41.576 93.264 41.648C93.2838 41.7168 93.3155 41.7815 93.3576 41.839C93.4014 41.9039 93.4634 41.9538 93.5354 41.9822C93.6061 42.0004 93.68 42.0004 93.7507 41.9822H127.884C128.042 41.9664 128.192 41.9032 128.315 41.8008C128.431 41.6982 128.513 41.5614 128.549 41.4092L129.953 33.2346C129.972 33.1626 129.972 33.0869 129.953 33.015C129.933 32.9461 129.901 32.8814 129.859 32.824C129.813 32.7612 129.752 32.7118 129.681 32.6807C129.624 32.6606 129.564 32.6477 129.504 32.6425Z" fill="#BB133E"/>
<path d="M99.3456 9.32065H126.422C126.502 9.32182 126.582 9.30634 126.656 9.27514C126.73 9.24394 126.797 9.19769 126.853 9.1392C126.966 9.02624 127.046 8.88439 127.087 8.72856L128.491 0.553933C128.509 0.481954 128.509 0.406267 128.491 0.334288C128.48 0.260154 128.443 0.192435 128.388 0.143292C128.348 0.0786287 128.289 0.0284958 128.219 4.49267e-05H128.042H100.899C100.821 -0.000951962 100.743 0.0146511 100.67 0.0458751C100.598 0.0770991 100.532 0.12327 100.478 0.181491C100.358 0.28865 100.276 0.432866 100.244 0.592132L98.8402 8.76676C98.8215 8.83874 98.8215 8.91442 98.8402 8.9864C98.8519 9.0582 98.8845 9.12475 98.9337 9.1774C98.9756 9.24414 99.0382 9.29459 99.1116 9.32065H99.3456Z" fill="#BB133E"/>
<path d="M-0.375 37.999L1.24418 37.5406C2.16647 37.3501 3.05805 37.0287 3.89289 36.5856C4.15917 36.4225 4.38859 36.2038 4.56604 35.9437C4.74349 35.6836 4.86495 35.3882 4.92242 35.0768C4.96267 34.8878 4.99081 34.6964 5.00666 34.5038L5.63374 27.3701L8.79722 26.8926L8.32925 32.0686L8.15142 34.0454C8.04847 34.647 8.04847 35.0577 7.97359 35.3155C7.69154 36.7332 6.92946 38.0044 5.82093 38.9062C4.45565 39.8941 2.90826 40.5893 1.27226 40.9499L-0.375 41.3892V37.999Z" fill="white"/>
<path d="M12.7957 34.4836C12.4851 34.2938 12.2208 34.0344 12.023 33.725C11.8252 33.4156 11.6989 33.0644 11.6538 32.6978C11.5234 31.5928 11.5709 30.4735 11.7942 29.384L13.9188 17.9243L17.0261 17.7715L14.8828 29.384C14.7808 29.8677 14.7244 30.3601 14.7144 30.8547C14.7088 30.9675 14.7396 31.079 14.8022 31.1722C14.8648 31.2654 14.9556 31.335 15.0607 31.3704C15.4516 31.473 15.8555 31.5148 16.2587 31.4945H16.4739L16.268 33.2517L15.669 35.0184H15.4163C14.5121 35.0755 13.6088 34.8912 12.7957 34.4836Z" fill="white"/>
<path d="M16.2588 31.4959H21.6031C21.8587 31.5106 22.1128 31.4474 22.3331 31.3145C22.5632 31.163 22.7274 30.9271 22.7917 30.6555C22.8436 30.4484 22.8133 30.2288 22.7075 30.0443L19.0667 22.2899L20.3583 19.6351L29.9423 16.3213L30.298 19.5969L22.9602 22.1371L25.5247 27.9243C25.9642 28.9251 26.0726 30.0447 25.8335 31.1139C25.6308 32.0407 25.1577 32.8831 24.4764 33.53C24.0028 34.0023 23.4432 34.3754 22.8292 34.6282C22.1578 34.8935 21.4432 35.0264 20.7233 35.0198H15.4727L16.2588 31.4959Z" fill="white"/>
<path d="M34.6107 41.1699C33.4501 41.2144 32.3058 40.8798 31.3443 40.2149C30.4885 39.5752 29.8924 38.6374 29.669 37.5792C29.3997 36.2753 29.4285 34.9257 29.7532 33.6351C30.2012 31.8012 30.9107 30.0444 31.8591 28.4209L34.5265 29.586C33.7551 30.8675 33.1717 32.2574 32.795 33.7115C32.6421 34.1807 32.5848 34.6769 32.6267 35.1696C32.6685 35.6623 32.8086 36.141 33.0384 36.5764C33.311 36.9352 33.6693 37.2167 34.0789 37.3939C34.4886 37.5711 34.9359 37.6382 35.3782 37.5887C35.9266 37.5823 36.4726 37.5151 37.0067 37.3882C38.1299 37.1303 38.9816 36.9393 39.5619 36.7388C40.0324 36.6126 40.4722 36.3882 40.8535 36.0798C41.1532 35.8398 41.3644 35.5031 41.4525 35.1249C41.479 34.9988 41.4977 34.8713 41.5086 34.7429C41.5086 34.5423 41.284 34.3227 40.7505 34.0935L38.4855 33.3008L40.1609 29.9489C42.3884 30.5983 43.8485 31.0375 44.5411 31.1903C45.184 31.3773 45.8476 31.4799 46.5159 31.4959L46.31 33.2626L45.711 35.0294C45.1682 35.0294 44.7751 35.0294 44.5411 35.0294C44.302 36.5265 43.4909 37.8659 42.2855 38.7538C40.6571 39.8403 38.8294 40.5779 36.9132 40.9216C36.158 41.0972 35.3851 41.1805 34.6107 41.1699Z" fill="white"/>
<path d="M46.2819 31.4958H48.2099C48.7626 31.5245 49.3141 31.4198 49.8197 31.1902C50.0151 31.0865 50.1838 30.9374 50.3122 30.7549C50.4407 30.5724 50.5253 30.3617 50.5591 30.1397C50.6158 29.8249 50.6378 29.5045 50.6246 29.1847L50.4843 25.4794L53.6665 24.5817L53.8068 28.287C53.8332 28.9285 53.7765 29.5706 53.6384 30.197C53.3425 31.5945 52.5571 32.8338 51.4296 33.6827C50.2751 34.5633 48.8648 35.0239 47.4237 34.991H45.4863L46.2819 31.4958ZM50.6621 19.3389H53.9098L53.1798 22.5858H49.932L50.6621 19.3389Z" fill="white"/>
<path d="M59.4314 17.9633L62.5574 17.8105L59.3378 35.0002L56.2305 35.1625L59.4314 17.9633Z" fill="white"/>
<path d="M67.5462 35.0005C67.3395 36.494 66.5955 37.8557 65.459 38.8204C64.069 39.8702 62.4724 40.6001 60.7793 40.9595L59.1602 41.4179V38.0087L60.7793 37.5503C61.6987 37.3601 62.5873 37.0386 63.4187 36.5953C63.6852 36.4313 63.9152 36.2125 64.0941 35.9527C64.273 35.6929 64.3968 35.3978 64.4576 35.0864C64.4576 34.9718 64.4576 34.7904 64.5418 34.5134L65.1408 27.3224L68.3043 26.8545L68.1826 28.201C68.1826 28.4207 68.1826 29.0509 68.0797 30.111C68.028 30.4833 68.0765 30.8629 68.2201 31.2092C68.3085 31.3061 68.4183 31.3801 68.5404 31.425C68.6625 31.4698 68.7933 31.4843 68.922 31.467H69.0437L68.8846 33.2529L68.2856 35.0196H68.1639C67.958 35.0383 67.7506 35.0318 67.5462 35.0005Z" fill="white"/>
<path d="M68.8853 31.4962H73.565C74.1115 31.5233 74.6566 31.4186 75.1561 31.1906C75.345 31.0905 75.5095 30.9485 75.6375 30.775C75.7654 30.6014 75.8536 30.4008 75.8955 30.1879C75.954 29.8733 75.976 29.5527 75.961 29.2329L75.8393 25.5276L79.0215 24.6299L79.1806 28.5357C79.202 29.1355 79.1486 29.7356 79.0215 30.3216C78.8343 31.243 78.4149 32.0988 77.8048 32.8045C77.2055 33.5218 76.4487 34.0846 75.596 34.4471C74.7097 34.8366 73.7531 35.0318 72.7881 35.0201H68.1084L68.8853 31.4962ZM68.202 37.2261H71.0099L70.3547 40.091H67.5469L68.202 37.2261ZM73.2093 37.2261H76.0171L75.3526 40.091H72.629L73.2093 37.2261Z" fill="white"/>
<path d="M84.7969 17.9633L87.9229 17.8105L84.7033 35.0002L81.5959 35.1625L84.7969 17.9633Z" fill="white"/>
</g>
<defs>
<clipPath id="clip0_8384_53194">
<rect width="130" height="42" fill="white" transform="matrix(-1 0 0 1 130 0)"/>
</clipPath>
</defs>
</svg>
