<svg width="48" height="70" viewBox="0 0 48 70" fill="none" xmlns="http://www.w3.org/2000/svg">
<path d="M47.3629 41.6445H14.166L15.7236 32.7173H30.6282C30.835 32.7101 31.0332 32.6331 31.1906 32.4987C31.3479 32.3643 31.4551 32.1806 31.4946 31.9775L33.3151 21.5609C33.338 21.4709 33.3395 21.3768 33.3195 21.2861C33.2995 21.1954 33.2585 21.1107 33.1998 21.0388C33.1411 20.9668 33.0663 20.9096 32.9815 20.8718C32.8967 20.834 32.8042 20.8166 32.7115 20.821H6.7381C6.5313 20.8282 6.33304 20.9053 6.17569 21.0396C6.01833 21.174 5.91117 21.3577 5.87167 21.5609L4.05119 31.9775L2.23072 42.3844L0.410247 52.801C0.389154 52.8916 0.389294 52.9859 0.410663 53.0764C0.432031 53.167 0.474042 53.2514 0.533422 53.323C0.592801 53.3946 0.667935 53.4516 0.752959 53.4894C0.837983 53.5271 0.930591 53.5448 1.02355 53.5409H45.2991C45.5029 53.5242 45.6963 53.4437 45.8518 53.3109C46.0073 53.1781 46.1171 52.9997 46.1655 52.801L47.986 42.3844C48.0073 42.2929 48.0071 42.1977 47.9852 42.1064C47.9633 42.0151 47.9204 41.9301 47.8599 41.8582C47.7994 41.7864 47.723 41.7297 47.6367 41.6926C47.5504 41.6555 47.4567 41.639 47.3629 41.6445Z" fill="#BB133E"/>
<path d="M8.29385 11.897H43.4183C43.6251 11.8898 43.8234 11.8128 43.9807 11.6784C44.1381 11.544 44.2452 11.3603 44.2847 11.1572L46.1052 0.740539C46.1282 0.650562 46.1297 0.55646 46.1096 0.465791C46.0896 0.375121 46.0486 0.290409 45.9899 0.21846C45.9312 0.14651 45.8565 0.089327 45.7717 0.0515028C45.6869 0.0136786 45.5944 -0.00373274 45.5016 0.00066711H10.3772C10.1704 0.00786886 9.97213 0.0849439 9.81478 0.219315C9.65742 0.353687 9.55024 0.537422 9.51075 0.740539L7.69028 11.1572C7.66734 11.2471 7.66583 11.3412 7.68585 11.4319C7.70587 11.5226 7.74687 11.6073 7.80556 11.6792C7.86426 11.7512 7.93901 11.8084 8.02381 11.8462C8.10861 11.884 8.2011 11.9014 8.29385 11.897Z" fill="#BB133E"/>
<path d="M0 68.2793L0.83064 68.0489C1.30378 67.9531 1.76116 67.7915 2.18943 67.5687C2.32604 67.4867 2.44373 67.3767 2.53476 67.246C2.62579 67.1152 2.6881 66.9667 2.71759 66.8101C2.73823 66.7151 2.75267 66.6189 2.7608 66.522L3.08249 62.9354L4.70536 62.6953L4.46529 65.2977L4.37406 66.2916C4.32125 66.594 4.32125 66.8005 4.28284 66.9301C4.13815 67.6429 3.7472 68.282 3.17852 68.7355C2.47813 69.2321 1.68432 69.5817 0.845044 69.763L0 69.9838V68.2793Z" fill="#002664"/>
<path d="M6.75542 66.5118C6.59607 66.4164 6.46053 66.2859 6.35904 66.1304C6.25755 65.9748 6.19279 65.7982 6.16965 65.6139C6.10276 65.0584 6.12709 64.4956 6.24167 63.9479L7.33158 58.1862L8.92564 58.1094L7.82613 63.9479C7.7738 64.191 7.74486 64.4386 7.7397 64.6873C7.73684 64.744 7.75267 64.8001 7.78476 64.8469C7.81686 64.8937 7.86344 64.9287 7.91735 64.9466C8.11791 64.9981 8.3251 65.0192 8.53193 65.009H8.64236L8.53673 65.8924L8.22944 66.7807H8.09981C7.63593 66.8094 7.17257 66.7167 6.75542 66.5118Z" fill="#002664"/>
<path d="M8.53222 65.0122H11.2738C11.4049 65.0196 11.5353 64.9878 11.6483 64.921C11.7663 64.8448 11.8506 64.7262 11.8836 64.5897C11.9102 64.4856 11.8947 64.3751 11.8404 64.2824L9.97264 60.3837L10.6352 59.0489L15.5519 57.3828L15.7343 59.0297L11.97 60.3069L13.2856 63.2165C13.5111 63.7197 13.5667 64.2826 13.444 64.8202C13.3401 65.2861 13.0973 65.7097 12.7478 66.0349C12.5049 66.2724 12.2178 66.4599 11.9028 66.5871C11.5584 66.7204 11.1918 66.7872 10.8225 66.7839H8.12891L8.53222 65.0122Z" fill="#002664"/>
<path d="M17.9491 69.8786C17.3537 69.901 16.7667 69.7328 16.2735 69.3985C15.8344 69.0768 15.5286 68.6053 15.414 68.0733C15.2759 67.4177 15.2907 66.7392 15.4572 66.0903C15.687 65.1683 16.051 64.285 16.5375 63.4688L17.9059 64.0545C17.5102 64.6988 17.2109 65.3977 17.0177 66.1287C16.9392 66.3646 16.9099 66.6141 16.9313 66.8618C16.9528 67.1095 17.0247 67.3502 17.1425 67.5691C17.2824 67.7495 17.4662 67.891 17.6763 67.9801C17.8865 68.0692 18.116 68.103 18.3429 68.0781C18.6242 68.0749 18.9043 68.0411 19.1783 67.9773C19.7545 67.8476 20.1914 67.7516 20.4891 67.6508C20.7305 67.5873 20.9561 67.4745 21.1517 67.3195C21.3054 67.1988 21.4138 67.0295 21.459 66.8393C21.4725 66.776 21.4822 66.7118 21.4878 66.6473C21.4878 66.5464 21.3725 66.436 21.0989 66.3208L19.9369 65.9223L20.7964 64.237C21.9391 64.5635 22.6881 64.7843 23.0434 64.8612C23.3732 64.9551 23.7137 65.0068 24.0565 65.0148L23.9509 65.9031L23.6436 66.7913C23.3651 66.7913 23.1634 66.7913 23.0434 66.7913C22.9208 67.5441 22.5047 68.2174 21.8863 68.6639C21.051 69.2101 20.1133 69.581 19.1303 69.7538C18.7429 69.842 18.3464 69.8839 17.9491 69.8786Z" fill="#002664"/>
<path d="M23.9355 65.0106H24.9245C25.2081 65.025 25.491 64.9724 25.7504 64.857C25.8506 64.8048 25.9371 64.7299 26.003 64.6381C26.0689 64.5464 26.1123 64.4404 26.1297 64.3288C26.1588 64.1705 26.1701 64.0095 26.1633 63.8487L26.0913 61.9857L27.7238 61.5344L27.7958 63.3973C27.8093 63.7198 27.7802 64.0427 27.7094 64.3576C27.5575 65.0602 27.1547 65.6833 26.5762 66.1101C25.984 66.5529 25.2605 66.7845 24.5212 66.7679H23.5273L23.9355 65.0106ZM26.1825 58.8984H27.8486L27.4741 60.5309H25.808L26.1825 58.8984Z" fill="#002664"/>
<path d="M30.6811 58.2096L32.2848 58.1328L30.6331 66.7753L29.0391 66.8569L30.6811 58.2096Z" fill="#002664"/>
<path d="M34.845 66.7753C34.739 67.5262 34.3573 68.2108 33.7743 68.6958C33.0612 69.2237 32.2422 69.5906 31.3736 69.7713L30.543 70.0018V68.2877L31.3736 68.0572C31.8453 67.9616 32.3011 67.8 32.7276 67.5771C32.8643 67.4947 32.9823 67.3846 33.0741 67.254C33.1659 67.1234 33.2294 66.975 33.2606 66.8185C33.2606 66.7609 33.2606 66.6696 33.3038 66.5304L33.6111 62.915L35.2339 62.6797L35.1715 63.3567C35.1715 63.4671 35.1715 63.784 35.1187 64.317C35.0922 64.5041 35.1171 64.695 35.1907 64.8691C35.2361 64.9179 35.2924 64.9551 35.355 64.9776C35.4177 65.0002 35.4848 65.0074 35.5508 64.9988H35.6132L35.5316 65.8966L35.2243 66.7849H35.1619C35.0563 66.7943 34.9499 66.791 34.845 66.7753Z" fill="#002664"/>
<path d="M35.5303 65.0147H37.931C38.2114 65.0283 38.4911 64.9757 38.7473 64.8611C38.8442 64.8107 38.9286 64.7393 38.9942 64.6521C39.0599 64.5648 39.1051 64.464 39.1266 64.3569C39.1566 64.1987 39.1679 64.0376 39.1602 63.8768L39.0978 62.0138L40.7303 61.5625L40.8119 63.5263C40.8229 63.8278 40.7954 64.1295 40.7303 64.4241C40.6342 64.8874 40.4191 65.3177 40.1061 65.6725C39.7986 66.0331 39.4104 66.3161 38.9729 66.4983C38.5183 66.6942 38.0275 66.7923 37.5325 66.7864H35.1318L35.5303 65.0147ZM35.1798 67.8955H36.6203L36.2842 69.3359H34.8438L35.1798 67.8955ZM37.7486 67.8955H39.189L38.8481 69.3359H37.4509L37.7486 67.8955Z" fill="#002664"/>
<path d="M43.6929 58.2096L45.2965 58.1328L43.6448 66.7753L42.0508 66.8569L43.6929 58.2096Z" fill="#002664"/>
</svg>
