<svg width="40" height="22" viewBox="0 0 40 22" fill="none" xmlns="http://www.w3.org/2000/svg">
<path d="M3.63602 1.99354e-05C3.15809 -0.00156525 2.68456 0.0914005 2.24271 0.273565C1.80085 0.455729 1.39939 0.723494 1.06144 1.06144C0.723495 1.39939 0.455729 1.80085 0.273565 2.24271C0.0914005 2.68456 -0.00156525 3.15809 1.99354e-05 3.63602V16.364H3.63602C3.62213 17.0892 3.75297 17.8098 4.02087 18.4838C4.28877 19.1578 4.68837 19.7716 5.19629 20.2893C5.7042 20.8071 6.31025 21.2183 6.97899 21.4991C7.64773 21.7798 8.36573 21.9245 9.09101 21.9245C9.81629 21.9245 10.5343 21.7798 11.203 21.4991C11.8718 21.2183 12.4778 20.8071 12.9857 20.2893C13.4937 19.7716 13.8933 19.1578 14.1612 18.4838C14.4291 17.8098 14.5599 17.0892 14.546 16.364H25.456C25.456 17.8108 26.0307 19.1983 27.0537 20.2213C28.0767 21.2443 29.4642 21.819 30.911 21.819C32.3577 21.819 33.7452 21.2443 34.7683 20.2213C35.7913 19.1983 36.366 17.8108 36.366 16.364H40V10.91C40.0016 10.4321 39.9086 9.95855 39.7264 9.5167C39.5443 9.07484 39.2765 8.67339 38.9386 8.33544C38.6006 7.99749 38.1991 7.72972 37.7573 7.54756C37.3154 7.36539 36.8419 7.27243 36.364 7.27401H32.73V3.63602C32.7316 3.15809 32.6386 2.68456 32.4564 2.24271C32.2743 1.80085 32.0065 1.39939 31.6686 1.06144C31.3306 0.723494 30.9292 0.455729 30.4873 0.273565C30.0454 0.0914005 29.5719 -0.00156525 29.094 1.99354e-05H3.63602ZM22.728 2.72802H30V7.27401H22.73V2.72802H22.728ZM2.73002 2.72802H10V7.27401H2.72802V2.72802H2.73002ZM12.728 2.72802H20V7.27401H12.728V2.72802ZM9.09201 13.638C9.63156 13.638 10.159 13.798 10.6076 14.0978C11.0562 14.3975 11.4059 14.8236 11.6124 15.322C11.8188 15.8205 11.8729 16.369 11.7676 16.8982C11.6623 17.4274 11.4025 17.9135 11.021 18.295C10.6395 18.6765 10.1534 18.9363 9.62422 19.0416C9.09504 19.1468 8.54653 19.0928 8.04805 18.8863C7.54958 18.6799 7.12352 18.3302 6.82376 17.8816C6.52401 17.433 6.36401 16.9055 6.36401 16.366C6.36401 15.6425 6.65143 14.9486 7.16303 14.437C7.67462 13.9254 8.3685 13.638 9.09201 13.638V13.638ZM30.912 13.638C31.4515 13.638 31.979 13.798 32.4276 14.0978C32.8762 14.3975 33.2259 14.8236 33.4323 15.322C33.6388 15.8205 33.6928 16.369 33.5876 16.8982C33.4823 17.4274 33.2225 17.9135 32.841 18.295C32.4595 18.6765 31.9734 18.9363 31.4442 19.0416C30.915 19.1468 30.3665 19.0928 29.868 18.8863C29.3696 18.6799 28.9435 18.3302 28.6437 17.8816C28.344 17.433 28.184 16.9055 28.184 16.366C28.184 15.6425 28.4714 14.9486 28.983 14.437C29.4946 13.9254 30.1885 13.638 30.912 13.638V13.638Z" fill="#B2B2B2"/>
</svg>
