<svg width="62" height="20" viewBox="0 0 62 20" fill="none" xmlns="http://www.w3.org/2000/svg">
<g clip-path="url(#clip0_3712_44019)">
<path d="M61.2636 15.5409H49.0563L49.6312 12.2076H55.1087C55.1468 12.2081 55.1847 12.2007 55.2199 12.1859C55.2552 12.171 55.2871 12.149 55.3137 12.1212C55.3691 12.0688 55.4079 12.0007 55.4251 11.9256L56.0937 8.03294C56.1025 7.99866 56.1025 7.96262 56.0937 7.92834C56.0884 7.89304 56.0711 7.86079 56.0446 7.83739C56.0256 7.8066 55.9975 7.78273 55.9644 7.76918C55.9304 7.76444 55.8959 7.76444 55.8619 7.76918H46.3242C46.2868 7.7687 46.2496 7.77613 46.2151 7.791C46.1806 7.80587 46.1495 7.82786 46.1237 7.85558C46.0666 7.90661 46.0275 7.97528 46.0122 8.05112L45.3437 11.9438L44.6752 15.8319L44.0067 19.7246C43.9978 19.7589 43.9978 19.7949 44.0067 19.8292C44.0161 19.862 44.0312 19.8928 44.0512 19.9202C44.0721 19.9511 44.1016 19.9748 44.1359 19.9884C44.1696 19.997 44.2048 19.997 44.2384 19.9884H60.4926C60.5678 19.9808 60.6391 19.9508 60.6976 19.902C60.7528 19.8531 60.7917 19.788 60.809 19.7155L61.4776 15.8228C61.4864 15.7886 61.4864 15.7525 61.4776 15.7182C61.4681 15.6855 61.453 15.6547 61.433 15.6273C61.4111 15.5974 61.3819 15.5739 61.3483 15.5591C61.3209 15.5495 61.2925 15.5434 61.2636 15.5409Z" fill="#BB133E"/>
<path d="M46.9036 4.4384H59.7973C59.8354 4.43896 59.8733 4.43159 59.9085 4.41673C59.9438 4.40188 59.9757 4.37985 60.0023 4.352C60.056 4.29821 60.0945 4.23066 60.1137 4.15646L60.7822 0.263778C60.7911 0.229502 60.7911 0.19346 60.7822 0.159185C60.777 0.123883 60.7596 0.0916357 60.7332 0.0682342C60.7142 0.0374422 60.6861 0.0135694 60.653 2.13937e-05H60.5683H47.6434C47.606 -0.000453315 47.5688 0.00697672 47.5343 0.0218453C47.4998 0.0367138 47.4687 0.0587 47.4429 0.0864243C47.3858 0.137452 47.3467 0.206127 47.3314 0.281968L46.6629 4.17465C46.654 4.20892 46.654 4.24496 46.6629 4.27924C46.6685 4.31343 46.684 4.34512 46.7075 4.37019C46.7274 4.40197 46.7572 4.426 46.7922 4.4384H46.9036Z" fill="#BB133E"/>
<path d="M0 18.32L0.771037 18.1017C1.21022 18.011 1.63479 17.858 2.03233 17.647C2.15913 17.5693 2.26838 17.4651 2.35288 17.3413C2.43738 17.2175 2.49521 17.0768 2.52258 16.9285C2.54175 16.8385 2.55515 16.7474 2.5627 16.6556L2.8613 13.2586L4.36772 13.0312L4.14488 15.496L4.0602 16.4373C4.01117 16.7238 4.01118 16.9194 3.97552 17.0422C3.84121 17.7173 3.47832 18.3226 2.95044 18.752C2.30031 19.2225 1.56346 19.5535 0.784408 19.7252L0 19.9344V18.32Z" fill="#002664"/>
<path d="M6.27324 16.6457C6.12533 16.5553 5.99951 16.4318 5.90531 16.2844C5.8111 16.1371 5.75099 15.9698 5.72951 15.7953C5.66741 15.2691 5.69 14.7361 5.79636 14.2173L6.80807 8.76026L8.28774 8.6875L7.26712 14.2173C7.21855 14.4476 7.19169 14.6821 7.1869 14.9176C7.18424 14.9713 7.19894 15.0244 7.22873 15.0688C7.25852 15.1132 7.30176 15.1463 7.3518 15.1632C7.53797 15.212 7.73029 15.232 7.92228 15.2223H8.02479L7.92674 16.059L7.6415 16.9003H7.52116C7.09057 16.9275 6.66046 16.8398 6.27324 16.6457Z" fill="#002664"/>
<path d="M7.92125 15.226H10.4661C10.5878 15.233 10.7088 15.2029 10.8138 15.1396C10.9233 15.0675 11.0015 14.9551 11.0321 14.8258C11.0568 14.7272 11.0424 14.6226 10.992 14.5348L9.25831 10.8422L9.87336 9.57799L14.4372 8L14.6065 9.5598L11.1124 10.7694L12.3335 13.5252C12.5428 14.0018 12.5945 14.535 12.4806 15.0441C12.3841 15.4854 12.1588 15.8866 11.8344 16.1946C11.6089 16.4195 11.3424 16.5972 11.05 16.7176C10.7303 16.8439 10.39 16.9072 10.0472 16.904H7.54688L7.92125 15.226Z" fill="#002664"/>
<path d="M16.6589 19.8366C16.1062 19.8578 15.5613 19.6985 15.1035 19.3818C14.696 19.0772 14.4121 18.6306 14.3057 18.1267C14.1775 17.5058 14.1912 16.8632 14.3458 16.2486C14.5591 15.3753 14.897 14.5387 15.3486 13.7656L16.6188 14.3204C16.2515 14.9307 15.9737 15.5925 15.7943 16.285C15.7215 16.5084 15.6942 16.7447 15.7142 16.9793C15.7341 17.2139 15.8008 17.4419 15.9102 17.6492C16.04 17.8201 16.2106 17.9541 16.4057 18.0385C16.6008 18.1229 16.8138 18.1548 17.0244 18.1312C17.2855 18.1282 17.5456 18.0962 17.7999 18.0357C18.3347 17.913 18.7403 17.822 19.0166 17.7265C19.2407 17.6664 19.4501 17.5596 19.6317 17.4127C19.7744 17.2984 19.875 17.1381 19.9169 16.958C19.9295 16.898 19.9385 16.8372 19.9437 16.7761C19.9437 16.6806 19.8367 16.576 19.5826 16.4669L18.5041 16.0894L19.3019 14.4932C20.3626 14.8025 21.0579 15.0116 21.3877 15.0844C21.6938 15.1734 22.0098 15.2223 22.3281 15.2299L22.23 16.0712L21.9448 16.9125C21.6863 16.9125 21.4991 16.9125 21.3877 16.9125C21.2738 17.6255 20.8876 18.2632 20.3136 18.686C19.5382 19.2034 18.6678 19.5547 17.7553 19.7183C17.3958 19.8019 17.0277 19.8416 16.6589 19.8366Z" fill="#002664"/>
<path d="M22.2148 15.2265H23.1329C23.3961 15.2402 23.6587 15.1903 23.8995 15.081C23.9925 15.0316 24.0728 14.9606 24.134 14.8737C24.1952 14.7868 24.2354 14.6865 24.2516 14.5807C24.2786 14.4308 24.289 14.2783 24.2828 14.126L24.2159 12.3616L25.7312 11.9341L25.7981 13.6985C25.8106 14.004 25.7837 14.3098 25.7179 14.608C25.5769 15.2735 25.203 15.8637 24.666 16.2679C24.1163 16.6872 23.4447 16.9066 22.7585 16.8909H21.8359L22.2148 15.2265ZM24.3006 9.4375H25.8471L25.4995 10.9837H23.9529L24.3006 9.4375Z" fill="#002664"/>
<path d="M28.4774 8.7837L29.966 8.71094L28.4328 16.8965L26.9531 16.9738L28.4774 8.7837Z" fill="#002664"/>
<path d="M32.3449 16.8947C32.2465 17.6059 31.8922 18.2543 31.351 18.7137C30.6891 19.2136 29.9288 19.5611 29.1226 19.7323L28.3516 19.9506V18.3271L29.1226 18.1088C29.5604 18.0183 29.9835 17.8652 30.3794 17.6541C30.5063 17.576 30.6159 17.4718 30.7011 17.3481C30.7863 17.2244 30.8452 17.0839 30.8741 16.9356C30.8741 16.881 30.8741 16.7946 30.9143 16.6627L31.1995 13.2385L32.7059 13.0156L32.648 13.6568C32.648 13.7614 32.648 14.0616 32.599 14.5663C32.5743 14.7436 32.5974 14.9244 32.6658 15.0893C32.7079 15.1355 32.7602 15.1707 32.8183 15.192C32.8765 15.2134 32.9388 15.2203 33.0001 15.2121H33.058L32.9822 16.0625L32.697 16.9038H32.6391C32.541 16.9127 32.4423 16.9096 32.3449 16.8947Z" fill="#002664"/>
<path d="M32.9811 15.2228H35.2095C35.4698 15.2357 35.7293 15.1859 35.9672 15.0773C36.0571 15.0296 36.1355 14.962 36.1964 14.8794C36.2573 14.7967 36.2993 14.7012 36.3193 14.5998C36.3471 14.45 36.3576 14.2973 36.3505 14.145L36.2925 12.3806L37.8079 11.9531L37.8836 13.8131C37.8938 14.0987 37.8684 14.3844 37.8079 14.6634C37.7187 15.1022 37.519 15.5098 37.2285 15.8458C36.9431 16.1874 36.5827 16.4554 36.1766 16.628C35.7546 16.8135 35.2991 16.9064 34.8396 16.9008H32.6112L32.9811 15.2228ZM32.6557 17.9513H33.9928L33.6808 19.3156H32.3438L32.6557 17.9513ZM35.0402 17.9513H36.3772L36.0608 19.3156H34.7638L35.0402 17.9513Z" fill="#002664"/>
<path d="M40.5555 8.7837L42.0441 8.71094L40.5109 16.8965L39.0312 16.9738L40.5555 8.7837Z" fill="#002664"/>
</g>
<defs>
<clipPath id="clip0_3712_44019">
<rect width="62" height="20" fill="white" transform="matrix(-1 0 0 1 62 0)"/>
</clipPath>
</defs>
</svg>
