<svg width="62" height="20" viewBox="0 0 62 20" fill="none" xmlns="http://www.w3.org/2000/svg">
<g clip-path="url(#clip0_3712_44035)">
<path d="M17.2636 15.5409H5.05628L5.63122 12.2076H11.1087C11.1468 12.2081 11.1847 12.2007 11.2199 12.1859C11.2552 12.171 11.2871 12.149 11.3137 12.1212C11.3691 12.0688 11.4079 12.0007 11.4251 11.9256L12.0937 8.03294C12.1025 7.99866 12.1025 7.96262 12.0937 7.92834C12.0884 7.89304 12.0711 7.86079 12.0446 7.83739C12.0256 7.8066 11.9975 7.78273 11.9644 7.76918C11.9304 7.76444 11.8959 7.76444 11.8619 7.76918H2.32423C2.28677 7.7687 2.24962 7.77613 2.2151 7.791C2.18059 7.80587 2.14946 7.82786 2.12367 7.85558C2.06661 7.90661 2.02748 7.97528 2.01225 8.05112L1.34372 11.9438L0.675189 15.8319L0.00665968 19.7246C-0.00221989 19.7589 -0.00221989 19.7949 0.00665968 19.8292C0.0160819 19.862 0.0311751 19.8928 0.0512276 19.9202C0.0720825 19.9511 0.101597 19.9748 0.135909 19.9884C0.169551 19.997 0.204776 19.997 0.238418 19.9884H16.4926C16.5678 19.9808 16.6391 19.9508 16.6976 19.902C16.7528 19.8531 16.7917 19.788 16.809 19.7155L17.4776 15.8228C17.4864 15.7886 17.4864 15.7525 17.4776 15.7182C17.4681 15.6855 17.453 15.6547 17.433 15.6273C17.4111 15.5974 17.3819 15.5739 17.3483 15.5591C17.3209 15.5495 17.2925 15.5434 17.2636 15.5409Z" fill="#BB133E"/>
<path d="M2.90358 4.4384H15.7973C15.8354 4.43896 15.8733 4.43159 15.9085 4.41673C15.9438 4.40188 15.9757 4.37985 16.0023 4.352C16.056 4.29821 16.0945 4.23066 16.1137 4.15646L16.7822 0.263778C16.7911 0.229502 16.7911 0.19346 16.7822 0.159185C16.777 0.123883 16.7596 0.0916357 16.7332 0.0682342C16.7142 0.0374422 16.6861 0.0135694 16.653 2.13937e-05H16.5683H3.64342C3.60596 -0.000453315 3.56881 0.00697672 3.53429 0.0218453C3.49978 0.0367138 3.46865 0.0587 3.44286 0.0864243C3.3858 0.137452 3.34667 0.206127 3.33144 0.281968L2.66291 4.17465C2.65403 4.20892 2.65403 4.24496 2.66291 4.27924C2.66849 4.31343 2.68402 4.34512 2.70748 4.37019C2.72741 4.40197 2.75723 4.426 2.79216 4.4384H2.90358Z" fill="#BB133E"/>
<path d="M19.8359 18.32L20.607 18.1017C21.0462 18.011 21.4707 17.858 21.8683 17.647C21.9951 17.5693 22.1043 17.4651 22.1888 17.3413C22.2733 17.2175 22.3312 17.0768 22.3585 16.9285C22.3777 16.8385 22.3911 16.7474 22.3986 16.6556L22.6972 13.2586L24.2037 13.0312L23.9808 15.496L23.8961 16.4373C23.8471 16.7238 23.8471 16.9194 23.8115 17.0422C23.6771 17.7173 23.3143 18.3226 22.7864 18.752C22.1362 19.2225 21.3994 19.5535 20.6203 19.7252L19.8359 19.9344V18.32Z" fill="#002664"/>
<path d="M26.1092 16.6457C25.9613 16.5553 25.8354 16.4318 25.7412 16.2844C25.647 16.1371 25.5869 15.9698 25.5654 15.7953C25.5034 15.2691 25.5259 14.7361 25.6323 14.2173L26.644 8.76026L28.1237 8.6875L27.1031 14.2173C27.0545 14.4476 27.0276 14.6821 27.0228 14.9176C27.0202 14.9713 27.0349 15.0244 27.0647 15.0688C27.0945 15.1132 27.1377 15.1463 27.1877 15.1632C27.3739 15.212 27.5662 15.232 27.7582 15.2223H27.8607L27.7627 16.059L27.4774 16.9003H27.3571C26.9265 16.9275 26.4964 16.8398 26.1092 16.6457Z" fill="#002664"/>
<path d="M27.7572 15.226H30.3021C30.4238 15.233 30.5448 15.2029 30.6497 15.1396C30.7592 15.0675 30.8374 14.9551 30.8681 14.8258C30.8928 14.7272 30.8784 14.6226 30.828 14.5348L29.0942 10.8422L29.7093 9.57799L34.2731 8L34.4425 9.5598L30.9483 10.7694L32.1695 13.5252C32.3788 14.0018 32.4304 14.535 32.3166 15.0441C32.22 15.4854 31.9947 15.8866 31.6703 16.1946C31.4448 16.4195 31.1783 16.5972 30.8859 16.7176C30.5662 16.8439 30.2259 16.9072 29.8831 16.904H27.3828L27.7572 15.226Z" fill="#002664"/>
<path d="M36.4949 19.8366C35.9422 19.8578 35.3973 19.6985 34.9394 19.3818C34.5319 19.0772 34.248 18.6306 34.1417 18.1267C34.0134 17.5058 34.0272 16.8632 34.1818 16.2486C34.3951 15.3753 34.733 14.5387 35.1846 13.7656L36.4548 14.3204C36.0874 14.9307 35.8096 15.5925 35.6303 16.285C35.5574 16.5084 35.5302 16.7447 35.5501 16.9793C35.57 17.2139 35.6367 17.4419 35.7461 17.6492C35.876 17.8201 36.0466 17.9541 36.2416 18.0385C36.4367 18.1229 36.6497 18.1548 36.8603 18.1312C37.1215 18.1282 37.3815 18.0962 37.6358 18.0357C38.1707 17.913 38.5762 17.822 38.8526 17.7265C39.0766 17.6664 39.2861 17.5596 39.4676 17.4127C39.6104 17.2984 39.7109 17.1381 39.7528 16.958C39.7655 16.898 39.7744 16.8372 39.7796 16.7761C39.7796 16.6806 39.6726 16.576 39.4186 16.4669L38.34 16.0894L39.1378 14.4932C40.1985 14.8025 40.8938 15.0116 41.2236 15.0844C41.5298 15.1734 41.8458 15.2223 42.164 15.2299L42.066 16.0712L41.7807 16.9125C41.5222 16.9125 41.335 16.9125 41.2236 16.9125C41.1098 17.6255 40.7235 18.2632 40.1495 18.686C39.3741 19.2034 38.5038 19.5547 37.5913 19.7183C37.2317 19.8019 36.8636 19.8416 36.4949 19.8366Z" fill="#002664"/>
<path d="M42.0507 15.2265H42.9688C43.232 15.2402 43.4946 15.1903 43.7354 15.081C43.8284 15.0316 43.9088 14.9606 43.9699 14.8737C44.0311 14.7868 44.0714 14.6865 44.0875 14.5807C44.1145 14.4308 44.125 14.2783 44.1187 14.126L44.0518 12.3616L45.5672 11.9341L45.634 13.6985C45.6466 14.004 45.6196 14.3098 45.5538 14.608C45.4129 15.2735 45.0389 15.8637 44.502 16.2679C43.9522 16.6872 43.2807 16.9066 42.5944 16.8909H41.6719L42.0507 15.2265ZM44.1365 9.4375H45.683L45.3354 10.9837H43.7889L44.1365 9.4375Z" fill="#002664"/>
<path d="M48.3133 8.7837L49.8019 8.71094L48.2687 16.8965L46.7891 16.9738L48.3133 8.7837Z" fill="#002664"/>
<path d="M52.1808 16.8947C52.0824 17.6059 51.7281 18.2543 51.187 18.7137C50.5251 19.2136 49.7648 19.5611 48.9585 19.7323L48.1875 19.9506V18.3271L48.9585 18.1088C49.3963 18.0183 49.8195 17.8652 50.2154 17.6541C50.3423 17.576 50.4518 17.4718 50.537 17.3481C50.6222 17.2244 50.6811 17.0839 50.7101 16.9356C50.7101 16.881 50.7101 16.7946 50.7502 16.6627L51.0354 13.2385L52.5419 13.0156L52.4839 13.6568C52.4839 13.7614 52.4839 14.0616 52.4349 14.5663C52.4103 14.7436 52.4334 14.9244 52.5017 15.0893C52.5438 15.1355 52.5961 15.1707 52.6543 15.192C52.7124 15.2134 52.7747 15.2203 52.836 15.2121H52.8939L52.8182 16.0625L52.5329 16.9038H52.475C52.3769 16.9127 52.2782 16.9096 52.1808 16.8947Z" fill="#002664"/>
<path d="M52.817 15.2228H55.0454C55.3057 15.2357 55.5653 15.1859 55.8031 15.0773C55.8931 15.0296 55.9714 14.962 56.0323 14.8794C56.0933 14.7967 56.1353 14.7012 56.1552 14.5998C56.1831 14.45 56.1935 14.2973 56.1864 14.145L56.1285 12.3806L57.6438 11.9531L57.7196 13.8131C57.7298 14.0987 57.7043 14.3844 57.6438 14.6634C57.5546 15.1022 57.355 15.5098 57.0644 15.8458C56.779 16.1874 56.4186 16.4554 56.0126 16.628C55.5906 16.8135 55.135 16.9064 54.6755 16.9008H52.4471L52.817 15.2228ZM52.4917 17.9513H53.8287L53.5167 19.3156H52.1797L52.4917 17.9513ZM54.8761 17.9513H56.2131L55.8967 19.3156H54.5998L54.8761 17.9513Z" fill="#002664"/>
<path d="M60.3914 8.7837L61.88 8.71094L60.3469 16.8965L58.8672 16.9738L60.3914 8.7837Z" fill="#002664"/>
</g>
<defs>
<clipPath id="clip0_3712_44035">
<rect width="62" height="20" fill="white" transform="matrix(-1 0 0 1 62 0)"/>
</clipPath>
</defs>
</svg>
