<svg width="22" height="24" viewBox="0 0 22 24" fill="none" xmlns="http://www.w3.org/2000/svg">
<path d="M20.8573 18.6506H6.10882L6.80343 14.6506H13.4211C13.4672 14.6513 13.5129 14.6425 13.5555 14.6246C13.5981 14.6068 13.6366 14.5804 13.6688 14.547C13.7358 14.4841 13.7827 14.4024 13.8034 14.3123L14.6111 9.64108C14.6219 9.59995 14.6219 9.5567 14.6111 9.51557C14.6048 9.47321 14.5838 9.43451 14.5519 9.40643C14.5289 9.36948 14.495 9.34083 14.455 9.32458C14.4139 9.31889 14.3722 9.31889 14.3311 9.32458H2.80805C2.76279 9.32401 2.7179 9.33292 2.67621 9.35077C2.63451 9.36861 2.5969 9.39499 2.56574 9.42826C2.4968 9.48949 2.44953 9.5719 2.43112 9.66291L1.62343 14.3341L0.815738 18.9999L0.00804598 23.6711C-0.00268199 23.7122 -0.00268199 23.7555 0.00804598 23.7966C0.0194296 23.836 0.0376647 23.8729 0.0618913 23.9058C0.0870874 23.9428 0.122746 23.9714 0.1642 23.9876C0.204845 23.998 0.247403 23.998 0.288048 23.9876H19.9257C20.0166 23.9785 20.1028 23.9425 20.1734 23.8839C20.2401 23.8253 20.2872 23.7471 20.308 23.6602L21.1157 18.989C21.1265 18.9478 21.1265 18.9046 21.1157 18.8635C21.1044 18.8241 21.0861 18.7872 21.0619 18.7543C21.0354 18.7184 21.0002 18.6902 20.9596 18.6725C20.9265 18.661 20.8921 18.6536 20.8573 18.6506Z" fill="#BB133E"/>
<path d="M3.50975 5.32608H19.0875C19.1335 5.32675 19.1792 5.31791 19.2218 5.30008C19.2644 5.28225 19.303 5.25582 19.3351 5.2224C19.4 5.15785 19.4465 5.0768 19.4698 4.98775L20.2774 0.316533C20.2882 0.275402 20.2882 0.232152 20.2774 0.191022C20.2711 0.148659 20.2501 0.109963 20.2182 0.0818811C20.1952 0.0449307 20.1613 0.0162833 20.1213 2.56724e-05H20.019H4.4036C4.35834 -0.000543978 4.31346 0.00837206 4.27176 0.0262143C4.23006 0.0440566 4.19245 0.07044 4.16129 0.103709C4.09235 0.164943 4.04508 0.247352 4.02668 0.338361L3.21898 5.00958C3.20826 5.05071 3.20826 5.09396 3.21898 5.13509C3.22573 5.17612 3.24449 5.21414 3.27283 5.24423C3.29691 5.28237 3.33294 5.3112 3.37514 5.32608H3.50975Z" fill="#BB133E"/>
</svg>
