<svg width="47" height="47" viewBox="0 0 47 47" fill="none" xmlns="http://www.w3.org/2000/svg">
<path d="M4.6875 11.7188H16.4062V4.6875C16.4062 2.10938 18.5156 0 21.0938 0H25.7812C28.3594 0 30.4688 2.10938 30.4688 4.6875V11.7188H42.1875C44.7656 11.7188 46.875 13.8281 46.875 16.4062V42.1875C46.875 44.7656 44.7656 46.875 42.1875 46.875H4.6875C2.10938 46.875 0 44.7656 0 42.1875V16.4062C0 13.8281 2.10938 11.7188 4.6875 11.7188ZM21.0938 16.4062H25.7812V4.6875H21.0938V16.4062Z" fill="#2766C5"/>
<path d="M23.0625 19.3438C29.5313 19.3438 34.7812 24.5937 34.7812 31.0625C34.7812 37.5312 29.5313 42.7812 23.0625 42.7812C16.5938 42.7812 11.3438 37.5312 11.3438 31.0625C11.3438 24.5937 16.5938 19.3438 23.0625 19.3438ZM18.375 32.2344H27.75C28.3945 32.2344 28.9219 31.707 28.9219 31.0625C28.9219 30.418 28.3945 29.8906 27.75 29.8906H18.375C17.7305 29.8906 17.2031 30.418 17.2031 31.0625C17.2031 31.707 17.7305 32.2344 18.375 32.2344Z" fill="#B9CDE4"/>
</svg>
