<svg width="36" height="36" viewBox="0 0 36 36" fill="none" xmlns="http://www.w3.org/2000/svg">
<path d="M33.3333 19.9167C34.3875 19.9167 35.25 19.0542 35.25 18C35.25 16.9458 34.3875 16.0833 33.3333 16.0833H31.4167V4.58333H33.3333C34.3875 4.58333 35.25 3.72083 35.25 2.66667C35.25 1.6125 34.3875 0.75 33.3333 0.75H2.66667C1.6125 0.75 0.75 1.6125 0.75 2.66667C0.75 3.72083 1.6125 4.58333 2.66667 4.58333H4.58333V16.0833H2.66667C1.6125 16.0833 0.75 16.9458 0.75 18C0.75 19.0542 1.6125 19.9167 2.66667 19.9167H4.58333V31.4167H2.66667C1.6125 31.4167 0.75 32.2792 0.75 33.3333C0.75 34.3875 1.6125 35.25 2.66667 35.25H33.3333C34.3875 35.25 35.25 34.3875 35.25 33.3333C35.25 32.2792 34.3875 31.4167 33.3333 31.4167H31.4167V19.9167H33.3333ZM18 25.6667C14.8183 25.6667 12.25 23.1367 12.25 20.0125C12.25 17.7892 13.0358 16.9842 16.5433 12.9592C17.31 12.0775 18.69 12.0775 19.4375 12.9592C22.9258 16.965 23.7308 17.7892 23.7308 20.0125C23.75 23.1367 21.1817 25.6667 18 25.6667Z" fill="#002664"/>
</svg>
