<svg width="24" height="34" viewBox="0 0 24 34" fill="none" xmlns="http://www.w3.org/2000/svg">
<path d="M0.458984 33.2943V0.710938H12.9173C15.8243 0.710938 18.3076 1.74083 20.3674 3.8006C22.4285 5.86166 23.459 8.34566 23.459 11.2526C23.459 14.1595 22.4285 16.6429 20.3674 18.7027C18.3076 20.7637 15.8243 21.7943 12.9173 21.7943H6.20898V33.2943H0.458984ZM6.20898 16.0443H13.1569C14.4666 16.0443 15.5923 15.5728 16.5341 14.6298C17.4771 13.688 17.9486 12.5623 17.9486 11.2526C17.9486 9.94288 17.4771 8.81652 16.5341 7.87352C15.5923 6.9318 14.4666 6.46094 13.1569 6.46094H6.20898V16.0443Z" fill="#4C4C4C" fill-opacity="0.8"/>
</svg>
