<svg width="32" height="45" viewBox="0 0 32 45" fill="none" xmlns="http://www.w3.org/2000/svg">
<path d="M4 45C2.9 45 1.95833 44.6083 1.175 43.825C0.391667 43.0417 0 42.1 0 41V9C0 7.9 0.391667 6.95833 1.175 6.175C1.95833 5.39167 2.9 5 4 5H12V2C12 1.43333 12.1917 0.958333 12.575 0.575C12.9583 0.191667 13.4333 0 14 0H18C18.5667 0 19.0417 0.191667 19.425 0.575C19.8083 0.958333 20 1.43333 20 2V5H28C29.1 5 30.0417 5.39167 30.825 6.175C31.6083 6.95833 32 7.9 32 9V41C32 42.1 31.6083 43.0417 30.825 43.825C30.0417 44.6083 29.1 45 28 45H4ZM4 41H28V9H20C20 9.56667 19.8083 10.0417 19.425 10.425C19.0417 10.8083 18.5667 11 18 11H14C13.4333 11 12.9583 10.8083 12.575 10.425C12.1917 10.0417 12 9.56667 12 9H4V41Z" fill="#002664"/>
<path d="M15.1957 32.3563V30.8187C14.7582 30.8187 14.3895 30.6562 14.0895 30.3312C13.7895 30.0062 13.6395 29.625 13.6395 29.1875V28.3625L9.7957 24.5187C9.7332 24.7687 9.68945 25.0156 9.66445 25.2594C9.63945 25.5031 9.62695 25.75 9.62695 26C9.62695 27.625 10.1551 29.0437 11.2113 30.2562C12.2676 31.4687 13.5957 32.1688 15.1957 32.3563ZM20.7082 30.3312C21.2582 29.7312 21.6738 29.0594 21.9551 28.3156C22.2363 27.5719 22.377 26.8 22.377 26C22.377 24.675 22.0145 23.4719 21.2895 22.3906C20.5645 21.3094 19.5957 20.5188 18.3832 20.0188V20.3562C18.3832 20.7937 18.2332 21.175 17.9332 21.5C17.6332 21.825 17.2645 21.9875 16.827 21.9875H15.1957V23.6187C15.1957 23.8312 15.1113 24.0062 14.9426 24.1437C14.7738 24.2812 14.5832 24.35 14.3707 24.35H12.8145V26H17.652C17.8645 26 18.0395 26.0812 18.177 26.2437C18.3145 26.4062 18.3832 26.5938 18.3832 26.8062V29.1875H19.1895C19.552 29.1875 19.8707 29.2937 20.1457 29.5062C20.4207 29.7187 20.6082 29.9937 20.7082 30.3312ZM16.002 33.5C14.9645 33.5 13.9895 33.3031 13.077 32.9094C12.1645 32.5156 11.3707 31.9813 10.6957 31.3063C10.0207 30.6313 9.48633 29.8375 9.09258 28.925C8.69883 28.0125 8.50195 27.0375 8.50195 26C8.50195 24.9625 8.69883 23.9875 9.09258 23.075C9.48633 22.1625 10.0207 21.3688 10.6957 20.6938C11.3707 20.0188 12.1645 19.4844 13.077 19.0906C13.9895 18.6969 14.9645 18.5 16.002 18.5C17.0395 18.5 18.0145 18.6969 18.927 19.0906C19.8395 19.4844 20.6332 20.0188 21.3082 20.6938C21.9832 21.3688 22.5176 22.1625 22.9113 23.075C23.3051 23.9875 23.502 24.9625 23.502 26C23.502 27.0375 23.3051 28.0125 22.9113 28.925C22.5176 29.8375 21.9832 30.6313 21.3082 31.3063C20.6332 31.9813 19.8395 32.5156 18.927 32.9094C18.0145 33.3031 17.0395 33.5 16.002 33.5Z" fill="#002664"/>
</svg>
