<svg width="43" height="38" viewBox="0 0 43 38" fill="none" xmlns="http://www.w3.org/2000/svg">
<path d="M37.3125 2.36719C36.8438 0.984376 35.5312 0 33.9844 0H8.20312C6.65625 0 5.36719 0.984376 4.875 2.36719L0.257812 15.6563C0.0937498 16.1484 0 16.6641 0 17.2031V33.9844C0 35.9297 1.57031 37.5 3.51562 37.5C5.46094 37.5 7.03125 35.9297 7.03125 33.9844V32.8125H35.1562V33.9844C35.1562 35.9062 36.7266 37.5 38.6719 37.5C40.5938 37.5 42.1875 35.9297 42.1875 33.9844V17.2031C42.1875 16.6875 42.0938 16.1484 41.9297 15.6563L37.3125 2.36719ZM8.20312 25.7812C6.25781 25.7812 4.6875 24.2109 4.6875 22.2656C4.6875 20.3203 6.25781 18.75 8.20312 18.75C10.1484 18.75 11.7188 20.3203 11.7188 22.2656C11.7188 24.2109 10.1484 25.7812 8.20312 25.7812ZM33.9844 25.7812C32.0391 25.7812 30.4688 24.2109 30.4688 22.2656C30.4688 20.3203 32.0391 18.75 33.9844 18.75C35.9297 18.75 37.5 20.3203 37.5 22.2656C37.5 24.2109 35.9297 25.7812 33.9844 25.7812ZM4.6875 14.0625L7.66406 5.10937C7.99219 4.17187 8.88281 3.51562 9.89062 3.51562H32.2969C33.3047 3.51562 34.1953 4.17187 34.5234 5.10937L37.5 14.0625H4.6875Z" fill="#2766C5"/>
<rect x="11.8838" y="23.6025" width="18.42" height="9.045" rx="0.335" stroke="#B9CDE4" stroke-width="0.33"/>
<path d="M12.9092 26.2295L13.5092 26.1655L14.0212 31.4055L13.4212 31.4695L12.9092 26.2295ZM15.6045 26.2295L16.2045 26.1655L16.7165 31.4055L16.1165 31.4695L15.6045 26.2295ZM21.1318 26.1415L21.2678 27.4855L21.2758 27.5975C21.2758 27.8108 21.2171 28.0108 21.0998 28.1975C20.9878 28.3842 20.8331 28.5335 20.6358 28.6455C20.4438 28.7575 20.2331 28.8135 20.0038 28.8135H19.7318C19.5184 28.8135 19.3078 28.7575 19.0998 28.6455L19.3638 31.3895L18.7558 31.4535L18.2438 26.2055L18.8518 26.1415L18.9878 27.5735C19.0251 27.7602 19.0998 27.9015 19.2118 27.9975C19.3238 28.0935 19.4678 28.1415 19.6438 28.1415H20.0038C20.2011 28.1415 20.3638 28.0828 20.4918 27.9655C20.6198 27.8482 20.6758 27.7068 20.6598 27.5415L20.5238 26.2135L21.1318 26.1415ZM25.6155 28.8295C25.4289 28.8295 25.2529 28.7895 25.0875 28.7095C24.9275 28.6295 24.7889 28.5175 24.6715 28.3735C24.5542 28.5175 24.4102 28.6295 24.2395 28.7095C24.0689 28.7895 23.8875 28.8295 23.6955 28.8295H23.5115C23.3035 28.8295 23.1142 28.7815 22.9435 28.6855L23.2075 31.4055L22.5995 31.4695L22.0875 26.2295L22.6955 26.1655L22.8315 27.5335C22.8582 27.7202 22.9302 27.8722 23.0475 27.9895C23.1649 28.1015 23.3115 28.1575 23.4875 28.1575H23.6955C23.8822 28.1575 24.0422 28.0988 24.1755 27.9815C24.3089 27.8588 24.3675 27.7122 24.3515 27.5415L24.2395 26.4135L24.8475 26.3495L24.9595 27.5095C24.9755 27.7068 25.0422 27.8642 25.1595 27.9815C25.2822 28.0988 25.4342 28.1575 25.6155 28.1575H25.6955C25.8822 28.1575 26.0422 28.0988 26.1755 27.9815C26.3089 27.8588 26.3675 27.7122 26.3515 27.5415L26.2235 26.2295L26.8315 26.1655L26.9595 27.5175C26.9809 27.7522 26.9329 27.9708 26.8155 28.1735C26.7035 28.3708 26.5462 28.5308 26.3435 28.6535C26.1462 28.7708 25.9302 28.8295 25.6955 28.8295H25.6155ZM27.831 26.2295L28.431 26.1655L28.943 31.4055L28.343 31.4695L27.831 26.2295Z" fill="#B9CDE4"/>
</svg>
