<svg width="43" height="38" viewBox="0 0 43 38" fill="none" xmlns="http://www.w3.org/2000/svg">
<path d="M37.7188 2.46094C37.25 1.07813 35.9375 0.09375 34.3906 0.09375H8.60938C7.0625 0.09375 5.77344 1.07813 5.28125 2.46094L0.664062 15.75C0.5 16.2422 0.40625 16.7578 0.40625 17.2969V34.0781C0.40625 36.0234 1.97656 37.5938 3.92188 37.5938C5.86719 37.5938 7.4375 36.0234 7.4375 34.0781V32.9062H35.5625V34.0781C35.5625 36 37.1328 37.5938 39.0781 37.5938C41 37.5938 42.5938 36.0234 42.5938 34.0781V17.2969C42.5938 16.7812 42.5 16.2422 42.3359 15.75L37.7188 2.46094ZM8.60938 25.875C6.66406 25.875 5.09375 24.3047 5.09375 22.3594C5.09375 20.4141 6.66406 18.8438 8.60938 18.8438C10.5547 18.8438 12.125 20.4141 12.125 22.3594C12.125 24.3047 10.5547 25.875 8.60938 25.875ZM34.3906 25.875C32.4453 25.875 30.875 24.3047 30.875 22.3594C30.875 20.4141 32.4453 18.8438 34.3906 18.8438C36.3359 18.8438 37.9062 20.4141 37.9062 22.3594C37.9062 24.3047 36.3359 25.875 34.3906 25.875ZM5.09375 14.1562L8.07031 5.20312C8.39844 4.26562 9.28906 3.60938 10.2969 3.60938H32.7031C33.7109 3.60938 34.6016 4.26562 34.9297 5.20312L37.9062 14.1562H5.09375Z" fill="#2766C5"/>
</svg>
