<svg width="24" height="24" viewBox="0 0 24 24" fill="none" xmlns="http://www.w3.org/2000/svg">
<g clip-path="url(#clip0_3790_57367)">
<path d="M7.9985 6.99828C9.2985 6.99828 10.4085 6.15828 10.8285 4.99828H15.9985V5.99828C15.9985 6.54828 16.4485 6.99828 16.9985 6.99828C17.5485 6.99828 17.9985 6.54828 17.9985 5.99828V4.99828C18.5485 4.99828 18.9985 4.54828 18.9985 3.99828C18.9985 3.44828 18.5485 2.99828 17.9985 2.99828H10.8285C10.3485 1.64828 8.9485 0.758277 7.3985 1.05828C6.2285 1.28828 5.2785 2.24828 5.0485 3.41828C4.6985 5.31828 6.1485 6.99828 7.9985 6.99828ZM7.9985 2.99828C8.5485 2.99828 8.9985 3.44828 8.9985 3.99828C8.9985 4.54828 8.5485 4.99828 7.9985 4.99828C7.4485 4.99828 6.9985 4.54828 6.9985 3.99828C6.9985 3.44828 7.4485 2.99828 7.9985 2.99828ZM16.3885 8.99828H7.6085C7.1785 8.99828 6.7985 9.27828 6.6585 9.67828L4.9985 14.6883V20.9983C4.9985 21.5483 5.4485 21.9983 5.9985 21.9983C6.5485 21.9983 6.9985 21.5483 6.9985 20.9983V19.9983H16.9985V20.9983C16.9985 21.5483 17.4485 21.9983 17.9985 21.9983C18.5485 21.9983 18.9985 21.5483 18.9985 20.9983V14.6883L17.3385 9.67828C17.1985 9.27828 16.8185 8.99828 16.3885 8.99828ZM8.9985 17.4983C8.4485 17.4983 7.9985 17.0483 7.9985 16.4983C7.9985 15.9483 8.4485 15.4983 8.9985 15.4983C9.5485 15.4983 9.9985 15.9483 9.9985 16.4983C9.9985 17.0483 9.5485 17.4983 8.9985 17.4983ZM14.9985 17.4983C14.4485 17.4983 13.9985 17.0483 13.9985 16.4983C13.9985 15.9483 14.4485 15.4983 14.9985 15.4983C15.5485 15.4983 15.9985 15.9483 15.9985 16.4983C15.9985 17.0483 15.5485 17.4983 14.9985 17.4983ZM7.6685 12.9983L8.3285 10.9983H15.6685L16.3285 12.9983H7.6685Z" fill="#BB133E"/>
</g>
<defs>
<clipPath id="clip0_3790_57367">
<rect width="24" height="24" rx="5" fill="white"/>
</clipPath>
</defs>
</svg>
