<svg width="54" height="48" viewBox="0 0 54 48" fill="none" xmlns="http://www.w3.org/2000/svg">
<path d="M48.3359 0.664062H5.66927C2.70927 0.664062 0.362604 3.0374 0.362604 5.9974L0.335938 37.9974C0.335938 40.9574 2.70927 43.3307 5.66927 43.3307H16.3359C17.8026 43.3307 19.0026 42.1307 19.0026 40.6641C19.0026 39.1974 17.8026 37.9974 16.3359 37.9974H5.66927V21.9974H53.6693V5.9974C53.6693 3.06406 51.2693 0.664062 48.3359 0.664062ZM48.3359 11.3307H5.66927V5.9974H48.3359V11.3307ZM34.8159 41.1174L29.1626 35.4641C28.1226 34.4241 26.4426 34.4241 25.4026 35.4641C24.3626 36.5041 24.3626 38.1841 25.4026 39.2241L32.9493 46.7707C33.9893 47.8107 35.6693 47.8107 36.7093 46.7707L51.8026 31.6774C52.8426 30.6374 52.8426 28.9574 51.8026 27.9174C50.7626 26.8774 49.0826 26.8774 48.0426 27.9174L34.8159 41.1174Z" fill="#00A87A"/>
</svg>
