<svg width="18" height="20" viewBox="0 0 18 20" fill="none" xmlns="http://www.w3.org/2000/svg">
<path d="M18 0.213125C17.87 0.213125 17.74 0.263125 17.65 0.363125L16.86 1.15313C16.66 1.35313 16.35 1.35313 16.15 1.15313L15.36 0.363125C15.16 0.163125 14.85 0.163125 14.65 0.363125L13.86 1.15313C13.66 1.35313 13.35 1.35313 13.15 1.15313L12.36 0.363125C12.16 0.163125 11.85 0.163125 11.65 0.363125L10.86 1.15313C10.66 1.35313 10.35 1.35313 10.15 1.15313L9.36 0.363125C9.16 0.163125 8.85 0.163125 8.65 0.363125L7.86 1.15313C7.66 1.35313 7.35 1.35313 7.15 1.15313L6.35 0.353125C6.15 0.153125 5.84 0.153125 5.64 0.353125L4.85 1.15313C4.65 1.35313 4.34 1.35313 4.14 1.15313L3.35 0.353125C3.15 0.153125 2.84 0.153125 2.64 0.353125L1.85 1.15313C1.65 1.35313 1.34 1.35313 1.14 1.15313L0.35 0.353125C0.26 0.263125 0.13 0.213125 0 0.213125V19.8031C0.13 19.8031 0.26 19.7531 0.35 19.6531L1.14 18.8631C1.34 18.6631 1.65 18.6631 1.85 18.8631L2.64 19.6531C2.84 19.8531 3.15 19.8531 3.35 19.6531L4.14 18.8631C4.34 18.6631 4.65 18.6631 4.85 18.8631L5.64 19.6531C5.84 19.8531 6.15 19.8531 6.35 19.6531L7.14 18.8631C7.34 18.6631 7.65 18.6631 7.85 18.8631L8.64 19.6531C8.84 19.8531 9.15 19.8531 9.35 19.6531L10.14 18.8631C10.34 18.6631 10.65 18.6631 10.85 18.8631L11.64 19.6531C11.84 19.8531 12.15 19.8531 12.35 19.6531L13.14 18.8631C13.34 18.6631 13.65 18.6631 13.85 18.8631L14.64 19.6531C14.84 19.8531 15.15 19.8531 15.35 19.6531L16.14 18.8631C16.34 18.6631 16.65 18.6631 16.85 18.8631L17.64 19.6531C17.74 19.7531 17.87 19.8031 17.99 19.8031V0.213125H18ZM14 15.0031H4C3.45 15.0031 3 14.5531 3 14.0031C3 13.4531 3.45 13.0031 4 13.0031H14C14.55 13.0031 15 13.4531 15 14.0031C15 14.5531 14.55 15.0031 14 15.0031ZM14 11.0031H4C3.45 11.0031 3 10.5531 3 10.0031C3 9.45312 3.45 9.00313 4 9.00313H14C14.55 9.00313 15 9.45312 15 10.0031C15 10.5531 14.55 11.0031 14 11.0031ZM14 7.00313H4C3.45 7.00313 3 6.55313 3 6.00313C3 5.45312 3.45 5.00313 4 5.00313H14C14.55 5.00313 15 5.45312 15 6.00313C15 6.55313 14.55 7.00313 14 7.00313Z" fill="#2E83E3"/>
</svg>
