<svg width="32" height="40" viewBox="0 0 32 40" fill="none" xmlns="http://www.w3.org/2000/svg">
<path d="M15.9993 16.1693C13.891 16.1693 12.0862 15.4186 10.5848 13.9172C9.08338 12.4158 8.33268 10.6109 8.33268 8.5026C8.33268 6.39427 9.08338 4.58941 10.5848 3.08802C12.0862 1.58663 13.891 0.835938 15.9993 0.835938C18.1077 0.835938 19.9125 1.58663 21.4139 3.08802C22.9153 4.58941 23.666 6.39427 23.666 8.5026C23.666 10.6109 22.9153 12.4158 21.4139 13.9172C19.9125 15.4186 18.1077 16.1693 15.9993 16.1693ZM11.6868 35.3359C11.3035 35.3359 10.9681 35.1922 10.6806 34.9047C10.3931 34.6172 10.2493 34.2818 10.2493 33.8984C10.2493 33.5151 10.3931 33.1797 10.6806 32.8922C10.9681 32.6047 11.3035 32.4609 11.6868 32.4609H15.3285L13.9868 35.3359H11.6868ZM0.666016 39.1693V26.1839C0.666016 25.0977 0.937544 24.0992 1.4806 23.1881C2.02365 22.2783 2.77435 21.5679 3.73268 21.0568C5.36185 20.2262 7.20696 19.5234 9.26801 18.9484C11.3278 18.3734 13.5716 18.0859 15.9993 18.0859C17.0216 18.0859 18.0438 18.1498 19.066 18.2776C20.0882 18.4054 20.9827 18.5491 21.7493 18.7089L17.1014 28.6276H11.6868C10.2174 28.6276 8.97157 29.1387 7.94935 30.1609C6.92713 31.1832 6.41602 32.429 6.41602 33.8984C6.41602 35.3679 6.92713 36.6137 7.94935 37.6359C8.97157 38.6582 10.2174 39.1693 11.6868 39.1693H0.666016ZM25.4869 39.1693V19.8589C25.966 20.0186 26.4528 20.2102 26.9473 20.4339C27.4431 20.6575 27.8827 20.8651 28.266 21.0568C29.2243 21.5679 29.975 22.2783 30.5181 23.1881C31.0612 24.0992 31.3327 25.0977 31.3327 26.1839V35.3359C31.3327 36.3901 30.9577 37.2929 30.2076 38.0442C29.4563 38.7942 28.5535 39.1693 27.4993 39.1693H25.4869Z" fill="#002664"/>
</svg>
