<svg width="16" height="16" viewBox="0 0 16 16" fill="none" xmlns="http://www.w3.org/2000/svg">
<path d="M8 7.70312C7.03333 7.70312 6.20833 7.36146 5.525 6.67812C4.84167 5.99479 4.5 5.16979 4.5 4.20312C4.5 3.23646 4.84167 2.41146 5.525 1.72812C6.20833 1.04479 7.03333 0.703125 8 0.703125C8.96667 0.703125 9.79167 1.04479 10.475 1.72812C11.1583 2.41146 11.5 3.23646 11.5 4.20312C11.5 5.16979 11.1583 5.99479 10.475 6.67812C9.79167 7.36146 8.96667 7.70312 8 7.70312ZM2.025 15.3031C1.59167 15.3031 1.22933 15.1575 0.938 14.8661C0.646 14.5741 0.5 14.2198 0.5 13.8031V13.0781C0.5 12.5948 0.633333 12.1448 0.9 11.7281C1.16667 11.3115 1.525 10.9865 1.975 10.7531C2.95833 10.2698 3.95433 9.90712 4.963 9.66512C5.971 9.42379 6.98333 9.30312 8 9.30312C9.01667 9.30312 10.0293 9.42379 11.038 9.66512C12.046 9.90712 13.0417 10.2698 14.025 10.7531C14.475 10.9865 14.8333 11.3115 15.1 11.7281C15.3667 12.1448 15.5 12.5948 15.5 13.0781V13.8031C15.5 14.2198 15.354 14.5741 15.062 14.8661C14.7707 15.1575 14.4083 15.3031 13.975 15.3031H2.025Z" fill="#002664"/>
</svg>
