<svg width="40" height="24" viewBox="0 0 40 24" fill="none" xmlns="http://www.w3.org/2000/svg">
<path d="M3.63638 2.24319e-05C3.15838 -0.00165943 2.68476 0.0912496 2.24282 0.273398C1.80088 0.455547 1.39934 0.723335 1.06134 1.06134C0.723335 1.39934 0.455547 1.80088 0.273398 2.24282C0.0912498 2.68476 -0.00165943 3.15838 2.24318e-05 3.63638V18.1818H3.63638C3.63638 19.6285 4.21106 21.0158 5.23398 22.0388C6.2569 23.0617 7.64429 23.6364 9.09092 23.6364C10.5376 23.6364 11.9249 23.0617 12.9479 22.0388C13.9708 21.0158 14.5455 19.6285 14.5455 18.1818H25.4545C25.4545 19.6285 26.0292 21.0158 27.0521 22.0388C28.0751 23.0617 29.4624 23.6364 30.9091 23.6364C32.3557 23.6364 33.7431 23.0617 34.766 22.0388C35.7889 21.0158 36.3636 19.6285 36.3636 18.1818H40V10.9091C40.0017 10.4311 39.9087 9.95748 39.7266 9.51554C39.5445 9.0736 39.2767 8.67206 38.9387 8.33406C38.6007 7.99605 38.1991 7.72827 37.7572 7.54612C37.3152 7.36397 36.8416 7.27106 36.3636 7.27274L30.9091 2.24319e-05H3.63638ZM3.63638 2.72729H10.9091V7.27274H3.63638V2.72729ZM14.5455 2.72729H21.8182V7.27274H14.5455V2.72729ZM25.4545 2.72729H30L33.5636 7.27274H25.4545V2.72729ZM9.09092 15.4546C9.63032 15.4546 10.1576 15.6145 10.6061 15.9142C11.0546 16.2139 11.4042 16.6398 11.6106 17.1381C11.817 17.6365 11.871 18.1848 11.7658 18.7139C11.6606 19.2429 11.4008 19.7289 11.0194 20.1103C10.638 20.4917 10.152 20.7515 9.62298 20.8567C9.09395 20.9619 8.54558 20.9079 8.04724 20.7015C7.5489 20.4951 7.12296 20.1455 6.82328 19.697C6.5236 19.2485 6.36365 18.7212 6.36365 18.1818C6.36365 17.4585 6.65099 16.7648 7.16245 16.2533C7.67391 15.7419 8.3676 15.4546 9.09092 15.4546ZM30.9091 15.4546C31.4485 15.4546 31.9758 15.6145 32.4243 15.9142C32.8728 16.2139 33.2223 16.6398 33.4287 17.1381C33.6352 17.6365 33.6892 18.1848 33.5839 18.7139C33.4787 19.2429 33.219 19.7289 32.8375 20.1103C32.4561 20.4917 31.9702 20.7515 31.4411 20.8567C30.9121 20.9619 30.3637 20.9079 29.8654 20.7015C29.3671 20.4951 28.9411 20.1455 28.6414 19.697C28.3418 19.2485 28.1818 18.7212 28.1818 18.1818C28.1818 17.4585 28.4691 16.7648 28.9806 16.2533C29.4921 15.7419 30.1858 15.4546 30.9091 15.4546Z" fill="#B2B2B2"/>
</svg>
