<svg width="30" height="30" viewBox="0 0 30 30" fill="none" xmlns="http://www.w3.org/2000/svg">
<path d="M14.6057 0.554932C11.7445 0.554932 8.94769 1.40335 6.56877 2.99289C4.18985 4.58244 2.33571 6.84172 1.24081 9.48503C0.145915 12.1284 -0.140558 15.037 0.417616 17.8431C0.975789 20.6492 2.35354 23.2268 4.37665 25.2499C6.39975 27.273 8.97735 28.6508 11.7835 29.209C14.5896 29.7671 17.4982 29.4807 20.1416 28.3858C22.7849 27.2909 25.0442 25.4367 26.6337 23.0578C28.2232 20.6789 29.0717 17.882 29.0717 15.0209C29.0672 11.1857 27.5416 7.50882 24.8297 4.79689C22.1178 2.08497 18.4409 0.559431 14.6057 0.554932ZM14.6057 22.8039C14.3305 22.8039 14.0616 22.7223 13.8329 22.5695C13.6041 22.4167 13.4258 22.1994 13.3205 21.9452C13.2153 21.6911 13.1877 21.4114 13.2414 21.1416C13.2951 20.8717 13.4275 20.6239 13.6221 20.4293C13.8166 20.2348 14.0645 20.1023 14.3343 20.0487C14.6041 19.995 14.8838 20.0225 15.138 20.1278C15.3921 20.2331 15.6094 20.4114 15.7622 20.6401C15.9151 20.8689 15.9967 21.1378 15.9967 21.4129C15.9967 21.7818 15.8501 22.1357 15.5892 22.3965C15.3284 22.6574 14.9746 22.8039 14.6057 22.8039ZM16.1167 8.81393L15.7167 17.2989C15.7167 17.5941 15.5994 17.8772 15.3907 18.0859C15.1819 18.2947 14.8988 18.4119 14.6037 18.4119C14.3085 18.4119 14.0254 18.2947 13.8166 18.0859C13.6079 17.8772 13.4907 17.5941 13.4907 17.2989L13.0907 8.81793C13.0816 8.61391 13.1139 8.41015 13.1857 8.21897C13.2575 8.02778 13.3673 7.85312 13.5085 7.70553C13.6496 7.55794 13.8192 7.44047 14.007 7.36022C14.1948 7.27997 14.3969 7.2386 14.6012 7.2386C14.8054 7.2386 15.0075 7.27997 15.1953 7.36022C15.3831 7.44047 15.5527 7.55794 15.6938 7.70553C15.835 7.85312 15.9448 8.02778 16.0166 8.21897C16.0884 8.41015 16.1207 8.61391 16.1117 8.81793L16.1167 8.81393Z" fill="white"/>
</svg>
