<svg width="30" height="30" viewBox="0 0 30 30" fill="none" xmlns="http://www.w3.org/2000/svg">
<path d="M14.5695 0.533936C11.7084 0.533936 8.91156 1.38235 6.53264 2.9719C4.15372 4.56144 2.29958 6.82072 1.20468 9.46404C0.109782 12.1074 -0.176691 15.016 0.381483 17.8221C0.939657 20.6282 2.31741 23.2058 4.34051 25.2289C6.36362 27.252 8.94121 28.6298 11.7473 29.188C14.5535 29.7461 17.4621 29.4597 20.1054 28.3648C22.7487 27.2699 25.008 25.4157 26.5976 23.0368C28.1871 20.6579 29.0355 17.861 29.0355 14.9999C29.031 11.1647 27.5055 7.48782 24.7936 4.7759C22.0816 2.06397 18.4048 0.538435 14.5695 0.533936ZM14.5695 22.7829C14.2944 22.7829 14.0255 22.7014 13.7967 22.5485C13.568 22.3957 13.3897 22.1784 13.2844 21.9242C13.1791 21.6701 13.1516 21.3904 13.2052 21.1206C13.2589 20.8507 13.3914 20.6029 13.5859 20.4083C13.7805 20.2138 14.0283 20.0813 14.2982 20.0277C14.568 19.974 14.8477 20.0015 15.1018 20.1068C15.356 20.2121 15.5732 20.3904 15.7261 20.6191C15.8789 20.8479 15.9605 21.1168 15.9605 21.3919C15.9605 21.7609 15.814 22.1147 15.5531 22.3755C15.2922 22.6364 14.9384 22.7829 14.5695 22.7829ZM16.0805 8.79293L15.6805 17.2779C15.6805 17.5731 15.5633 17.8562 15.3545 18.0649C15.1458 18.2737 14.8627 18.3909 14.5675 18.3909C14.2723 18.3909 13.9892 18.2737 13.7805 18.0649C13.5718 17.8562 13.4545 17.5731 13.4545 17.2779L13.0545 8.79694C13.0454 8.59291 13.0778 8.38916 13.1496 8.19797C13.2214 8.00678 13.3312 7.83212 13.4723 7.68453C13.6135 7.53694 13.7831 7.41948 13.9709 7.33923C14.1587 7.25898 14.3608 7.2176 14.565 7.2176C14.7692 7.2176 14.9714 7.25898 15.1592 7.33923C15.347 7.41948 15.5166 7.53694 15.6577 7.68453C15.7989 7.83212 15.9087 8.00678 15.9805 8.19797C16.0523 8.38916 16.0846 8.59291 16.0755 8.79694L16.0805 8.79293Z" fill="#F9975F"/>
</svg>
