<svg width="57" height="57" viewBox="0 0 57 57" fill="none" xmlns="http://www.w3.org/2000/svg">
<g clip-path="url(#clip0_9041_85924)">
<path d="M42.1875 2.34375C35.7188 2.34375 30.4688 7.59375 30.4688 14.0625C30.4688 20.5312 35.7188 25.7812 42.1875 25.7812C48.6562 25.7812 53.9062 20.5312 53.9062 14.0625C53.9062 7.59375 48.6562 2.34375 42.1875 2.34375ZM43.3594 16.4062H41.0156V7.03125H43.3594V16.4062ZM43.3594 18.75V21.0938H41.0156V18.75H43.3594ZM41.9766 30.4688C42.1172 30.8438 42.1875 31.2422 42.1875 31.6406C42.1875 33.5859 40.6172 35.1562 38.6719 35.1562C36.7266 35.1562 35.1562 33.5859 35.1562 31.6406C35.1562 30.7266 35.5078 29.9062 36.0703 29.2734C32.25 27.7266 29.1328 24.7969 27.375 21.0938H13.6172L16.0547 14.0625H25.7812C25.7812 12.4453 26.0156 10.8516 26.4609 9.375H15.2344C13.6875 9.375 12.3984 10.3594 11.9062 11.7422L7.03125 25.7812V44.5312C7.03125 45.8203 8.08594 46.875 9.375 46.875H11.7188C13.0078 46.875 14.0625 45.8203 14.0625 44.5312V42.1875H42.1875V44.5312C42.1875 45.8203 43.2422 46.875 44.5312 46.875H46.875C48.1641 46.875 49.2188 45.8203 49.2188 44.5312V28.875C46.7578 30.0703 44.1562 30.4922 41.9766 30.4688ZM17.5781 35.1562C15.6328 35.1562 14.0625 33.5859 14.0625 31.6406C14.0625 29.6953 15.6328 28.125 17.5781 28.125C19.5234 28.125 21.0938 29.6953 21.0938 31.6406C21.0938 33.5859 19.5234 35.1562 17.5781 35.1562Z" fill="#8F8F8F"/>
<circle cx="42.1875" cy="14.0625" r="11.7188" fill="#8F8F8F"/>
<path d="M43.5547 14.6094C44.1016 14.6094 44.5638 14.4206 44.9414 14.043C45.319 13.6654 45.5078 13.2031 45.5078 12.6562C45.5078 12.1224 45.319 11.6635 44.9414 11.2797C44.5638 10.8953 44.1016 10.7031 43.5547 10.7031C43.0078 10.7031 42.5456 10.8953 42.168 11.2797C41.7904 11.6635 41.6016 12.1224 41.6016 12.6562C41.6016 13.2031 41.7904 13.6654 42.168 14.043C42.5456 14.4206 43.0078 14.6094 43.5547 14.6094ZM38.3984 17.0312C38.0078 17.0312 37.6758 16.8945 37.4023 16.6211C37.1289 16.3477 36.9922 16.0156 36.9922 15.625V9.70703C36.9922 9.31641 37.1289 8.98438 37.4023 8.71094C37.6758 8.4375 38.0078 8.30078 38.3984 8.30078H48.7109C49.1016 8.30078 49.4336 8.4375 49.707 8.71094C49.9805 8.98438 50.1172 9.31641 50.1172 9.70703V15.625C50.1172 16.0156 49.9805 16.3477 49.707 16.6211C49.4336 16.8945 49.1016 17.0312 48.7109 17.0312H38.3984ZM35.6641 19.7656C35.2734 19.7656 34.9414 19.6289 34.668 19.3555C34.3945 19.082 34.2578 18.75 34.2578 18.3594V11.2109C34.2578 11.0417 34.313 10.9016 34.4234 10.7906C34.5344 10.6802 34.6745 10.625 34.8437 10.625C35.013 10.625 35.1531 10.6802 35.2641 10.7906C35.3745 10.9016 35.4297 11.0417 35.4297 11.2109V18.3594C35.4297 18.4245 35.4557 18.4797 35.5078 18.525C35.5599 18.5708 35.612 18.5937 35.6641 18.5937H47.207C47.3763 18.5937 47.5161 18.6523 47.6266 18.7695C47.7375 18.8867 47.793 19.0234 47.793 19.1797C47.793 19.349 47.7375 19.4888 47.6266 19.5992C47.5161 19.7102 47.3763 19.7656 47.207 19.7656H35.6641ZM38.1641 10.8789C38.5547 10.8789 38.8867 10.7388 39.1602 10.4586C39.4336 10.1789 39.5703 9.85026 39.5703 9.47266H38.3984C38.3333 9.47266 38.2781 9.49557 38.2328 9.54141C38.187 9.58672 38.1641 9.64193 38.1641 9.70703V10.8789ZM48.9453 10.8789V9.70703C48.9453 9.64193 48.9224 9.58672 48.8766 9.54141C48.8313 9.49557 48.776 9.47266 48.7109 9.47266H47.5391C47.5391 9.86328 47.6758 10.1953 47.9492 10.4688C48.2227 10.7422 48.5547 10.8789 48.9453 10.8789ZM38.3984 15.8594H39.5703C39.5703 15.4688 39.4336 15.1367 39.1602 14.8633C38.8867 14.5898 38.5547 14.4531 38.1641 14.4531V15.625C38.1641 15.6901 38.187 15.7453 38.2328 15.7906C38.2781 15.8365 38.3333 15.8594 38.3984 15.8594ZM47.5391 15.8594H48.7109C48.776 15.8594 48.8313 15.8365 48.8766 15.7906C48.9224 15.7453 48.9453 15.6901 48.9453 15.625V14.4531C48.5547 14.4531 48.2227 14.5898 47.9492 14.8633C47.6758 15.1367 47.5391 15.4688 47.5391 15.8594Z" fill="#B9CDE4"/>
</g>
<defs>
<clipPath id="clip0_9041_85924">
<rect width="56.25" height="56.25" fill="white"/>
</clipPath>
</defs>
</svg>
