<svg viewBox="0 0 18 12" fill="currentcolor" xmlns="http://www.w3.org/2000/svg">
<path d="M12.6992 11.2984L17.2992 6.69844C17.3992 6.59844 17.4699 6.4901 17.5112 6.37344C17.5532 6.25677 17.5742 6.13177 17.5742 5.99844C17.5742 5.8651 17.5532 5.7401 17.5112 5.62344C17.4699 5.50677 17.3992 5.39844 17.2992 5.29844L12.6742 0.673438C12.4909 0.490104 12.2659 0.398438 11.9992 0.398438C11.7326 0.398438 11.4992 0.498437 11.2992 0.698437C11.1159 0.881771 11.0242 1.1151 11.0242 1.39844C11.0242 1.68177 11.1159 1.9151 11.2992 2.09844L14.1992 4.99844H0.999218C0.715885 4.99844 0.478552 5.0941 0.287218 5.28544C0.0952187 5.47744 -0.000782013 5.7151 -0.000782013 5.99844C-0.000782013 6.28177 0.0952187 6.5191 0.287218 6.71044C0.478552 6.90244 0.715885 6.99844 0.999218 6.99844H14.1992L11.2742 9.92344C11.0909 10.1068 10.9992 10.3318 10.9992 10.5984C10.9992 10.8651 11.0992 11.0984 11.2992 11.2984C11.4826 11.4818 11.7159 11.5734 11.9992 11.5734C12.2826 11.5734 12.5159 11.4818 12.6992 11.2984Z" fill="#BB133E"/>
</svg>
