<svg width="30" height="32" viewBox="0 0 30 32" fill="none" xmlns="http://www.w3.org/2000/svg">
<path d="M26.0835 10.9629H19.0305V3.90994C19.0305 3.51308 18.9523 3.12012 18.8004 2.75347C18.6486 2.38682 18.426 2.05368 18.1454 1.77306C17.8647 1.49244 17.5316 1.26984 17.165 1.11798C16.7983 0.966106 16.4053 0.887939 16.0085 0.887939H3.91848C3.117 0.887939 2.34834 1.20633 1.78161 1.77306C1.21487 2.3398 0.896484 3.10845 0.896484 3.90994V30.1039C0.896484 30.371 1.00258 30.6271 1.19143 30.816C1.38028 31.0048 1.63641 31.1109 1.90348 31.1109H8.45248C8.58509 31.1109 8.71227 31.0583 8.80604 30.9645C8.89981 30.8707 8.95248 30.7435 8.95248 30.6109V26.1029C8.94987 25.8406 9.04777 25.5871 9.2261 25.3947C9.40444 25.2022 9.64967 25.0853 9.91148 25.0679C10.0477 25.0613 10.1839 25.0824 10.3117 25.13C10.4395 25.1775 10.5563 25.2506 10.6551 25.3446C10.7538 25.4387 10.8324 25.5519 10.8861 25.6772C10.9398 25.8026 10.9675 25.9376 10.9675 26.0739V30.6079C10.9675 30.7405 11.0202 30.8677 11.1139 30.9615C11.2077 31.0553 11.3349 31.1079 11.4675 31.1079H28.0965C28.3636 31.1079 28.6197 31.0018 28.8085 30.813C28.9974 30.6241 29.1035 30.368 29.1035 30.1009V13.9879C29.1039 13.591 29.0261 13.1979 28.8745 12.831C28.7229 12.4641 28.5006 12.1307 28.2201 11.8498C27.9397 11.5689 27.6066 11.346 27.24 11.1938C26.8734 11.0417 26.4804 10.9632 26.0835 10.9629ZM5.05748 27.0739C4.84893 27.1012 4.63708 27.0625 4.45166 26.9632C4.26624 26.8639 4.11655 26.7091 4.02362 26.5204C3.93068 26.3317 3.89915 26.1187 3.93346 25.9112C3.96777 25.7037 4.0662 25.5121 4.21492 25.3634C4.36364 25.2147 4.5552 25.1162 4.76271 25.0819C4.97022 25.0476 5.18326 25.0791 5.37194 25.1721C5.56062 25.265 5.71546 25.4147 5.81474 25.6001C5.91402 25.7855 5.95274 25.9974 5.92548 26.2059C5.89671 26.4261 5.79601 26.6305 5.63903 26.7875C5.48206 26.9445 5.27761 27.0452 5.05748 27.0739ZM5.05748 22.0369C4.84893 22.0642 4.63708 22.0255 4.45166 21.9262C4.26624 21.8269 4.11655 21.6721 4.02362 21.4834C3.93068 21.2947 3.89915 21.0817 3.93346 20.8742C3.96777 20.6667 4.0662 20.4751 4.21492 20.3264C4.36364 20.1777 4.5552 20.0792 4.76271 20.0449C4.97022 20.0106 5.18326 20.0421 5.37194 20.1351C5.56062 20.228 5.71546 20.3777 5.81474 20.5631C5.91402 20.7485 5.95274 20.9604 5.92548 21.1689C5.89671 21.3891 5.79601 21.5935 5.63903 21.7505C5.48206 21.9075 5.27761 22.0082 5.05748 22.0369ZM5.05748 16.9999C4.84893 17.0272 4.63708 16.9885 4.45166 16.8892C4.26624 16.7899 4.11655 16.6351 4.02362 16.4464C3.93068 16.2577 3.89915 16.0447 3.93346 15.8372C3.96777 15.6297 4.0662 15.4381 4.21492 15.2894C4.36364 15.1407 4.5552 15.0422 4.76271 15.0079C4.97022 14.9736 5.18326 15.0051 5.37194 15.0981C5.56062 15.191 5.71546 15.3407 5.81474 15.5261C5.91402 15.7115 5.95274 15.9234 5.92548 16.1319C5.89651 16.3519 5.79571 16.5561 5.63876 16.7129C5.4818 16.8697 5.27746 16.9702 5.05748 16.9989V16.9999ZM5.05748 11.9629C4.84893 11.9902 4.63708 11.9515 4.45166 11.8522C4.26624 11.7529 4.11655 11.5981 4.02362 11.4094C3.93068 11.2207 3.89915 11.0077 3.93346 10.8002C3.96777 10.5927 4.0662 10.4011 4.21492 10.2524C4.36364 10.1037 4.5552 10.0052 4.76271 9.97092C4.97022 9.93661 5.18326 9.96814 5.37194 10.0611C5.56062 10.154 5.71546 10.3037 5.81474 10.4891C5.91402 10.6745 5.95274 10.8864 5.92548 11.0949C5.89651 11.3149 5.79571 11.5191 5.63876 11.6759C5.4818 11.8327 5.27746 11.9332 5.05748 11.9619V11.9629ZM5.05748 6.92594C4.84893 6.9532 4.63708 6.91447 4.45166 6.81519C4.26624 6.71592 4.11655 6.56107 4.02362 6.37239C3.93068 6.18372 3.89915 5.97067 3.93346 5.76316C3.96777 5.55566 4.0662 5.3641 4.21492 5.21538C4.36364 5.06665 4.5552 4.96823 4.76271 4.93392C4.97022 4.89961 5.18326 4.93114 5.37194 5.02407C5.56062 5.11701 5.71546 5.26669 5.81474 5.45211C5.91402 5.63754 5.95274 5.84939 5.92548 6.05794C5.89651 6.27788 5.79571 6.4821 5.63876 6.63888C5.4818 6.79566 5.27746 6.89622 5.05748 6.92494V6.92594ZM10.0965 22.0369C9.88793 22.0642 9.67608 22.0255 9.49066 21.9262C9.30524 21.8269 9.15555 21.6721 9.06262 21.4834C8.96968 21.2947 8.93816 21.0817 8.97247 20.8742C9.00677 20.6667 9.1052 20.4751 9.25392 20.3264C9.40264 20.1777 9.5942 20.0792 9.80171 20.0449C10.0092 20.0106 10.2223 20.0421 10.4109 20.1351C10.5996 20.228 10.7545 20.3777 10.8537 20.5631C10.953 20.7485 10.9917 20.9604 10.9645 21.1689C10.9357 21.3891 10.835 21.5935 10.678 21.7505C10.5211 21.9075 10.3166 22.0082 10.0965 22.0369ZM10.0965 16.9999C9.88793 17.0272 9.67608 16.9885 9.49066 16.8892C9.30524 16.7899 9.15555 16.6351 9.06262 16.4464C8.96968 16.2577 8.93816 16.0447 8.97247 15.8372C9.00677 15.6297 9.1052 15.4381 9.25392 15.2894C9.40264 15.1407 9.5942 15.0422 9.80171 15.0079C10.0092 14.9736 10.2223 15.0051 10.4109 15.0981C10.5996 15.191 10.7545 15.3407 10.8537 15.5261C10.953 15.7115 10.9917 15.9234 10.9645 16.1319C10.9355 16.3519 10.8347 16.5561 10.6778 16.7129C10.5208 16.8697 10.3165 16.9702 10.0965 16.9989V16.9999ZM10.0965 11.9629C9.88793 11.9902 9.67608 11.9515 9.49066 11.8522C9.30524 11.7529 9.15555 11.5981 9.06262 11.4094C8.96968 11.2207 8.93816 11.0077 8.97247 10.8002C9.00677 10.5927 9.1052 10.4011 9.25392 10.2524C9.40264 10.1037 9.5942 10.0052 9.80171 9.97092C10.0092 9.93661 10.2223 9.96814 10.4109 10.0611C10.5996 10.154 10.7545 10.3037 10.8537 10.4891C10.953 10.6745 10.9917 10.8864 10.9645 11.0949C10.9355 11.3149 10.8347 11.5191 10.6778 11.6759C10.5208 11.8327 10.3165 11.9332 10.0965 11.9619V11.9629ZM10.0965 6.92594C9.88793 6.9532 9.67608 6.91447 9.49066 6.81519C9.30524 6.71592 9.15555 6.56107 9.06262 6.37239C8.96968 6.18372 8.93816 5.97067 8.97247 5.76316C9.00677 5.55566 9.1052 5.3641 9.25392 5.21538C9.40264 5.06665 9.5942 4.96823 9.80171 4.93392C10.0092 4.89961 10.2223 4.93114 10.4109 5.02407C10.5996 5.11701 10.7545 5.26669 10.8537 5.45211C10.953 5.63754 10.9917 5.84939 10.9645 6.05794C10.9355 6.27788 10.8347 6.4821 10.6778 6.63888C10.5208 6.79566 10.3165 6.89622 10.0965 6.92494V6.92594ZM15.1335 27.0749C14.9249 27.1022 14.7131 27.0635 14.5277 26.9642C14.3422 26.8649 14.1926 26.7101 14.0996 26.5214C14.0067 26.3327 13.9752 26.1197 14.0095 25.9122C14.0438 25.7047 14.1422 25.5131 14.2909 25.3644C14.4396 25.2157 14.6312 25.1172 14.8387 25.0829C15.0462 25.0486 15.2593 25.0801 15.4479 25.1731C15.6366 25.266 15.7915 25.4157 15.8907 25.6011C15.99 25.7865 16.0287 25.9984 16.0015 26.2069C15.9724 26.4272 15.8713 26.6316 15.714 26.7884C15.5566 26.9452 15.3518 27.0456 15.1315 27.0739L15.1335 27.0749ZM15.1335 22.0379C14.9249 22.0652 14.7131 22.0265 14.5277 21.9272C14.3422 21.8279 14.1926 21.6731 14.0996 21.4844C14.0067 21.2957 13.9752 21.0827 14.0095 20.8752C14.0438 20.6677 14.1422 20.4761 14.2909 20.3274C14.4396 20.1787 14.6312 20.0802 14.8387 20.0459C15.0462 20.0116 15.2593 20.0431 15.4479 20.1361C15.6366 20.229 15.7915 20.3787 15.8907 20.5641C15.99 20.7495 16.0287 20.9614 16.0015 21.1699C15.9724 21.3902 15.8713 21.5946 15.714 21.7514C15.5566 21.9083 15.3518 22.0086 15.1315 22.0369L15.1335 22.0379ZM15.1335 17.0009C14.9249 17.0282 14.7131 16.9895 14.5277 16.8902C14.3422 16.7909 14.1926 16.6361 14.0996 16.4474C14.0067 16.2587 13.9752 16.0457 14.0095 15.8382C14.0438 15.6307 14.1422 15.4391 14.2909 15.2904C14.4396 15.1417 14.6312 15.0432 14.8387 15.0089C15.0462 14.9746 15.2593 15.0061 15.4479 15.0991C15.6366 15.192 15.7915 15.3417 15.8907 15.5271C15.99 15.7125 16.0287 15.9244 16.0015 16.1329C15.9722 16.353 15.871 16.5572 15.7137 16.7138C15.5564 16.8704 15.3517 16.9707 15.1315 16.9989L15.1335 17.0009ZM15.1335 11.9639C14.9249 11.9912 14.7131 11.9525 14.5277 11.8532C14.3422 11.7539 14.1926 11.5991 14.0996 11.4104C14.0067 11.2217 13.9752 11.0087 14.0095 10.8012C14.0438 10.5937 14.1422 10.4021 14.2909 10.2534C14.4396 10.1047 14.6312 10.0062 14.8387 9.97192C15.0462 9.93761 15.2593 9.96914 15.4479 10.0621C15.6366 10.155 15.7915 10.3047 15.8907 10.4901C15.99 10.6755 16.0287 10.8874 16.0015 11.0959C15.9722 11.316 15.871 11.5202 15.7137 11.6768C15.5564 11.8334 15.3517 11.9337 15.1315 11.9619L15.1335 11.9639ZM15.1335 6.92694C14.9249 6.9542 14.7131 6.91547 14.5277 6.81619C14.3422 6.71692 14.1926 6.56207 14.0996 6.3734C14.0067 6.18472 13.9752 5.97167 14.0095 5.76416C14.0438 5.55666 14.1422 5.3651 14.2909 5.21638C14.4396 5.06765 14.6312 4.96923 14.8387 4.93492C15.0462 4.90061 15.2593 4.93214 15.4479 5.02507C15.6366 5.11801 15.7915 5.26769 15.8907 5.45311C15.99 5.63854 16.0287 5.85039 16.0015 6.05894C15.9722 6.279 15.871 6.48322 15.7137 6.63983C15.5564 6.79644 15.3517 6.89668 15.1315 6.92494L15.1335 6.92694ZM26.8385 29.0969H19.0305V12.9779H26.0825C26.2151 12.9778 26.3464 13.0039 26.4688 13.0546C26.5913 13.1053 26.7026 13.1797 26.7962 13.2736C26.8899 13.3674 26.9641 13.4788 27.0146 13.6014C27.0651 13.724 27.0909 13.8554 27.0905 13.9879V28.8479C27.0897 28.9143 27.0628 28.9776 27.0156 29.0242C26.9684 29.0708 26.9048 29.0969 26.8385 29.0969Z" fill="#2C99AF"/>
</svg>
