<svg width="71" height="70" viewBox="0 0 71 70" fill="none" xmlns="http://www.w3.org/2000/svg">
<g filter="url(#filter0_d_34_745)">
<path d="M50.8418 7H20.8418C15.3189 7 10.8418 11.4772 10.8418 17V47C10.8418 52.5228 15.3189 57 20.8418 57H50.8418C56.3646 57 60.8418 52.5228 60.8418 47V17C60.8418 11.4772 56.3646 7 50.8418 7Z" fill="white"/>
</g>
<path d="M25.187 38.1021C25.0607 38.103 24.9354 38.079 24.8184 38.0315C24.7013 37.984 24.5944 37.9139 24.5044 37.8252C24.4144 37.7365 24.3427 37.631 24.2935 37.5147C24.2443 37.3983 24.2187 37.2733 24.2178 37.147C24.2187 37.0207 24.2443 36.8957 24.2935 36.7793C24.3427 36.663 24.4144 36.5575 24.5044 36.4688C24.5944 36.3801 24.7013 36.31 24.8184 36.2625C24.9354 36.215 25.0607 36.191 25.187 36.1919H46.4976C46.6239 36.191 46.7496 36.215 46.8667 36.2625C46.9838 36.31 47.0902 36.3801 47.1802 36.4688C47.2702 36.5575 47.3419 36.663 47.3911 36.7793C47.4403 36.8957 47.4659 37.0207 47.4668 37.147C47.4659 37.2733 47.4403 37.3983 47.3911 37.5147C47.3419 37.631 47.2702 37.7365 47.1802 37.8252C47.0902 37.9139 46.9838 37.984 46.8667 38.0315C46.7496 38.079 46.6239 38.103 46.4976 38.1021H25.187ZM33.187 32.939C32.932 32.9406 32.6865 32.8409 32.5049 32.6619C32.3232 32.4829 32.2199 32.239 32.2178 31.9839C32.2199 31.729 32.3232 31.4853 32.5049 31.3064C32.6866 31.1275 32.932 31.0282 33.187 31.0301H46.4976C46.6238 31.029 46.7491 31.0527 46.8662 31.1001C46.9833 31.1475 47.0902 31.2176 47.1802 31.3062C47.2702 31.3948 47.3419 31.5002 47.3911 31.6165C47.4403 31.7328 47.4659 31.8576 47.4668 31.9839C47.4659 32.1103 47.4403 32.2352 47.3911 32.3516C47.3419 32.468 47.2702 32.5735 47.1802 32.6621C47.0902 32.7508 46.9838 32.8209 46.8667 32.8684C46.7496 32.9159 46.6239 32.9399 46.4976 32.939H33.187ZM25.187 27.8059C25.0607 27.807 24.9354 27.7833 24.8184 27.7359C24.7013 27.6885 24.5944 27.6184 24.5044 27.5298C24.4144 27.4412 24.3432 27.3358 24.2939 27.2195C24.2447 27.1032 24.2187 26.9784 24.2178 26.8521C24.2186 26.7257 24.2443 26.6006 24.2935 26.4842C24.3426 26.3677 24.4144 26.2623 24.5044 26.1736C24.5944 26.0849 24.7007 26.0148 24.8179 25.9673C24.935 25.9199 25.0606 25.896 25.187 25.897H46.4976C46.6239 25.896 46.7496 25.9199 46.8667 25.9673C46.9838 26.0148 47.0902 26.0849 47.1802 26.1736C47.2702 26.2623 47.342 26.3677 47.3911 26.4842C47.4403 26.6006 47.466 26.7257 47.4668 26.8521C47.4659 26.9784 47.4403 27.1032 47.3911 27.2195C47.3419 27.3358 47.2702 27.4412 47.1802 27.5298C47.0902 27.6184 46.9833 27.6885 46.8662 27.7359C46.7491 27.7833 46.6238 27.807 46.4976 27.8059H25.187Z" fill="black"/>
<defs>
<filter id="filter0_d_34_745" x="0.841797" y="0" width="70" height="70" filterUnits="userSpaceOnUse" color-interpolation-filters="sRGB">
<feFlood flood-opacity="0" result="BackgroundImageFix"/>
<feColorMatrix in="SourceAlpha" type="matrix" values="0 0 0 0 0 0 0 0 0 0 0 0 0 0 0 0 0 0 127 0" result="hardAlpha"/>
<feOffset dy="3"/>
<feGaussianBlur stdDeviation="5"/>
<feColorMatrix type="matrix" values="0 0 0 0 0 0 0 0 0 0 0 0 0 0 0 0 0 0 0.059 0"/>
<feBlend mode="normal" in2="BackgroundImageFix" result="effect1_dropShadow_34_745"/>
<feBlend mode="normal" in="SourceGraphic" in2="effect1_dropShadow_34_745" result="shape"/>
</filter>
</defs>
</svg>
