<svg width="25" height="25" viewBox="0 0 25 25" fill="none" xmlns="http://www.w3.org/2000/svg">
<path d="M24.9551 6.135C24.9551 5.22716 24.5945 4.3565 23.9526 3.71457C23.3106 3.07263 22.44 2.712 21.5321 2.712H20.6761V1.88C20.6787 1.65695 20.5958 1.4414 20.4444 1.27756C20.293 1.11373 20.0847 1.01406 19.8621 0.998995C19.7462 0.993026 19.6302 1.01072 19.5213 1.05099C19.4123 1.09126 19.3128 1.15328 19.2286 1.23326C19.1444 1.31325 19.0773 1.40952 19.0315 1.51624C18.9857 1.62295 18.9621 1.73787 18.9621 1.854V2.70999H6.98414V1.878C6.98618 1.6553 6.90303 1.44024 6.75171 1.27684C6.60039 1.11343 6.39234 1.01404 6.17014 0.998995C6.05417 0.993026 5.93819 1.01072 5.82927 1.05099C5.72035 1.09126 5.62076 1.15328 5.53657 1.23326C5.45238 1.31325 5.38534 1.40952 5.33954 1.51624C5.29374 1.62295 5.27012 1.73787 5.27014 1.854V2.70999H4.41414C3.50648 2.71079 2.63629 3.07205 1.99495 3.71434C1.3536 4.35662 0.993611 5.22733 0.994141 6.135V6.777C0.994141 6.83375 1.01669 6.88818 1.05682 6.92832C1.09695 6.96845 1.15139 6.991 1.20814 6.991H24.7411C24.7979 6.991 24.8523 6.96845 24.8925 6.92832C24.9326 6.88818 24.9551 6.83375 24.9551 6.777V6.135ZM0.994141 21.538C0.994141 21.9875 1.08268 22.4326 1.2547 22.8479C1.42672 23.2632 1.67886 23.6406 1.99672 23.9584C2.31457 24.2763 2.69192 24.5284 3.10722 24.7004C3.52251 24.8725 3.96763 24.961 4.41714 24.961H21.5321C21.9817 24.961 22.4268 24.8725 22.8421 24.7004C23.2574 24.5284 23.6347 24.2763 23.9526 23.9584C24.2704 23.6406 24.5226 23.2632 24.6946 22.8479C24.8666 22.4326 24.9551 21.9875 24.9551 21.538V8.86199C24.9551 8.81956 24.9383 8.77886 24.9083 8.74886C24.8783 8.71885 24.8376 8.70199 24.7951 8.70199H1.15414C1.11171 8.70199 1.07101 8.71885 1.041 8.74886C1.011 8.77886 0.994141 8.81956 0.994141 8.86199V21.538ZM19.3941 10.414C19.648 10.4142 19.8961 10.4896 20.1071 10.6308C20.3181 10.772 20.4825 10.9725 20.5796 11.2071C20.6767 11.4417 20.702 11.6998 20.6524 11.9487C20.6028 12.1977 20.4806 12.4264 20.3011 12.6059C20.1216 12.7854 19.8929 12.9077 19.6439 12.9573C19.3949 13.0068 19.1368 12.9815 18.9022 12.8844C18.6677 12.7874 18.4671 12.623 18.326 12.412C18.1848 12.201 18.1093 11.9529 18.1091 11.699C18.109 11.5302 18.1422 11.3631 18.2067 11.2071C18.2712 11.0511 18.3659 10.9094 18.4852 10.7901C18.6046 10.6707 18.7463 10.5761 18.9022 10.5115C19.0582 10.447 19.2254 10.4139 19.3941 10.414ZM19.3941 14.693C19.6481 14.693 19.8963 14.7683 20.1075 14.9094C20.3186 15.0505 20.4832 15.251 20.5804 15.4856C20.6776 15.7202 20.703 15.9784 20.6535 16.2275C20.6039 16.4766 20.4816 16.7054 20.3021 16.8849C20.1225 17.0645 19.8937 17.1868 19.6446 17.2363C19.3956 17.2859 19.1374 17.2604 18.9028 17.1633C18.6682 17.0661 18.4676 16.9015 18.3265 16.6903C18.1854 16.4792 18.1101 16.2309 18.1101 15.977C18.11 15.8083 18.1431 15.6412 18.2076 15.4853C18.2721 15.3294 18.3666 15.1878 18.4859 15.0684C18.6051 14.9491 18.7467 14.8544 18.9025 14.7898C19.0584 14.7252 19.2254 14.692 19.3941 14.692V14.693ZM15.1141 10.414C15.368 10.414 15.6163 10.4893 15.8274 10.6303C16.0385 10.7714 16.2031 10.9718 16.3003 11.2064C16.3975 11.441 16.423 11.6991 16.3735 11.9481C16.3241 12.1972 16.2019 12.426 16.0224 12.6056C15.8429 12.7852 15.6143 12.9075 15.3653 12.9572C15.1162 13.0069 14.8581 12.9816 14.6235 12.8845C14.3888 12.7875 14.1882 12.6231 14.047 12.4121C13.9058 12.2011 13.8303 11.9529 13.8301 11.699C13.83 11.5303 13.8631 11.3632 13.9276 11.2073C13.9921 11.0514 14.0866 10.9098 14.2059 10.7904C14.3251 10.6711 14.4667 10.5764 14.6225 10.5118C14.7784 10.4472 14.9454 10.414 15.1141 10.414ZM15.1141 14.693C15.3681 14.693 15.6163 14.7683 15.8275 14.9094C16.0386 15.0505 16.2032 15.251 16.3004 15.4856C16.3976 15.7202 16.423 15.9784 16.3735 16.2275C16.3239 16.4766 16.2016 16.7054 16.0221 16.8849C15.8425 17.0645 15.6137 17.1868 15.3646 17.2363C15.1156 17.2859 14.8574 17.2604 14.6228 17.1633C14.3882 17.0661 14.1876 16.9015 14.0465 16.6903C13.9054 16.4792 13.8301 16.2309 13.8301 15.977C13.83 15.8083 13.8631 15.6412 13.9276 15.4853C13.9921 15.3294 14.0866 15.1878 14.2059 15.0684C14.3251 14.9491 14.4667 14.8544 14.6225 14.7898C14.7784 14.7252 14.9454 14.692 15.1141 14.692V14.693ZM15.1141 18.972C15.3681 18.972 15.6163 19.0473 15.8275 19.1884C16.0386 19.3295 16.2032 19.53 16.3004 19.7646C16.3976 19.9992 16.423 20.2574 16.3735 20.5065C16.3239 20.7556 16.2016 20.9843 16.0221 21.1639C15.8425 21.3435 15.6137 21.4658 15.3646 21.5153C15.1156 21.5649 14.8574 21.5394 14.6228 21.4423C14.3882 21.3451 14.1876 21.1805 14.0465 20.9693C13.9054 20.7582 13.8301 20.5099 13.8301 20.256C13.83 20.0873 13.8631 19.9202 13.9276 19.7643C13.9921 19.6084 14.0866 19.4668 14.2059 19.3474C14.3251 19.2281 14.4667 19.1334 14.6225 19.0688C14.7784 19.0042 14.9454 18.971 15.1141 18.971V18.972ZM10.8351 14.693C11.0891 14.693 11.3373 14.7683 11.5485 14.9094C11.7596 15.0505 11.9242 15.251 12.0214 15.4856C12.1186 15.7202 12.144 15.9784 12.0945 16.2275C12.0449 16.4766 11.9226 16.7054 11.7431 16.8849C11.5635 17.0645 11.3347 17.1868 11.0856 17.2363C10.8366 17.2859 10.5784 17.2604 10.3438 17.1633C10.1092 17.0661 9.90862 16.9015 9.76753 16.6903C9.62645 16.4792 9.55114 16.2309 9.55114 15.977C9.55101 15.8083 9.58413 15.6412 9.64859 15.4853C9.71306 15.3294 9.80762 15.1878 9.92686 15.0684C10.0461 14.9491 10.1877 14.8544 10.3435 14.7898C10.4994 14.7252 10.6664 14.692 10.8351 14.692V14.693ZM10.8351 18.972C11.0891 18.972 11.3373 19.0473 11.5485 19.1884C11.7596 19.3295 11.9242 19.53 12.0214 19.7646C12.1186 19.9992 12.144 20.2574 12.0945 20.5065C12.0449 20.7556 11.9226 20.9843 11.7431 21.1639C11.5635 21.3435 11.3347 21.4658 11.0856 21.5153C10.8366 21.5649 10.5784 21.5394 10.3438 21.4423C10.1092 21.3451 9.90862 21.1805 9.76753 20.9693C9.62645 20.7582 9.55114 20.5099 9.55114 20.256C9.55101 20.0873 9.58413 19.9202 9.64859 19.7643C9.71306 19.6084 9.80762 19.4668 9.92686 19.3474C10.0461 19.2281 10.1877 19.1334 10.3435 19.0688C10.4994 19.0042 10.6664 18.971 10.8351 18.971V18.972ZM6.55614 14.693C6.81009 14.693 7.05834 14.7683 7.26949 14.9094C7.48065 15.0505 7.64522 15.251 7.7424 15.4856C7.83958 15.7202 7.86501 15.9784 7.81547 16.2275C7.76592 16.4766 7.64364 16.7054 7.46407 16.8849C7.2845 17.0645 7.05571 17.1868 6.80664 17.2363C6.55757 17.2859 6.29939 17.2604 6.06477 17.1633C5.83015 17.0661 5.62962 16.9015 5.48853 16.6903C5.34745 16.4792 5.27214 16.2309 5.27214 15.977C5.27201 15.8083 5.30512 15.6412 5.36959 15.4853C5.43406 15.3294 5.52862 15.1878 5.64786 15.0684C5.76711 14.9491 5.9087 14.8544 6.06455 14.7898C6.22039 14.7252 6.38744 14.692 6.55614 14.692V14.693ZM6.55614 18.972C6.81009 18.972 7.05834 19.0473 7.26949 19.1884C7.48065 19.3295 7.64522 19.53 7.7424 19.7646C7.83958 19.9992 7.86501 20.2574 7.81547 20.5065C7.76592 20.7556 7.64364 20.9843 7.46407 21.1639C7.2845 21.3435 7.05571 21.4658 6.80664 21.5153C6.55757 21.5649 6.29939 21.5394 6.06477 21.4423C5.83015 21.3451 5.62962 21.1805 5.48853 20.9693C5.34745 20.7582 5.27214 20.5099 5.27214 20.256C5.27201 20.0873 5.30512 19.9202 5.36959 19.7643C5.43406 19.6084 5.52862 19.4668 5.64786 19.3474C5.76711 19.2281 5.9087 19.1334 6.06455 19.0688C6.22039 19.0042 6.38744 18.971 6.55614 18.971V18.972Z" fill="#2C99AF"/>
</svg>
