<svg width="23" height="23" viewBox="0 0 23 23" fill="none" xmlns="http://www.w3.org/2000/svg">
<path d="M18.2729 22.712C16.6833 22.5857 15.1506 22.0631 13.8149 21.192C11.2302 19.8103 8.87003 18.0446 6.81488 15.955C4.68723 13.9285 2.91045 11.563 1.55688 8.95504C-0.309117 5.56104 0.00888234 3.78203 0.363882 3.02103C0.774555 2.18958 1.42025 1.49695 2.22088 1.02903C2.67987 0.728342 3.16559 0.470589 3.67188 0.259036L3.81188 0.198035C3.97952 0.103389 4.16538 0.0455197 4.35712 0.0282775C4.54885 0.0110354 4.74205 0.0348129 4.92388 0.0980331C5.32833 0.292648 5.68819 0.568757 5.98088 0.909034C7.03439 2.0916 7.92312 3.41123 8.62288 4.83203C8.91045 5.32326 9.08723 5.87136 9.14088 6.43803C9.09879 6.99903 8.87156 7.53017 8.49488 7.94804C8.42888 8.03903 8.36288 8.12503 8.29488 8.20903C7.90888 8.71603 7.82488 8.86203 7.88088 9.12303C8.39635 10.4379 9.1953 11.623 10.2209 12.594C11.1775 13.6044 12.3505 14.3849 13.6519 14.877C13.9249 14.935 14.0739 14.847 14.5969 14.448C14.6719 14.391 14.7489 14.331 14.8299 14.272C15.2489 13.877 15.7891 13.6352 16.3629 13.586C16.9379 13.645 17.491 13.8389 17.9769 14.152C19.3845 14.8651 20.6996 15.7477 21.8929 16.78C22.2336 17.0716 22.5104 17.4305 22.7059 17.834C22.7689 18.0164 22.7925 18.2101 22.7753 18.4022C22.758 18.5944 22.7003 18.7808 22.6059 18.949C22.5869 18.991 22.5659 19.037 22.5449 19.088C22.3315 19.5935 22.0721 20.0782 21.7699 20.536C21.3006 21.3356 20.6069 21.9799 19.7749 22.389C19.3052 22.6094 18.7916 22.7198 18.2729 22.712Z" fill="#2C99AF"/>
</svg>
