<svg width="20" height="20" viewBox="0 0 20 20" fill="none" xmlns="http://www.w3.org/2000/svg">
<g clip-path="url(#clip0_4039_65117)">
<path d="M9.9987 12.6654C11.4715 12.6654 12.6654 11.4715 12.6654 9.9987C12.6654 8.52594 11.4715 7.33203 9.9987 7.33203C8.52594 7.33203 7.33203 8.52594 7.33203 9.9987C7.33203 11.4715 8.52594 12.6654 9.9987 12.6654Z" fill="#2766C5"/>
<path d="M7.5013 1.66797L5.9763 3.33464H3.33464C2.41797 3.33464 1.66797 4.08464 1.66797 5.0013V15.0013C1.66797 15.918 2.41797 16.668 3.33464 16.668H16.668C17.5846 16.668 18.3346 15.918 18.3346 15.0013V5.0013C18.3346 4.08464 17.5846 3.33464 16.668 3.33464H14.0263L12.5013 1.66797H7.5013ZM10.0013 14.168C7.7013 14.168 5.83464 12.3013 5.83464 10.0013C5.83464 7.7013 7.7013 5.83464 10.0013 5.83464C12.3013 5.83464 14.168 7.7013 14.168 10.0013C14.168 12.3013 12.3013 14.168 10.0013 14.168Z" fill="#2766C5"/>
</g>
</svg>
