<svg width="43" height="52" viewBox="0 0 43 52" fill="none" xmlns="http://www.w3.org/2000/svg">
<path d="M37.9062 5.0625H28.1094C27.125 2.34375 24.5469 0.375 21.5 0.375C18.4531 0.375 15.875 2.34375 14.8906 5.0625H5.09375C2.51562 5.0625 0.40625 7.17187 0.40625 9.75V47.25C0.40625 49.8281 2.51562 51.9375 5.09375 51.9375H37.9062C40.4844 51.9375 42.5938 49.8281 42.5938 47.25V9.75C42.5938 7.17187 40.4844 5.0625 37.9062 5.0625ZM21.5 5.0625C22.7891 5.0625 23.8438 6.11719 23.8438 7.40625C23.8438 8.69531 22.7891 9.75 21.5 9.75C20.2109 9.75 19.1562 8.69531 19.1562 7.40625C19.1562 6.11719 20.2109 5.0625 21.5 5.0625ZM35.5625 47.25H7.4375C6.14844 47.25 5.09375 46.1953 5.09375 44.9062V12.0938C5.09375 10.8047 6.14844 9.75 7.4375 9.75H9.78125V12.0938C9.78125 14.6719 11.8906 16.7812 14.4688 16.7812H28.5312C31.1094 16.7812 33.2188 14.6719 33.2188 12.0938V9.75H35.5625C36.8516 9.75 37.9062 10.8047 37.9062 12.0938V44.9062C37.9062 46.1953 36.8516 47.25 35.5625 47.25Z" fill="#2766C5"/>
</svg>