<svg width="11" height="16" viewBox="0 0 11 16" fill="none" xmlns="http://www.w3.org/2000/svg">
<path d="M9.10637 15.379L1.30637 8.699C1.18087 8.59132 1.08014 8.45778 1.01108 8.30753C0.942016 8.15728 0.90625 7.99387 0.90625 7.8285C0.90625 7.66314 0.942016 7.49973 1.01108 7.34947C1.08014 7.19922 1.18087 7.06568 1.30637 6.958L9.10637 0.278003C9.27294 0.13538 9.4769 0.043492 9.69409 0.0132322C9.91128 -0.0170276 10.1326 0.0156039 10.3318 0.107264C10.531 0.198925 10.6998 0.345775 10.8181 0.530406C10.9364 0.715037 10.9993 0.929717 10.9994 1.149V14.511C10.9992 14.7302 10.9361 14.9448 10.8176 15.1292C10.6992 15.3137 10.5303 15.4603 10.331 15.5516C10.1318 15.643 9.91047 15.6753 9.69341 15.6447C9.47634 15.6141 9.27261 15.5219 9.10637 15.379Z" fill="#F9975F"/>
</svg>
