<svg width="11" height="16" viewBox="0 0 11 16" fill="none" xmlns="http://www.w3.org/2000/svg">
<path d="M2.45744 15.379L10.2574 8.699C10.3829 8.59132 10.4837 8.45778 10.5527 8.30753C10.6218 8.15728 10.6576 7.99387 10.6576 7.8285C10.6576 7.66314 10.6218 7.49973 10.5527 7.34947C10.4837 7.19922 10.3829 7.06568 10.2574 6.958L2.45744 0.278003C2.29087 0.13538 2.08691 0.043492 1.86972 0.0132322C1.65253 -0.0170276 1.43122 0.0156039 1.23201 0.107264C1.0328 0.198925 0.864043 0.345775 0.745728 0.530406C0.627413 0.715037 0.564503 0.929717 0.564453 1.149V14.511C0.56466 14.7302 0.62774 14.9448 0.746201 15.1292C0.864661 15.3137 1.03353 15.4603 1.23279 15.5516C1.43205 15.643 1.65334 15.6753 1.87041 15.6447C2.08747 15.6141 2.2912 15.5219 2.45744 15.379Z" fill="#F9975F"/>
</svg>
