<svg width="18" height="16" viewBox="0 0 18 16" fill="none" xmlns="http://www.w3.org/2000/svg">
<path d="M5.27902 14.779L0.895019 10.546C0.672898 10.3192 0.548 10.0147 0.546883 9.69728C0.545765 9.37985 0.668517 9.0745 0.889037 8.84617C1.10956 8.61783 1.41045 8.48452 1.72773 8.47459C2.04501 8.46466 2.35365 8.57888 2.58802 8.79297L6.03402 12.121L15.046 1.45197C15.1467 1.3226 15.2725 1.2149 15.4159 1.13532C15.5592 1.05573 15.7171 1.0059 15.8802 0.988812C16.0432 0.971724 16.208 0.98773 16.3648 1.03587C16.5215 1.08401 16.6669 1.16329 16.7922 1.26897C16.9176 1.37465 17.0203 1.50454 17.0942 1.65087C17.1682 1.79719 17.2118 1.95694 17.2225 2.12054C17.2332 2.28413 17.2108 2.44821 17.1566 2.60293C17.1024 2.75766 17.0175 2.89984 16.907 3.02097L7.05502 14.688C6.94726 14.8151 6.8147 14.9188 6.66545 14.993C6.51621 15.0671 6.35341 15.1099 6.18702 15.119H6.14602H6.12302C5.80819 15.1197 5.50546 14.9977 5.27902 14.779Z" fill="#345C64"/>
</svg>
