<svg width="12" height="7" viewBox="0 0 12 7" fill="none" xmlns="http://www.w3.org/2000/svg">
<path d="M5.99844 6.65423C5.88177 6.65423 5.76944 6.63757 5.66144 6.60423C5.55277 6.5709 5.45677 6.50423 5.37344 6.40423L0.848437 1.90423C0.715104 1.75423 0.648438 1.57923 0.648438 1.37923C0.648438 1.17923 0.723437 1.00423 0.873437 0.854233C1.02344 0.7209 1.19844 0.654232 1.39844 0.654232C1.59844 0.654232 1.77344 0.7209 1.92344 0.854233L5.99844 4.92923L10.0984 0.854233C10.2318 0.704233 10.3984 0.633233 10.5984 0.641233C10.7984 0.649899 10.9734 0.7209 11.1234 0.854233C11.2734 1.00423 11.3484 1.18323 11.3484 1.39123C11.3484 1.5999 11.2734 1.7709 11.1234 1.90423L6.62344 6.40423C6.5401 6.50423 6.44444 6.5709 6.33644 6.60423C6.22777 6.63757 6.1151 6.65423 5.99844 6.65423Z" fill="#BB133E"/>
</svg>