<svg width="142" height="43" viewBox="0 0 142 43" fill="none" xmlns="http://www.w3.org/2000/svg">
<path d="M96.7008 3.00074C96.7008 1.34348 95.3042 0 93.5814 0C91.8586 0 90.462 1.34348 90.462 3.00074V23.0057C90.462 24.6629 91.8586 26.0064 93.5814 26.0064C95.3042 26.0064 96.7008 24.6629 96.7008 23.0057V3.00074Z" fill="#002664"/>
<path d="M69.6662 3.00074C69.6662 1.34348 68.2696 0 66.5468 0C64.824 0 63.4274 1.34348 63.4274 3.00074V23.0057C63.4274 24.6629 64.824 26.0064 66.5468 26.0064C68.2696 26.0064 69.6662 24.6629 69.6662 23.0057V3.00074Z" fill="#002664"/>
<path d="M42.6315 14.0034H50.9499C52.6759 14.0034 54.0693 12.6631 54.0693 11.0027C54.0693 9.3423 52.6759 8.00197 50.9499 8.00197H41.5917C38.15 8.00197 35.353 10.6926 35.353 14.0034V20.0049C35.353 23.3157 38.15 26.0064 41.5917 26.0064H59.2682C60.9943 26.0064 62.3876 24.6661 62.3876 23.0057C62.3876 21.3453 60.9943 20.0049 59.2682 20.0049H42.6315C42.0596 20.0049 41.5917 19.5548 41.5917 19.0047V15.0037C41.5917 14.4536 42.0596 14.0034 42.6315 14.0034Z" fill="#002664"/>
<path d="M62.3876 11.0027C62.3876 9.34545 60.991 8.00197 59.2682 8.00197C57.5454 8.00197 56.1488 9.34545 56.1488 11.0027C56.1488 12.66 57.5454 14.0034 59.2682 14.0034C60.991 14.0034 62.3876 12.66 62.3876 11.0027Z" fill="#002664"/>
<path d="M76.9655 8.00197C73.5238 8.00197 70.7268 10.6926 70.7268 14.0034V23.0057C70.7268 24.6661 72.1201 26.0064 73.8461 26.0064C75.5722 26.0064 76.9655 24.6661 76.9655 23.0057V15.0037C76.9655 14.4536 77.4334 14.0034 78.0053 14.0034H86.3237C88.0497 14.0034 89.443 12.6631 89.443 11.0027C89.443 9.3423 88.0497 8.00197 86.3237 8.00197H76.9655Z" fill="#002664"/>
<path d="M86.3237 16.0039H82.1645C80.4417 16.0039 79.0451 17.3474 79.0451 19.0047C79.0451 20.6619 80.4417 22.0054 82.1645 22.0054H86.3237C88.0464 22.0054 89.443 20.6619 89.443 19.0047C89.443 17.3474 88.0464 16.0039 86.3237 16.0039Z" fill="#002664"/>
<path d="M15.6177 11.0027C15.6177 12.6631 17.011 14.0034 18.7371 14.0034H27.0554C27.6273 14.0034 28.0952 14.4536 28.0952 15.0037V19.0047C28.0952 19.5548 27.6273 20.0049 27.0554 20.0049H14.5779C14.006 20.0049 13.5381 19.5548 13.5381 19.0047V3.00074C13.5381 1.34033 12.1448 0 10.4187 0C8.69267 0 7.29935 1.34033 7.29935 3.00074V20.0049C7.29935 23.3157 10.0964 26.0064 13.5381 26.0064H28.0952C31.5369 26.0064 34.334 23.3157 34.334 20.0049V14.0034C34.334 10.6926 31.5369 8.00197 28.0952 8.00197H18.7371C17.011 8.00197 15.6177 9.3423 15.6177 11.0027Z" fill="#002664"/>
<path d="M31.2146 0H18.7371C17.0143 0 15.6177 1.34348 15.6177 3.00074C15.6177 4.658 17.0143 6.00148 18.7371 6.00148H31.2146C32.9374 6.00148 34.334 4.658 34.334 3.00074C34.334 1.34348 32.9374 0 31.2146 0Z" fill="#002664"/>
<path d="M0 23.0057C0 24.6629 1.39659 26.0064 3.11938 26.0064C4.84217 26.0064 6.23876 24.6629 6.23876 23.0057V11.0027C6.23876 9.34545 4.84217 8.00197 3.11938 8.00197C1.39659 8.00197 0 9.34545 0 11.0027V23.0057Z" fill="#002664"/>
<path d="M101.742 5C101.742 2.23858 103.98 0 106.74 0H128.731C131.492 0 133.729 2.23858 133.729 5C133.729 7.76142 131.492 10 128.731 10H106.74C103.98 10 101.742 7.76142 101.742 5Z" fill="#BB133E"/>
<path d="M101.742 21C101.742 18.2386 103.98 16 106.74 16H120.735C123.495 16 125.733 18.2386 125.733 21C125.733 23.7614 123.495 26 120.735 26H106.74C103.98 26 101.742 23.7614 101.742 21Z" fill="#BB133E"/>
<path d="M101.742 37C101.742 34.2386 103.98 32 106.74 32H136.728C139.489 32 141.726 34.2386 141.726 37C141.726 39.7614 139.489 42 136.728 42H106.74C103.98 42 101.742 39.7614 101.742 37Z" fill="#BB133E"/>
<mask id="path-3-outside-1_9184_85913" maskUnits="userSpaceOnUse" x="-0.417969" y="31.3594" width="98" height="11" fill="black">
<rect fill="white" x="-0.417969" y="31.3594" width="98" height="11"/>
<path d="M1.40758 32.3594C1.63472 32.3594 1.83128 32.4424 1.99726 32.6084C2.16325 32.7743 2.24624 32.9709 2.24624 33.198V40.877C2.24624 41.1128 2.16325 41.3138 1.99726 41.4798C1.83128 41.637 1.63472 41.7156 1.40758 41.7156C1.18045 41.7156 0.983887 41.637 0.817903 41.4798C0.660655 41.3138 0.582031 41.1128 0.582031 40.877V33.198C0.582031 32.9709 0.660655 32.7743 0.817903 32.6084C0.983887 32.4424 1.18045 32.3594 1.40758 32.3594Z"/>
<path d="M15.3974 40.0514C15.6246 40.0514 15.8211 40.1344 15.9871 40.3004C16.1531 40.4576 16.2361 40.6498 16.2361 40.877C16.2361 41.1128 16.1531 41.3138 15.9871 41.4798C15.8211 41.637 15.6246 41.7156 15.3974 41.7156H14.0608C13.8075 41.7156 13.6022 41.6283 13.4449 41.4536L10.9028 38.7017H7.31227V40.877C7.31227 41.1128 7.22927 41.3138 7.06329 41.4798C6.89731 41.637 6.70075 41.7156 6.47361 41.7156C6.24647 41.7156 6.04991 41.637 5.88393 41.4798C5.72668 41.3138 5.64806 41.1128 5.64806 40.877V37.8631C5.64806 37.6359 5.72668 37.4394 5.88393 37.2734C6.04991 37.1074 6.24647 37.0244 6.47361 37.0244H12.318C12.5277 37.0244 12.7199 36.9851 12.8946 36.9065C13.078 36.8278 13.2396 36.723 13.3794 36.592C13.5192 36.4522 13.6284 36.2949 13.707 36.1202C13.7856 35.9368 13.825 35.7402 13.825 35.5305C13.825 35.3209 13.7856 35.1287 13.707 34.954C13.6284 34.7705 13.5192 34.6089 13.3794 34.4691C13.2396 34.3293 13.078 34.2201 12.8946 34.1415C12.7199 34.0629 12.5277 34.0236 12.318 34.0236H6.47361C6.24647 34.0236 6.04991 33.945 5.88393 33.7877C5.72668 33.6217 5.64806 33.4252 5.64806 33.198C5.64806 32.9709 5.72668 32.7743 5.88393 32.6084C6.04991 32.4424 6.24647 32.3594 6.47361 32.3594H12.318C12.7461 32.3594 13.1479 32.4424 13.5236 32.6084C13.9079 32.7656 14.253 32.9927 14.5588 33.2898C15.179 33.91 15.4892 34.6569 15.4892 35.5305C15.4892 36.4041 15.179 37.1511 14.5588 37.7713C14.1395 38.1907 13.6502 38.4658 13.0911 38.5969L14.4277 40.0514H15.3974Z"/>
<path d="M30.306 40.5363C30.4021 40.7459 30.4065 40.96 30.3191 41.1784C30.2405 41.388 30.0963 41.5409 29.8867 41.637C29.7818 41.6894 29.6683 41.7156 29.546 41.7156C29.3887 41.7156 29.2402 41.672 29.1004 41.5846C28.9607 41.4972 28.8558 41.3793 28.7859 41.2308L25.8768 34.8229C25.7633 34.5783 25.5929 34.3861 25.3658 34.2464C25.1387 34.1066 24.894 34.0367 24.632 34.0367C24.3612 34.0367 24.1122 34.1066 23.885 34.2464C23.6666 34.3861 23.5007 34.5783 23.3871 34.8229L20.4649 41.2308C20.3688 41.4404 20.2116 41.5846 19.9932 41.6632C19.7835 41.7418 19.5738 41.7331 19.3642 41.637C19.1545 41.5409 19.0103 41.388 18.9317 41.1784C18.8531 40.96 18.8618 40.7459 18.9579 40.5363L21.867 34.1415C22.1204 33.5999 22.4916 33.1675 22.9809 32.8442C23.4788 32.521 24.0292 32.3594 24.632 32.3594C25.226 32.3594 25.772 32.521 26.27 32.8442C26.7679 33.1675 27.1392 33.5999 27.3838 34.1415L30.306 40.5363ZM24.632 37.2079C24.8416 37.2079 25.0338 37.2472 25.2085 37.3258C25.392 37.4044 25.5492 37.5136 25.6803 37.6534C25.8201 37.7844 25.9293 37.9417 26.0079 38.1251C26.0865 38.2999 26.1258 38.492 26.1258 38.7017C26.1258 38.9114 26.0865 39.1079 26.0079 39.2914C25.9293 39.4661 25.8201 39.6234 25.6803 39.7631C25.5492 39.8942 25.392 39.999 25.2085 40.0776C25.0338 40.1563 24.8416 40.1956 24.632 40.1956C24.4223 40.1956 24.2257 40.1563 24.0423 40.0776C23.8676 39.999 23.7103 39.8942 23.5705 39.7631C23.4395 39.6234 23.3347 39.4661 23.256 39.2914C23.1774 39.1079 23.1381 38.9114 23.1381 38.7017C23.1381 38.492 23.1774 38.2999 23.256 38.1251C23.3347 37.9417 23.4395 37.7844 23.5705 37.6534C23.7103 37.5136 23.8676 37.4044 24.0423 37.3258C24.2257 37.2472 24.4223 37.2079 24.632 37.2079Z"/>
<path d="M42.289 32.3594C42.5161 32.3594 42.7083 32.4424 42.8656 32.6084C43.0316 32.7743 43.1145 32.9709 43.1145 33.198V40.877C43.1145 41.0517 43.0665 41.2089 42.9704 41.3487C42.883 41.4798 42.7651 41.5802 42.6166 41.6501C42.503 41.6938 42.3938 41.7156 42.289 41.7156C42.0706 41.7156 41.8784 41.6414 41.7124 41.4929L34.9377 35.1243V40.877C34.9377 41.1128 34.8547 41.3138 34.6887 41.4798C34.5314 41.637 34.3392 41.7156 34.1121 41.7156C33.885 41.7156 33.6884 41.637 33.5224 41.4798C33.3564 41.3138 33.2734 41.1128 33.2734 40.877V33.198C33.2734 33.032 33.3171 32.8835 33.4045 32.7525C33.5006 32.6127 33.6273 32.5079 33.7845 32.438C33.933 32.3681 34.0859 32.3463 34.2431 32.3725C34.4091 32.3987 34.5533 32.4729 34.6756 32.5952L41.4503 38.9507V33.198C41.4503 32.9709 41.529 32.7743 41.6862 32.6084C41.8522 32.4424 42.0531 32.3594 42.289 32.3594Z"/>
<path d="M55.5191 32.3594C55.7463 32.3594 55.9428 32.4424 56.1088 32.6084C56.2748 32.7743 56.3578 32.9709 56.3578 33.198C56.3578 33.4252 56.2748 33.6217 56.1088 33.7877C55.9428 33.945 55.7463 34.0236 55.5191 34.0236H47.3422C47.1151 34.0236 46.9185 33.945 46.7525 33.7877C46.5953 33.6217 46.5167 33.4252 46.5167 33.198C46.5167 32.9709 46.5953 32.7743 46.7525 32.6084C46.9185 32.4424 47.1151 32.3594 47.3422 32.3594H55.5191ZM55.5191 40.0514C55.7463 40.0514 55.9428 40.1344 56.1088 40.3004C56.2748 40.4576 56.3578 40.6498 56.3578 40.877C56.3578 41.1128 56.2748 41.3138 56.1088 41.4798C55.9428 41.637 55.7463 41.7156 55.5191 41.7156H47.3422C47.1151 41.7156 46.9185 41.637 46.7525 41.4798C46.5953 41.3138 46.5167 41.1128 46.5167 40.877C46.5167 40.6498 46.5953 40.4576 46.7525 40.3004C46.9185 40.1344 47.1151 40.0514 47.3422 40.0514H55.5191ZM55.5191 36.212C55.7463 36.212 55.9428 36.2949 56.1088 36.4609C56.2748 36.6182 56.3578 36.8104 56.3578 37.0375C56.3578 37.2646 56.2748 37.4612 56.1088 37.6272C55.9428 37.7932 55.7463 37.8762 55.5191 37.8762H47.3422C47.1151 37.8762 46.9185 37.7932 46.7525 37.6272C46.5953 37.4612 46.5167 37.2646 46.5167 37.0375C46.5167 36.8104 46.5953 36.6182 46.7525 36.4609C46.9185 36.2949 47.1151 36.212 47.3422 36.212H55.5191Z"/>
<path d="M64.3327 34.0236C63.8085 34.0236 63.3324 34.0935 62.9044 34.2332C62.485 34.373 62.1268 34.574 61.8298 34.836C61.5328 35.0981 61.3013 35.417 61.1353 35.7926C60.9781 36.1595 60.8994 36.5745 60.8994 37.0375C60.8994 37.5005 60.9781 37.9198 61.1353 38.2955C61.3013 38.6624 61.5328 38.9769 61.8298 39.239C62.1268 39.5011 62.485 39.702 62.9044 39.8418C63.3324 39.9815 63.8085 40.0514 64.3327 40.0514H64.9879C66.0974 40.0514 66.9579 39.7588 67.5694 39.1735C67.7441 39.0162 67.945 38.9376 68.1722 38.9376C68.3993 38.9376 68.5915 39.0249 68.7487 39.1997C68.906 39.3656 68.9846 39.5622 68.9846 39.7893C68.9846 40.0165 68.8972 40.213 68.7225 40.379C67.7878 41.2701 66.5429 41.7156 64.9879 41.7156H64.3327C63.5552 41.7156 62.8476 41.6021 62.2098 41.3749C61.5808 41.1391 61.0349 40.7984 60.5718 40.3528C60.135 39.9248 59.8031 39.4224 59.5759 38.8459C59.3488 38.2693 59.2352 37.6665 59.2352 37.0375C59.2352 36.3998 59.3488 35.8014 59.5759 35.2423C59.7943 34.6744 60.1263 34.1677 60.5718 33.7222C61.0349 33.2767 61.5808 32.9403 62.2098 32.7132C62.8476 32.4773 63.5552 32.3594 64.3327 32.3594H64.9879C65.7654 32.3594 66.4686 32.4773 67.0976 32.7132C67.7354 32.9403 68.2857 33.2767 68.7487 33.7222C68.9147 33.8882 68.9977 34.0847 68.9977 34.3119C68.9977 34.539 68.9191 34.7356 68.7618 34.9016C68.6046 35.0675 68.408 35.1549 68.1722 35.1636C67.945 35.1636 67.7485 35.0806 67.5825 34.9147C66.9622 34.3206 66.0974 34.0236 64.9879 34.0236H64.3327Z"/>
<path d="M82.7926 40.5363C82.8887 40.7459 82.8931 40.96 82.8057 41.1784C82.7271 41.388 82.583 41.5409 82.3733 41.637C82.2685 41.6894 82.1549 41.7156 82.0326 41.7156C81.8754 41.7156 81.7269 41.672 81.5871 41.5846C81.4473 41.4972 81.3425 41.3793 81.2726 41.2308L78.3635 34.8229C78.2499 34.5783 78.0796 34.3861 77.8524 34.2464C77.6253 34.1066 77.3807 34.0367 77.1186 34.0367C76.8478 34.0367 76.5988 34.1066 76.3717 34.2464C76.1533 34.3861 75.9873 34.5783 75.8737 34.8229L72.9515 41.2308C72.8554 41.4404 72.6982 41.5846 72.4798 41.6632C72.2701 41.7418 72.0605 41.7331 71.8508 41.637C71.6411 41.5409 71.497 41.388 71.4184 41.1784C71.3398 40.96 71.3485 40.7459 71.4446 40.5363L74.3537 34.1415C74.607 33.5999 74.9783 33.1675 75.4675 32.8442C75.9655 32.521 76.5158 32.3594 77.1186 32.3594C77.7127 32.3594 78.2587 32.521 78.7566 32.8442C79.2546 33.1675 79.6258 33.5999 79.8705 34.1415L82.7926 40.5363ZM77.1186 37.2079C77.3283 37.2079 77.5205 37.2472 77.6952 37.3258C77.8786 37.4044 78.0359 37.5136 78.1669 37.6534C78.3067 37.7844 78.4159 37.9417 78.4945 38.1251C78.5732 38.2999 78.6125 38.492 78.6125 38.7017C78.6125 38.9114 78.5732 39.1079 78.4945 39.2914C78.4159 39.4661 78.3067 39.6234 78.1669 39.7631C78.0359 39.8942 77.8786 39.999 77.6952 40.0776C77.5205 40.1563 77.3283 40.1956 77.1186 40.1956C76.909 40.1956 76.7124 40.1563 76.5289 40.0776C76.3542 39.999 76.197 39.8942 76.0572 39.7631C75.9261 39.6234 75.8213 39.4661 75.7427 39.2914C75.6641 39.1079 75.6248 38.9114 75.6248 38.7017C75.6248 38.492 75.6641 38.2999 75.7427 38.1251C75.8213 37.9417 75.9261 37.7844 76.0572 37.6534C76.197 37.5136 76.3542 37.4044 76.5289 37.3258C76.7124 37.2472 76.909 37.2079 77.1186 37.2079Z"/>
<path d="M95.5095 40.0514C95.7366 40.0514 95.9332 40.1344 96.0991 40.3004C96.2651 40.4576 96.3481 40.6498 96.3481 40.877C96.3481 41.1128 96.2651 41.3138 96.0991 41.4798C95.9332 41.637 95.7366 41.7156 95.5095 41.7156H94.1729C93.9195 41.7156 93.7142 41.6283 93.557 41.4536L91.0148 38.7017H87.4243V40.877C87.4243 41.1128 87.3413 41.3138 87.1753 41.4798C87.0093 41.637 86.8128 41.7156 86.5856 41.7156C86.3585 41.7156 86.1619 41.637 85.996 41.4798C85.8387 41.3138 85.7601 41.1128 85.7601 40.877V37.8631C85.7601 37.6359 85.8387 37.4394 85.996 37.2734C86.1619 37.1074 86.3585 37.0244 86.5856 37.0244H92.43C92.6397 37.0244 92.8319 36.9851 93.0066 36.9065C93.1901 36.8278 93.3517 36.723 93.4915 36.592C93.6312 36.4522 93.7404 36.2949 93.8191 36.1202C93.8977 35.9368 93.937 35.7402 93.937 35.5305C93.937 35.3209 93.8977 35.1287 93.8191 34.954C93.7404 34.7705 93.6312 34.6089 93.4915 34.4691C93.3517 34.3293 93.1901 34.2201 93.0066 34.1415C92.8319 34.0629 92.6397 34.0236 92.43 34.0236H86.5856C86.3585 34.0236 86.1619 33.945 85.996 33.7877C85.8387 33.6217 85.7601 33.4252 85.7601 33.198C85.7601 32.9709 85.8387 32.7743 85.996 32.6084C86.1619 32.4424 86.3585 32.3594 86.5856 32.3594H92.43C92.8581 32.3594 93.2599 32.4424 93.6356 32.6084C94.02 32.7656 94.365 32.9927 94.6708 33.2898C95.2911 33.91 95.6012 34.6569 95.6012 35.5305C95.6012 36.4041 95.2911 37.1511 94.6708 37.7713C94.2515 38.1907 93.7623 38.4658 93.2032 38.5969L94.5398 40.0514H95.5095Z"/>
</mask>
<path d="M1.40758 32.3594C1.63472 32.3594 1.83128 32.4424 1.99726 32.6084C2.16325 32.7743 2.24624 32.9709 2.24624 33.198V40.877C2.24624 41.1128 2.16325 41.3138 1.99726 41.4798C1.83128 41.637 1.63472 41.7156 1.40758 41.7156C1.18045 41.7156 0.983887 41.637 0.817903 41.4798C0.660655 41.3138 0.582031 41.1128 0.582031 40.877V33.198C0.582031 32.9709 0.660655 32.7743 0.817903 32.6084C0.983887 32.4424 1.18045 32.3594 1.40758 32.3594Z" fill="#002664"/>
<path d="M15.3974 40.0514C15.6246 40.0514 15.8211 40.1344 15.9871 40.3004C16.1531 40.4576 16.2361 40.6498 16.2361 40.877C16.2361 41.1128 16.1531 41.3138 15.9871 41.4798C15.8211 41.637 15.6246 41.7156 15.3974 41.7156H14.0608C13.8075 41.7156 13.6022 41.6283 13.4449 41.4536L10.9028 38.7017H7.31227V40.877C7.31227 41.1128 7.22927 41.3138 7.06329 41.4798C6.89731 41.637 6.70075 41.7156 6.47361 41.7156C6.24647 41.7156 6.04991 41.637 5.88393 41.4798C5.72668 41.3138 5.64806 41.1128 5.64806 40.877V37.8631C5.64806 37.6359 5.72668 37.4394 5.88393 37.2734C6.04991 37.1074 6.24647 37.0244 6.47361 37.0244H12.318C12.5277 37.0244 12.7199 36.9851 12.8946 36.9065C13.078 36.8278 13.2396 36.723 13.3794 36.592C13.5192 36.4522 13.6284 36.2949 13.707 36.1202C13.7856 35.9368 13.825 35.7402 13.825 35.5305C13.825 35.3209 13.7856 35.1287 13.707 34.954C13.6284 34.7705 13.5192 34.6089 13.3794 34.4691C13.2396 34.3293 13.078 34.2201 12.8946 34.1415C12.7199 34.0629 12.5277 34.0236 12.318 34.0236H6.47361C6.24647 34.0236 6.04991 33.945 5.88393 33.7877C5.72668 33.6217 5.64806 33.4252 5.64806 33.198C5.64806 32.9709 5.72668 32.7743 5.88393 32.6084C6.04991 32.4424 6.24647 32.3594 6.47361 32.3594H12.318C12.7461 32.3594 13.1479 32.4424 13.5236 32.6084C13.9079 32.7656 14.253 32.9927 14.5588 33.2898C15.179 33.91 15.4892 34.6569 15.4892 35.5305C15.4892 36.4041 15.179 37.1511 14.5588 37.7713C14.1395 38.1907 13.6502 38.4658 13.0911 38.5969L14.4277 40.0514H15.3974Z" fill="#002664"/>
<path d="M30.306 40.5363C30.4021 40.7459 30.4065 40.96 30.3191 41.1784C30.2405 41.388 30.0963 41.5409 29.8867 41.637C29.7818 41.6894 29.6683 41.7156 29.546 41.7156C29.3887 41.7156 29.2402 41.672 29.1004 41.5846C28.9607 41.4972 28.8558 41.3793 28.7859 41.2308L25.8768 34.8229C25.7633 34.5783 25.5929 34.3861 25.3658 34.2464C25.1387 34.1066 24.894 34.0367 24.632 34.0367C24.3612 34.0367 24.1122 34.1066 23.885 34.2464C23.6666 34.3861 23.5007 34.5783 23.3871 34.8229L20.4649 41.2308C20.3688 41.4404 20.2116 41.5846 19.9932 41.6632C19.7835 41.7418 19.5738 41.7331 19.3642 41.637C19.1545 41.5409 19.0103 41.388 18.9317 41.1784C18.8531 40.96 18.8618 40.7459 18.9579 40.5363L21.867 34.1415C22.1204 33.5999 22.4916 33.1675 22.9809 32.8442C23.4788 32.521 24.0292 32.3594 24.632 32.3594C25.226 32.3594 25.772 32.521 26.27 32.8442C26.7679 33.1675 27.1392 33.5999 27.3838 34.1415L30.306 40.5363ZM24.632 37.2079C24.8416 37.2079 25.0338 37.2472 25.2085 37.3258C25.392 37.4044 25.5492 37.5136 25.6803 37.6534C25.8201 37.7844 25.9293 37.9417 26.0079 38.1251C26.0865 38.2999 26.1258 38.492 26.1258 38.7017C26.1258 38.9114 26.0865 39.1079 26.0079 39.2914C25.9293 39.4661 25.8201 39.6234 25.6803 39.7631C25.5492 39.8942 25.392 39.999 25.2085 40.0776C25.0338 40.1563 24.8416 40.1956 24.632 40.1956C24.4223 40.1956 24.2257 40.1563 24.0423 40.0776C23.8676 39.999 23.7103 39.8942 23.5705 39.7631C23.4395 39.6234 23.3347 39.4661 23.256 39.2914C23.1774 39.1079 23.1381 38.9114 23.1381 38.7017C23.1381 38.492 23.1774 38.2999 23.256 38.1251C23.3347 37.9417 23.4395 37.7844 23.5705 37.6534C23.7103 37.5136 23.8676 37.4044 24.0423 37.3258C24.2257 37.2472 24.4223 37.2079 24.632 37.2079Z" fill="#002664"/>
<path d="M42.289 32.3594C42.5161 32.3594 42.7083 32.4424 42.8656 32.6084C43.0316 32.7743 43.1145 32.9709 43.1145 33.198V40.877C43.1145 41.0517 43.0665 41.2089 42.9704 41.3487C42.883 41.4798 42.7651 41.5802 42.6166 41.6501C42.503 41.6938 42.3938 41.7156 42.289 41.7156C42.0706 41.7156 41.8784 41.6414 41.7124 41.4929L34.9377 35.1243V40.877C34.9377 41.1128 34.8547 41.3138 34.6887 41.4798C34.5314 41.637 34.3392 41.7156 34.1121 41.7156C33.885 41.7156 33.6884 41.637 33.5224 41.4798C33.3564 41.3138 33.2734 41.1128 33.2734 40.877V33.198C33.2734 33.032 33.3171 32.8835 33.4045 32.7525C33.5006 32.6127 33.6273 32.5079 33.7845 32.438C33.933 32.3681 34.0859 32.3463 34.2431 32.3725C34.4091 32.3987 34.5533 32.4729 34.6756 32.5952L41.4503 38.9507V33.198C41.4503 32.9709 41.529 32.7743 41.6862 32.6084C41.8522 32.4424 42.0531 32.3594 42.289 32.3594Z" fill="#002664"/>
<path d="M55.5191 32.3594C55.7463 32.3594 55.9428 32.4424 56.1088 32.6084C56.2748 32.7743 56.3578 32.9709 56.3578 33.198C56.3578 33.4252 56.2748 33.6217 56.1088 33.7877C55.9428 33.945 55.7463 34.0236 55.5191 34.0236H47.3422C47.1151 34.0236 46.9185 33.945 46.7525 33.7877C46.5953 33.6217 46.5167 33.4252 46.5167 33.198C46.5167 32.9709 46.5953 32.7743 46.7525 32.6084C46.9185 32.4424 47.1151 32.3594 47.3422 32.3594H55.5191ZM55.5191 40.0514C55.7463 40.0514 55.9428 40.1344 56.1088 40.3004C56.2748 40.4576 56.3578 40.6498 56.3578 40.877C56.3578 41.1128 56.2748 41.3138 56.1088 41.4798C55.9428 41.637 55.7463 41.7156 55.5191 41.7156H47.3422C47.1151 41.7156 46.9185 41.637 46.7525 41.4798C46.5953 41.3138 46.5167 41.1128 46.5167 40.877C46.5167 40.6498 46.5953 40.4576 46.7525 40.3004C46.9185 40.1344 47.1151 40.0514 47.3422 40.0514H55.5191ZM55.5191 36.212C55.7463 36.212 55.9428 36.2949 56.1088 36.4609C56.2748 36.6182 56.3578 36.8104 56.3578 37.0375C56.3578 37.2646 56.2748 37.4612 56.1088 37.6272C55.9428 37.7932 55.7463 37.8762 55.5191 37.8762H47.3422C47.1151 37.8762 46.9185 37.7932 46.7525 37.6272C46.5953 37.4612 46.5167 37.2646 46.5167 37.0375C46.5167 36.8104 46.5953 36.6182 46.7525 36.4609C46.9185 36.2949 47.1151 36.212 47.3422 36.212H55.5191Z" fill="#002664"/>
<path d="M64.3327 34.0236C63.8085 34.0236 63.3324 34.0935 62.9044 34.2332C62.485 34.373 62.1268 34.574 61.8298 34.836C61.5328 35.0981 61.3013 35.417 61.1353 35.7926C60.9781 36.1595 60.8994 36.5745 60.8994 37.0375C60.8994 37.5005 60.9781 37.9198 61.1353 38.2955C61.3013 38.6624 61.5328 38.9769 61.8298 39.239C62.1268 39.5011 62.485 39.702 62.9044 39.8418C63.3324 39.9815 63.8085 40.0514 64.3327 40.0514H64.9879C66.0974 40.0514 66.9579 39.7588 67.5694 39.1735C67.7441 39.0162 67.945 38.9376 68.1722 38.9376C68.3993 38.9376 68.5915 39.0249 68.7487 39.1997C68.906 39.3656 68.9846 39.5622 68.9846 39.7893C68.9846 40.0165 68.8972 40.213 68.7225 40.379C67.7878 41.2701 66.5429 41.7156 64.9879 41.7156H64.3327C63.5552 41.7156 62.8476 41.6021 62.2098 41.3749C61.5808 41.1391 61.0349 40.7984 60.5718 40.3528C60.135 39.9248 59.8031 39.4224 59.5759 38.8459C59.3488 38.2693 59.2352 37.6665 59.2352 37.0375C59.2352 36.3998 59.3488 35.8014 59.5759 35.2423C59.7943 34.6744 60.1263 34.1677 60.5718 33.7222C61.0349 33.2767 61.5808 32.9403 62.2098 32.7132C62.8476 32.4773 63.5552 32.3594 64.3327 32.3594H64.9879C65.7654 32.3594 66.4686 32.4773 67.0976 32.7132C67.7354 32.9403 68.2857 33.2767 68.7487 33.7222C68.9147 33.8882 68.9977 34.0847 68.9977 34.3119C68.9977 34.539 68.9191 34.7356 68.7618 34.9016C68.6046 35.0675 68.408 35.1549 68.1722 35.1636C67.945 35.1636 67.7485 35.0806 67.5825 34.9147C66.9622 34.3206 66.0974 34.0236 64.9879 34.0236H64.3327Z" fill="#002664"/>
<path d="M82.7926 40.5363C82.8887 40.7459 82.8931 40.96 82.8057 41.1784C82.7271 41.388 82.583 41.5409 82.3733 41.637C82.2685 41.6894 82.1549 41.7156 82.0326 41.7156C81.8754 41.7156 81.7269 41.672 81.5871 41.5846C81.4473 41.4972 81.3425 41.3793 81.2726 41.2308L78.3635 34.8229C78.2499 34.5783 78.0796 34.3861 77.8524 34.2464C77.6253 34.1066 77.3807 34.0367 77.1186 34.0367C76.8478 34.0367 76.5988 34.1066 76.3717 34.2464C76.1533 34.3861 75.9873 34.5783 75.8737 34.8229L72.9515 41.2308C72.8554 41.4404 72.6982 41.5846 72.4798 41.6632C72.2701 41.7418 72.0605 41.7331 71.8508 41.637C71.6411 41.5409 71.497 41.388 71.4184 41.1784C71.3398 40.96 71.3485 40.7459 71.4446 40.5363L74.3537 34.1415C74.607 33.5999 74.9783 33.1675 75.4675 32.8442C75.9655 32.521 76.5158 32.3594 77.1186 32.3594C77.7127 32.3594 78.2587 32.521 78.7566 32.8442C79.2546 33.1675 79.6258 33.5999 79.8705 34.1415L82.7926 40.5363ZM77.1186 37.2079C77.3283 37.2079 77.5205 37.2472 77.6952 37.3258C77.8786 37.4044 78.0359 37.5136 78.1669 37.6534C78.3067 37.7844 78.4159 37.9417 78.4945 38.1251C78.5732 38.2999 78.6125 38.492 78.6125 38.7017C78.6125 38.9114 78.5732 39.1079 78.4945 39.2914C78.4159 39.4661 78.3067 39.6234 78.1669 39.7631C78.0359 39.8942 77.8786 39.999 77.6952 40.0776C77.5205 40.1563 77.3283 40.1956 77.1186 40.1956C76.909 40.1956 76.7124 40.1563 76.5289 40.0776C76.3542 39.999 76.197 39.8942 76.0572 39.7631C75.9261 39.6234 75.8213 39.4661 75.7427 39.2914C75.6641 39.1079 75.6248 38.9114 75.6248 38.7017C75.6248 38.492 75.6641 38.2999 75.7427 38.1251C75.8213 37.9417 75.9261 37.7844 76.0572 37.6534C76.197 37.5136 76.3542 37.4044 76.5289 37.3258C76.7124 37.2472 76.909 37.2079 77.1186 37.2079Z" fill="#002664"/>
<path d="M95.5095 40.0514C95.7366 40.0514 95.9332 40.1344 96.0991 40.3004C96.2651 40.4576 96.3481 40.6498 96.3481 40.877C96.3481 41.1128 96.2651 41.3138 96.0991 41.4798C95.9332 41.637 95.7366 41.7156 95.5095 41.7156H94.1729C93.9195 41.7156 93.7142 41.6283 93.557 41.4536L91.0148 38.7017H87.4243V40.877C87.4243 41.1128 87.3413 41.3138 87.1753 41.4798C87.0093 41.637 86.8128 41.7156 86.5856 41.7156C86.3585 41.7156 86.1619 41.637 85.996 41.4798C85.8387 41.3138 85.7601 41.1128 85.7601 40.877V37.8631C85.7601 37.6359 85.8387 37.4394 85.996 37.2734C86.1619 37.1074 86.3585 37.0244 86.5856 37.0244H92.43C92.6397 37.0244 92.8319 36.9851 93.0066 36.9065C93.1901 36.8278 93.3517 36.723 93.4915 36.592C93.6312 36.4522 93.7404 36.2949 93.8191 36.1202C93.8977 35.9368 93.937 35.7402 93.937 35.5305C93.937 35.3209 93.8977 35.1287 93.8191 34.954C93.7404 34.7705 93.6312 34.6089 93.4915 34.4691C93.3517 34.3293 93.1901 34.2201 93.0066 34.1415C92.8319 34.0629 92.6397 34.0236 92.43 34.0236H86.5856C86.3585 34.0236 86.1619 33.945 85.996 33.7877C85.8387 33.6217 85.7601 33.4252 85.7601 33.198C85.7601 32.9709 85.8387 32.7743 85.996 32.6084C86.1619 32.4424 86.3585 32.3594 86.5856 32.3594H92.43C92.8581 32.3594 93.2599 32.4424 93.6356 32.6084C94.02 32.7656 94.365 32.9927 94.6708 33.2898C95.2911 33.91 95.6012 34.6569 95.6012 35.5305C95.6012 36.4041 95.2911 37.1511 94.6708 37.7713C94.2515 38.1907 93.7623 38.4658 93.2032 38.5969L94.5398 40.0514H95.5095Z" fill="#002664"/>
<path d="M1.40758 32.3594C1.63472 32.3594 1.83128 32.4424 1.99726 32.6084C2.16325 32.7743 2.24624 32.9709 2.24624 33.198V40.877C2.24624 41.1128 2.16325 41.3138 1.99726 41.4798C1.83128 41.637 1.63472 41.7156 1.40758 41.7156C1.18045 41.7156 0.983887 41.637 0.817903 41.4798C0.660655 41.3138 0.582031 41.1128 0.582031 40.877V33.198C0.582031 32.9709 0.660655 32.7743 0.817903 32.6084C0.983887 32.4424 1.18045 32.3594 1.40758 32.3594Z" stroke="#002664" mask="url(#path-3-outside-1_9184_85913)"/>
<path d="M15.3974 40.0514C15.6246 40.0514 15.8211 40.1344 15.9871 40.3004C16.1531 40.4576 16.2361 40.6498 16.2361 40.877C16.2361 41.1128 16.1531 41.3138 15.9871 41.4798C15.8211 41.637 15.6246 41.7156 15.3974 41.7156H14.0608C13.8075 41.7156 13.6022 41.6283 13.4449 41.4536L10.9028 38.7017H7.31227V40.877C7.31227 41.1128 7.22927 41.3138 7.06329 41.4798C6.89731 41.637 6.70075 41.7156 6.47361 41.7156C6.24647 41.7156 6.04991 41.637 5.88393 41.4798C5.72668 41.3138 5.64806 41.1128 5.64806 40.877V37.8631C5.64806 37.6359 5.72668 37.4394 5.88393 37.2734C6.04991 37.1074 6.24647 37.0244 6.47361 37.0244H12.318C12.5277 37.0244 12.7199 36.9851 12.8946 36.9065C13.078 36.8278 13.2396 36.723 13.3794 36.592C13.5192 36.4522 13.6284 36.2949 13.707 36.1202C13.7856 35.9368 13.825 35.7402 13.825 35.5305C13.825 35.3209 13.7856 35.1287 13.707 34.954C13.6284 34.7705 13.5192 34.6089 13.3794 34.4691C13.2396 34.3293 13.078 34.2201 12.8946 34.1415C12.7199 34.0629 12.5277 34.0236 12.318 34.0236H6.47361C6.24647 34.0236 6.04991 33.945 5.88393 33.7877C5.72668 33.6217 5.64806 33.4252 5.64806 33.198C5.64806 32.9709 5.72668 32.7743 5.88393 32.6084C6.04991 32.4424 6.24647 32.3594 6.47361 32.3594H12.318C12.7461 32.3594 13.1479 32.4424 13.5236 32.6084C13.9079 32.7656 14.253 32.9927 14.5588 33.2898C15.179 33.91 15.4892 34.6569 15.4892 35.5305C15.4892 36.4041 15.179 37.1511 14.5588 37.7713C14.1395 38.1907 13.6502 38.4658 13.0911 38.5969L14.4277 40.0514H15.3974Z" stroke="#002664" mask="url(#path-3-outside-1_9184_85913)"/>
<path d="M30.306 40.5363C30.4021 40.7459 30.4065 40.96 30.3191 41.1784C30.2405 41.388 30.0963 41.5409 29.8867 41.637C29.7818 41.6894 29.6683 41.7156 29.546 41.7156C29.3887 41.7156 29.2402 41.672 29.1004 41.5846C28.9607 41.4972 28.8558 41.3793 28.7859 41.2308L25.8768 34.8229C25.7633 34.5783 25.5929 34.3861 25.3658 34.2464C25.1387 34.1066 24.894 34.0367 24.632 34.0367C24.3612 34.0367 24.1122 34.1066 23.885 34.2464C23.6666 34.3861 23.5007 34.5783 23.3871 34.8229L20.4649 41.2308C20.3688 41.4404 20.2116 41.5846 19.9932 41.6632C19.7835 41.7418 19.5738 41.7331 19.3642 41.637C19.1545 41.5409 19.0103 41.388 18.9317 41.1784C18.8531 40.96 18.8618 40.7459 18.9579 40.5363L21.867 34.1415C22.1204 33.5999 22.4916 33.1675 22.9809 32.8442C23.4788 32.521 24.0292 32.3594 24.632 32.3594C25.226 32.3594 25.772 32.521 26.27 32.8442C26.7679 33.1675 27.1392 33.5999 27.3838 34.1415L30.306 40.5363ZM24.632 37.2079C24.8416 37.2079 25.0338 37.2472 25.2085 37.3258C25.392 37.4044 25.5492 37.5136 25.6803 37.6534C25.8201 37.7844 25.9293 37.9417 26.0079 38.1251C26.0865 38.2999 26.1258 38.492 26.1258 38.7017C26.1258 38.9114 26.0865 39.1079 26.0079 39.2914C25.9293 39.4661 25.8201 39.6234 25.6803 39.7631C25.5492 39.8942 25.392 39.999 25.2085 40.0776C25.0338 40.1563 24.8416 40.1956 24.632 40.1956C24.4223 40.1956 24.2257 40.1563 24.0423 40.0776C23.8676 39.999 23.7103 39.8942 23.5705 39.7631C23.4395 39.6234 23.3347 39.4661 23.256 39.2914C23.1774 39.1079 23.1381 38.9114 23.1381 38.7017C23.1381 38.492 23.1774 38.2999 23.256 38.1251C23.3347 37.9417 23.4395 37.7844 23.5705 37.6534C23.7103 37.5136 23.8676 37.4044 24.0423 37.3258C24.2257 37.2472 24.4223 37.2079 24.632 37.2079Z" stroke="#002664" mask="url(#path-3-outside-1_9184_85913)"/>
<path d="M42.289 32.3594C42.5161 32.3594 42.7083 32.4424 42.8656 32.6084C43.0316 32.7743 43.1145 32.9709 43.1145 33.198V40.877C43.1145 41.0517 43.0665 41.2089 42.9704 41.3487C42.883 41.4798 42.7651 41.5802 42.6166 41.6501C42.503 41.6938 42.3938 41.7156 42.289 41.7156C42.0706 41.7156 41.8784 41.6414 41.7124 41.4929L34.9377 35.1243V40.877C34.9377 41.1128 34.8547 41.3138 34.6887 41.4798C34.5314 41.637 34.3392 41.7156 34.1121 41.7156C33.885 41.7156 33.6884 41.637 33.5224 41.4798C33.3564 41.3138 33.2734 41.1128 33.2734 40.877V33.198C33.2734 33.032 33.3171 32.8835 33.4045 32.7525C33.5006 32.6127 33.6273 32.5079 33.7845 32.438C33.933 32.3681 34.0859 32.3463 34.2431 32.3725C34.4091 32.3987 34.5533 32.4729 34.6756 32.5952L41.4503 38.9507V33.198C41.4503 32.9709 41.529 32.7743 41.6862 32.6084C41.8522 32.4424 42.0531 32.3594 42.289 32.3594Z" stroke="#002664" mask="url(#path-3-outside-1_9184_85913)"/>
<path d="M55.5191 32.3594C55.7463 32.3594 55.9428 32.4424 56.1088 32.6084C56.2748 32.7743 56.3578 32.9709 56.3578 33.198C56.3578 33.4252 56.2748 33.6217 56.1088 33.7877C55.9428 33.945 55.7463 34.0236 55.5191 34.0236H47.3422C47.1151 34.0236 46.9185 33.945 46.7525 33.7877C46.5953 33.6217 46.5167 33.4252 46.5167 33.198C46.5167 32.9709 46.5953 32.7743 46.7525 32.6084C46.9185 32.4424 47.1151 32.3594 47.3422 32.3594H55.5191ZM55.5191 40.0514C55.7463 40.0514 55.9428 40.1344 56.1088 40.3004C56.2748 40.4576 56.3578 40.6498 56.3578 40.877C56.3578 41.1128 56.2748 41.3138 56.1088 41.4798C55.9428 41.637 55.7463 41.7156 55.5191 41.7156H47.3422C47.1151 41.7156 46.9185 41.637 46.7525 41.4798C46.5953 41.3138 46.5167 41.1128 46.5167 40.877C46.5167 40.6498 46.5953 40.4576 46.7525 40.3004C46.9185 40.1344 47.1151 40.0514 47.3422 40.0514H55.5191ZM55.5191 36.212C55.7463 36.212 55.9428 36.2949 56.1088 36.4609C56.2748 36.6182 56.3578 36.8104 56.3578 37.0375C56.3578 37.2646 56.2748 37.4612 56.1088 37.6272C55.9428 37.7932 55.7463 37.8762 55.5191 37.8762H47.3422C47.1151 37.8762 46.9185 37.7932 46.7525 37.6272C46.5953 37.4612 46.5167 37.2646 46.5167 37.0375C46.5167 36.8104 46.5953 36.6182 46.7525 36.4609C46.9185 36.2949 47.1151 36.212 47.3422 36.212H55.5191Z" stroke="#002664" mask="url(#path-3-outside-1_9184_85913)"/>
<path d="M64.3327 34.0236C63.8085 34.0236 63.3324 34.0935 62.9044 34.2332C62.485 34.373 62.1268 34.574 61.8298 34.836C61.5328 35.0981 61.3013 35.417 61.1353 35.7926C60.9781 36.1595 60.8994 36.5745 60.8994 37.0375C60.8994 37.5005 60.9781 37.9198 61.1353 38.2955C61.3013 38.6624 61.5328 38.9769 61.8298 39.239C62.1268 39.5011 62.485 39.702 62.9044 39.8418C63.3324 39.9815 63.8085 40.0514 64.3327 40.0514H64.9879C66.0974 40.0514 66.9579 39.7588 67.5694 39.1735C67.7441 39.0162 67.945 38.9376 68.1722 38.9376C68.3993 38.9376 68.5915 39.0249 68.7487 39.1997C68.906 39.3656 68.9846 39.5622 68.9846 39.7893C68.9846 40.0165 68.8972 40.213 68.7225 40.379C67.7878 41.2701 66.5429 41.7156 64.9879 41.7156H64.3327C63.5552 41.7156 62.8476 41.6021 62.2098 41.3749C61.5808 41.1391 61.0349 40.7984 60.5718 40.3528C60.135 39.9248 59.8031 39.4224 59.5759 38.8459C59.3488 38.2693 59.2352 37.6665 59.2352 37.0375C59.2352 36.3998 59.3488 35.8014 59.5759 35.2423C59.7943 34.6744 60.1263 34.1677 60.5718 33.7222C61.0349 33.2767 61.5808 32.9403 62.2098 32.7132C62.8476 32.4773 63.5552 32.3594 64.3327 32.3594H64.9879C65.7654 32.3594 66.4686 32.4773 67.0976 32.7132C67.7354 32.9403 68.2857 33.2767 68.7487 33.7222C68.9147 33.8882 68.9977 34.0847 68.9977 34.3119C68.9977 34.539 68.9191 34.7356 68.7618 34.9016C68.6046 35.0675 68.408 35.1549 68.1722 35.1636C67.945 35.1636 67.7485 35.0806 67.5825 34.9147C66.9622 34.3206 66.0974 34.0236 64.9879 34.0236H64.3327Z" stroke="#002664" mask="url(#path-3-outside-1_9184_85913)"/>
<path d="M82.7926 40.5363C82.8887 40.7459 82.8931 40.96 82.8057 41.1784C82.7271 41.388 82.583 41.5409 82.3733 41.637C82.2685 41.6894 82.1549 41.7156 82.0326 41.7156C81.8754 41.7156 81.7269 41.672 81.5871 41.5846C81.4473 41.4972 81.3425 41.3793 81.2726 41.2308L78.3635 34.8229C78.2499 34.5783 78.0796 34.3861 77.8524 34.2464C77.6253 34.1066 77.3807 34.0367 77.1186 34.0367C76.8478 34.0367 76.5988 34.1066 76.3717 34.2464C76.1533 34.3861 75.9873 34.5783 75.8737 34.8229L72.9515 41.2308C72.8554 41.4404 72.6982 41.5846 72.4798 41.6632C72.2701 41.7418 72.0605 41.7331 71.8508 41.637C71.6411 41.5409 71.497 41.388 71.4184 41.1784C71.3398 40.96 71.3485 40.7459 71.4446 40.5363L74.3537 34.1415C74.607 33.5999 74.9783 33.1675 75.4675 32.8442C75.9655 32.521 76.5158 32.3594 77.1186 32.3594C77.7127 32.3594 78.2587 32.521 78.7566 32.8442C79.2546 33.1675 79.6258 33.5999 79.8705 34.1415L82.7926 40.5363ZM77.1186 37.2079C77.3283 37.2079 77.5205 37.2472 77.6952 37.3258C77.8786 37.4044 78.0359 37.5136 78.1669 37.6534C78.3067 37.7844 78.4159 37.9417 78.4945 38.1251C78.5732 38.2999 78.6125 38.492 78.6125 38.7017C78.6125 38.9114 78.5732 39.1079 78.4945 39.2914C78.4159 39.4661 78.3067 39.6234 78.1669 39.7631C78.0359 39.8942 77.8786 39.999 77.6952 40.0776C77.5205 40.1563 77.3283 40.1956 77.1186 40.1956C76.909 40.1956 76.7124 40.1563 76.5289 40.0776C76.3542 39.999 76.197 39.8942 76.0572 39.7631C75.9261 39.6234 75.8213 39.4661 75.7427 39.2914C75.6641 39.1079 75.6248 38.9114 75.6248 38.7017C75.6248 38.492 75.6641 38.2999 75.7427 38.1251C75.8213 37.9417 75.9261 37.7844 76.0572 37.6534C76.197 37.5136 76.3542 37.4044 76.5289 37.3258C76.7124 37.2472 76.909 37.2079 77.1186 37.2079Z" stroke="#002664" mask="url(#path-3-outside-1_9184_85913)"/>
<path d="M95.5095 40.0514C95.7366 40.0514 95.9332 40.1344 96.0991 40.3004C96.2651 40.4576 96.3481 40.6498 96.3481 40.877C96.3481 41.1128 96.2651 41.3138 96.0991 41.4798C95.9332 41.637 95.7366 41.7156 95.5095 41.7156H94.1729C93.9195 41.7156 93.7142 41.6283 93.557 41.4536L91.0148 38.7017H87.4243V40.877C87.4243 41.1128 87.3413 41.3138 87.1753 41.4798C87.0093 41.637 86.8128 41.7156 86.5856 41.7156C86.3585 41.7156 86.1619 41.637 85.996 41.4798C85.8387 41.3138 85.7601 41.1128 85.7601 40.877V37.8631C85.7601 37.6359 85.8387 37.4394 85.996 37.2734C86.1619 37.1074 86.3585 37.0244 86.5856 37.0244H92.43C92.6397 37.0244 92.8319 36.9851 93.0066 36.9065C93.1901 36.8278 93.3517 36.723 93.4915 36.592C93.6312 36.4522 93.7404 36.2949 93.8191 36.1202C93.8977 35.9368 93.937 35.7402 93.937 35.5305C93.937 35.3209 93.8977 35.1287 93.8191 34.954C93.7404 34.7705 93.6312 34.6089 93.4915 34.4691C93.3517 34.3293 93.1901 34.2201 93.0066 34.1415C92.8319 34.0629 92.6397 34.0236 92.43 34.0236H86.5856C86.3585 34.0236 86.1619 33.945 85.996 33.7877C85.8387 33.6217 85.7601 33.4252 85.7601 33.198C85.7601 32.9709 85.8387 32.7743 85.996 32.6084C86.1619 32.4424 86.3585 32.3594 86.5856 32.3594H92.43C92.8581 32.3594 93.2599 32.4424 93.6356 32.6084C94.02 32.7656 94.365 32.9927 94.6708 33.2898C95.2911 33.91 95.6012 34.6569 95.6012 35.5305C95.6012 36.4041 95.2911 37.1511 94.6708 37.7713C94.2515 38.1907 93.7623 38.4658 93.2032 38.5969L94.5398 40.0514H95.5095Z" stroke="#002664" mask="url(#path-3-outside-1_9184_85913)"/>
</svg>
