<svg  viewBox="0 0 28 28" fill="none" xmlns="http://www.w3.org/2000/svg">
    <path d="M14.1327 21.7641C14.4882 21.7641 14.7882 21.6418 15.0327 21.3974C15.2771 21.153 15.3994 20.853 15.3994 20.4974C15.3994 20.1418 15.2771 19.8418 15.0327 19.5974C14.7882 19.353 14.4882 19.2307 14.1327 19.2307C13.7771 19.2307 13.4771 19.353 13.2327 19.5974C12.9882 19.8418 12.866 20.1418 12.866 20.4974C12.866 20.853 12.9882 21.153 13.2327 21.3974C13.4771 21.6418 13.7771 21.7641 14.1327 21.7641ZM12.966 16.8974H14.9327C14.9327 16.3196 15.0049 15.7918 15.1494 15.3141C15.2938 14.8363 15.7438 14.2863 16.4994 13.6641C17.1882 13.0863 17.6771 12.5196 17.966 11.9641C18.2549 11.4085 18.3994 10.7974 18.3994 10.1307C18.3994 8.95295 18.016 8.00851 17.2494 7.2974C16.4827 6.58629 15.466 6.23073 14.1994 6.23073C13.1105 6.23073 12.1494 6.50295 11.316 7.0474C10.4827 7.59184 9.87713 8.34184 9.49935 9.2974L11.266 9.96406C11.5105 9.34184 11.8771 8.85851 12.366 8.51406C12.8549 8.16962 13.4327 7.9974 14.0994 7.9974C14.8549 7.9974 15.466 8.20295 15.9327 8.61406C16.3994 9.02518 16.6327 9.55295 16.6327 10.1974C16.6327 10.6863 16.4882 11.1474 16.1994 11.5807C15.9105 12.0141 15.4882 12.4641 14.9327 12.9307C14.266 13.5085 13.7716 14.0807 13.4494 14.6474C13.1271 15.2141 12.966 15.9641 12.966 16.8974ZM13.9994 27.3307C12.1327 27.3307 10.3882 26.9918 8.76602 26.3141C7.14379 25.6363 5.73268 24.6974 4.53268 23.4974C3.33268 22.2974 2.38824 20.8863 1.69935 19.2641C1.01046 17.6418 0.666016 15.8863 0.666016 13.9974C0.666016 12.1307 1.01046 10.3863 1.69935 8.76406C2.38824 7.14184 3.33268 5.73073 4.53268 4.53073C5.73268 3.33073 7.14379 2.38629 8.76602 1.6974C10.3882 1.00851 12.1327 0.664062 13.9994 0.664062C15.8438 0.664062 17.5771 1.00851 19.1994 1.6974C20.8216 2.38629 22.2327 3.33073 23.4327 4.53073C24.6327 5.73073 25.5827 7.14184 26.2827 8.76406C26.9827 10.3863 27.3327 12.1307 27.3327 13.9974C27.3327 15.8863 26.9827 17.6418 26.2827 19.2641C25.5827 20.8863 24.6327 22.2974 23.4327 23.4974C22.2327 24.6974 20.8216 25.6363 19.1994 26.3141C17.5771 26.9918 15.8438 27.3307 13.9994 27.3307ZM13.9994 25.3307C17.1327 25.3307 19.8049 24.2196 22.016 21.9974C24.2271 19.7752 25.3327 17.1085 25.3327 13.9974C25.3327 10.8863 24.2271 8.21962 22.016 5.9974C19.8049 3.77517 17.1327 2.66406 13.9994 2.66406C10.8216 2.66406 8.13824 3.77517 5.94935 5.9974C3.76046 8.21962 2.66602 10.8863 2.66602 13.9974C2.66602 17.1085 3.76046 19.7752 5.94935 21.9974C8.13824 24.2196 10.8216 25.3307 13.9994 25.3307Z" fill="#BB133E"/>
</svg>
