<svg width="57" height="57" viewBox="0 0 57 57" fill="none" xmlns="http://www.w3.org/2000/svg">
<g clip-path="url(#clip0_9041_85867)">
<path d="M42.1875 2.34375C35.7188 2.34375 30.4688 7.59375 30.4688 14.0625C30.4688 20.5312 35.7188 25.7812 42.1875 25.7812C48.6562 25.7812 53.9062 20.5312 53.9062 14.0625C53.9062 7.59375 48.6562 2.34375 42.1875 2.34375ZM43.3594 16.4062H41.0156V7.03125H43.3594V16.4062ZM43.3594 18.75V21.0938H41.0156V18.75H43.3594ZM41.9766 30.4688C42.1172 30.8438 42.1875 31.2422 42.1875 31.6406C42.1875 33.5859 40.6172 35.1562 38.6719 35.1562C36.7266 35.1562 35.1562 33.5859 35.1562 31.6406C35.1562 30.7266 35.5078 29.9062 36.0703 29.2734C32.25 27.7266 29.1328 24.7969 27.375 21.0938H13.6172L16.0547 14.0625H25.7812C25.7812 12.4453 26.0156 10.8516 26.4609 9.375H15.2344C13.6875 9.375 12.3984 10.3594 11.9062 11.7422L7.03125 25.7812V44.5312C7.03125 45.8203 8.08594 46.875 9.375 46.875H11.7188C13.0078 46.875 14.0625 45.8203 14.0625 44.5312V42.1875H42.1875V44.5312C42.1875 45.8203 43.2422 46.875 44.5312 46.875H46.875C48.1641 46.875 49.2188 45.8203 49.2188 44.5312V28.875C46.7578 30.0703 44.1562 30.4922 41.9766 30.4688ZM17.5781 35.1562C15.6328 35.1562 14.0625 33.5859 14.0625 31.6406C14.0625 29.6953 15.6328 28.125 17.5781 28.125C19.5234 28.125 21.0938 29.6953 21.0938 31.6406C21.0938 33.5859 19.5234 35.1562 17.5781 35.1562Z" fill="#2766C5"/>
<circle cx="42.1875" cy="14.0625" r="11.7188" fill="#2766C5"/>
<path d="M36.9531 20.7031C36.5625 20.7031 36.2305 20.5664 35.957 20.293C35.6836 20.0195 35.5469 19.6875 35.5469 19.2969V8.82812C35.5469 8.4375 35.6836 8.10547 35.957 7.83203C36.2305 7.55859 36.5625 7.42188 36.9531 7.42188H44.4531L48.8281 11.7969V19.2969C48.8281 19.6875 48.6914 20.0195 48.418 20.293C48.1445 20.5664 47.8125 20.7031 47.4219 20.7031H36.9531ZM38.4766 17.5781H45.8984V16.4062H38.4766V17.5781ZM38.4766 14.6484H45.8984V13.4766H38.4766V14.6484ZM38.4766 11.7188H43.457V10.5469H38.4766V11.7188Z" fill="#B9CDE4"/>
</g>
<defs>
<clipPath id="clip0_9041_85867">
<rect width="56.25" height="56.25" fill="white"/>
</clipPath>
</defs>
</svg>
