<svg width="338" height="244" viewBox="0 0 338 244" fill="none" xmlns="http://www.w3.org/2000/svg">
<path d="M23.6648 243.281H312.98C339.467 155.415 350.655 118.087 315.705 99.0607C292.119 86.2193 267.091 129.354 251.867 93.5217C243.1 72.8878 254.822 24.3137 236.579 8.1628C214.899 -11.0325 190.746 7.28811 171.969 25.4892C157.269 39.7373 119.398 19.7669 104.435 29.2669C81.0635 44.1067 77.1444 68.612 69.8819 88.0803C59.0489 116.234 29.7996 109.308 11.2139 127.126C-8.78434 146.296 2.48898 169.02 10.4289 189.973C16.735 206.621 18.7813 226.933 23.6648 243.281Z" fill="#EBEBEB" fill-opacity="0.46"/>
<path d="M56.5496 146.032C56.454 147.985 54.7843 149.415 52.8397 149.212L40.8949 147.963C38.9502 147.759 37.438 145.994 37.5336 144.041L37.7926 138.781C37.8883 136.829 39.5639 135.145 41.5165 135.04L53.5828 134.388C55.5354 134.282 57.0537 135.795 56.9581 137.747L56.5496 146.032Z" fill="#6D99DA"/>
<path d="M39.0996 138.849C39.1634 137.564 40.3011 136.419 41.5862 136.351L53.6525 135.699C53.6924 135.697 53.7342 135.695 53.7741 135.695C54.312 135.695 54.8002 135.897 55.1469 136.261C55.4975 136.63 55.4537 141.571 55.4258 142.123L39.0996 138.849Z" fill="#9AB7E2"/>
<path d="M188.641 146.032C188.737 147.985 190.407 149.415 192.351 149.212L204.296 147.963C206.241 147.759 207.753 145.994 207.657 144.041L207.398 138.781C207.303 136.829 205.627 135.145 203.674 135.04L191.608 134.388C189.655 134.282 188.137 135.795 188.233 137.747L188.641 146.032Z" fill="#6D99DA"/>
<path d="M206.09 138.849C206.026 137.564 204.888 136.419 203.603 136.351L191.537 135.699C191.497 135.697 191.455 135.695 191.415 135.695C190.877 135.695 190.389 135.897 190.042 136.261C189.692 136.63 189.738 141.571 189.764 142.123L206.09 138.849Z" fill="#9AB7E2"/>
<path d="M54.541 148.413L54.8558 147.361C61.6401 124.697 68.5878 111.58 68.6576 111.451C70.2416 108.488 74.099 105.868 77.4363 105.483C77.9105 105.43 89.4409 104.148 122.595 104.148C155.748 104.148 167.28 105.428 167.754 105.483C171.092 105.866 174.949 108.488 176.535 111.451C176.605 111.58 183.539 124.651 190.335 147.361L190.65 148.413H54.541Z" fill="#F2F3F9"/>
<path d="M191.528 149.066H53.6602L54.228 147.171C61.0422 124.407 68.0098 111.271 68.0796 111.139C69.7552 108.007 73.8318 105.236 77.3624 104.831C77.8386 104.777 89.4048 103.492 122.597 103.492C155.79 103.492 167.356 104.775 167.832 104.831C171.361 105.236 175.439 108.007 177.115 111.139C177.185 111.269 184.152 124.407 190.966 147.171L191.528 149.066ZM57.6232 146.121H187.565C181.036 124.839 174.58 112.654 174.513 112.53C173.287 110.241 170.071 108.055 167.491 107.758C167.376 107.744 155.56 106.439 122.593 106.439C89.626 106.439 77.8107 107.744 77.6952 107.758C75.1149 108.055 71.8991 110.239 70.6737 112.53C70.61 112.654 64.1524 124.841 57.6232 146.121Z" fill="#6D99DA"/>
<path d="M167.829 105.315C167.353 105.262 155.787 103.977 122.595 103.977C89.4024 103.977 77.8362 105.26 77.36 105.315C76.3338 105.433 75.2599 105.756 74.2139 106.226C74.2139 106.226 110.497 105.262 122.595 105.262C134.693 105.262 170.976 106.226 170.976 106.226C169.93 105.756 168.856 105.433 167.829 105.315Z" fill="#9AB7E2"/>
<path d="M62.4903 236.989C62.4903 239.328 60.5755 241.243 58.2364 241.243H32.6074C30.2683 241.243 28.3535 239.328 28.3535 236.989V224.77C28.3535 222.43 30.2683 220.516 32.6074 220.516H58.2364C60.5755 220.516 62.4903 222.43 62.4903 224.77V236.989Z" fill="#484866"/>
<path d="M60.1212 220.961C60.4041 221.531 57.2002 222.168 57.2002 222.846V236.046C57.2002 238.387 56.2677 239.319 53.9266 239.319H30.6866C30.0111 239.319 29.3716 239.156 28.8037 238.871C29.5011 240.272 30.9456 241.24 32.6093 241.24H58.2383C60.5774 241.24 62.4922 239.325 62.4922 236.986V224.767C62.4902 223.103 61.5199 221.66 60.1212 220.961Z" fill="#3C3C57"/>
<path d="M31.161 224.77C31.161 222.43 31.0633 220.516 30.9458 220.516H29.5072C29.3877 220.516 29.29 222.43 29.29 224.77V235.989C29.29 237.167 29.6527 238.352 31.1211 238.926C31.147 238.227 31.161 237.91 31.161 236.989V224.77Z" fill="#6E6E85"/>
<path d="M182.455 236.989C182.455 239.328 181.943 241.243 184.282 241.243H212.579C214.918 241.243 216.833 239.328 216.833 236.989V224.77C216.833 222.43 214.918 220.516 212.579 220.516H186.954C184.613 220.516 182.457 222.43 182.457 224.77V236.989H182.455Z" fill="#484866"/>
<path d="M185.069 220.961C184.784 221.531 187.988 222.168 187.988 222.846V236.046C187.988 238.387 188.921 239.319 191.262 239.319H214.504C215.179 239.319 215.819 239.156 216.389 238.871C215.689 240.272 214.247 241.24 212.583 241.24H184.284C181.943 241.24 182.457 239.325 182.457 236.986V224.767C182.455 223.103 183.668 221.66 185.069 220.961Z" fill="#3C3C57"/>
<path d="M214.027 224.77C214.027 222.43 214.125 220.516 214.243 220.516H215.681C215.801 220.516 215.898 222.43 215.898 224.77V235.989C215.898 237.167 215.536 238.352 214.067 238.926C214.041 238.227 214.027 237.91 214.027 236.989V224.77Z" fill="#6E6E85"/>
<path d="M190.418 146.367C190.418 146.367 192.138 148.728 187.256 148.728L122.595 148.768L57.934 148.728C53.0525 148.728 54.772 146.367 54.772 146.367C34.154 155.993 26.7959 162.143 26.7959 181.191V219.988C26.7959 219.988 26.7959 230.499 40.781 230.499H122.595H204.41C218.395 230.499 218.395 219.988 218.395 219.988V181.191C218.395 162.143 211.036 155.993 190.418 146.367Z" fill="#6D99DA"/>
<path d="M192.042 150.031C190.516 151.346 188.147 151.346 187.257 151.346C187.257 151.346 202.308 179.532 122.595 179.532C122.595 179.532 122.595 179.532 122.593 179.532C122.593 179.532 122.593 179.532 122.591 179.532C39.5756 179.532 57.9321 151.346 57.9321 151.346C57.0415 151.346 54.6745 151.346 53.1463 150.031C34.8396 158.834 29.4121 164.534 29.4121 181.191C29.4121 181.191 31.1615 227.881 47.3243 227.881H122.593H197.862C214.025 227.881 215.775 181.191 215.775 181.191C215.777 164.534 210.349 158.834 192.042 150.031Z" fill="#9AB7E2"/>
<path d="M207.557 223.912H119.196H37.6326C32.3566 223.912 28.9993 222.525 26.8594 220.758C27.1822 223.189 29.1228 230.491 40.7807 230.491H119.323H204.411C216.069 230.491 218.01 223.189 218.333 220.758C216.191 222.523 212.833 223.912 207.557 223.912Z" fill="#6D99DA"/>
<path d="M29.7809 164.906C29.8167 167.53 32.124 170.728 35.0649 172.213L34.4751 173.38C31.8351 172.047 29.7012 169.559 28.8604 167.05C29.1353 166.311 29.4421 165.598 29.7809 164.906Z" fill="#9AB7E2"/>
<path d="M215.41 164.906C215.374 167.53 213.067 170.728 210.126 172.213L210.716 173.38C213.356 172.047 215.49 169.559 216.33 167.05C216.056 166.311 215.749 165.598 215.41 164.906Z" fill="#9AB7E2"/>
<path d="M205.884 178.875H39.3066V180.184H205.884V178.875Z" fill="#9AB7E2"/>
<path d="M198.41 204.617C202.704 204.617 206.183 208.098 206.183 212.39C206.183 216.682 202.704 220.162 198.41 220.162C194.119 220.162 190.638 216.684 190.638 212.39C190.638 208.098 194.117 204.617 198.41 204.617Z" fill="#9AB7E2"/>
<path d="M202.863 216.84C200.402 219.3 196.416 219.3 193.955 216.84C191.494 214.381 191.494 210.392 193.955 207.931C196.416 205.471 200.402 205.471 202.863 207.931C205.324 210.392 205.324 214.381 202.863 216.84Z" fill="white"/>
<path d="M200.357 210.443C199.112 209.197 197.33 208.851 195.878 209.429C197.41 208.118 199.717 208.181 201.166 209.632C202.616 211.082 202.682 213.39 201.369 214.92C201.949 213.469 201.602 211.686 200.357 210.443Z" fill="#9AB7E2"/>
<path d="M113.657 207.761C137.003 207.761 167.489 207.761 176.192 207.761C179.974 207.761 173.552 186.32 162.672 186.32H113.657H82.5171C71.6383 186.32 65.2166 207.761 68.9963 207.761C77.7013 207.761 90.3116 207.761 113.657 207.761Z" fill="#9AB7E2"/>
<path d="M70.2379 205.998C70.0068 204.512 70.9711 199.654 73.908 194.886C75.4721 192.346 78.7437 188.086 83.0674 188.086H162.122C166.446 188.086 169.717 192.348 171.281 194.888C174.218 199.654 175.183 204.512 174.952 205.998H70.2379Z" fill="#484866"/>
<path d="M173.832 197.82H71.8438L72.5252 196.258H173.248L173.832 197.82Z" fill="#9AB7E2"/>
<path d="M46.5272 188.408C41.4425 188.408 37.34 188.044 37.1667 188.03C37.1527 188.028 37.1388 188.028 37.1248 188.026C33.9469 187.637 31.1435 184.92 30.739 181.839C30.7231 181.718 30.3485 178.809 30.5119 175.776C30.7629 171.146 32.1556 168.631 34.6502 168.304C35.0806 168.249 35.6146 168.219 36.2362 168.219C42.096 168.219 63.4313 171.532 67.9322 178.845C68.4323 179.657 68.5837 180.478 68.3845 181.289C67.986 182.909 66.3163 183.903 64.7004 184.866C64.3179 185.093 63.9573 185.308 63.6146 185.529C60.6597 187.44 54.9095 188.408 46.5272 188.408C46.5272 188.408 46.5292 188.408 46.5272 188.408Z" fill="#9AB7E2"/>
<path d="M32.0384 181.671C32.3611 184.138 34.7222 186.413 37.2845 186.728C37.2845 186.728 56.6532 188.472 62.9055 184.433C65.1371 182.99 68.1895 181.763 66.8187 179.535C62.6385 172.741 39.8548 168.946 34.8198 169.605C30.5301 170.167 32.0384 181.671 32.0384 181.671Z" fill="white"/>
<path d="M47.0274 184.701C43.5067 184.701 40.6436 181.838 40.6436 178.318C40.6436 176.381 41.5103 174.57 43.0225 173.348C43.0524 173.324 43.0883 173.312 43.1262 173.312C43.17 173.312 43.2118 173.33 43.2417 173.36C43.3015 173.42 43.3055 173.514 43.2537 173.58C42.375 174.667 41.9108 175.98 41.9108 177.377C41.9108 180.716 44.6285 183.434 47.9678 183.434C49.3625 183.434 50.6776 182.97 51.7654 182.091C51.7953 182.067 51.8292 182.055 51.8671 182.055C51.9109 182.055 51.9527 182.071 51.9826 182.103C52.0424 182.163 52.0464 182.257 51.9946 182.322C50.7752 183.835 48.966 184.701 47.0274 184.701Z" fill="#C6C7DA"/>
<path d="M198.663 188.408C203.748 188.408 207.85 188.044 208.024 188.03C208.037 188.028 208.051 188.028 208.065 188.026C211.243 187.637 214.049 184.92 214.451 181.839C214.467 181.718 214.842 178.809 214.678 175.776C214.427 171.146 213.035 168.631 210.54 168.304C210.11 168.249 209.576 168.219 208.952 168.219C203.092 168.219 181.757 171.532 177.256 178.845C176.756 179.657 176.604 180.478 176.804 181.289C177.202 182.909 178.874 183.903 180.49 184.866C180.872 185.093 181.233 185.308 181.576 185.529C184.53 187.44 190.279 188.408 198.663 188.408C198.661 188.408 198.661 188.408 198.663 188.408Z" fill="#9AB7E2"/>
<path d="M213.152 181.671C212.829 184.138 210.468 186.413 207.906 186.728C207.906 186.728 188.537 188.472 182.283 184.433C180.051 182.99 176.999 181.763 178.37 179.535C182.55 172.741 205.334 168.946 210.369 169.605C214.66 170.167 213.152 181.671 213.152 181.671Z" fill="white"/>
<path d="M198.162 184.701C201.683 184.701 204.546 181.838 204.546 178.318C204.546 176.381 203.677 174.57 202.165 173.348C202.135 173.324 202.099 173.312 202.062 173.312C202.018 173.312 201.978 173.33 201.946 173.36C201.886 173.42 201.882 173.514 201.934 173.58C202.813 174.667 203.277 175.98 203.277 177.377C203.277 180.716 200.559 183.434 197.22 183.434C195.825 183.434 194.51 182.97 193.422 182.091C193.392 182.067 193.357 182.055 193.319 182.055C193.275 182.055 193.233 182.071 193.203 182.103C193.143 182.163 193.137 182.257 193.191 182.322C194.413 183.835 196.224 184.701 198.162 184.701Z" fill="#9AB7E2"/>
<path d="M209.318 177.499C209.318 173.821 207.846 170.836 210.073 170.836C211.434 170.836 212.536 173.819 212.536 177.499C212.536 181.179 211.175 185.877 205.855 185.877C204.494 185.877 209.318 185.953 209.318 177.499Z" fill="#FFBF84"/>
<path d="M211.064 178.352C211.216 175.937 210.484 174.193 211.012 174.134C211.517 174.092 211.863 175.851 211.698 178.477C211.562 180.623 210.941 183.086 209.391 184.698C210.654 182.934 210.931 180.489 211.064 178.352Z" fill="#FFD9B7"/>
<path d="M181.985 183.805C182.44 183.658 182.972 183.409 183.536 183.046C184.099 182.685 184.713 182.241 185.341 181.701C187.63 179.78 189.567 177.481 191.9 175.604C192.571 175.07 193.265 174.566 193.984 174.1L194.727 173.652C195.729 173.072 196.775 172.566 197.843 172.169C198.909 171.771 199.973 171.432 201.015 171.173C202.053 170.898 203.07 170.701 204.03 170.527C205.666 170.286 207.292 170.131 208.943 170.081C209.808 170.055 210.671 170.079 211.534 170.117C211.675 170.237 211.811 170.37 211.932 170.521C209.35 170.749 206.821 171.133 204.299 171.763C203.396 172.024 202.45 172.307 201.508 172.691C200.559 173.058 199.613 173.512 198.678 174.01C196.443 175.174 194.365 176.614 192.31 178.067C190.186 179.569 188.029 181.016 185.783 182.331C185.044 182.751 184.356 183.12 183.725 183.401C183.093 183.68 182.531 183.895 182.055 184.034C181.96 184.062 181.87 184.086 181.78 184.11C181.683 184.05 181.583 183.991 181.485 183.931C181.641 183.907 181.804 183.867 181.985 183.805Z" fill="#E5F3F4"/>
<path d="M269.523 237.683C269.523 240.666 267.084 243.105 266.772 243.105H150.091C144.439 243.105 142 240.664 142 237.683V67.2184C142 64.2356 144.441 61.7969 147.421 61.7969H264.102C267.084 61.7969 269.523 64.2356 269.523 67.2184V237.683Z" fill="#65668F"/>
<path d="M263.667 67.6484H147.855V231.793H263.667V67.6484Z" fill="white"/>
<path d="M183.757 75.3737C182.693 75.3737 181.689 74.8856 181.032 74.0487C180.374 73.2119 180.239 72.1639 180.39 71.086L181.733 60.4064C181.968 58.8124 183.502 57.7604 185.1 57.7604H191.116C192.168 57.7604 193.074 56.9754 193.226 55.9353L193.513 53.9668C193.76 52.2632 195.22 51 196.944 51H214.577C216.298 51 217.759 52.2632 218.006 53.9668L218.293 55.9353C218.444 56.9774 219.351 57.7604 220.403 57.7604H226.418C228.016 57.7604 229.552 58.7726 229.785 60.4064L231.13 71.086C231.23 72.0822 231.146 73.2119 230.489 74.0487C229.831 74.8856 228.827 75.3737 227.763 75.3737H183.757Z" fill="#9AB7E2"/>
<path d="M177.35 108.696H160C159.534 108.696 159.155 108.318 159.155 107.851V90.501C159.155 90.0348 159.534 89.6562 160 89.6562H172.959C173.425 89.6562 173.804 90.0348 173.804 90.501C173.804 90.9673 173.425 91.3458 172.959 91.3458H160.845V107.007H176.506V95.9225C176.506 95.4563 176.884 95.0777 177.35 95.0777C177.817 95.0777 178.195 95.4563 178.195 95.9225V107.851C178.195 108.318 177.817 108.696 177.35 108.696Z" fill="#81CC93"/>
<path d="M168.675 103.815C168.452 103.815 168.237 103.727 168.078 103.568L163.063 98.5531C162.732 98.2243 162.732 97.6883 163.063 97.3596C163.393 97.0288 163.927 97.0288 164.258 97.3596L168.548 101.649L177.056 88.9753C177.317 88.5888 177.841 88.4852 178.227 88.7442C178.614 89.0032 178.717 89.5292 178.458 89.9157L169.379 103.441C169.237 103.65 169.01 103.785 168.759 103.811C168.731 103.815 168.703 103.815 168.675 103.815Z" fill="#81CC93"/>
<path d="M177.35 144.071H160C159.534 144.071 159.155 143.693 159.155 143.226V125.876C159.155 125.41 159.534 125.031 160 125.031H172.959C173.425 125.031 173.804 125.41 173.804 125.876C173.804 126.342 173.425 126.721 172.959 126.721H160.845V142.382H176.506V131.298C176.506 130.831 176.884 130.453 177.35 130.453C177.817 130.453 178.195 130.831 178.195 131.298V143.226C178.195 143.693 177.817 144.071 177.35 144.071Z" fill="#81CC93"/>
<path d="M168.675 139.184C168.452 139.184 168.237 139.097 168.078 138.937L163.063 133.922C162.732 133.591 162.732 133.058 163.063 132.727C163.393 132.396 163.927 132.396 164.258 132.727L168.548 137.017L177.056 124.342C177.317 123.956 177.841 123.852 178.227 124.111C178.614 124.372 178.717 124.896 178.458 125.283L169.379 138.808C169.237 139.017 169.01 139.152 168.759 139.178C168.731 139.182 168.703 139.184 168.675 139.184Z" fill="#81CC93"/>
<path d="M177.35 179.438H160C159.534 179.438 159.155 179.06 159.155 178.594V161.243C159.155 160.777 159.534 160.398 160 160.398H172.959C173.425 160.398 173.804 160.777 173.804 161.243C173.804 161.709 173.425 162.088 172.959 162.088H160.845V177.749H176.506V166.665C176.506 166.198 176.884 165.82 177.35 165.82C177.817 165.82 178.195 166.198 178.195 166.665V178.594C178.195 179.062 177.817 179.438 177.35 179.438Z" fill="#81CC93"/>
<path d="M168.675 174.559C168.452 174.559 168.237 174.472 168.078 174.312L163.063 169.297C162.732 168.968 162.732 168.433 163.063 168.102C163.393 167.773 163.927 167.773 164.258 168.102L168.548 172.392L177.056 159.718C177.317 159.331 177.841 159.227 178.227 159.486C178.614 159.745 178.717 160.271 178.458 160.658L169.379 174.183C169.237 174.392 169.01 174.527 168.759 174.553C168.731 174.559 168.703 174.559 168.675 174.559Z" fill="#81CC93"/>
<path d="M177.35 214.806H160C159.534 214.806 159.155 214.427 159.155 213.961V196.61C159.155 196.144 159.534 195.766 160 195.766H172.959C173.425 195.766 173.804 196.144 173.804 196.61C173.804 197.077 173.425 197.455 172.959 197.455H160.845V213.116H176.506V202.032C176.506 201.566 176.884 201.187 177.35 201.187C177.817 201.187 178.195 201.566 178.195 202.032V213.961C178.195 214.427 177.817 214.806 177.35 214.806Z" fill="#81CC93"/>
<path d="M168.675 209.933C168.452 209.933 168.237 209.845 168.078 209.686L163.063 204.671C162.732 204.34 162.732 203.806 163.063 203.475C163.393 203.145 163.927 203.145 164.258 203.475L168.548 207.765L177.056 195.093C177.317 194.704 177.841 194.603 178.227 194.862C178.614 195.123 178.717 195.647 178.458 196.033L169.379 209.56C169.237 209.769 169.01 209.907 168.759 209.931C168.731 209.931 168.703 209.933 168.675 209.933Z" fill="#81CC93"/>
<path d="M251.179 90.5H202.836V93.1021H251.179V90.5Z" fill="#B0B6C1"/>
<path d="M251.181 97.875H194.918V100.477H251.181V97.875Z" fill="#B0B6C1"/>
<path d="M242.396 105.25H194.918V107.852H242.396V105.25Z" fill="#B0B6C1"/>
<path d="M251.181 125.875H194.918V128.477H251.181V125.875Z" fill="#B0B6C1"/>
<path d="M251.181 133.25H194.918V135.852H251.181V133.25Z" fill="#B0B6C1"/>
<path d="M228.098 140.625H194.918V143.227H228.098V140.625Z" fill="#B0B6C1"/>
<path d="M251.181 161.242H194.918V163.844H251.181V161.242Z" fill="#B0B6C1"/>
<path d="M251.181 168.617H194.918V171.219H251.181V168.617Z" fill="#B0B6C1"/>
<path d="M245.55 175.992H194.918V178.594H245.55V175.992Z" fill="#B0B6C1"/>
<path d="M251.181 196.617H194.918V199.219H251.181V196.617Z" fill="#B0B6C1"/>
<path d="M251.181 203.992H194.918V206.594H251.181V203.992Z" fill="#B0B6C1"/>
<path d="M210.688 211.359H194.918V213.962H210.688V211.359Z" fill="#B0B6C1"/>
<path d="M208.869 64.4832C208.869 62.7677 207.478 61.375 205.761 61.375C204.045 61.375 202.652 62.7657 202.652 64.4832C202.652 66.1987 204.043 67.5915 205.761 67.5915C207.478 67.5895 208.869 66.1987 208.869 64.4832Z" fill="white"/>
<path d="M328 241H20V243H328V241Z" fill="#9FA0B3"/>
</svg>
