<svg width="63" height="64" viewBox="0 0 63 64" fill="none" xmlns="http://www.w3.org/2000/svg">
<path d="M60.2216 43.997C60.0896 44.307 59.9376 44.616 59.7896 44.921C59.3096 45.913 58.8656 46.921 58.4466 47.935C54.9557 46.8539 51.7739 44.9537 49.1666 42.393C48.9426 42.186 48.7286 41.98 48.5206 41.776C47.4215 40.6966 46.3965 39.5443 45.4526 38.327C45.4306 38.294 45.4066 38.26 45.3826 38.227C45.3406 38.169 45.2956 38.11 45.2506 38.053C45.1046 37.853 45.0186 37.732 44.9946 37.702C44.6596 37.253 44.3346 36.802 44.0116 36.367C43.3906 35.519 42.7926 34.691 42.2266 33.897C40.6074 31.6961 39.1099 29.4084 37.7406 27.044C33.4256 19.129 33.1896 9.59197 39.4806 4.10797C39.2326 4.42897 34.7056 10.608 47.6966 27.208C47.9606 27.538 48.2126 27.868 48.4656 28.191C49.9669 30.1096 51.3783 31.9033 52.6996 33.572C52.7746 33.672 52.8476 33.762 52.9216 33.853C52.9956 33.944 53.0756 34.046 53.1536 34.145L53.2536 34.277L53.6536 34.77C53.8636 35.034 54.0696 35.291 54.2706 35.548C55.9179 37.624 57.4106 39.4926 58.7486 41.154C59.0906 41.728 59.4226 42.328 59.7356 42.954C59.9046 43.298 60.0646 43.646 60.2216 43.997Z" fill="white"/>
<path d="M61.1915 55.578C60.46 57.6507 59.2896 59.5411 57.7604 61.12C56.9914 61.941 56.2735 62.746 55.5995 63.541C55.5995 63.541 57.4464 61.459 56.7394 56.02C56.2864 52.534 53.2785 47.92 51.1705 45.058C50.5515 44.1104 49.8548 43.216 49.0875 42.384C49.0505 42.34 49.0125 42.301 48.9755 42.261C48.8925 42.166 48.8095 42.075 48.7225 41.989L48.5295 41.779C48.5135 41.762 48.4975 41.743 48.4795 41.726L48.6005 41.565L53.6605 34.777L53.7025 34.723C53.7046 34.7267 53.7078 34.7298 53.7115 34.732C53.7395 34.757 53.8435 34.864 54.0175 35.032C54.0685 35.087 54.1174 35.14 54.1714 35.192C54.1974 35.217 54.2244 35.246 54.2554 35.275C55.8361 36.9318 57.245 38.7443 58.4604 40.685C58.5604 40.842 58.6544 41.002 58.7524 41.163C59.0944 41.737 59.4264 42.337 59.7394 42.963C59.9084 43.301 60.0725 43.645 60.2275 43.996C62.0111 47.5933 62.3558 51.7353 61.1915 55.578Z" fill="white"/>
<path d="M48.4717 28.203L44.0117 36.373C43.3927 35.526 43.0377 35.038 42.4717 34.242L48.4717 28.203Z" fill="#B8D8CD"/>
<path d="M34.8906 12.833C37.6616 0.110021 48.4806 0.455022 48.4806 0.455022C48.4806 0.455022 59.2916 0.10902 62.0706 12.833C62.0706 12.833 60.7866 7.44102 48.4806 7.44102C36.1746 7.44102 34.8906 12.833 34.8906 12.833Z" fill="#B8D8CD"/>
<path d="M32.4482 48.237C41.8572 49.925 49.5613 40.837 51.4893 38.331L51.5602 38.231C51.6022 38.173 51.6463 38.114 51.6923 38.056C51.8373 37.856 51.9243 37.738 51.9453 37.706C54.5696 34.2969 56.9927 30.7375 59.2022 27.046C63.5102 19.129 63.7452 9.58197 57.4432 4.10397C57.5752 4.26797 62.4013 10.384 49.2363 27.216C47.4456 29.5033 45.7789 31.6246 44.2363 33.58C44.1623 33.68 44.0882 33.769 44.0142 33.861L43.7833 34.151L43.6772 34.283C38.5492 40.766 34.8152 45.364 32.4482 48.237Z" fill="white"/>
<path d="M0.386719 34.721C0.386719 34.721 13.2257 29.021 22.5937 41.978C22.5937 41.978 28.2237 47.124 35.5677 45.261C35.5677 45.261 31.9617 46.14 27.2117 36.904C22.4617 27.668 8.12672 25.934 0.386719 34.721Z" fill="#B8D8CD"/>
<path d="M17.626 32.288C17.626 32.288 20.786 30.331 23.495 32.409C26.204 34.487 29.414 39.109 32.449 41.877C35.484 44.645 38.782 45.877 41.203 45.216C41.203 45.216 38.386 47.77 35.303 47.063C32.22 46.356 26.903 41.742 26.903 41.742L17.626 32.288Z" fill="#B8D8CD"/>
<path d="M42.9127 43.396C42.9127 43.396 38.6037 49.254 32.4457 48.238C26.2877 47.222 22.5938 41.979 22.5938 41.979C22.5938 41.979 30.2028 48.444 40.6788 38.056L42.9127 43.396Z" fill="white"/>
</svg>
