<svg width="59" height="53" viewBox="0 0 59 53" fill="none" xmlns="http://www.w3.org/2000/svg">
<path d="M25.4444 9.05998L14.6034 11.13C13.9822 11.2494 13.4338 11.6105 13.0786 12.134C12.7235 12.6576 12.5907 13.3006 12.7094 13.922L13.9094 20.211C14.0288 20.8326 14.3902 21.3814 14.9142 21.7366C15.4382 22.0918 16.0817 22.2243 16.7034 22.105L27.5394 20.05C28.1606 19.9306 28.709 19.5694 29.0642 19.0459C29.4193 18.5224 29.5521 17.8794 29.4334 17.258L28.2334 10.969C28.176 10.6603 28.0582 10.366 27.8869 10.103C27.7156 9.8399 27.494 9.61322 27.2349 9.43589C26.9759 9.25856 26.6844 9.13408 26.3771 9.06957C26.0699 9.00507 25.7529 9.00181 25.4444 9.05998ZM27.1444 16.401C27.2262 16.8277 27.1352 17.2694 26.8914 17.6291C26.6477 17.9887 26.2711 18.2369 25.8444 18.319L17.6344 19.887C17.208 19.9682 16.7668 19.8769 16.4076 19.6332C16.0484 19.3895 15.8005 19.0132 15.7184 18.587L14.9914 14.779C14.9096 14.3523 15.0006 13.9105 15.2444 13.5509C15.4882 13.1912 15.8648 12.9431 16.2914 12.861L24.5014 11.291C24.9281 11.2097 25.3695 11.301 25.729 11.5446C26.0886 11.7883 26.3368 12.1646 26.4194 12.591L27.1444 16.401Z" fill="#234453"/>
<path d="M35.4026 12.0119L6.42411 17.5398C3.25048 18.1452 1.16851 21.2087 1.77392 24.3824L5.03885 41.4977C5.64425 44.6714 8.70777 46.7533 11.8814 46.1479L40.8599 40.62C44.0335 40.0146 46.1155 36.9511 45.5101 33.7774L42.2451 16.6621C41.6397 13.4884 38.5762 11.4065 35.4026 12.0119Z" fill="#93D7E5"/>
<path d="M35.6874 11.9575L6.13925 17.5941C3.12294 18.1695 1.14418 21.0812 1.71957 24.0975L4.56196 38.9978C5.13735 42.0141 8.04901 43.9929 11.0653 43.4175L40.6135 37.7809C43.6298 37.2055 45.6086 34.2938 45.0332 31.2775L42.1908 16.3772C41.6154 13.3609 38.7037 11.3821 35.6874 11.9575Z" fill="#B5E8F2"/>
<path d="M7.57739 17.3174L7.5764 17.3176C6.99918 17.4277 6.62051 17.9849 6.73062 18.5622L11.7892 45.08C11.8993 45.6572 12.4565 46.0359 13.0337 45.9258L13.0347 45.9256C13.6119 45.8155 13.9906 45.2583 13.8805 44.681L8.82191 18.1632C8.7118 17.586 8.15461 17.2073 7.57739 17.3174Z" fill="#FCFFFF"/>
<path d="M34.4133 12.1892L34.4123 12.1894C33.8351 12.2996 33.4565 12.8569 33.5667 13.4341L38.6299 39.951C38.7401 40.5282 39.2974 40.9068 39.8746 40.7966L39.8756 40.7964C40.4528 40.6862 40.8313 40.1289 40.7211 39.5517L35.658 13.0348C35.5478 12.4576 34.9905 12.079 34.4133 12.1892Z" fill="#FCFFFF"/>
<path d="M31.1543 32.9329C33.8736 28.7215 32.664 23.103 28.4525 20.3837C24.241 17.6643 18.6225 18.874 15.9032 23.0854C13.1839 27.2969 14.3936 32.9154 18.605 35.6347C22.8165 38.354 28.435 37.1444 31.1543 32.9329Z" fill="#FF6A66"/>
<path d="M24.4727 22.0469L20.4414 22.8159L22.5712 33.9806L26.6025 33.2116L24.4727 22.0469Z" fill="#FFECE6"/>
<path d="M17.565 27.0647L18.334 31.096L29.4987 28.9662L28.7296 24.9349L17.565 27.0647Z" fill="#FFECE6"/>
<path d="M41.9954 31.308C41.1986 31.308 40.4041 31.2228 39.6254 31.054C35.8854 30.254 32.7904 27.628 30.8964 23.64C29.0008 19.4179 28.5417 14.6908 29.5894 10.183C30.2045 7.26207 31.3916 4.49183 33.0824 2.03195L34.0294 2.69695C32.4279 5.03076 31.3015 7.65703 30.7144 10.4259C29.7233 14.6837 30.1524 19.1489 31.9364 23.14C32.5884 24.8388 33.6539 26.3483 35.0362 27.5316C36.4186 28.715 38.0743 29.5349 39.8534 29.9172C41.6325 30.2994 43.4788 30.2319 45.2253 29.7208C46.9717 29.2097 48.5631 28.2711 49.8554 26.9899C53.1226 24.0861 55.3484 20.1918 56.1924 15.903C56.7993 13.1389 56.8541 10.2822 56.3534 7.49695L57.4974 7.28195C58.0261 10.2194 57.9697 13.2323 57.3314 16.1479C56.4338 20.6884 54.0722 24.8092 50.6084 27.879C48.2416 30.0179 45.1848 31.2349 41.9954 31.308Z" fill="#BCFAFF"/>
<path d="M9.11071 50.264C7.30141 50.372 5.49766 49.9753 3.9007 49.118C3.46285 48.8487 3.08814 48.4882 2.80204 48.0611C2.51594 47.6341 2.32518 47.1504 2.24271 46.643C2.16779 46.2222 2.20515 45.7891 2.35105 45.3874C2.49695 44.9857 2.74622 44.6296 3.07371 44.355C5.09571 42.534 10.4427 42.364 14.5737 42.544C19.0068 42.7212 23.4113 43.3375 27.7227 44.384C32.9517 45.831 38.9047 45.805 39.7407 44.337C40.0507 43.797 39.5627 42.869 38.3747 41.737C34.9127 38.422 36.5537 35.037 37.8747 32.322C38.1257 31.803 38.3647 31.313 38.5747 30.822L39.6477 31.279C39.4297 31.793 39.1737 32.319 38.9377 32.828C37.6017 35.561 36.3497 38.147 39.1907 40.891C40.8487 42.485 41.3767 43.839 40.7627 44.917C39.3257 47.439 31.9517 46.762 27.4217 45.509C21.3287 43.823 6.86771 42.518 3.86271 45.222C3.67811 45.3637 3.53618 45.5536 3.45255 45.7708C3.36892 45.988 3.34683 46.224 3.38871 46.453C3.44393 46.8002 3.57371 47.1313 3.76913 47.4236C3.96454 47.7158 4.22095 47.9623 4.52071 48.146C7.62971 50.197 15.4137 48.3309 15.4897 48.312L15.7647 49.444C13.5842 49.9515 11.3562 50.227 9.11771 50.266L9.11071 50.264Z" fill="#7FD6DD"/>
<path d="M19.6406 52.225C22.8157 52.225 25.3896 50.9208 25.3896 49.312C25.3896 47.7032 22.8157 46.399 19.6406 46.399C16.4655 46.399 13.8916 47.7032 13.8916 49.312C13.8916 50.9208 16.4655 52.225 19.6406 52.225Z" fill="#234453"/>
<path d="M19.5865 49.812C21.7393 49.812 23.4845 48.9287 23.4845 47.839C23.4845 46.7493 21.7393 45.866 19.5865 45.866C17.4337 45.866 15.6885 46.7493 15.6885 47.839C15.6885 48.9287 17.4337 49.812 19.5865 49.812Z" fill="#3D6D7A"/>
<path d="M36.2354 29.913L36.6354 28.492L42.3874 30.092L41.9134 31.513C41.223 31.4419 40.5291 31.6092 39.947 31.987C39.3649 32.3649 38.9296 32.9305 38.7134 33.59L37.4754 33.074C37.4754 33.074 37.9094 30.751 36.2354 29.913Z" fill="#2F5968"/>
<path d="M33.8137 0.982964L34.8297 1.90197C34.9858 2.04457 35.0791 2.24315 35.0892 2.45432C35.0993 2.6655 35.0254 2.8721 34.8837 3.02897C34.7415 3.18549 34.5431 3.27934 34.3319 3.29002C34.1207 3.3007 33.9139 3.22733 33.7567 3.08596L32.7367 2.17097C32.5802 2.02878 32.4863 1.83041 32.4756 1.61923C32.465 1.40804 32.5383 1.20122 32.6797 1.04397C32.7501 0.966024 32.8352 0.902723 32.9302 0.857675C33.0251 0.812626 33.1279 0.786704 33.2329 0.781411C33.3378 0.776118 33.4427 0.791553 33.5417 0.826821C33.6407 0.86209 33.7317 0.916502 33.8097 0.986962L33.8137 0.982964Z" fill="#2F5968"/>
<path d="M56.1263 6.71599L57.4573 6.39199C57.6629 6.34186 57.8801 6.37529 58.0611 6.48494C58.2422 6.59459 58.3724 6.77152 58.4233 6.97699C58.4733 7.18292 58.4396 7.4003 58.3296 7.58141C58.2195 7.76252 58.0421 7.89257 57.8363 7.943L56.5083 8.26999C56.3023 8.32005 56.085 8.28636 55.9039 8.1763C55.7228 8.06625 55.5927 7.88883 55.5423 7.68299C55.4922 7.47733 55.5256 7.26021 55.6352 7.07915C55.7449 6.89809 55.9218 6.76786 56.1273 6.717L56.1263 6.71599Z" fill="#2F5968"/>
<path d="M14.9462 48.3759H13.0352V50.0759H14.9462V48.3759Z" fill="#234453"/>
</svg>
