<svg width="57" height="37" viewBox="0 0 57 37" fill="none" xmlns="http://www.w3.org/2000/svg">
<path d="M21.1082 21.3571C23.1826 20.9899 25.1016 20.0159 26.6224 18.5581C28.1433 17.1004 29.1977 15.2244 29.6525 13.1674C30.1072 11.1104 29.9418 8.9648 29.1771 7.00181C28.4125 5.03882 27.083 3.34667 25.3567 2.13926C23.6304 0.931851 21.5848 0.26339 19.4786 0.218485C17.3725 0.173581 15.3003 0.754207 13.5241 1.88694C11.7479 3.01968 10.3474 4.6537 9.49976 6.58232C8.65216 8.51093 8.39556 10.6476 8.76222 12.7221C9.0056 14.0999 9.51804 15.4161 10.2703 16.5957C11.0225 17.7754 11.9997 18.7954 13.1462 19.5973C14.2928 20.3992 15.586 20.9673 16.9522 21.2692C18.3183 21.5712 19.7305 21.6011 21.1082 21.3571Z" fill="#9EE0E5"/>
<path d="M29.1117 9.11608C29.0285 8.64902 28.7635 8.23409 28.3746 7.96239C27.9857 7.6907 27.5048 7.5845 27.0377 7.6671L11.1837 10.4741C10.9523 10.5149 10.7314 10.6009 10.5333 10.7272C10.3352 10.8535 10.164 11.0177 10.0294 11.2102C9.89481 11.4027 9.79944 11.6198 9.74888 11.8492C9.69831 12.0786 9.69355 12.3158 9.73472 12.5471C9.81761 13.0143 10.0826 13.4295 10.4715 13.7014C10.8604 13.9733 11.3414 14.0796 11.8087 13.9971L27.6617 11.1901C27.8931 11.1491 28.1142 11.063 28.3124 10.9366C28.5105 10.8102 28.6817 10.6461 28.8164 10.4535C28.951 10.2609 29.0463 10.0437 29.097 9.8142C29.1477 9.58472 29.1527 9.34747 29.1117 9.11608Z" fill="#89C7C9"/>
<path d="M24.1461 26.231C25.3753 27.376 27.0088 27.9862 28.6876 27.9273C30.3664 27.8684 31.9532 27.1454 33.0991 25.9171L43.3291 14.475C44.4228 13.1993 44.9649 11.5415 44.8363 9.86604C44.7076 8.1906 43.9187 6.63485 42.6431 5.54109C41.4138 4.3962 39.7803 3.78622 38.1014 3.84528C36.4226 3.90435 34.8359 4.62758 33.6901 5.85603L23.4591 17.293C22.366 18.5699 21.8244 20.2284 21.9532 21.9042C22.0821 23.5801 22.8707 25.1362 24.1461 26.231Z" fill="white"/>
<path d="M24.1459 26.2301C25.375 27.3752 27.0084 27.9855 28.6872 27.9268C30.366 27.8681 31.9529 27.1452 33.0989 25.9171L38.2149 20.195L28.5749 11.5781L23.4599 17.2921C22.3665 18.5687 21.8246 20.2271 21.9532 21.903C22.0818 23.579 22.8705 25.1353 24.1459 26.2301Z" fill="#D86D55"/>
<path d="M38.8476 15.622C38.1825 17.2941 38.028 19.1258 38.4037 20.8857C38.7794 22.6455 39.6684 24.2544 40.9584 25.5091C42.2483 26.7638 43.8813 27.6078 45.6509 27.9345C47.4204 28.2612 49.2472 28.056 50.9001 27.3447C52.5531 26.6334 53.9581 25.448 54.9375 23.9383C55.9168 22.4286 56.4266 20.6626 56.4023 18.8632C56.3781 17.0639 55.8209 15.3121 54.8012 13.8294C53.7816 12.3467 52.3452 11.1995 50.6737 10.533C49.5631 10.0902 48.3761 9.87056 47.1805 9.88667C45.985 9.90277 44.8044 10.1543 43.7062 10.6269C42.6079 11.0995 41.6135 11.784 40.7799 12.6411C39.9462 13.4982 39.2896 14.5111 38.8476 15.622Z" fill="#9EE0E5"/>
<path d="M44.1349 26.943C44.3212 27.0181 44.5204 27.0556 44.7213 27.0533C44.9222 27.0509 45.1206 27.0089 45.3052 26.9295C45.4897 26.8501 45.6567 26.735 45.7965 26.5907C45.9363 26.4465 46.0463 26.2759 46.1199 26.089L51.2118 13.3051C51.2869 13.1187 51.3243 12.9192 51.322 12.7183C51.3197 12.5174 51.2777 12.3188 51.1984 12.1342C51.119 11.9496 51.0037 11.7825 50.8595 11.6426C50.7152 11.5027 50.5447 11.3927 50.3578 11.319C50.1714 11.2439 49.9721 11.2065 49.7711 11.2088C49.5702 11.2111 49.3716 11.2532 49.187 11.3326C49.0024 11.4119 48.8353 11.5271 48.6954 11.6713C48.5555 11.8156 48.4455 11.9861 48.3718 12.173L43.2798 24.9561C43.2048 25.1426 43.1676 25.3419 43.17 25.5429C43.1725 25.7438 43.2147 25.9423 43.2942 26.1269C43.3736 26.3115 43.4888 26.4786 43.633 26.6184C43.7773 26.7583 43.9479 26.8683 44.1349 26.9421V26.943Z" fill="#89C7C9"/>
<path d="M28.0919 25.073C28.4207 23.4256 28.0817 21.7149 27.1495 20.3173C26.2173 18.9197 24.7682 17.9495 23.1208 17.62L8.01082 14.9261C7.18913 14.7972 6.35016 14.8314 5.5417 15.0268C4.73324 15.2222 3.97115 15.5749 3.29902 16.0649C2.6269 16.5548 2.05791 17.1723 1.62446 17.8821C1.19102 18.592 0.901674 19.3804 0.772901 20.2021C0.444138 21.8497 0.783258 23.5604 1.71565 24.9581C2.64804 26.3557 4.09728 27.3259 5.74482 27.6551L20.8548 30.35C21.6765 30.4789 22.5156 30.4447 23.324 30.2492C24.1325 30.0537 24.8945 29.7009 25.5666 29.2109C26.2387 28.7208 26.8075 28.1031 27.2408 27.3931C27.6741 26.6831 27.9633 25.8948 28.0919 25.073Z" fill="white"/>
<path d="M28.0919 25.073C28.421 23.4255 28.0821 21.7148 27.1499 20.3171C26.2177 18.9194 24.7683 17.9492 23.1208 17.62L15.5659 16.2731L13.2959 29.002L20.8508 30.349C21.6727 30.4784 22.5121 30.4445 23.3209 30.2493C24.1297 30.0541 24.8921 29.7014 25.5646 29.2115C26.237 28.7215 26.8063 28.1038 27.24 27.3937C27.6736 26.6836 27.9632 25.895 28.0919 25.073Z" fill="#ED7C5D"/>
<path d="M48.5749 23.4431C48.0697 21.8408 46.9488 20.5048 45.4587 19.7288C43.9686 18.9528 42.2313 18.8003 40.6288 19.305L26.0888 24.2221C24.5089 24.7937 23.2204 25.9687 22.506 27.4895C21.7917 29.0102 21.71 30.7522 22.2789 32.3331C22.7841 33.9356 23.9051 35.2718 25.3954 36.0478C26.8858 36.8238 28.6233 36.976 30.2259 36.471L44.7658 31.554C45.5486 31.2717 46.2681 30.838 46.8832 30.2775C47.4983 29.7171 47.9969 29.0409 48.3506 28.2877C48.7044 27.5345 48.9063 26.7189 48.9448 25.8876C48.9832 25.0564 48.8575 24.2257 48.5749 23.4431Z" fill="white"/>
<path d="M48.5792 23.4431C48.074 21.8408 46.9531 20.5048 45.463 19.7288C43.9729 18.9528 42.2356 18.8003 40.6332 19.305L33.3643 21.763L37.5062 34.013L44.7762 31.555C46.356 30.9832 47.6439 29.8075 48.3571 28.2863C49.0702 26.7652 49.1501 25.0231 48.5792 23.4431Z" fill="#ED7C5D"/>
</svg>
