<svg width="31" height="29" viewBox="0 0 31 29" fill="none" xmlns="http://www.w3.org/2000/svg">
<path d="M3.46387 28.0002H2.46387C1.93343 28.0002 1.42473 27.7895 1.04965 27.4144C0.674581 27.0394 0.463867 26.5307 0.463867 26.0002V5.03223C0.463867 4.50179 0.674581 3.99308 1.04965 3.61801C1.42473 3.24294 1.93343 3.03223 2.46387 3.03223H3.46387C3.9943 3.03223 4.50301 3.24294 4.87808 3.61801C5.25315 3.99308 5.46387 4.50179 5.46387 5.03223V26.0052C5.46254 26.5348 5.25125 27.0422 4.87632 27.4162C4.50139 27.7902 3.99343 28.0002 3.46387 28.0002ZM14.4459 9.02422C14.4459 8.49379 14.2352 7.98509 13.8601 7.61002C13.485 7.23494 12.9763 7.02422 12.4459 7.02422H8.45387C7.92343 7.02422 7.41473 7.23494 7.03965 7.61002C6.66458 7.98509 6.45387 8.49379 6.45387 9.02422V10.7722C6.45387 10.8385 6.48021 10.9021 6.52709 10.949C6.57397 10.9959 6.63756 11.0222 6.70387 11.0222H14.1939C14.2602 11.0222 14.3238 10.9959 14.3706 10.949C14.4175 10.9021 14.4439 10.8385 14.4439 10.7722L14.4459 9.02422ZM6.45587 26.0022C6.45587 26.5327 6.66658 27.0414 7.04165 27.4164C7.41673 27.7915 7.92543 28.0022 8.45587 28.0022H12.4509C12.9813 28.0022 13.49 27.7915 13.8651 27.4164C14.2402 27.0414 14.4509 26.5327 14.4509 26.0022V24.1322C14.4509 24.0991 14.4377 24.0673 14.4143 24.0438C14.3908 24.0204 14.359 24.0072 14.3259 24.0072H6.58587C6.55271 24.0072 6.52092 24.0204 6.49748 24.0438C6.47404 24.0673 6.46087 24.0991 6.46087 24.1322L6.45587 26.0022Z" fill="url(#paint0_linear_20_582)"/>
<path d="M6.59668 12.9851H14.2637V22.1851H6.59668V12.9851Z" fill="url(#paint1_linear_20_582)"/>
<path d="M19.4395 28.0001H17.4395C16.909 28.0001 16.4003 27.7894 16.0252 27.4143C15.6502 27.0393 15.4395 26.5306 15.4395 26.0001V2.03613C15.4395 1.5057 15.6502 0.99699 16.0252 0.621918C16.4003 0.246845 16.909 0.0361328 17.4395 0.0361328H19.4395C19.9699 0.0361328 20.4786 0.246845 20.8537 0.621918C21.2287 0.99699 21.4395 1.5057 21.4395 2.03613V26.0031C21.4387 26.533 21.2276 27.041 20.8526 27.4154C20.4776 27.7898 19.9694 28.0001 19.4395 28.0001ZM30.4185 25.8431L28.4065 4.62013C28.3286 4.12537 28.0584 3.68138 27.6549 3.38474C27.2513 3.0881 26.7469 2.96282 26.2515 3.03613L24.2635 3.22313C23.7626 3.24421 23.2904 3.46236 22.9497 3.83004C22.609 4.19772 22.4274 4.68515 22.4445 5.18613L24.4565 26.4091C24.5353 26.9032 24.8058 27.3462 25.2093 27.642C25.6128 27.9378 26.1166 28.0625 26.6115 27.9891L28.5995 27.8021C29.0994 27.781 29.5708 27.5636 29.9114 27.197C30.252 26.8304 30.4342 26.3443 30.4185 25.8441V25.8431Z" fill="url(#paint2_linear_20_582)"/>
<defs>
<linearGradient id="paint0_linear_20_582" x1="7.45737" y1="3.03223" x2="7.45737" y2="28.0022" gradientUnits="userSpaceOnUse">
<stop stop-color="#345C64"/>
<stop offset="1" stop-color="#61919B"/>
</linearGradient>
<linearGradient id="paint1_linear_20_582" x1="10.4302" y1="12.9851" x2="10.4302" y2="22.1851" gradientUnits="userSpaceOnUse">
<stop stop-color="#345C64"/>
<stop offset="1" stop-color="#61919B"/>
</linearGradient>
<linearGradient id="paint2_linear_20_582" x1="22.9294" y1="0.0361328" x2="22.9294" y2="28.0097" gradientUnits="userSpaceOnUse">
<stop stop-color="#345C64"/>
<stop offset="1" stop-color="#61919B"/>
</linearGradient>
</defs>
</svg>
