<svg width="50" height="58" viewBox="0 0 50 58" fill="none" xmlns="http://www.w3.org/2000/svg">
<path d="M44.9912 22.5632C44.9166 19.2923 43.9647 16.1015 42.2351 13.3243C40.5055 10.5471 38.0617 8.28539 35.1591 6.77569C32.2565 5.26598 29.0016 4.56365 25.7348 4.7421C22.4679 4.92054 19.3089 5.97322 16.588 7.79009C13.8671 9.60697 11.6841 12.1213 10.2673 15.0704C8.85054 18.0195 8.25189 21.295 8.53395 24.5545C8.81601 27.8141 9.96842 30.9381 11.8708 33.5999C13.7731 36.2618 16.3555 38.3638 19.348 39.6863L19.4531 44.2937L35.4457 43.9017C35.4457 43.9017 35.4785 41.3166 35.4619 39.0055C38.408 37.4056 40.8561 35.0246 42.5371 32.1241C44.2182 29.2235 45.0672 25.9157 44.9909 22.5641L44.9912 22.5632Z" fill="#FFEF9B"/>
<path d="M29.6496 43.9813L29.6576 43.7537C29.6958 43.5354 29.7174 43.3145 29.7223 43.093C29.7764 42.5051 29.8562 41.6573 29.9994 40.5592C30.1426 39.4611 30.3177 38.1142 30.6362 36.5681C30.9757 34.8139 31.4933 33.0988 32.1809 31.4496C32.5756 30.4865 33.0556 29.5605 33.6151 28.6827C33.9181 28.2048 34.3373 27.8114 34.8335 27.5393C35.1033 27.4025 35.4019 27.3321 35.7045 27.334C36.007 27.3359 36.3047 27.41 36.5728 27.5501C36.8569 27.7038 37.0711 27.9608 37.1712 28.2679C37.2673 28.5779 37.2455 28.9125 37.1099 29.2073C36.8192 29.7807 36.3264 30.2261 35.7267 30.4575C34.4929 30.898 33.1353 30.8354 31.9474 30.283C31.3266 29.9903 30.7718 29.5743 30.3169 29.0604C29.8619 28.5465 29.5162 27.9454 29.3008 27.2938C29.05 26.6222 28.9967 25.8929 29.1472 25.192C29.2251 24.8199 29.4301 24.4865 29.7269 24.2489C30.0237 24.0114 30.3939 23.8845 30.7741 23.89C30.9714 23.9042 31.1618 23.969 31.3267 24.0783C31.4917 24.1875 31.6256 24.3375 31.7157 24.5137C31.9046 24.8556 31.9667 25.2533 31.891 25.6365C31.6834 26.3656 31.2473 27.0088 30.6469 27.4717C30.0781 27.9783 29.4089 28.3594 28.683 28.59C27.9571 28.8207 27.1907 28.8957 26.4338 28.8102C25.6726 28.7079 24.9477 28.422 24.3215 27.9774C23.6953 27.5327 23.1866 26.9425 22.8391 26.2575C22.6602 25.922 22.5525 25.5532 22.5228 25.1741C22.4931 24.795 22.5421 24.4139 22.6666 24.0546C22.7277 23.8683 22.8291 23.6976 22.9636 23.5549C23.0982 23.4122 23.2625 23.3009 23.445 23.229C23.6274 23.157 23.8235 23.1262 24.0192 23.1386C24.2149 23.1511 24.4055 23.2066 24.5774 23.3011C24.9154 23.4768 25.1906 23.7531 25.3649 24.0918C25.5327 24.417 25.6359 24.7716 25.6689 25.1361C25.7299 25.8401 25.6504 26.5493 25.4347 27.2224C25.0283 28.5406 24.1338 29.6539 22.934 30.3346C21.7911 30.9767 20.457 31.1912 19.1704 30.9397C18.5348 30.8559 17.9454 30.5624 17.4954 30.1057C17.2755 29.8733 17.1419 29.5725 17.1168 29.2536C17.0916 28.9346 17.1765 28.6167 17.3573 28.3527C17.4562 28.2309 17.5792 28.1309 17.7185 28.0588C17.8579 27.9867 18.0106 27.9441 18.1671 27.9337C18.48 27.8963 18.7969 27.951 19.0791 28.0911C19.5833 28.3644 19.9841 28.7954 20.22 29.3182C20.7043 30.2997 21.0917 31.2524 21.4915 32.1618C23.0295 35.81 24.1395 38.8175 24.8804 40.9067C25.2372 41.966 25.5275 42.7567 25.7022 43.3155L25.9149 43.9414L25.9771 44.16C25.9435 44.0936 25.9152 44.0246 25.8927 43.9537L25.6579 43.3215L24.7312 40.9117C23.9668 38.8356 22.8345 35.8405 21.274 32.2055C20.8828 31.2986 20.4781 30.3409 20.0034 29.3809C19.7787 28.8942 19.4046 28.4918 18.9357 28.2321C18.6988 28.1082 18.4287 28.0627 18.1644 28.1023C17.9001 28.1419 17.6551 28.2644 17.465 28.4522C17.3141 28.6835 17.2459 28.9589 17.2713 29.2338C17.2967 29.5087 17.4143 29.7669 17.605 29.9665C18.0279 30.3855 18.5749 30.6566 19.1644 30.7393C20.4059 30.9762 21.6911 30.7648 22.7913 30.1429C23.9434 29.4852 24.8017 28.4133 25.1915 27.1453C25.399 26.4987 25.4742 25.8169 25.4127 25.1406C25.4017 24.8039 25.3062 24.4754 25.1348 24.1854C24.9634 23.8953 24.7218 23.6531 24.4321 23.4811C24.2895 23.4043 24.1322 23.3586 23.9706 23.3469C23.8091 23.3351 23.6468 23.3577 23.4946 23.413C23.3428 23.4781 23.2063 23.5744 23.0941 23.6956C22.9819 23.8169 22.8965 23.9604 22.8434 24.1168C22.7303 24.4475 22.6868 24.798 22.7154 25.1463C22.7441 25.4946 22.8443 25.8333 23.0098 26.1411C23.3421 26.7914 23.8267 27.3516 24.4224 27.774C25.0181 28.1964 25.7071 28.4685 26.4307 28.567C27.158 28.6495 27.8946 28.5784 28.5927 28.3582C29.2908 28.1379 29.9348 27.7735 30.4831 27.2884C31.0447 26.8558 31.4545 26.2561 31.6535 25.5757C31.7311 25.2365 31.6797 24.8805 31.5092 24.5772C31.4385 24.4322 31.3309 24.3082 31.1973 24.2178C31.0636 24.1275 30.9085 24.0738 30.7475 24.0623C30.4168 24.0464 30.0929 24.1594 29.8437 24.3774C29.6003 24.5934 29.4258 24.8762 29.3421 25.1907C29.2184 25.8459 29.2723 26.5222 29.4982 27.1496C29.6966 27.7594 30.0148 28.3234 30.4343 28.8085C30.8537 29.2936 31.3659 29.6899 31.9407 29.9742C32.5155 30.2585 33.1413 30.4251 33.7814 30.4641C34.4215 30.5032 35.0629 30.4138 35.668 30.2014C36.2229 29.9974 36.6808 29.5921 36.9507 29.066C37.0684 28.8165 37.0867 28.5316 37.002 28.2691C36.9173 28.0066 36.7359 27.7862 36.4946 27.6525C36.2549 27.5271 35.989 27.4604 35.7185 27.4577C35.448 27.455 35.1807 27.5164 34.9386 27.637C34.4649 27.8931 34.0647 28.2661 33.7759 28.7205C33.2145 29.5871 32.7338 30.5033 32.3398 31.4577C31.6543 33.0942 31.1289 34.7931 30.7707 36.5307C30.4525 38.0759 30.2518 39.4071 30.1017 40.5001C29.9516 41.5931 29.8575 42.4399 29.7913 43.0337C29.7405 43.2486 29.7124 43.4682 29.7074 43.689L29.6496 43.9813Z" fill="#263238"/>
<path d="M34.2708 46.9145L20.5321 47.2247C20.2578 47.2282 19.993 47.1242 19.7945 46.9348C19.596 46.7455 19.4796 46.4859 19.4702 46.2117C19.465 45.9386 19.5684 45.6746 19.7577 45.4776C19.947 45.2807 20.2067 45.1669 20.4798 45.1613L34.2185 44.8512C34.3536 44.847 34.4882 44.8696 34.6144 44.9177C34.7407 44.9659 34.8561 45.0386 34.9541 45.1317C35.052 45.2249 35.1305 45.3365 35.1849 45.4602C35.2394 45.5838 35.2688 45.7171 35.2714 45.8522C35.2758 45.9882 35.2534 46.1237 35.2052 46.2509C35.1571 46.3781 35.0842 46.4945 34.9908 46.5935C34.8975 46.6924 34.7855 46.7719 34.6612 46.8274C34.537 46.8828 34.4031 46.9132 34.2671 46.9166L34.2708 46.9145Z" fill="#263238"/>
<path d="M34.2954 47.8121L20.5567 48.1222C20.2825 48.1316 20.023 48.248 19.8336 48.4465C19.6443 48.645 19.5402 48.9098 19.5438 49.1841C19.5463 49.3192 19.5757 49.4525 19.6302 49.5762C19.6847 49.6998 19.7632 49.8115 19.8611 49.9046C19.959 49.9977 20.0745 50.0704 20.2007 50.1186C20.327 50.1668 20.4616 50.1894 20.5967 50.1851L22.1075 50.1585L24.1984 53.9175C24.3141 54.1287 24.4855 54.3041 24.694 54.4246C24.9025 54.5451 25.1401 54.6061 25.3808 54.6009L30.2953 54.4881C30.5406 54.4853 30.7803 54.4139 30.9872 54.2821C31.1941 54.1502 31.3601 53.9632 31.4663 53.742L33.3242 49.9003L34.3538 49.8834C34.6276 49.8756 34.8872 49.7593 35.0753 49.5601C35.2634 49.3609 35.3647 49.0951 35.3569 48.8213C35.3491 48.5474 35.2327 48.2878 35.0335 48.0997C34.8344 47.9116 34.5686 47.8103 34.2947 47.8181L34.2954 47.8121Z" fill="#263238"/>
<g opacity="0.2">
<path d="M14.743 11.6124C15.7962 10.5878 17.0087 9.74099 18.3332 9.10485C19.2142 8.67351 20.1544 8.3755 21.1231 8.22058C21.8182 8.13279 22.2115 8.19771 22.2461 8.34183C22.3358 8.66403 20.9626 9.18992 19.1245 10.4813C16.7259 12.0789 14.837 14.3321 13.6828 16.9727C12.5285 19.6134 12.1574 22.5301 12.6138 25.3757C12.9326 27.6018 13.4975 28.9695 13.166 29.1241C13.0327 29.1899 12.7152 28.9948 12.3163 28.3832C11.769 27.566 11.3481 26.6709 11.0678 25.7282C10.6285 24.3227 10.4253 22.854 10.4664 21.3821C10.506 19.5551 10.8991 17.7531 11.6239 16.0756" fill="#FAE889"/>
</g>
<g opacity="0.2">
<path d="M26.6656 9.01952C25.5145 9.04315 24.484 8.74766 24.3449 8.13353C24.2883 7.83018 24.5224 7.51448 24.9064 7.24177C25.4284 6.93588 26.0229 6.77582 26.6279 6.77831C27.2307 6.75661 27.8285 6.89501 28.3604 7.17942C28.7782 7.42404 29.002 7.74623 28.9513 8.0573" fill="#FAE889"/>
</g>
<path d="M31.2093 54.0679L30.2624 53.7963C29.4999 53.5939 28.7112 53.5081 27.923 53.5416C27.1365 53.5873 26.3611 53.7488 25.6218 54.0209C25.3228 54.1613 25.016 54.2841 24.7027 54.3888C24.9578 54.1688 25.2503 53.9965 25.5664 53.8802C26.3079 53.5524 27.1027 53.3619 27.9122 53.318C28.724 53.279 29.5362 53.3854 30.3105 53.6322C30.6328 53.7247 30.9374 53.8704 31.2116 54.0633L31.2093 54.0679Z" fill="#455A64"/>
<path d="M33.3488 49.9429C33.3311 50.0044 30.8602 50.1104 27.8051 50.1821C24.75 50.2538 22.2511 50.254 22.2487 50.1972C22.2463 50.1403 24.7286 50.0271 27.7921 49.9589C30.8556 49.8907 33.3466 49.8851 33.3488 49.9429Z" fill="#455A64"/>
<path d="M32.5225 51.592C32.0786 51.6888 31.6268 51.7452 31.1728 51.7604C30.3384 51.8333 29.2138 51.9165 27.9012 51.9521C26.5885 51.9877 25.4605 52.0179 24.6312 51.9715C24.1777 51.986 23.7238 51.9603 23.2748 51.8947C23.7237 51.8282 24.1773 51.7982 24.631 51.805L27.8995 51.6895L31.1705 51.5653C31.6212 51.5434 32.0729 51.5523 32.5225 51.592Z" fill="#455A64"/>
</svg>
