<svg width="57" height="57" viewBox="0 0 57 57" fill="none" xmlns="http://www.w3.org/2000/svg">
<g clip-path="url(#clip0_9041_85883)">
<path d="M9.375 16.4062H21.0938V9.375C21.0938 6.79688 23.2031 4.6875 25.7812 4.6875H30.4688C33.0469 4.6875 35.1562 6.79688 35.1562 9.375V16.4062H46.875C49.4531 16.4062 51.5625 18.5156 51.5625 21.0938V46.875C51.5625 49.4531 49.4531 51.5625 46.875 51.5625H9.375C6.79688 51.5625 4.6875 49.4531 4.6875 46.875V21.0938C4.6875 18.5156 6.79688 16.4062 9.375 16.4062ZM35.1562 28.125C33.2109 28.125 31.6406 29.6953 31.6406 31.6406C31.6406 33.5859 33.2109 35.1562 35.1562 35.1562C37.1016 35.1562 38.6719 33.5859 38.6719 31.6406C38.6719 29.6953 37.1016 28.125 35.1562 28.125ZM28.125 42.1875H42.1875V41.1797C42.1875 39.7734 41.3438 38.4844 40.0312 37.9219C38.5312 37.2656 36.8906 36.9141 35.1562 36.9141C33.4219 36.9141 31.7812 37.2656 30.2812 37.9219C28.9922 38.4844 28.125 39.75 28.125 41.1797V42.1875ZM25.7812 21.0938H30.4688V9.375H25.7812V21.0938ZM15.8203 38.6719H21.6797C22.6406 38.6719 23.4375 37.875 23.4375 36.9141C23.4375 35.9531 22.6406 35.1562 21.6797 35.1562H15.8203C14.8594 35.1562 14.0625 35.9531 14.0625 36.9141C14.0625 37.875 14.8594 38.6719 15.8203 38.6719ZM15.8203 31.6406H21.6797C22.6406 31.6406 23.4375 30.8438 23.4375 29.8828C23.4375 28.9219 22.6406 28.125 21.6797 28.125H15.8203C14.8594 28.125 14.0625 28.9219 14.0625 29.8828C14.0625 30.8438 14.8594 31.6406 15.8203 31.6406Z" fill="#2766C5"/>
</g>
<defs>
<clipPath id="clip0_9041_85883">
<rect width="56.25" height="56.25" fill="white" transform="matrix(-1 0 0 1 56.25 0)"/>
</clipPath>
</defs>
</svg>
