<svg width="27" height="27" viewBox="0 0 27 27" fill="none" xmlns="http://www.w3.org/2000/svg">
<path d="M6.40743 4.39524C5.74264 3.54184 5.89017 2.29682 6.83072 1.7624C8.80298 0.641771 11.0358 0.0308004 13.3251 0.00113349C16.2705 -0.0370374 19.1476 0.889213 21.5175 2.63862C23.8874 4.38802 25.6201 6.86456 26.4514 9.69052C27.2826 12.5165 27.1667 15.5368 26.1214 18.2907C25.076 21.0447 23.1587 23.3812 20.6616 24.9438C18.1646 26.5065 15.225 27.2095 12.2912 26.9458C9.35734 26.682 6.59028 25.4659 4.41203 23.4829C2.71906 21.9417 1.45398 20.003 0.722048 17.856C0.372999 16.8321 1.08876 15.8027 2.15238 15.6054C3.216 15.408 4.22006 16.1228 4.62921 17.1242C5.16529 18.4363 5.98904 19.621 7.04918 20.5861C8.59535 21.9936 10.5595 22.8568 12.642 23.0441C14.7245 23.2313 16.811 22.7322 18.5835 21.623C20.3559 20.5138 21.7169 18.8554 22.4589 16.9005C23.2009 14.9457 23.2831 12.8019 22.6931 10.796C22.1031 8.79003 20.8732 7.03214 19.191 5.79038C17.5088 4.54862 15.4665 3.89115 13.3758 3.91824C11.9423 3.93682 10.5399 4.27653 9.26823 4.90245C8.29766 5.38016 7.07222 5.24863 6.40743 4.39524Z" fill="url(#paint0_angular_8802_103281)"/>
<defs>
<radialGradient id="paint0_angular_8802_103281" cx="0" cy="0" r="1" gradientUnits="userSpaceOnUse" gradientTransform="translate(13.5 13.5) rotate(139.899) scale(12.4197)">
<stop offset="0.0733802" stop-color="white"/>
<stop offset="0.239583" stop-color="#F6F6F6" stop-opacity="0"/>
</radialGradient>
</defs>
</svg>