<svg width="30" height="24" viewBox="0 0 30 24" fill="none" xmlns="http://www.w3.org/2000/svg">
<path d="M25.512 0.583008H3.71198C2.74956 0.585125 1.82724 0.968722 1.14717 1.64973C0.467108 2.33073 0.0847761 3.25359 0.0839844 4.21601V19.783C0.0847788 20.7463 0.467794 21.6699 1.14894 22.3511C1.83009 23.0322 2.7537 23.4152 3.71698 23.416H25.517C26.4793 23.4136 27.4015 23.0299 28.0815 22.349C28.7615 21.668 29.1439 20.7453 29.145 19.783V4.21601C29.1439 3.2528 28.7608 2.32935 28.0797 1.64826C27.3986 0.967172 26.4752 0.584067 25.512 0.583008ZM24.592 6.59201L15.251 13.857C15.0688 13.9986 14.8447 14.0754 14.614 14.0754C14.3833 14.0754 14.1591 13.9986 13.977 13.857L4.63598 6.59201C4.52693 6.50887 4.43543 6.40494 4.36677 6.28624C4.29811 6.16753 4.25366 6.0364 4.23597 5.90041C4.21828 5.76443 4.22772 5.62628 4.26373 5.49397C4.29973 5.36165 4.3616 5.23778 4.44576 5.12951C4.52992 5.02124 4.6347 4.93072 4.75404 4.86317C4.87339 4.79563 5.00493 4.7524 5.14108 4.73599C5.27722 4.71958 5.41527 4.73031 5.54725 4.76756C5.67922 4.80481 5.80251 4.86784 5.90998 4.95301L14.61 11.723L23.31 4.95301C23.4175 4.86784 23.5407 4.80481 23.6727 4.76756C23.8047 4.73031 23.9427 4.71958 24.0789 4.73599C24.215 4.7524 24.3466 4.79563 24.4659 4.86317C24.5853 4.93072 24.69 5.02124 24.7742 5.12951C24.8584 5.23778 24.9202 5.36165 24.9562 5.49397C24.9923 5.62628 25.0017 5.76443 24.984 5.90041C24.9663 6.0364 24.9219 6.16753 24.8532 6.28624C24.7845 6.40494 24.693 6.50887 24.584 6.59201H24.592Z" fill="#178CF9"/>
</svg>
