<svg width="20" height="19" viewBox="0 0 20 19" fill="none" xmlns="http://www.w3.org/2000/svg">
<path d="M15 0C12.24 0 10 2.24 10 5C10 7.76 12.24 10 15 10C17.76 10 20 7.76 20 5C20 2.24 17.76 0 15 0ZM15.5 6H14.5V2H15.5V6ZM15.5 7V8H14.5V7H15.5ZM14.91 12C14.97 12.16 15 12.33 15 12.5C15 13.33 14.33 14 13.5 14C12.67 14 12 13.33 12 12.5C12 12.11 12.15 11.76 12.39 11.49C10.76 10.83 9.43 9.58 8.68 8H2.81L3.85 5H8C8 4.31 8.1 3.63 8.29 3H3.5C2.84 3 2.29 3.42 2.08 4.01L0 10V18C0 18.55 0.45 19 1 19H2C2.55 19 3 18.55 3 18V17H15V18C15 18.55 15.45 19 16 19H17C17.55 19 18 18.55 18 18V11.32C16.95 11.83 15.84 12.01 14.91 12ZM4.5 14C3.67 14 3 13.33 3 12.5C3 11.67 3.67 11 4.5 11C5.33 11 6 11.67 6 12.5C6 13.33 5.33 14 4.5 14Z" fill="#2766C5"/>
</svg>
