<svg width="71" height="70" viewBox="0 0 71 70" fill="none" xmlns="http://www.w3.org/2000/svg">
<g filter="url(#filter0_d_33_2)">
<path d="M50.8418 7H20.8418C15.3189 7 10.8418 11.4772 10.8418 17V47C10.8418 52.5228 15.3189 57 20.8418 57H50.8418C56.3646 57 60.8418 52.5228 60.8418 47V17C60.8418 11.4772 56.3646 7 50.8418 7Z" fill="white"/>
</g>
<path d="M44.5449 22.697H26.5449C25.7493 22.697 24.9862 23.0131 24.4236 23.5757C23.861 24.1383 23.5449 24.9014 23.5449 25.697V38.571C23.5449 39.3667 23.861 40.1297 24.4236 40.6923C24.9862 41.255 25.7493 41.571 26.5449 41.571H44.5449C45.3406 41.571 46.1036 41.255 46.6662 40.6923C47.2288 40.1297 47.5449 39.3667 47.5449 38.571V25.697C47.5449 24.9014 47.2288 24.1383 46.6662 23.5757C46.1036 23.0131 45.3406 22.697 44.5449 22.697ZM43.7849 27.665L36.0709 33.671C35.9206 33.7881 35.7355 33.8517 35.5449 33.8517C35.3544 33.8517 35.1693 33.7881 35.0189 33.671L27.3049 27.665C27.1317 27.5233 27.0208 27.3196 26.9957 27.0972C26.9706 26.8749 27.0333 26.6515 27.1705 26.4748C27.3078 26.2981 27.5086 26.1819 27.7302 26.1511C27.9518 26.1204 28.1767 26.1774 28.3569 26.31L35.5449 31.907L42.7329 26.307C42.9131 26.1744 43.138 26.1174 43.3596 26.1481C43.5813 26.1789 43.7821 26.2951 43.9193 26.4718C44.0565 26.6486 44.1193 26.8719 44.0942 27.0942C44.0691 27.3166 43.9581 27.5203 43.7849 27.662V27.665Z" fill="#2C99AF"/>
<defs>
<filter id="filter0_d_33_2" x="0.841797" y="0" width="70" height="70" filterUnits="userSpaceOnUse" color-interpolation-filters="sRGB">
<feFlood flood-opacity="0" result="BackgroundImageFix"/>
<feColorMatrix in="SourceAlpha" type="matrix" values="0 0 0 0 0 0 0 0 0 0 0 0 0 0 0 0 0 0 127 0" result="hardAlpha"/>
<feOffset dy="3"/>
<feGaussianBlur stdDeviation="5"/>
<feColorMatrix type="matrix" values="0 0 0 0 0 0 0 0 0 0 0 0 0 0 0 0 0 0 0.059 0"/>
<feBlend mode="normal" in2="BackgroundImageFix" result="effect1_dropShadow_33_2"/>
<feBlend mode="normal" in="SourceGraphic" in2="effect1_dropShadow_33_2" result="shape"/>
</filter>
</defs>
</svg>
