<svg width="23" height="24" viewBox="0 0 23 24" fill="none" xmlns="http://www.w3.org/2000/svg">
<path d="M0 2.85714C0 1.27919 1.27867 0 2.856 0H15.4224C16.9997 0 18.2784 1.27919 18.2784 2.85714C18.2784 4.4351 16.9997 5.71429 15.4224 5.71429H2.856C1.27867 5.71429 0 4.4351 0 2.85714Z" fill="#BB133E"/>
<path d="M0 12C0 10.422 1.27867 9.14286 2.856 9.14286H10.8528C12.4301 9.14286 13.7088 10.422 13.7088 12C13.7088 13.578 12.4301 14.8571 10.8528 14.8571H2.856C1.27867 14.8571 0 13.578 0 12Z" fill="#BB133E"/>
<path d="M0 21.1429C0 19.5649 1.27867 18.2857 2.856 18.2857H19.992C21.5693 18.2857 22.848 19.5649 22.848 21.1429C22.848 22.7208 21.5693 24 19.992 24H2.856C1.27867 24 0 22.7208 0 21.1429Z" fill="#BB133E"/>
</svg>
