<svg width="18" height="24" viewBox="0 0 18 24" fill="none" xmlns="http://www.w3.org/2000/svg">
<path d="M9 3.89688L12.025 0.871875C12.1583 0.738542 12.3333 0.671875 12.55 0.671875C12.7667 0.671875 12.9417 0.738542 13.075 0.871875C13.2083 1.00521 13.275 1.18021 13.275 1.39687C13.275 1.61354 13.2083 1.78854 13.075 1.92188L9.625 5.34687C9.45833 5.53021 9.25 5.62187 9 5.62187C8.75 5.62187 8.53333 5.53021 8.35 5.34687L7.05 4.07187C6.9 3.92187 6.825 3.74254 6.825 3.53387C6.825 3.32588 6.9 3.14688 7.05 2.99688C7.2 2.84687 7.375 2.77188 7.575 2.77188C7.775 2.77188 7.95 2.84687 8.1 2.99688L9 3.89688ZM2.625 21.4969V22.7469C2.625 22.9635 2.55 23.1429 2.4 23.2849C2.25 23.4262 2.075 23.4969 1.875 23.4969H1.25C1.03333 23.4969 0.854333 23.4262 0.713 23.2849C0.571 23.1429 0.5 22.9635 0.5 22.7469V15.0719L2.55 9.24687C2.61667 9.01354 2.75 8.83021 2.95 8.69687C3.15 8.56354 3.375 8.49687 3.625 8.49687H14.425C14.6583 8.49687 14.8707 8.56754 15.062 8.70887C15.254 8.85087 15.3833 9.03021 15.45 9.24687L17.5 15.0719V22.7469C17.5 22.9635 17.4293 23.1429 17.288 23.2849C17.146 23.4262 16.9667 23.4969 16.75 23.4969H16.125C15.925 23.4969 15.75 23.4262 15.6 23.2849C15.45 23.1429 15.375 22.9635 15.375 22.7469V21.4969H2.625ZM2.6 13.5719H15.4L14.125 9.99687H3.875L2.6 13.5719ZM4.475 18.8469C4.825 18.8469 5.129 18.7175 5.387 18.4589C5.64567 18.2009 5.775 17.8885 5.775 17.5219C5.775 17.1719 5.64567 16.8679 5.387 16.6099C5.129 16.3512 4.81667 16.2219 4.45 16.2219C4.1 16.2219 3.796 16.3512 3.538 16.6099C3.27933 16.8679 3.15 17.1802 3.15 17.5469C3.15 17.8969 3.27933 18.2009 3.538 18.4589C3.796 18.7175 4.10833 18.8469 4.475 18.8469ZM13.55 18.8469C13.9 18.8469 14.204 18.7175 14.462 18.4589C14.7207 18.2009 14.85 17.8885 14.85 17.5219C14.85 17.1719 14.7207 16.8679 14.462 16.6099C14.204 16.3512 13.8917 16.2219 13.525 16.2219C13.175 16.2219 12.871 16.3512 12.613 16.6099C12.3543 16.8679 12.225 17.1802 12.225 17.5469C12.225 17.8969 12.3543 18.2009 12.613 18.4589C12.871 18.7175 13.1833 18.8469 13.55 18.8469Z" fill="#4C4C4C" fill-opacity="0.8"/>
</svg>
