<svg width="16" height="16" viewBox="0 0 12 12" xmlns="http://www.w3.org/2000/svg">
<path d="M11.25 0.287083C11.1742 0.287083 11.0983 0.31625 11.0458 0.374583L10.585 0.835417C10.4683 0.952083 10.2875 0.952083 10.1708 0.835417L9.71 0.374583C9.59333 0.257917 9.4125 0.257917 9.29583 0.374583L8.835 0.835417C8.71833 0.952083 8.5375 0.952083 8.42083 0.835417L7.96 0.374583C7.84333 0.257917 7.6625 0.257917 7.54583 0.374583L7.085 0.835417C6.96833 0.952083 6.7875 0.952083 6.67083 0.835417L6.21 0.374583C6.09333 0.257917 5.9125 0.257917 5.79583 0.374583L5.335 0.835417C5.21833 0.952083 5.0375 0.952083 4.92083 0.835417L4.45417 0.36875C4.3375 0.252083 4.15667 0.252083 4.04 0.36875L3.57917 0.835417C3.4625 0.952083 3.28167 0.952083 3.165 0.835417L2.70417 0.36875C2.5875 0.252083 2.40667 0.252083 2.29 0.36875L1.82917 0.835417C1.7125 0.952083 1.53167 0.952083 1.415 0.835417L0.954167 0.36875C0.901667 0.31625 0.825833 0.287083 0.75 0.287083V11.7146C0.825833 11.7146 0.901667 11.6854 0.954167 11.6271L1.415 11.1662C1.53167 11.0496 1.7125 11.0496 1.82917 11.1662L2.29 11.6271C2.40667 11.7437 2.5875 11.7437 2.70417 11.6271L3.165 11.1662C3.28167 11.0496 3.4625 11.0496 3.57917 11.1662L4.04 11.6271C4.15667 11.7437 4.3375 11.7437 4.45417 11.6271L4.915 11.1662C5.03167 11.0496 5.2125 11.0496 5.32917 11.1662L5.79 11.6271C5.90667 11.7437 6.0875 11.7437 6.20417 11.6271L6.665 11.1662C6.78167 11.0496 6.9625 11.0496 7.07917 11.1662L7.54 11.6271C7.65667 11.7437 7.8375 11.7437 7.95417 11.6271L8.415 11.1662C8.53167 11.0496 8.7125 11.0496 8.82917 11.1662L9.29 11.6271C9.40667 11.7437 9.5875 11.7437 9.70417 11.6271L10.165 11.1662C10.2817 11.0496 10.4625 11.0496 10.5792 11.1662L11.04 11.6271C11.0983 11.6854 11.1742 11.7146 11.2442 11.7146V0.287083H11.25ZM8.91667 8.91458H3.08333C2.7625 8.91458 2.5 8.65208 2.5 8.33125C2.5 8.01042 2.7625 7.74792 3.08333 7.74792H8.91667C9.2375 7.74792 9.5 8.01042 9.5 8.33125C9.5 8.65208 9.2375 8.91458 8.91667 8.91458ZM8.91667 6.58125H3.08333C2.7625 6.58125 2.5 6.31875 2.5 5.99792C2.5 5.67708 2.7625 5.41458 3.08333 5.41458H8.91667C9.2375 5.41458 9.5 5.67708 9.5 5.99792C9.5 6.31875 9.2375 6.58125 8.91667 6.58125ZM8.91667 4.24792H3.08333C2.7625 4.24792 2.5 3.98542 2.5 3.66458C2.5 3.34375 2.7625 3.08125 3.08333 3.08125H8.91667C9.2375 3.08125 9.5 3.34375 9.5 3.66458C9.5 3.98542 9.2375 4.24792 8.91667 4.24792Z"/>
</svg>