<svg width="92" height="32" viewBox="0 0 92 32" fill="none" xmlns="http://www.w3.org/2000/svg">
<g clip-path="url(#clip0_13331_108938)">
<mask id="mask0_13331_108938" style="mask-type:luminance" maskUnits="userSpaceOnUse" x="0" y="0" width="92" height="32">
<path d="M91.9367 0H0V32H91.9367V0Z" fill="white"/>
</mask>
<g mask="url(#mask0_13331_108938)">
<path d="M12.816 0L13.8938 1.41192L16.5991 4.96868C17.3859 5.98181 18.1512 7.00572 18.938 8.02964C18.9561 8.04481 18.9706 8.06378 18.9806 8.08519C18.9906 8.10661 18.9958 8.12995 18.9958 8.15359C18.9958 8.17722 18.9906 8.20057 18.9806 8.22198C18.9706 8.24339 18.9561 8.26236 18.938 8.27753L16.2111 11.705L13.5058 15.1216L12.913 15.8976C12.8879 15.9369 12.8525 15.9687 12.8108 15.9896C12.7691 16.0104 12.7225 16.0196 12.6759 16.0162H0.0117188L0.130261 15.9192L0.701496 15.1647L3.43913 11.7157L5.3145 9.36611L6.24142 8.19131C6.20821 8.15524 6.17929 8.11546 6.15521 8.07275L3.79482 4.97945C2.94336 3.84776 2.08111 2.72684 1.22964 1.60593L0.151839 0.150892L0.0548401 0.0646656C0.0978133 0.0597692 0.141198 0.0597692 0.184171 0.0646656H12.8699L12.816 0Z" fill="#202D60"/>
<path d="M0 23.6573C0 23.4309 0.075441 23.1938 0.129331 22.9675C0.333839 22.0078 0.831682 21.1354 1.55388 20.4711C2.27608 19.8069 3.18694 19.3836 4.16034 19.2598C5.13165 19.1442 6.11493 19.3317 6.9755 19.7967C7.83606 20.2617 8.5318 20.9815 8.96734 21.8573C9.50888 22.9043 9.63218 24.118 9.31224 25.2524C9.10011 26.1054 8.65191 26.8814 8.01903 27.4914C7.38615 28.1014 6.59418 28.5208 5.73392 28.7014C5.18954 28.8518 4.61772 28.8739 4.06334 28.7661C3.19298 28.6295 2.37719 28.2554 1.70588 27.6849C1.03456 27.1144 0.533783 26.3696 0.258695 25.5326C0.168771 25.207 0.10036 24.8757 0.0539099 24.5411C0.0589009 24.4945 0.0589009 24.4475 0.0539099 24.401L0 23.6573Z" fill="#BB1F41"/>
<path d="M31.6868 16.0273L25.4787 23.8522L31.6868 32.0004H19.055C19.0069 32.0036 18.9589 31.9944 18.9155 31.9736C18.8721 31.9528 18.8347 31.9212 18.8071 31.8818C18.0418 30.8687 17.2658 29.8663 16.4898 28.864C15.7138 27.8616 14.7761 26.6114 13.9246 25.4797C13.5366 24.9839 13.1594 24.4773 12.7714 23.9708C12.7067 23.8845 12.6959 23.8306 12.7714 23.7444L14.0108 22.2032L16.77 18.7219L18.8179 16.1351C18.8705 16.0752 18.9434 16.0368 19.0226 16.0273H31.6868Z" fill="#202D60"/>
<path d="M22.2032 7.98561C22.2003 7.35961 22.3212 6.73921 22.5588 6.16005C22.7964 5.58088 23.146 5.05436 23.5877 4.6107C24.0293 4.16705 24.5543 3.81501 25.1324 3.5748C25.7105 3.33458 26.3303 3.21093 26.9563 3.21094C27.5841 3.21232 28.2055 3.33808 28.7844 3.58094C29.3634 3.82381 29.8885 4.17897 30.3295 4.62592C30.7704 5.07287 31.1184 5.60274 31.3534 6.18494C31.5884 6.76715 31.7057 7.39014 31.6986 8.01794C31.6958 9.28539 31.1926 10.5004 30.2984 11.3987C29.4041 12.2969 28.1914 12.8056 26.924 12.8142C25.6603 12.7915 24.4565 12.2721 23.5729 11.3684C22.6894 10.4647 22.1973 9.24943 22.2032 7.98561Z" fill="#BB1F41"/>
<path d="M56.1314 9.21676L60.2594 15.3387C60.9097 16.2966 61.2826 17.4156 61.3372 18.5721C61.4031 19.532 61.107 20.4819 60.5073 21.2343C60.0683 21.7723 59.5059 22.1963 58.8679 22.4703C58.2299 22.7442 57.5351 22.8601 56.8427 22.8079H51.1735C48.3496 22.8079 46.4311 22.8079 45.4288 22.6785C44.5258 22.6177 43.64 22.4026 42.8097 22.0426C42.2535 21.8146 41.7492 21.4765 41.3269 21.0486C40.9046 20.6208 40.5731 20.112 40.3523 19.5529C39.8949 18.3142 39.8496 16.9609 40.223 15.6944L41.2146 11.8574L44.448 12.8274L43.4349 16.7937C43.3134 17.1759 43.3134 17.5863 43.4349 17.9685C43.6032 18.2786 43.8793 18.5163 44.2109 18.6368C44.8286 18.8345 45.4704 18.9469 46.1186 18.9709C47.0131 19.0463 48.7807 19.0787 51.4321 19.0787H56.9936C57.2516 19.1016 57.5097 19.0371 57.7265 18.8954C57.8295 18.8205 57.915 18.7242 57.9773 18.6131C58.0395 18.5021 58.0771 18.3789 58.0873 18.252C58.0976 18.125 58.0803 17.9974 58.0366 17.8778C57.9929 17.7582 57.9239 17.6494 57.8343 17.559L52.0788 9.36765L52.8117 6.55458L62.2748 3.0625L63.4496 6.53303L56.1314 9.21676Z" fill="#202D60"/>
<path d="M68.2474 17.6967C68.3336 18.6236 68.9049 19.087 69.9719 19.087C70.7838 19.0913 71.5948 19.03 72.3969 18.9038L72.3215 18.0631C72.289 17.304 72.03 16.572 71.5778 15.9614C71.3974 15.732 71.1637 15.5502 70.8969 15.4318C70.6301 15.3135 70.3385 15.2622 70.0473 15.2824C69.7747 15.281 69.506 15.3472 69.2652 15.4751C69.0245 15.603 68.8192 15.7886 68.6677 16.0153C68.329 16.5065 68.1797 17.1038 68.2474 17.6967ZM76.0291 21.8462C76.1433 22.7113 76.1105 23.5895 75.9321 24.4437C75.7772 25.1131 75.4875 25.7439 75.0807 26.2976C74.5963 26.8814 73.9841 27.3461 73.2915 27.6556C72.4403 28.0731 71.5529 28.4122 70.6401 28.6687C69.6701 28.9489 68.4306 29.24 66.9109 29.531L66.2642 25.9095L68.6893 25.3922C69.2497 25.2629 69.7671 25.1227 70.403 24.9503C70.8244 24.8429 71.2356 24.6987 71.6317 24.5192C71.8808 24.392 72.1096 24.2286 72.3107 24.0342C72.5009 23.8708 72.6426 23.6582 72.7203 23.4198C72.756 23.1479 72.756 22.8726 72.7203 22.6007C71.7973 22.7497 70.8636 22.8218 69.9288 22.8162C69.294 22.8329 68.6623 22.7233 68.0703 22.4939C67.4782 22.2644 66.9376 21.9197 66.4798 21.4798C65.5402 20.5512 64.9794 19.3066 64.9062 17.9877C64.75 16.4213 65.1843 14.8531 66.1241 13.5902C66.5382 12.9853 67.0883 12.4859 67.7304 12.1322C68.3724 11.7784 69.0884 11.5801 69.821 11.5532C70.5429 11.5059 71.2662 11.623 71.9364 11.8955C72.6066 12.1681 73.2062 12.5891 73.6903 13.1268C74.7925 14.3504 75.4594 15.9039 75.5872 17.5458L76.0291 21.8462Z" fill="#202D60"/>
<path d="M87.8096 10.402L85.4061 7.98775L87.8096 5.54114L90.2347 7.98775L87.8096 10.402ZM84.4145 22.8183V19.0891H86.4732C87.1501 19.1655 87.831 18.9847 88.3809 18.5826C88.7186 18.2377 88.7617 17.6125 88.5102 16.7072L87.4324 12.7948L90.6658 11.8463L91.7436 15.7587C92.047 16.6001 92.1418 17.5025 92.0198 18.3886C91.8977 19.2747 91.5626 20.1179 91.043 20.846C90.5003 21.5117 89.8063 22.038 89.0189 22.3811C88.2314 22.7242 87.3734 22.8741 86.5163 22.8183H84.4145ZM84.4145 22.8183C83.698 22.8916 82.9741 22.8101 82.2917 22.5796C81.6093 22.349 80.9843 21.9747 80.459 21.4819C79.5321 20.1239 79.0741 18.5003 79.1549 16.8581L78.6914 4.78667L81.9787 4.625L82.4529 16.8581C82.3812 17.5047 82.4933 18.1584 82.7763 18.7442C82.9811 18.9814 83.52 19.0891 84.4145 19.0891H84.6732V22.8183H84.4145Z" fill="#202D60"/>
<path d="M73.9797 3.92188C72.1905 4.61167 69.7655 5.42002 67.4482 6.20682L67.168 7.30618C69.1727 6.6595 71.2421 5.94815 73.2791 5.15057L73.9797 3.92188Z" fill="#BB1F41"/>
</g>
</g>
<defs>
<clipPath id="clip0_13331_108938">
<rect width="91.9367" height="32" fill="white"/>
</clipPath>
</defs>
</svg>
