<svg width="19" height="17" viewBox="0 0 19 17" fill="none" xmlns="http://www.w3.org/2000/svg">
<path d="M6.19568 0.179688L5.11788 1.59015L2.41261 5.14322C1.62582 6.15531 0.860561 7.17816 0.0737648 8.20101C0.055645 8.21617 0.041069 8.23511 0.0310707 8.25651C0.0210724 8.2779 0.0159073 8.30122 0.0159073 8.32483C0.0159073 8.34844 0.0210724 8.37176 0.0310707 8.39315C0.041069 8.41455 0.055645 8.43349 0.0737648 8.44865L2.80061 11.8725L5.50591 15.2856L6.09869 16.0608C6.12384 16.1001 6.15917 16.1319 6.20091 16.1527C6.24266 16.1736 6.28926 16.1827 6.3358 16.1793H19L18.8815 16.0824L18.3102 15.3287L15.5726 11.8833L13.6972 9.5361L12.7703 8.36251C12.8035 8.32649 12.8324 8.28675 12.8565 8.24408L15.2169 5.15398C16.0684 4.02346 16.9306 2.90371 17.7821 1.78395L18.8599 0.330423L18.9569 0.244286C18.9139 0.239395 18.8705 0.239395 18.8275 0.244286H6.14181L6.19568 0.179688Z" fill="#BB1F41"/>
</svg>
