<svg width="35" height="16" viewBox="0 0 35 16" fill="none" xmlns="http://www.w3.org/2000/svg">
<path d="M6.18006 0L5.10225 1.41046L2.39699 4.96353C1.61019 5.97562 0.844936 6.99847 0.0581398 8.02132C0.04002 8.03648 0.025444 8.05543 0.0154457 8.07682C0.00544739 8.09821 0.000282288 8.12153 0.000282288 8.14514C0.000282288 8.16875 0.00544739 8.19207 0.0154457 8.21347C0.025444 8.23486 0.04002 8.25381 0.0581398 8.26896L2.78498 11.6928L5.49028 15.1059L6.08306 15.8811C6.10821 15.9204 6.14354 15.9522 6.18529 15.973C6.22703 15.9939 6.27364 16.003 6.32018 15.9996H18.9844L18.8658 15.9027L18.2946 15.149L15.557 11.7036L13.6816 9.35642L12.7547 8.18283C12.7879 8.1468 12.8168 8.10706 12.8409 8.06439L15.2013 4.9743C16.0527 3.84377 16.915 2.72402 17.7665 1.60426L18.8443 0.150736L18.9413 0.0645986C18.8983 0.0597074 18.8549 0.0597074 18.8119 0.0645986H6.12618L6.18006 0Z" fill="#BB1F41"/>
<path d="M22.1801 0L21.1023 1.41046L18.397 4.96353C17.6102 5.97562 16.8449 6.99847 16.0581 8.02132C16.04 8.03648 16.0254 8.05543 16.0154 8.07682C16.0054 8.09821 16.0003 8.12153 16.0003 8.14514C16.0003 8.16875 16.0054 8.19207 16.0154 8.21347C16.0254 8.23486 16.04 8.25381 16.0581 8.26896L18.785 11.6928L21.4903 15.1059L22.0831 15.8811C22.1082 15.9204 22.1435 15.9522 22.1853 15.973C22.227 15.9939 22.2736 16.003 22.3202 15.9996H34.9844L34.8658 15.9027L34.2946 15.149L31.557 11.7036L29.6816 9.35642L28.7547 8.18283C28.7879 8.1468 28.8168 8.10706 28.8409 8.06439L31.2013 4.9743C32.0527 3.84377 32.915 2.72402 33.7665 1.60426L34.8443 0.150736L34.9413 0.0645986C34.8983 0.0597074 34.8549 0.0597074 34.8119 0.0645986H22.1262L22.1801 0Z" fill="#202D60"/>
</svg>
