<svg width="24" height="26" viewBox="0 0 24 26" fill="none" xmlns="http://www.w3.org/2000/svg">
<path d="M16.1162 2.719C15.582 2.1663 14.9422 1.72656 14.2348 1.4259C13.5274 1.12524 12.7667 0.969781 11.9981 0.968755C11.2294 0.967729 10.4683 1.12116 9.76011 1.41993C9.05188 1.7187 8.4109 2.15672 7.87523 2.708C7.34791 3.29198 6.94756 3.97908 6.69952 4.72579C6.45148 5.4725 6.36114 6.26257 6.43422 7.046C6.67222 10.329 9.17023 12.999 12.0022 12.999C14.8342 12.999 17.3272 10.329 17.5702 7.047C17.6416 6.26418 17.5494 5.47508 17.2994 4.72982C17.0495 3.98456 16.6472 3.29944 16.1182 2.718L16.1162 2.719ZM21.4522 25.029H2.55222C2.30455 25.032 2.05933 24.9797 1.83444 24.8759C1.60955 24.7721 1.41064 24.6194 1.25223 24.429C1.07738 24.2126 0.952194 23.9605 0.885496 23.6904C0.818797 23.4203 0.81222 23.1389 0.866228 22.866C1.09136 21.621 1.57085 20.4358 2.27476 19.3845C2.97866 18.3332 3.89185 17.4384 4.95723 16.756C7.06565 15.4227 9.50909 14.7149 12.0037 14.7149C14.4984 14.7149 16.9418 15.4227 19.0502 16.756C20.1149 17.4391 21.0272 18.3346 21.7299 19.3865C22.4326 20.4383 22.9107 21.6239 23.1342 22.869C23.1882 23.1419 23.1817 23.4233 23.115 23.6934C23.0483 23.9635 22.9231 24.2156 22.7482 24.432C22.5899 24.6213 22.3916 24.7731 22.1674 24.8764C21.9433 24.9796 21.699 25.0318 21.4522 25.029Z" fill="#2C99AF"/>
</svg>
