<svg width="35" height="34" viewBox="0 0 35 34" fill="none" xmlns="http://www.w3.org/2000/svg">
<path d="M5.2309 23.707C5.02581 23.7071 4.82507 23.6479 4.65291 23.5364C4.48076 23.4249 4.34454 23.266 4.26071 23.0788C3.24633 20.8134 2.81501 18.3301 3.00603 15.8552C3.19706 13.3804 4.00437 10.9927 5.3544 8.90974C6.70442 6.82678 8.55424 5.11477 10.7353 3.92971C12.9163 2.74466 15.3593 2.12424 17.8415 2.125C18.1232 2.125 18.3935 2.23694 18.5928 2.4362C18.792 2.63546 18.904 2.90571 18.904 3.1875V17C18.904 17.2052 18.8446 17.406 18.733 17.5781C18.6214 17.7503 18.4624 17.8865 18.2751 17.9702L5.66454 23.6114C5.52838 23.6736 5.38058 23.7062 5.2309 23.707Z" fill="url(#paint0_linear_34_772)"/>
<path d="M21.6665 4.52769C21.5895 4.51207 21.5099 4.51373 21.4336 4.53257C21.3573 4.55141 21.2861 4.58695 21.2252 4.63662C21.1643 4.6863 21.1152 4.74887 21.0813 4.81984C21.0475 4.8908 21.0299 4.96838 21.0297 5.04699V17.0001C21.0292 17.6153 20.8509 18.2172 20.5163 18.7335C20.1817 19.2497 19.7051 19.6583 19.1438 19.91L7.69067 25.0353C7.61968 25.067 7.55651 25.1138 7.50562 25.1726C7.45473 25.2314 7.41736 25.3006 7.39614 25.3754C7.37492 25.4502 7.37038 25.5287 7.38284 25.6055C7.39529 25.6822 7.42443 25.7553 7.46821 25.8195C8.34472 27.1086 9.43271 28.2404 10.6863 29.1671C13.0613 30.9338 15.9446 31.8839 18.9047 31.8751C26.5208 31.8751 32.7172 25.6787 32.7172 18.0626C32.7172 11.3921 27.9638 5.81066 21.6665 4.52769V4.52769Z" fill="url(#paint1_linear_34_772)"/>
<defs>
<linearGradient id="paint0_linear_34_772" x1="10.9329" y1="2.125" x2="10.9329" y2="23.707" gradientUnits="userSpaceOnUse">
<stop stop-color="#375C63"/>
<stop offset="1" stop-color="#6C969E"/>
</linearGradient>
<linearGradient id="paint1_linear_34_772" x1="20.0466" y1="4.51709" x2="20.0466" y2="31.8752" gradientUnits="userSpaceOnUse">
<stop stop-color="#375C63"/>
<stop offset="1" stop-color="#6C969E"/>
</linearGradient>
</defs>
</svg>
