<svg width="30" height="30" viewBox="0 0 30 30" fill="none" xmlns="http://www.w3.org/2000/svg">
<path d="M0.341797 14.6376C0.341797 11.7765 1.19021 8.97968 2.77976 6.60076C4.3693 4.22184 6.62858 2.36769 9.2719 1.2728C11.9152 0.177899 14.8238 -0.108576 17.63 0.449597C20.4361 1.00777 23.0137 2.38552 25.0368 4.40863C27.0599 6.43174 28.4377 9.00933 28.9958 11.8155C29.554 14.6216 29.2675 17.5302 28.1726 20.1735C27.0777 22.8169 25.2236 25.0761 22.8447 26.6657C20.4658 28.2552 17.6689 29.1036 14.8078 29.1036C10.9725 29.0994 7.29545 27.5739 4.58347 24.862C1.87148 22.15 0.346032 18.473 0.341797 14.6376H0.341797ZM2.0198 14.6376C2.0196 17.1671 2.76952 19.6399 4.17472 21.7432C5.57991 23.8465 7.57727 25.4858 9.9142 26.4539C12.2511 27.422 14.8226 27.6754 17.3036 27.1819C19.7845 26.6885 22.0634 25.4705 23.852 23.6818C25.6406 21.8932 26.8587 19.6143 27.3521 17.1334C27.8455 14.6525 27.5922 12.081 26.6241 9.74404C25.656 7.40711 24.0167 5.40975 21.9134 4.00456C19.8101 2.59936 17.3373 1.84944 14.8078 1.84964C11.4172 1.85281 8.16635 3.20114 5.76882 5.59867C3.3713 7.99619 2.02297 11.247 2.0198 14.6376ZM11.2198 20.2136C11.1018 20.1462 11.0039 20.0487 10.9361 19.9309C10.8682 19.8132 10.8329 19.6795 10.8338 19.5436V9.73064C10.8333 9.59509 10.8689 9.46186 10.9368 9.34456C11.0047 9.22727 11.1026 9.13013 11.2204 9.06309C11.3382 8.99605 11.4717 8.96152 11.6073 8.96302C11.7428 8.96452 11.8755 9.002 11.9918 9.07164L20.1148 13.9796C20.228 14.0486 20.3215 14.1456 20.3864 14.2612C20.4513 14.3768 20.4854 14.5071 20.4854 14.6396C20.4854 14.7722 20.4513 14.9025 20.3864 15.0181C20.3215 15.1337 20.228 15.2306 20.1148 15.2996L11.9918 20.2046C11.8755 20.2745 11.7427 20.3121 11.607 20.3137C11.4714 20.3153 11.3377 20.2807 11.2198 20.2136Z" fill="#2B99AF"/>
</svg>
