<svg width="20" height="20" viewBox="0 0 20 20" fill="none" xmlns="http://www.w3.org/2000/svg">
<path d="M10.0004 14.75C10.2172 14.75 10.4048 14.6708 10.5632 14.5124C10.7216 14.354 10.8008 14.1668 10.8008 13.9508V10.8008H13.9748C14.1748 10.8008 14.354 10.7256 14.5124 10.5752C14.6708 10.4256 14.75 10.234 14.75 10.0004C14.75 9.7836 14.6708 9.596 14.5124 9.4376C14.354 9.2792 14.1668 9.2 13.9508 9.2H10.8008V6.026C10.8008 5.826 10.7256 5.6468 10.5752 5.4884C10.4256 5.33 10.234 5.2508 10.0004 5.2508C9.7836 5.2508 9.596 5.33 9.4376 5.4884C9.2792 5.6468 9.2 5.834 9.2 6.05V9.2H6.026C5.826 9.2 5.6468 9.2752 5.4884 9.4256C5.33 9.5752 5.2508 9.7668 5.2508 10.0004C5.2508 10.2172 5.33 10.4048 5.4884 10.5632C5.6468 10.7216 5.834 10.8008 6.05 10.8008H9.2V13.9748C9.2 14.1748 9.2752 14.354 9.4256 14.5124C9.5752 14.6708 9.7668 14.75 10.0004 14.75ZM10.0004 19.5008C8.6836 19.5008 7.446 19.2508 6.2876 18.7508C5.1292 18.2508 4.1252 17.5756 3.2756 16.7252C2.4252 15.8756 1.75 14.8716 1.25 13.7132C0.75 12.5548 0.5 11.3172 0.5 10.0004C0.5 8.6836 0.75 7.446 1.25 6.2876C1.75 5.1292 2.4252 4.1252 3.2756 3.2756C4.1252 2.4252 5.1292 1.75 6.2876 1.25C7.446 0.75 8.6836 0.5 10.0004 0.5C11.3172 0.5 12.5548 0.75 13.7132 1.25C14.8716 1.75 15.8756 2.4252 16.7252 3.2756C17.5756 4.1252 18.2508 5.1292 18.7508 6.2876C19.2508 7.446 19.5008 8.6836 19.5008 10.0004C19.5008 11.3172 19.2508 12.5548 18.7508 13.7132C18.2508 14.8716 17.5756 15.8756 16.7252 16.7252C15.8756 17.5756 14.8716 18.2508 13.7132 18.7508C12.5548 19.2508 11.3172 19.5008 10.0004 19.5008Z" fill="white"/>
</svg>