<svg width="26" height="32" viewBox="0 0 26 32" fill="none" xmlns="http://www.w3.org/2000/svg">
<path d="M5.1151 0.64502H21.2535C22.4758 0.646343 23.6476 1.10391 24.5119 1.91735C25.3762 2.73078 25.8624 3.83365 25.8638 4.98402V26.684C25.8624 27.8344 25.3762 28.9373 24.5119 29.7507C23.6476 30.5641 22.4758 31.0217 21.2535 31.023H5.1151C3.89246 31.0217 2.72033 30.5639 1.85599 29.75C0.991648 28.9361 0.505726 27.8327 0.504883 26.682V4.98202C0.506851 3.832 0.993269 2.72964 1.85749 1.91664C2.72171 1.10363 3.8932 0.646342 5.1151 0.64502ZM21.2535 28.851C21.8649 28.8505 22.451 28.6217 22.8832 28.2149C23.3155 27.808 23.5586 27.2564 23.5592 26.681V4.98102C23.5586 4.40566 23.3155 3.85402 22.8832 3.44718C22.451 3.04034 21.8649 2.81155 21.2535 2.81102H5.1151C4.50378 2.81155 3.91766 3.04034 3.48539 3.44718C3.05312 3.85402 2.81002 4.40566 2.80946 4.98102V26.681C2.81002 27.2564 3.05312 27.808 3.48539 28.2149C3.91766 28.6217 4.50378 28.8505 5.1151 28.851H21.2535Z" fill="#2B99AF"/>
<path d="M12.4637 17.9352H6.70068C6.39493 17.9352 6.10171 17.8208 5.88551 17.6173C5.66932 17.4139 5.54785 17.1379 5.54785 16.8501C5.54785 16.5624 5.66932 16.2864 5.88551 16.0829C6.10171 15.8794 6.39493 15.7651 6.70068 15.7651H12.4637C12.7695 15.7651 13.0627 15.8794 13.2789 16.0829C13.4951 16.2864 13.6165 16.5624 13.6165 16.8501C13.6165 17.1379 13.4951 17.4139 13.2789 17.6173C13.0627 17.8208 12.7695 17.9352 12.4637 17.9352Z" fill="#2B99AF"/>
<path d="M19.6681 13.1891H6.70555C6.3998 13.1891 6.10657 13.0747 5.89038 12.8712C5.67418 12.6678 5.55273 12.3918 5.55273 12.104C5.55273 11.8163 5.67418 11.5403 5.89038 11.3368C6.10657 11.1333 6.3998 11.019 6.70555 11.019H19.6681C19.9739 11.019 20.2671 11.1333 20.4833 11.3368C20.6995 11.5403 20.821 11.8163 20.821 12.104C20.821 12.3918 20.6995 12.6678 20.4833 12.8712C20.2671 13.0747 19.9739 13.1891 19.6681 13.1891Z" fill="#2B99AF"/>
<path d="M19.6681 8.44296H6.70555C6.3998 8.44296 6.10657 8.32863 5.89038 8.12515C5.67418 7.92168 5.55273 7.6457 5.55273 7.35794C5.55273 7.07018 5.67418 6.79421 5.89038 6.59073C6.10657 6.38725 6.3998 6.27295 6.70555 6.27295H19.6681C19.9739 6.27295 20.2671 6.38725 20.4833 6.59073C20.6995 6.79421 20.821 7.07018 20.821 7.35794C20.821 7.6457 20.6995 7.92168 20.4833 8.12515C20.2671 8.32863 19.9739 8.44296 19.6681 8.44296Z" fill="#2B99AF"/>
</svg>
