<svg width="25" height="31" viewBox="0 0 25 31" fill="none" xmlns="http://www.w3.org/2000/svg">
<path d="M4.88685 0.137451H20.0759C21.2262 0.138775 22.3291 0.596343 23.1425 1.40978C23.956 2.22321 24.4135 3.32608 24.4149 4.47645V26.1765C24.4135 27.3268 23.956 28.4297 23.1425 29.2431C22.3291 30.0566 21.2262 30.5141 20.0759 30.5155H4.88685C3.73614 30.5141 2.63296 30.0563 1.81947 29.2424C1.00598 28.4286 0.548645 27.3252 0.547852 26.1744V4.47445C0.549704 3.32443 1.00751 2.22207 1.82088 1.40907C2.63426 0.596067 3.73683 0.138773 4.88685 0.137451ZM20.0759 28.3435C20.6512 28.3429 21.2028 28.1141 21.6097 27.7073C22.0165 27.3004 22.2453 26.7488 22.2459 26.1735V4.47345C22.2453 3.89809 22.0165 3.34645 21.6097 2.93961C21.2028 2.53278 20.6512 2.30398 20.0759 2.30345H4.88685C4.31149 2.30398 3.75985 2.53278 3.35301 2.93961C2.94618 3.34645 2.71738 3.89809 2.71685 4.47345V26.1735C2.71738 26.7488 2.94618 27.3004 3.35301 27.7073C3.75985 28.1141 4.31149 28.3429 4.88685 28.3435H20.0759Z" fill="white"/>
<path d="M11.8029 17.4276H6.37895C6.09119 17.4276 5.81522 17.3132 5.61174 17.1098C5.40826 16.9063 5.29395 16.6303 5.29395 16.3426C5.29395 16.0548 5.40826 15.7788 5.61174 15.5753C5.81522 15.3719 6.09119 15.2576 6.37895 15.2576H11.8029C12.0907 15.2576 12.3667 15.3719 12.5702 15.5753C12.7736 15.7788 12.8879 16.0548 12.8879 16.3426C12.8879 16.6303 12.7736 16.9063 12.5702 17.1098C12.3667 17.3132 12.0907 17.4276 11.8029 17.4276Z" fill="white"/>
<path d="M18.5838 12.6815H6.38382C6.09606 12.6815 5.82008 12.5672 5.61661 12.3637C5.41313 12.1602 5.29883 11.8842 5.29883 11.5965C5.29883 11.3087 5.41313 11.0327 5.61661 10.8293C5.82008 10.6258 6.09606 10.5115 6.38382 10.5115H18.5838C18.8716 10.5115 19.1476 10.6258 19.351 10.8293C19.5545 11.0327 19.6688 11.3087 19.6688 11.5965C19.6688 11.8842 19.5545 12.1602 19.351 12.3637C19.1476 12.5672 18.8716 12.6815 18.5838 12.6815Z" fill="white"/>
<path d="M18.5838 7.93539H6.38382C6.09606 7.93539 5.82008 7.82106 5.61661 7.61758C5.41313 7.41411 5.29883 7.13813 5.29883 6.85037C5.29883 6.56261 5.41313 6.28664 5.61661 6.08316C5.82008 5.87968 6.09606 5.76538 6.38382 5.76538H18.5838C18.8716 5.76538 19.1476 5.87968 19.351 6.08316C19.5545 6.28664 19.6688 6.56261 19.6688 6.85037C19.6688 7.13813 19.5545 7.41411 19.351 7.61758C19.1476 7.82106 18.8716 7.93539 18.5838 7.93539Z" fill="white"/>
</svg>
