<svg width="46" height="41" viewBox="0 0 46 41" fill="none" xmlns="http://www.w3.org/2000/svg">
<path d="M5.5 35.25V38.0625C5.5 38.7708 5.26042 39.3542 4.78125 39.8125C4.30208 40.2709 3.70833 40.5 3 40.5C2.29167 40.5 1.69792 40.2604 1.21875 39.7813C0.739583 39.3021 0.5 38.7083 0.5 38V18.375L5.8125 2.375C6.02083 1.79167 6.36458 1.33333 6.84375 1C7.32292 0.666666 7.875 0.5 8.5 0.5H37.5C38.125 0.5 38.6771 0.666666 39.1562 1C39.6354 1.33333 39.9792 1.79167 40.1875 2.375L45.5 18.375V38C45.5 38.7083 45.2604 39.3021 44.7812 39.7813C44.3021 40.2604 43.7083 40.5 43 40.5C42.2917 40.5 41.6875 40.25 41.1875 39.75C40.6875 39.25 40.4375 38.6458 40.4375 37.9375V35.25H5.5ZM5.6875 14.625H40.3125L36.875 4.25H9.125L5.6875 14.625ZM10.875 28.375C11.8333 28.375 12.6354 28.0417 13.2812 27.375C13.9271 26.7083 14.25 25.9167 14.25 25C14.25 24.0417 13.9271 23.2188 13.2812 22.5313C12.6354 21.8438 11.8333 21.5 10.875 21.5C9.91667 21.5 9.09375 21.8438 8.40625 22.5313C7.71875 23.2188 7.375 24.0417 7.375 25C7.375 25.9583 7.71875 26.7604 8.40625 27.4063C9.09375 28.0521 9.91667 28.375 10.875 28.375ZM35.1875 28.375C36.1458 28.375 36.9687 28.0417 37.6562 27.375C38.3438 26.7083 38.6875 25.9167 38.6875 25C38.6875 24.0417 38.3438 23.2188 37.6562 22.5313C36.9687 21.8438 36.1458 21.5 35.1875 21.5C34.2292 21.5 33.4271 21.8438 32.7812 22.5313C32.1354 23.2188 31.8125 24.0417 31.8125 25C31.8125 25.9583 32.1458 26.7604 32.8125 27.4063C33.4792 28.0521 34.2708 28.375 35.1875 28.375Z" fill="#BB133E"/>
</svg>
