<svg width="25" height="24" viewBox="0 0 25 24" fill="none" xmlns="http://www.w3.org/2000/svg">
<path d="M10.425 0.072998C12.388 0.072998 14.3069 0.65509 15.939 1.74566C17.5712 2.83624 18.8433 4.38631 19.5945 6.19986C20.3457 8.01342 20.5423 10.009 20.1593 11.9343C19.7763 13.8595 18.8311 15.628 17.443 17.016C16.055 18.4041 14.2865 19.3493 12.3613 19.7323C10.436 20.1152 8.44042 19.9187 6.62687 19.1675C4.81331 18.4163 3.26324 17.1442 2.17266 15.512C1.08209 13.8799 0.5 11.961 0.5 9.998C0.503176 7.3667 1.54986 4.84408 3.41047 2.98347C5.27108 1.12286 7.7937 0.0761737 10.425 0.072998ZM10.425 18.088C12.5706 18.088 14.6283 17.2357 16.1455 15.7185C17.6627 14.2013 18.515 12.1436 18.515 9.998C18.515 7.8524 17.6627 5.79467 16.1455 4.2775C14.6283 2.76033 12.5706 1.908 10.425 1.908C8.2794 1.908 6.22168 2.76033 4.70451 4.2775C3.18734 5.79467 2.335 7.8524 2.335 9.998C2.335 12.1436 3.18734 14.2013 4.70451 15.7185C6.22168 17.2357 8.2794 18.088 10.425 18.088Z" fill="#2C99AF"/>
<path d="M23.4377 23.927C23.3172 23.9271 23.1978 23.9034 23.0864 23.8573C22.975 23.8111 22.8739 23.7434 22.7888 23.658L16.4977 17.367C16.3254 17.1946 16.2285 16.9608 16.2285 16.717C16.2285 16.4732 16.3254 16.2394 16.4977 16.067C16.6701 15.8946 16.9039 15.7978 17.1477 15.7978C17.3915 15.7978 17.6253 15.8946 17.7977 16.067L24.0887 22.358C24.2172 22.4862 24.3048 22.6497 24.3402 22.8278C24.3757 23.0058 24.3576 23.1904 24.2881 23.3581C24.2186 23.5258 24.1008 23.6691 23.9498 23.7698C23.7988 23.8706 23.6213 23.9242 23.4398 23.924L23.4377 23.927Z" fill="#2C99AF"/>
</svg>
