<svg width="56" height="56" viewBox="0 0 56 56" fill="none" xmlns="http://www.w3.org/2000/svg">
<path d="M44.1562 9C42.8672 9 41.8125 10.875 41.8125 13.1667V42.3333C41.8125 44.625 42.8672 46.5 44.1562 46.5C45.4453 46.5 46.5 44.625 46.5 42.3333V13.1667C46.5 10.875 45.4453 9 44.1562 9Z" fill="#8F8F8F"/>
<path d="M11.3438 46.5C12.6328 46.5 13.6875 45.4453 13.6875 44.1562V11.3438C13.6875 10.0547 12.6328 9 11.3438 9C10.0547 9 9 10.0547 9 11.3438V44.1562C9 45.4453 10.0547 46.5 11.3438 46.5Z" fill="#8F8F8F"/>
<path d="M28.823 15.5195H22.3149C20.8203 15.5195 19.5975 16.7424 19.5975 18.2369V37.2587C19.5975 38.7532 20.8203 39.9761 22.3149 39.9761C23.8094 39.9761 25.0323 38.7532 25.0323 37.2587V31.8239H29.1083C33.9589 31.8239 37.8312 27.5712 37.1926 22.5983C36.6627 18.4951 32.967 15.5195 28.823 15.5195ZM29.3801 26.3891H25.0323V20.9543H29.3801C30.8746 20.9543 32.0975 22.1771 32.0975 23.6717C32.0975 25.1663 30.8746 26.3891 29.3801 26.3891Z" fill="#8F8F8F"/>
</svg>
