<svg width="28" height="28" viewBox="0 0 28 28" fill="none" xmlns="http://www.w3.org/2000/svg">
<path d="M7.02474 7.87505C6.90118 7.87511 6.77882 7.85075 6.6647 7.80339C6.55058 7.75603 6.44694 7.68658 6.35974 7.59904L4.35974 5.59904C4.19319 5.42072 4.10242 5.18466 4.10658 4.94069C4.11075 4.69672 4.20952 4.4639 4.38206 4.29136C4.5546 4.11882 4.78741 4.02005 5.03139 4.01588C5.27536 4.01172 5.51142 4.10249 5.68974 4.26904L7.68974 6.26904C7.82119 6.40064 7.91069 6.56824 7.94693 6.75068C7.98317 6.93311 7.96454 7.12219 7.89338 7.29404C7.82222 7.46589 7.70173 7.6128 7.54713 7.71621C7.39252 7.81962 7.21074 7.87489 7.02474 7.87505Z" fill="white"/>
<path d="M13.0102 4.83852C12.9228 4.75105 12.8536 4.64717 12.8065 4.53286C12.7595 4.41854 12.7354 4.29605 12.7359 4.17242L12.7359 1.344C12.7474 1.1018 12.852 0.873417 13.0279 0.706467C13.2037 0.539517 13.4372 0.446886 13.6797 0.447889C13.9221 0.448892 14.1549 0.543452 14.3293 0.711851C14.5038 0.880251 14.6065 1.10949 14.616 1.35177L14.616 4.1802C14.6159 4.3662 14.5607 4.548 14.4573 4.70262C14.354 4.85725 14.2071 4.97778 14.0353 5.04898C13.8634 5.12018 13.6743 5.13886 13.4919 5.10266C13.3095 5.06646 13.1418 4.977 13.0102 4.84559V4.83852Z" fill="white"/>
<path d="M13.0102 26.4785C12.9228 26.3911 12.8536 26.2872 12.8065 26.1729C12.7595 26.0586 12.7354 25.9361 12.7359 25.8124L12.7359 22.984C12.7474 22.7418 12.852 22.5134 13.0279 22.3465C13.2037 22.1795 13.4372 22.0869 13.6797 22.0879C13.9221 22.0889 14.1549 22.1835 14.3293 22.3519C14.5038 22.5203 14.6065 22.7495 14.616 22.9918L14.616 25.8202C14.6159 26.0062 14.5607 26.188 14.4573 26.3426C14.354 26.4973 14.2071 26.6178 14.0353 26.689C13.8634 26.7602 13.6743 26.7789 13.4919 26.7427C13.3095 26.7065 13.1418 26.617 13.0102 26.4856V26.4785Z" fill="white"/>
<path d="M26.5695 14.2474C26.482 14.3347 26.3781 14.4039 26.2638 14.451C26.1495 14.4981 26.027 14.5221 25.9034 14.5217L23.075 14.5217C22.8328 14.5101 22.6044 14.4055 22.4374 14.2297C22.2705 14.0539 22.1778 13.8204 22.1788 13.5779C22.1798 13.3354 22.2744 13.1027 22.4428 12.9282C22.6112 12.7538 22.8404 12.6511 23.0827 12.6415L25.9112 12.6415C26.0972 12.6416 26.279 12.6969 26.4336 12.8002C26.5882 12.9036 26.7087 13.0505 26.7799 13.2223C26.8511 13.3941 26.8698 13.5832 26.8336 13.7657C26.7974 13.9481 26.708 14.1157 26.5765 14.2474H26.5695Z" fill="white"/>
<path d="M4.81752 14.2474C4.73005 14.3347 4.62617 14.4039 4.51186 14.451C4.39755 14.4981 4.27506 14.5221 4.15143 14.5217L1.323 14.5217C1.0808 14.5101 0.852421 14.4055 0.685471 14.2297C0.518521 14.0539 0.42589 13.8204 0.426893 13.5779C0.427896 13.3354 0.522455 13.1027 0.690855 12.9282C0.859254 12.7538 1.08849 12.6511 1.33078 12.6415L4.1592 12.6415C4.3452 12.6416 4.527 12.6969 4.68163 12.8002C4.83626 12.9036 4.95678 13.0505 5.02798 13.2223C5.09918 13.3941 5.11786 13.5832 5.08166 13.7657C5.04546 13.9481 4.95601 14.1157 4.82459 14.2474H4.81752Z" fill="white"/>
<path d="M22.3138 23.165C22.1902 23.165 22.0679 23.1407 21.9538 23.0933C21.8396 23.0459 21.736 22.9765 21.6488 22.889L19.6488 20.889C19.4823 20.7106 19.3915 20.4746 19.3956 20.2306C19.3998 19.9866 19.4986 19.7538 19.6711 19.5813C19.8437 19.4087 20.0765 19.31 20.3204 19.3058C20.5644 19.3016 20.8005 19.3924 20.9788 19.559L22.9788 21.559C23.1103 21.6906 23.1997 21.8582 23.236 22.0406C23.2722 22.223 23.2536 22.4121 23.1824 22.584C23.1113 22.7558 22.9908 22.9027 22.8362 23.0061C22.6816 23.1095 22.4998 23.1648 22.3138 23.165Z" fill="white"/>
<path d="M5.03007 23.1649C5.15356 23.1651 5.27588 23.1409 5.38999 23.0937C5.50411 23.0466 5.60779 22.9773 5.69507 22.8899L7.69507 20.8899C7.78736 20.8037 7.86135 20.6999 7.91265 20.5845C7.96394 20.4691 7.99148 20.3446 7.99364 20.2183C7.99579 20.092 7.97252 19.9666 7.92519 19.8496C7.87786 19.7325 7.80746 19.6261 7.71816 19.5368C7.62887 19.4476 7.52252 19.3771 7.40545 19.3298C7.28838 19.2825 7.16297 19.2592 7.03672 19.2614C6.91046 19.2635 6.78592 19.2911 6.67053 19.3424C6.55515 19.3937 6.45126 19.4677 6.36507 19.5599L4.36507 21.5599C4.23362 21.6915 4.14413 21.8591 4.10788 22.0416C4.07164 22.224 4.09027 22.4131 4.16143 22.5849C4.23259 22.7568 4.35308 22.9037 4.50769 23.0071C4.66229 23.1105 4.84407 23.1658 5.03007 23.1659V23.1649Z" fill="white"/>
<path d="M20.3191 7.87502C20.4426 7.87522 20.5649 7.85102 20.6791 7.80383C20.7932 7.75663 20.8968 7.68738 20.9841 7.60002L22.9841 5.60002C23.0764 5.51383 23.1504 5.40994 23.2017 5.29456C23.253 5.17917 23.2805 5.05463 23.2827 4.92837C23.2849 4.80212 23.2616 4.67671 23.2143 4.55964C23.1669 4.44257 23.0965 4.33622 23.0072 4.24693C22.9179 4.15763 22.8116 4.08723 22.6945 4.0399C22.5774 3.99257 22.452 3.9693 22.3258 3.97145C22.1995 3.97361 22.075 4.00115 21.9596 4.05244C21.8442 4.10374 21.7403 4.17773 21.6541 4.27002L19.6541 6.27002C19.5227 6.40162 19.4332 6.56922 19.3969 6.75166C19.3607 6.93409 19.3793 7.12317 19.4505 7.29502C19.5217 7.46687 19.6421 7.61378 19.7967 7.71719C19.9514 7.82059 20.1331 7.87587 20.3191 7.87602V7.87502Z" fill="white"/>
<path d="M13.6167 7.93896C15.1131 7.94055 16.5477 8.5357 17.6058 9.59381C18.6639 10.6519 19.2591 12.0866 19.2607 13.583C19.2591 15.0794 18.6639 16.514 17.6058 17.5721C16.5477 18.6302 15.1131 19.2254 13.6167 19.227C12.1203 19.2254 10.6856 18.6302 9.6275 17.5721C8.56939 16.514 7.97424 15.0794 7.97266 13.583C7.97424 12.0866 8.56939 10.6519 9.6275 9.59381C10.6856 8.5357 12.1203 7.94055 13.6167 7.93896ZM13.6167 17.345C14.6143 17.3439 15.5709 16.9471 16.2763 16.2416C16.9818 15.5362 17.3786 14.5796 17.3797 13.582C17.3786 12.5843 16.9818 11.6278 16.2763 10.9223C15.5709 10.2168 14.6143 9.82002 13.6167 9.81896C12.619 9.82002 11.6625 10.2168 10.957 10.9223C10.2515 11.6278 9.85471 12.5843 9.85366 13.582C9.85471 14.5796 10.2515 15.5362 10.957 16.2416C11.6625 16.9471 12.619 17.3439 13.6167 17.345Z" fill="white"/>
</svg>
