<svg width="20" height="20" viewBox="0 0 20 20" fill="none" xmlns="http://www.w3.org/2000/svg">
<path d="M10.4443 0C8.55747 0 6.71301 0.559512 5.14416 1.60778C3.57532 2.65605 2.35255 4.14599 1.63049 5.8892C0.908431 7.63241 0.719507 9.55058 1.08761 11.4012C1.45571 13.2517 2.36431 14.9516 3.6985 16.2858C5.0327 17.62 6.73256 18.5286 8.58314 18.8967C10.4337 19.2648 12.3519 19.0759 14.0951 18.3538C15.8383 17.6318 17.3283 16.409 18.3765 14.8401C19.4248 13.2713 19.9843 11.4268 19.9843 9.54C19.9843 7.00984 18.9792 4.5833 17.1901 2.7942C15.401 1.0051 12.9745 0 10.4443 0ZM14.8443 11.008H10.4443C10.2496 11.008 10.0629 10.9307 9.92529 10.793C9.78763 10.6554 9.7103 10.4687 9.7103 10.274V3.674C9.7103 3.47933 9.78763 3.29264 9.92529 3.15498C10.0629 3.01733 10.2496 2.94 10.4443 2.94C10.639 2.94 10.8257 3.01733 10.9633 3.15498C11.101 3.29264 11.1783 3.47933 11.1783 3.674V9.54H14.8473C15.042 9.54 15.2287 9.61733 15.3663 9.75498C15.504 9.89263 15.5813 10.0793 15.5813 10.274C15.5813 10.4687 15.504 10.6554 15.3663 10.793C15.2287 10.9307 15.042 11.008 14.8473 11.008H14.8443Z" fill="#2C99AF"/>
</svg>
