<svg width="56" height="56" viewBox="0 0 56 56" fill="none" xmlns="http://www.w3.org/2000/svg">
<path d="M42 46.668V9.33464C43.2833 9.33464 44.3823 9.79197 45.297 10.7066C46.2101 11.6197 46.6667 12.718 46.6667 14.0013V42.0013C46.6667 43.2846 46.2101 44.3836 45.297 45.2983C44.3823 46.2114 43.2833 46.668 42 46.668ZM11.6667 51.3346C10.3833 51.3346 9.28433 50.8781 8.36967 49.965C7.45656 49.0503 7 47.9513 7 46.668V9.33464C7 8.0513 7.45656 6.9523 8.36967 6.03764C9.28433 5.12452 10.3833 4.66797 11.6667 4.66797H32.6667C33.95 4.66797 35.049 5.12452 35.9637 6.03764C36.8768 6.9523 37.3333 8.0513 37.3333 9.33464V46.668C37.3333 47.9513 36.8768 49.0503 35.9637 49.965C35.049 50.8781 33.95 51.3346 32.6667 51.3346H11.6667ZM51.3333 42.0013V14.0013C52.3056 14.0013 53.1316 14.342 53.8113 15.0233C54.4927 15.7031 54.8333 16.5291 54.8333 17.5013V38.5013C54.8333 39.4735 54.4927 40.2995 53.8113 40.9793C53.1316 41.6606 52.3056 42.0013 51.3333 42.0013Z" fill="#8F8F8F"/>
<circle cx="28.0007" cy="16.3346" r="4.66667" fill="white"/>
<circle cx="16.3333" cy="42.0013" r="2.33333" fill="white"/>
</svg>
