<svg width="31" height="30" viewBox="0 0 31 30" fill="none" xmlns="http://www.w3.org/2000/svg">
<path d="M30.6718 25.884L17.7128 1.81403C17.5046 1.42707 17.1955 1.10372 16.8182 0.878334C16.441 0.652947 16.0098 0.533936 15.5703 0.533936C15.1309 0.533936 14.6997 0.652947 14.3224 0.878334C13.9452 1.10372 13.6361 1.42707 13.4278 1.81403L0.468827 25.884C0.269251 26.2545 0.169154 26.6703 0.178311 27.091C0.187467 27.5117 0.305564 27.9228 0.521069 28.2841C0.736574 28.6455 1.04212 28.9449 1.40787 29.1529C1.77361 29.3609 2.18706 29.4705 2.60783 29.471H28.5328C28.9536 29.4705 29.367 29.3609 29.7328 29.1529C30.0985 28.9449 30.4041 28.6455 30.6196 28.2841C30.8351 27.9228 30.9532 27.5117 30.9623 27.091C30.9715 26.6703 30.8714 26.2545 30.6718 25.884ZM15.5718 25.745C15.271 25.745 14.9769 25.6558 14.7268 25.4887C14.4767 25.3216 14.2817 25.084 14.1666 24.8061C14.0515 24.5282 14.0214 24.2223 14.0801 23.9273C14.1387 23.6323 14.2836 23.3612 14.4963 23.1485C14.709 22.9358 14.9801 22.7909 15.2751 22.7323C15.5701 22.6736 15.876 22.7037 16.1539 22.8188C16.4318 22.9339 16.6694 23.1289 16.8365 23.379C17.0036 23.6291 17.0928 23.9232 17.0928 24.224C17.0918 24.6269 16.9309 25.0129 16.6456 25.2973C16.3602 25.5817 15.9737 25.7413 15.5708 25.741L15.5718 25.745ZM17.2238 10.445L16.7878 19.722C16.7925 19.8847 16.7645 20.0467 16.7054 20.1984C16.6464 20.35 16.5575 20.4883 16.4441 20.605C16.3307 20.7218 16.195 20.8146 16.0451 20.8779C15.8952 20.9413 15.7341 20.9739 15.5713 20.9739C15.4086 20.9739 15.2475 20.9413 15.0976 20.8779C14.9476 20.8146 14.812 20.7218 14.6985 20.605C14.5851 20.4883 14.4963 20.35 14.4372 20.1984C14.3782 20.0467 14.3502 19.8847 14.3548 19.722L13.9188 10.449C13.909 10.2275 13.9439 10.0062 14.0215 9.79836C14.099 9.59056 14.2176 9.4005 14.3702 9.23952C14.5228 9.07854 14.7062 8.94994 14.9096 8.86137C15.1129 8.77281 15.332 8.7261 15.5538 8.72404H15.5698C15.7931 8.72395 16.0141 8.7691 16.2194 8.85676C16.4248 8.94442 16.6102 9.07277 16.7646 9.23407C16.919 9.39537 17.0391 9.58626 17.1177 9.79525C17.1963 10.0042 17.2317 10.227 17.2218 10.45L17.2238 10.445Z" fill="#DE0000"/>
</svg>
